<svg width="55" height="61" viewBox="0 0 55 61" fill="none" xmlns="http://www.w3.org/2000/svg">
<path d="M0.112282 30.8652L18.5265 41.7239V49.9985L0.112282 39.1397V30.8652Z" fill="#E7C683"/>
<path d="M36.8845 30.915L18.5265 41.6609V49.9999L36.8845 39.2537V30.915Z" fill="#83753E"/>
<rect width="21.4547" height="21.4547" transform="matrix(0.862284 -0.506426 0.862284 0.506426 0 30.8652)" fill="#9D9236"/>
<path d="M18.1123 41.8652L36.5265 52.7239V60.9985L18.1123 50.1397V41.8652Z" fill="#E7C683"/>
<path d="M54.8845 41.915L36.5265 52.6609V60.9999L54.8845 50.2537V41.915Z" fill="#83753E"/>
<rect width="21.4547" height="21.4547" transform="matrix(0.862284 -0.506426 0.862284 0.506426 18 41.8652)" fill="#9D9236"/>
<path d="M5.21074 31.9454C4.64691 30.5424 5.13635 29.1993 7.63511 28.2415C7.63511 28.2415 24.1835 22.0446 28.214 28.9711C29.0588 30.4228 30.1996 31.4158 29.6799 33.0117C28.9796 35.1624 25.7903 33.1309 24.0982 34.6392C23.2154 35.4261 22.8579 36.5473 22.3505 37.1085C21.843 37.6697 18.7985 39.271 16.374 38.9604C13.9203 38.6461 11.92 37.3329 11.0179 35.5932C10.1159 33.8535 5.77458 33.3484 5.21074 31.9454Z" fill="#D4AE61"/>
<path d="M26.3024 35.5484C26.7537 35.7693 26.7165 36.1487 26.2101 36.4889C25.6133 36.8897 24.5096 37.03 23.9703 36.7736C23.261 36.4364 25.6029 35.2061 26.3024 35.5484Z" fill="#D4AE61"/>
<path d="M8.0363 35.1845C7.70541 34.9146 7.60445 34.6012 7.78599 34.4077C7.99991 34.1796 8.58944 34.2652 8.98239 34.5814C9.49914 34.9972 8.54905 35.6029 8.0363 35.1845Z" fill="#D4AE61"/>
<path d="M27.5272 34.7295C27.6612 34.9464 27.5553 35.1696 27.2648 35.2829C26.9224 35.4163 26.4326 35.2987 26.2707 35.0442C26.0579 34.7094 27.3197 34.3935 27.5272 34.7295Z" fill="#D4AE61"/>
<path d="M17.3358 25.7598L19.5911 24.862L27.9354 26.4333L30.9237 31.686L17.3358 37.1523L17.3358 25.7598Z" fill="#5C6017"/>
<mask id="mask0" mask-type="alpha" maskUnits="userSpaceOnUse" x="5" y="25" width="25" height="14">
<path d="M5.21074 31.9454C4.64691 30.5424 5.13635 29.1993 7.63511 28.2415C7.63511 28.2415 24.1835 22.0446 28.214 28.9711C29.0588 30.4228 30.1996 31.4158 29.6799 33.0117C28.9796 35.1624 25.7903 33.1309 24.0982 34.6392C23.2154 35.4261 22.8579 36.5473 22.3505 37.1085C21.843 37.6697 18.7985 39.271 16.374 38.9604C13.9203 38.6461 11.92 37.333 11.0179 35.5932C10.1159 33.8535 5.77458 33.3484 5.21074 31.9454Z" fill="#D4AE61"/>
</mask>
<g mask="url(#mask0)">
<path d="M17.3822 25.7179L19.6374 24.82L27.9817 26.3913L30.97 31.644L17.3822 37.1103L17.3822 25.7179Z" fill="#83753E"/>
</g>
<rect width="11.4727" height="11.4727" transform="matrix(0.867044 -0.498231 0.867044 0.498231 7.35656 31.4551)" fill="#A89754"/>
<path d="M17.1218 0L27.4395 9.76486L17.4037 15.5452L17.1218 0Z" fill="#784B00"/>
<path d="M17.1218 0.0556641L7.36798 9.7644L17.4037 15.5448L17.1218 0.0556641Z" fill="#F5A500"/>
<path d="M7.36802 9.76465L17.4038 15.545V37.2073L7.36802 31.4269V9.76465Z" fill="#F9EEE1"/>
<path d="M11.2019 18.8057L13.2315 20.0089V27.2739L11.2019 26.0707V18.8057Z" fill="#08C8C7"/>
<path d="M27.4395 9.76465L17.4037 15.545V37.2073L27.4395 31.4269V9.76465Z" fill="#8F9B92"/>
<path d="M24.2201 42.6304C23.6698 41.206 24.1475 39.8425 26.5862 38.8701C26.5862 38.8701 42.7373 32.579 46.6711 39.6108C47.4956 41.0846 48.609 42.0927 48.1018 43.7129C47.4182 45.8963 44.3056 43.8339 42.6541 45.3651C41.7925 46.164 41.4436 47.3022 40.9483 47.8719C40.453 48.4417 37.4816 50.0673 35.1154 49.7521C32.7206 49.433 30.7683 48.0998 29.8878 46.3337C29.0074 44.5675 24.7704 44.0547 24.2201 42.6304Z" fill="#D4AE61"/>
<path d="M26.5152 42.9994L36.1449 37.7578L46.396 38.3065L49.7526 42.9994L36.1449 48.8677L26.5152 42.9994Z" fill="#5C6017"/>
<mask id="mask1" mask-type="alpha" maskUnits="userSpaceOnUse" x="24" y="37" width="25" height="13">
<path d="M24.2057 42.6556C23.6554 41.2312 24.1331 38.6462 26.5718 37.6738C26.5718 37.6738 45.1854 39.5609 46.396 39.9847C47.6066 40.4086 48.5946 42.1178 48.0874 43.738C47.4038 45.9215 44.2912 43.8591 42.6397 45.3903C41.7781 46.1892 41.4292 47.3274 40.9339 47.8971C40.4386 48.4668 37.4672 50.0925 35.101 49.7772C32.7062 49.4582 30.7539 48.125 29.8735 46.3588C28.9931 44.5927 24.756 44.0799 24.2057 42.6556Z" fill="#D4AE61"/>
</mask>
<g mask="url(#mask1)">
<path d="M26.5152 42.9936L36.1449 37.7519L46.396 38.3006L49.7526 42.9936L36.1449 48.8619L26.5152 42.9936Z" fill="#83753E"/>
</g>
<path d="M44.6841 46.643C45.1246 46.8673 45.0883 47.2524 44.594 47.5978C44.0116 48.0047 42.9344 48.1472 42.408 47.8869C41.7158 47.5446 44.0014 46.2955 44.6841 46.643Z" fill="#D4AE61"/>
<path d="M26.8565 46.2732C26.5336 45.9992 26.435 45.6811 26.6122 45.4846C26.821 45.253 27.3964 45.3399 27.7799 45.6609C28.2842 46.083 27.3569 46.6979 26.8565 46.2732Z" fill="#D4AE61"/>
<path d="M26.4603 32.1113L36.1451 37.9226V48.8615L26.4603 43.0502V32.1113Z" fill="#F9EFE2"/>
<path d="M32.5292 24L42.269 29.8322L36.2001 37.9759L26.4603 32.1435L32.5292 24Z" fill="#F3A400"/>
<path d="M45.8848 32.0898L36.145 37.9221V48.8821L45.8848 43.0497V32.0898Z" fill="#909C93"/>
<path d="M42.3631 37.2393L40.8774 38.1372V43.0875L42.3631 42.1894V37.2393Z" fill="#0092BD"/>
<path d="M42.2689 29.8115L45.8848 32.1116L36.145 37.9229L42.2689 29.8115Z" fill="#909C93"/>
</svg>
