<svg width="22" height="22" viewBox="0 0 22 22" fill="none" xmlns="http://www.w3.org/2000/svg">
<path fill-rule="evenodd" clip-rule="evenodd" d="M12 4.07089C11.6734 4.02417 11.3395 4 11 4C10.6605 4 10.3266 4.02417 10 4.07089V0.044843C10.3294 0.0151626 10.6629 0 11 0C11.3371 0 11.6706 0.0151626 12 0.044843V4.07089ZM6 11C6 13.7614 8.23858 16 11 16C13.7614 16 16 13.7614 16 11C16 8.23858 13.7614 6 11 6C8.23858 6 6 8.23858 6 11ZM14 11C14 12.6569 12.6569 14 11 14C9.34315 14 8 12.6569 8 11C8 9.34315 9.34315 8 11 8C12.6569 8 14 9.34315 14 11ZM12 21.9552V17.9291C11.6734 17.9758 11.3395 18 11 18C10.6605 18 10.3266 17.9758 10 17.9291V21.9552C10.3294 21.9848 10.6629 22 11 22C11.3371 22 11.6706 21.9848 12 21.9552ZM17.9291 10H21.9552C21.9848 10.3294 22 10.6629 22 11C22 11.3371 21.9848 11.6706 21.9552 12H17.9291C17.9758 11.6734 18 11.3395 18 11C18 10.6605 17.9758 10.3266 17.9291 10ZM4 11C4 10.6605 4.02417 10.3266 4.07089 10H0.044843C0.0151626 10.3294 0 10.6629 0 11C0 11.3371 0.0151626 11.6706 0.044843 12H4.07089C4.02417 11.6734 4 11.3395 4 11ZM15.1922 5.39362L18.0391 2.54673C18.5521 2.9744 19.0256 3.44791 19.4533 3.96094L16.6064 6.80783C16.2049 6.27173 15.7283 5.79513 15.1922 5.39362ZM2.54673 3.96094L5.39362 6.80783C5.79513 6.27173 6.27173 5.79513 6.80783 5.39362L3.96094 2.54673C3.44791 2.9744 2.9744 3.44791 2.54673 3.96094ZM16.6064 15.1922L19.4533 18.0391C19.0256 18.5521 18.5521 19.0256 18.0391 19.4533L15.1922 16.6064C15.7283 16.2049 16.2049 15.7283 16.6064 15.1922ZM3.96094 19.4533L6.80783 16.6064C6.27173 16.2049 5.79513 15.7283 5.39362 15.1922L2.54673 18.0391C2.9744 18.5521 3.44791 19.0256 3.96094 19.4533Z" fill="white"/>
</svg>
