<svg width="10" height="10" viewBox="0 0 10 10" fill="none" xmlns="http://www.w3.org/2000/svg">
<circle cx="5" cy="5" r="5" fill="#FAF0DE"/>
<path d="M5.03971 1.90039C5.23014 1.90039 5.39128 1.96777 5.52311 2.10254C5.65495 2.23438 5.72087 2.39404 5.72087 2.58154C5.72087 2.76904 5.65348 2.92871 5.51872 3.06055C5.38688 3.19238 5.22721 3.2583 5.03971 3.2583C4.85221 3.2583 4.69255 3.19238 4.56071 3.06055C4.42887 2.92871 4.36296 2.76904 4.36296 2.58154C4.36296 2.39404 4.42887 2.23438 4.56071 2.10254C4.69255 1.96777 4.85221 1.90039 5.03971 1.90039ZM5.65495 3.89111V7.14746C5.65495 7.4375 5.68864 7.62354 5.75602 7.70557C5.8234 7.78467 5.95524 7.83008 6.15153 7.8418V8H3.93229V7.8418C4.11393 7.83594 4.2487 7.7832 4.33659 7.68359C4.39518 7.61621 4.42448 7.4375 4.42448 7.14746V4.74805C4.42448 4.45801 4.39079 4.27344 4.3234 4.19434C4.25602 4.1123 4.12565 4.06543 3.93229 4.05371V3.89111H5.65495Z" fill="#00AFBD"/>
</svg>
