<svg width="21" height="21" viewBox="0 0 21 21" fill="none" xmlns="http://www.w3.org/2000/svg">
<path fill-rule="evenodd" clip-rule="evenodd" d="M11.375 7.875C11.375 6.14725 12.0929 4.53667 13.3348 3.38419C13.8652 2.89201 13.603 2.00539 12.8902 1.88087C12.393 1.794 11.8866 1.75 11.375 1.75C6.54251 1.75 2.625 5.66751 2.625 10.5C2.625 15.3325 6.54251 19.25 11.375 19.25C14.3372 19.25 17.0487 17.7659 18.6608 15.3471C19.0619 14.7453 18.6012 13.9445 17.8794 13.9885C17.7535 13.9961 17.627 14 17.5 14C14.1173 14 11.375 11.2577 11.375 7.875ZM11.375 17.5C7.50901 17.5 4.375 14.366 4.375 10.5C4.375 6.77942 7.27768 3.7368 10.942 3.51317C10.0946 4.78492 9.625 6.29286 9.625 7.875C9.625 11.7591 12.437 14.9865 16.1362 15.6323C14.8644 16.8134 13.1783 17.5 11.375 17.5Z" fill="white"/>
</svg>
