<svg width="17" height="17" viewBox="0 0 17 11" fill="none" xmlns="http://www.w3.org/2000/svg">
<path d="M3.91598 1.99633L4.84598 2.36387L4.85626 2.33787L4.86507 2.31132L3.91598 1.99633ZM3.18873 2.45449L3.25873 1.45694L3.22377 1.45449H3.18873V2.45449ZM7.37067 2.45449L7.30068 3.45204L7.33563 3.45449H7.37067V2.45449ZM6.64343 2.91266L5.71342 2.54511L5.70315 2.57112L5.69434 2.59766L6.64343 2.91266ZM12.4612 7.8143L11.5122 8.1293L11.521 8.15584L11.5312 8.18185L12.4612 7.8143ZM13.1885 8.27246V7.27246H13.1534L13.1185 7.27492L13.1885 8.27246ZM9.73393 8.73063L10.683 8.41563L10.6742 8.38909L10.6639 8.36308L9.73393 8.73063ZM9.00669 8.27247V9.27247H9.04173L9.07668 9.27001L9.00669 8.27247ZM5.29865 1.01328e-06C4.24017 -0.000960231 3.30031 0.676734 2.96689 1.68133L4.86507 2.31132C4.92681 2.12531 5.10084 1.99982 5.29683 2L5.29865 1.01328e-06ZM2.98597 1.62878C3.02969 1.51815 3.14007 1.44862 3.25873 1.45694L3.11874 3.45204C3.87017 3.50476 4.56912 3.06443 4.84598 2.36387L2.98597 1.62878ZM3.18873 1.45449H0.207031V3.45449H3.18873V1.45449ZM16.2067 1.45449H7.37067V3.45449H16.2067V1.45449ZM7.44067 1.45694C6.68923 1.40422 5.99029 1.84455 5.71342 2.54511L7.57343 3.2802C7.52971 3.39083 7.41934 3.46037 7.30068 3.45204L7.44067 1.45694ZM5.69434 2.59766C5.6326 2.78367 5.45857 2.90916 5.26257 2.90898L5.26076 4.90898C6.31923 4.90994 7.2591 4.23225 7.59252 3.22766L5.69434 2.59766ZM11.0804 7.81797C11.2764 7.8178 11.4504 7.94328 11.5122 8.1293L13.4103 7.4993C13.0769 6.49471 12.137 5.81701 11.0786 5.81798L11.0804 7.81797ZM11.5312 8.18185C11.8081 8.8824 12.507 9.32274 13.2585 9.27001L13.1185 7.27492C13.2372 7.26659 13.3475 7.33612 13.3912 7.44675L11.5312 8.18185ZM13.1885 9.27246H16.2066V7.27246H13.1885V9.27246ZM11.1148 8.72695C10.9188 8.72713 10.7448 8.60165 10.683 8.41563L8.78484 9.04563C9.11826 10.0502 10.0581 10.7279 11.1166 10.727L11.1148 8.72695ZM10.6639 8.36308C10.3871 7.66253 9.68813 7.22219 8.93669 7.27492L9.07668 9.27001C8.95802 9.27834 8.84765 9.20881 8.80393 9.09818L10.6639 8.36308ZM9.00669 7.27247H0.207031V9.27247H9.00669V7.27247Z" fill="white"/>
</svg>
