<svg width="31" height="23" viewBox="0 0 31 23" fill="none" xmlns="http://www.w3.org/2000/svg">
<path d="M23.6937 6.49679L23.1875 11.2216L24.5374 12.6559L23.1875 17.8345L25.6858 17.3859L28.0413 8.74911L26.9842 3.96564L23.6937 6.49679Z" fill="#08C8C7"/>
<path d="M0 7.49667L4.03797 15.3666L6.61778 16.937L4.5988 7.40288L2.91631 4.0379L0 7.49667Z" fill="#08C8C7"/>
<path d="M7.78347 5.75903L2.92188 4.0379L4.60436 7.40288L6.62335 16.937L7.07201 15.591L6.23442 10.1245L8.09061 9.02768L7.78347 5.75903Z" fill="#0092BD"/>
<path d="M19.8183 6.83401L9.6093 7.84648L10.9593 12.1494L18.5527 12.6557L21.8432 10.2089L22.1807 9.36517L19.8183 6.83401Z" fill="#0092BD"/>
<path d="M7.07422 2.86864L9.35226 0L12.0034 2.35548L13.9927 9.78714L13.149 10.7152L9.60537 7.93096L9.09914 8.26844L7.07422 2.86864Z" fill="#08C8C7"/>
<path d="M11.9989 2.35548L9.34766 0L13.8194 0.928091L15.7599 10.209L14.41 9.36528L13.9881 9.78714L11.9989 2.35548Z" fill="#0092BD"/>
<path d="M9.60534 7.93085L6.23047 10.1245L6.61954 17.7221L8.52636 19.8533L11.1062 20.3019L10.8709 12.5713L11.6303 11.812L9.60534 7.93085Z" fill="#08C8C7"/>
<path d="M12.4524 20.1898L11.0398 20.302L10.8711 12.487L11.0398 12.3183L12.4524 20.1898Z" fill="#0092BD"/>
<path d="M14.4139 9.36536L11.0391 12.3184L12.2269 20.7508L15.1799 22.4383L15.7639 14.5964L14.4139 9.36536Z" fill="#08C8C7"/>
<path d="M18.717 11.9807L18.1719 21.3114L21.0794 19.8533V14.09L21.4169 9.8714L18.717 11.9807Z" fill="#08C8C7"/>
<path d="M19.8115 6.83417L17.3648 6.58105L16.0148 7.17166L14.918 8.94347L15.9304 10.6309L18.7147 12.0652V10.3778L17.871 8.01538L19.8115 6.83417Z" fill="#08C8C7"/>
<path d="M18.7131 11.9809L14.4102 9.36536L15.7601 14.5964L15.1312 22.4387L15.7601 22.7698L18.2803 21.8725L18.5322 18.6675L18.7131 11.9809Z" fill="#0092BD"/>
<path d="M15.3406 2.27809L14.75 5.39985L15.2562 7.76226H15.425L17.703 6.58106L18.2936 4.30301L18.7825 1.12549L15.3406 2.27809Z" fill="#08C8C7"/>
<path d="M21.5022 3.4593L18.785 1.12549L18.2961 4.30301L17.6211 6.66543L19.8148 6.83417L20.8272 8.09975L21.5022 3.4593Z" fill="#0092BD"/>
<path d="M30.6228 8.07612L26.9857 3.96564L28.043 8.74911L25.6875 17.3859L27.5943 15.3669L30.6228 8.07612Z" fill="#0092BD"/>
<path d="M24.7905 12.4026L21.4156 9.8714L21.0781 13.9212V19.8533L22.9937 18.5073L24.7905 12.4026Z" fill="#0092BD"/>
<path d="M21.8351 5.65295L20.7383 6.58104V7.84662L22.1726 9.44969L21.6664 10.1247L22.8476 10.9684L23.0163 7.59351L21.8351 5.65295Z" fill="#08C8C7"/>
<path d="M23.696 6.74979L21.8398 5.65295L23.0211 7.59351L22.6836 10.9684L23.1898 11.2215L23.696 6.74979Z" fill="#0092BD"/>
<path d="M7.68192 2.75042L9.28331 0.558418L8.25442 2.66525L7.68192 2.75042Z" fill="#F8EEE1"/>
<path d="M7.66687 3.28722L9.27618 7.97793L8.2468 3.57236L7.66687 3.28722Z" fill="#F8EEE1"/>
<path d="M15.5543 2.40512L18.4857 1.36704L16.1961 2.63141L15.5543 2.40512Z" fill="#F8EEE1"/>
<path d="M20.8123 6.6797L21.7419 5.90103L21.1466 6.69467L20.8123 6.6797Z" fill="#F8EEE1"/>
<path d="M18.9801 12.1217L20.9909 10.4641L19.5658 12.1214L18.9801 12.1217Z" fill="#F8EEE1"/>
<path d="M0.660737 7.38336L2.62262 4.97059L1.32649 7.24232L0.660737 7.38336Z" fill="#F8EEE1"/>
<path d="M0.662946 7.83154L3.30843 12.567L1.32081 7.9676L0.662946 7.83154Z" fill="#F8EEE1"/>
<path d="M24.1616 6.45694L26.6333 4.56983L24.8418 6.47548L24.1616 6.45694Z" fill="#F8EEE1"/>
<path d="M24.1616 6.45694L26.6333 4.56983L24.8418 6.47548L24.1616 6.45694Z" fill="#F8EEE1"/>
<path d="M24.0325 6.91923L23.6666 11.634L24.4348 7.32805L24.0325 6.91923Z" fill="#F8EEE1"/>
<path d="M6.9034 10.1711L9.17483 8.6845L7.46917 10.2932L6.9034 10.1711Z" fill="#F8EEE1"/>
<path d="M15.8832 7.71343L17.919 6.85967L16.2475 7.81893L15.8832 7.71343Z" fill="#F8EEE1"/>
<path d="M6.69951 10.6681L6.69944 14.53L7.15067 11.0727L6.69951 10.6681Z" fill="#F8EEE1"/>
<path d="M15.845 7.82769L15.2535 9.21641L15.9684 8.07282L15.845 7.82769Z" fill="#F8EEE1"/>
<path d="M11.3246 12.33L13.3455 10.5173L11.9024 12.3653L11.3246 12.33Z" fill="#F8EEE1"/>
<path d="M11.3374 12.2965L12.3051 16.8441L11.8628 12.3415L11.3374 12.2965Z" fill="#F8EEE1"/>
</svg>
