<svg width="22" height="16" viewBox="0 0 22 16" fill="none" xmlns="http://www.w3.org/2000/svg">
<path d="M0.00195312 7.96631C1.23729 8.32424 1.89427 8.68942 2.9968 9.66086V11.5113L0.00195313 9.81678L0.00195312 7.96631Z" fill="#D4AE62"/>
<path d="M9.64453 5.88422L2.99744 9.68535V11.9891L3.65485 11.6697L9.64453 8.63838V5.88422Z" fill="#794E00"/>
<path d="M0.00195312 7.96869L6.649 4.15128C7.81776 4.46253 8.49397 4.82418 9.64388 5.88691L3.0154 9.70081C1.95766 8.81595 1.28937 8.46116 0.00195312 7.96869Z" fill="#B38300"/>
<path d="M13.0762 7.78601L6.42908 11.4963V13.9247L13.0031 10.0992L13.0762 7.78601Z" fill="#794E00"/>
<path d="M3.43359 9.96753C4.66893 10.3255 5.32591 10.6906 6.42844 11.6621V13.447L3.43359 11.7524L3.43359 9.96753Z" fill="#D4AE62"/>
<path d="M6.43164 13.9294C5.19631 13.5715 4.53933 13.2063 3.4368 12.2349V10.45L6.43164 12.1445V13.9294Z" fill="#D4AE62"/>
<path d="M2.99414 12.0082C1.75881 11.6503 1.10183 11.2851 -0.000701904 10.3137V8.52876L2.99414 10.2233L2.99414 12.0082Z" fill="#D4AE62"/>
<path d="M3.43359 9.96991L10.0806 6.1525C11.2283 6.41393 11.8672 6.70719 13.0755 7.78605L6.44704 11.702C5.3893 10.8172 4.72101 10.4624 3.43359 9.96991Z" fill="#B38300"/>
<path d="M17.6474 2.91946L17.4199 5.04264L18.0265 5.68718L17.4199 8.01427L18.5426 7.81266L19.6011 3.93158L19.126 1.78204L17.6474 2.91946Z" fill="#08C8C7"/>
<path d="M7 3.36877L8.81453 6.90528L9.97381 7.61093L9.06655 3.32662L8.31049 1.81451L7 3.36877Z" fill="#08C8C7"/>
<path d="M10.4971 2.58793L8.3125 1.81451L9.06855 3.32662L9.97582 7.61093L10.1774 7.00609L9.80105 4.54964L10.6352 4.05676L10.4971 2.58793Z" fill="#0092BD"/>
<path d="M15.9052 3.07099L11.3176 3.52596L11.9242 5.45957L15.3365 5.68706L16.8151 4.58755L16.9668 4.20841L15.9052 3.07099Z" fill="#0092BD"/>
<path d="M10.1777 1.28907L11.2014 0L12.3927 1.05848L13.2867 4.39802L12.9075 4.81507L11.3152 3.56391L11.0877 3.71557L10.1777 1.28907Z" fill="#08C8C7"/>
<path d="M12.3925 1.05848L11.2012 0L13.2106 0.417053L14.0826 4.58759L13.476 4.20845L13.2864 4.39802L12.3925 1.05848Z" fill="#0092BD"/>
<path d="M11.3173 3.56384L9.80078 4.54961L9.97562 7.96372L10.8325 8.92139L11.9918 9.12301L11.886 5.64911L12.2273 5.30788L11.3173 3.56384Z" fill="#08C8C7"/>
<path d="M12.5953 9.07267L11.9606 9.12308L11.8848 5.61129L11.9606 5.53546L12.5953 9.07267Z" fill="#0092BD"/>
<path d="M13.4775 4.2085L11.9609 5.53548L12.4947 9.32476L13.8217 10.083L14.0841 6.55916L13.4775 4.2085Z" fill="#08C8C7"/>
<path d="M15.411 5.3837L15.166 9.57663L16.4726 8.92138V6.33155L16.6242 4.43585L15.411 5.3837Z" fill="#08C8C7"/>
<path d="M15.9041 3.07108L14.8046 2.95734L14.198 3.22273L13.7051 4.01893L14.16 4.77721L15.4112 5.42174V4.66346L15.0321 3.60187L15.9041 3.07108Z" fill="#08C8C7"/>
<path d="M15.4102 5.38383L13.4766 4.2085L14.0832 6.55916L13.8006 10.0832L14.0832 10.232L15.2157 9.82879L15.3289 8.38859L15.4102 5.38383Z" fill="#0092BD"/>
<path d="M13.8943 1.02368L13.6289 2.42649L13.8564 3.48809H13.9322L14.9559 2.95729L15.2213 1.93361L15.441 0.505737L13.8943 1.02368Z" fill="#08C8C7"/>
<path d="M16.662 1.55447L15.441 0.505737L15.2213 1.93361L14.918 2.9952L15.9037 3.07103L16.3587 3.63974L16.662 1.55447Z" fill="#0092BD"/>
<path d="M20.7607 3.62916L19.1264 1.78204L19.6014 3.93158L18.543 7.81266L19.3998 6.90539L20.7607 3.62916Z" fill="#0092BD"/>
<path d="M18.1409 5.57327L16.6243 4.43585L16.4727 6.25572V8.92138L17.3335 8.31654L18.1409 5.57327Z" fill="#0092BD"/>
<path d="M16.8112 2.54022L16.3184 2.95728V3.52598L16.9629 4.24635L16.7354 4.54966L17.2662 4.9288L17.342 3.41224L16.8112 2.54022Z" fill="#08C8C7"/>
<path d="M17.6466 3.0331L16.8125 2.54022L17.3433 3.41224L17.1916 4.9288L17.4191 5.04254L17.6466 3.0331Z" fill="#0092BD"/>
<path d="M10.452 1.23594L11.1716 0.25093L10.7092 1.19767L10.452 1.23594Z" fill="#F8EEE1"/>
<path d="M10.4447 1.47719L11.1679 3.58504L10.7053 1.60532L10.4447 1.47719Z" fill="#F8EEE1"/>
<path d="M13.9906 1.08079L15.3078 0.614308L14.279 1.18248L13.9906 1.08079Z" fill="#F8EEE1"/>
<path d="M16.3523 3.00162L16.77 2.65171L16.5025 3.00835L16.3523 3.00162Z" fill="#F8EEE1"/>
<path d="M15.5296 5.44707L16.4332 4.70221L15.7928 5.44691L15.5296 5.44707Z" fill="#F8EEE1"/>
<path d="M7.29694 3.31782L8.17854 2.2336L7.59611 3.25444L7.29694 3.31782Z" fill="#F8EEE1"/>
<path d="M7.29825 3.51922L8.48705 5.64716L7.59387 3.58036L7.29825 3.51922Z" fill="#F8EEE1"/>
<path d="M17.8564 2.9015L18.9671 2.05349L18.1621 2.90983L17.8564 2.9015Z" fill="#F8EEE1"/>
<path d="M17.8564 2.9015L18.9671 2.05349L18.1621 2.90983L17.8564 2.9015Z" fill="#F8EEE1"/>
<path d="M17.7976 3.10929L17.6332 5.22797L17.9784 3.293L17.7976 3.10929Z" fill="#F8EEE1"/>
<path d="M10.1025 4.57052L11.1232 3.9025L10.3567 4.62542L10.1025 4.57052Z" fill="#F8EEE1"/>
<path d="M14.1358 3.46615L15.0506 3.0825L14.2995 3.51355L14.1358 3.46615Z" fill="#F8EEE1"/>
<path d="M10.0121 4.79385L10.0121 6.52928L10.2149 4.97566L10.0121 4.79385Z" fill="#F8EEE1"/>
<path d="M14.12 3.51749L13.8542 4.14153L14.1754 3.62764L14.12 3.51749Z" fill="#F8EEE1"/>
<path d="M12.0876 5.54068L12.9957 4.72616L12.3472 5.55655L12.0876 5.54068Z" fill="#F8EEE1"/>
<path d="M12.0945 5.52564L12.5293 7.5692L12.3306 5.54589L12.0945 5.52564Z" fill="#F8EEE1"/>
<path d="M15.9027 7.39099H14.4625L11.738 8.99534L10.5703 10.2084L11.0374 12.791L14.3458 15.9606L17.3077 15.492L17.8231 14.3405L20.729 14.4844L21.0015 12.0084L20.729 10.7562L20.223 9.30838L19.1332 8.83882L17.0314 8.05621L15.9027 7.39099Z" fill="#323D34"/>
<path d="M14.6168 13.7696L14.3443 16L12.3204 14.4272L8.88767 13.7696L8 12.3217L8.46707 10.8739L9.55689 9.93478V8.60435L11.3473 8.01739L12.3204 7L14.1108 7.11739L15.1617 8.01739L14.9671 9.26957L13.6827 9.38696L12.7096 8.60435L12.5539 9.26957L11.2306 10.4826L11.4641 11.3043V12.8304L12.3204 12.4783L13.4491 12.3217L14.6168 13.7696Z" fill="#ABB1AC"/>
<path d="M13.6437 10.0518L12.3203 10.5605L13.6437 11.8518L14.9281 12.1257L15.7844 12.9475L16.991 13.1823L17.4581 12.3997L16.4461 11.2649L17.7694 10.2866L18.5479 11.1084L18.7665 14.3693L20.7423 14.5132L20.1437 13.1823L19.282 12.786L20.1437 10.991L19.5599 9.50401L18.5479 7.89966L16.991 8.01705V9.07357L16.4461 10.0518H14.9281L15.7844 10.8344V11.2649H14.7335L14.461 10.4431L13.6437 10.0518Z" fill="#ABB1AC"/>
</svg>
