<svg width="194" height="303" viewBox="0 0 194 303" fill="none" xmlns="http://www.w3.org/2000/svg">
<path d="M16.3226 254.018C12.4498 244.343 15.0612 230.345 32.2246 223.741C32.2246 223.741 38.0322 218.891 41.9049 212.517C43.3219 210.185 57.0082 199.359 78.695 197.424C93.7332 196.082 105.924 187.758 122.456 193.167C138.334 202.455 167.724 222.115 174.326 233.507C180.129 243.518 186.053 247.952 182.483 258.958C177.673 273.789 157.679 262.193 146.056 272.594C139.992 278.021 137.537 285.752 134.051 289.622C130.565 293.492 109.653 304.535 93.0005 302.393C76.1466 300.226 62.4068 291.17 56.2108 279.173C50.0148 267.176 20.1954 263.693 16.3226 254.018Z" fill="#D4AE61"/>
<path d="M26.9238 269.445C23.8246 270.971 24.0822 273.586 27.5624 275.93C31.6633 278.691 39.2448 279.653 42.9482 277.882C47.8184 275.554 31.7263 267.08 26.9238 269.445Z" fill="#D4AE61"/>
<path d="M47.1894 286.749C44.9166 284.887 44.2231 282.726 45.47 281.392C46.9394 279.819 50.9888 280.409 53.6878 282.589C57.2372 285.457 50.7113 289.634 47.1894 286.749Z" fill="#D4AE61"/>
<path d="M167.901 273.548C168.821 275.044 168.094 276.583 166.098 277.364C163.747 278.285 160.382 277.474 159.271 275.718C157.808 273.41 166.475 271.231 167.901 273.548Z" fill="#D4AE61"/>
<path d="M141.249 204.391C162.55 205.551 202.436 229.546 179.588 258.958L120.725 276.76L109.108 278.694C109.108 278.694 164.872 263.988 164.872 241.542C164.872 234.222 125.168 216.774 101.545 200.521L141.249 204.391Z" fill="#5C6017"/>
<mask id="mask0" mask-type="alpha" maskUnits="userSpaceOnUse" x="9" y="199" width="175" height="104">
<path d="M15.572 253.539C11.6992 243.864 2.66951 223.379 19.8329 216.775C19.8329 216.775 133.499 174.041 161.184 221.806C166.987 231.817 185.581 243.284 183.258 256.635C179.958 275.599 155.762 260.893 144.531 274.051C139.249 280.24 137.561 285.661 134.075 289.531C130.589 293.401 108.027 304.534 91.3741 302.393C74.5202 300.225 62.8183 291.079 56.6223 279.082C50.4262 267.085 19.4448 263.215 15.572 253.539Z" fill="#D4AE61"/>
</mask>
<g mask="url(#mask0)">
<path d="M141.25 204.39C162.552 205.551 202.438 229.545 179.589 258.957L120.727 276.76L109.109 278.694C109.109 278.694 164.874 263.988 164.874 241.542C164.874 234.221 125.169 216.774 101.546 200.52L141.25 204.39Z" fill="#83753E"/>
</g>
<path d="M145.817 211.996C172.474 227.374 172.347 252.195 145.432 267.723C118.516 283.251 75.536 283.237 48.8799 267.859C36.1555 260.518 31.0643 251.992 29.5153 246.574C28.97 235.996 35.1985 220.247 49.2658 212.131C76.1813 196.603 119.161 196.618 145.817 211.996Z" fill="#A89754"/>
<g opacity="0.5">
<mask id="mask1" mask-type="alpha" maskUnits="userSpaceOnUse" x="28" y="200" width="138" height="80">
<circle r="55.9923" transform="matrix(0.866191 -0.499713 0.866191 0.499713 97 240.182)" fill="#C4C4C4"/>
</mask>
<g mask="url(#mask1)">
<rect x="29.4321" y="195.049" width="137.092" height="85.9144" fill="#F8EEE1"/>
<rect x="109.208" y="195.049" width="68.9331" height="85.9144" fill="#8F9B92"/>
</g>
<rect x="29.4321" y="85.9144" width="136.317" height="153.253" fill="#F8EEE1"/>
<rect x="109.208" y="85.1404" width="56.5406" height="157.123" fill="#8F9B92"/>
<path d="M141.391 156.349L131.669 160.429V210.529L141.391 206.448V156.349Z" fill="#0092BD"/>
<mask id="mask2" mask-type="alpha" maskUnits="userSpaceOnUse" x="29" y="20" width="138" height="102">
<mask id="mask3" maskUnits="userSpaceOnUse" x="26" y="0" width="148" height="122">
<path fill-rule="evenodd" clip-rule="evenodd" d="M173.494 0H26.334V82.0444H29.1867C29.0836 92.2484 35.7797 102.471 49.2749 110.257C76.0606 125.709 119.489 125.709 146.275 110.257C159.77 102.471 166.466 92.2484 166.363 82.0444H173.494V0Z" fill="#C4C4C4"/>
</mask>
<g mask="url(#mask3)">
<ellipse cx="97.9779" cy="89.3974" rx="68.5458" ry="68.4993" fill="#1A65FF"/>
</g>
</mask>
<g mask="url(#mask2)">
<mask id="mask4" mask-type="alpha" maskUnits="userSpaceOnUse" x="26" y="0" width="148" height="122">
<path fill-rule="evenodd" clip-rule="evenodd" d="M173.494 0H26.334V82.0444H29.1867C29.0836 92.2484 35.7797 102.471 49.2749 110.257C76.0606 125.709 119.489 125.709 146.275 110.257C159.77 102.471 166.466 92.2484 166.363 82.0444H173.494V0Z" fill="#C4C4C4"/>
</mask>
<g mask="url(#mask4)">
<ellipse cx="97.9779" cy="92.4934" rx="68.5458" ry="68.4993" fill="#1A65FF"/>
<path d="M166.136 85.5274C164.2 102.168 141.351 118.81 109.208 121.132V78.1743C109.596 57.2763 98.7523 37.5392 84.0363 25.5421C130.895 16.6411 163.038 51.8583 166.136 85.5274Z" fill="#10416D"/>
</g>
</g>
<mask id="mask5" mask-type="alpha" maskUnits="userSpaceOnUse" x="29" y="20" width="138" height="102">
<mask id="mask6" maskUnits="userSpaceOnUse" x="26" y="0" width="148" height="122">
<path fill-rule="evenodd" clip-rule="evenodd" d="M173.494 0H26.334V82.0444H29.1867C29.0836 92.2484 35.7797 102.471 49.2749 110.257C76.0606 125.709 119.489 125.709 146.275 110.257C159.77 102.471 166.466 92.2484 166.363 82.0444H173.494V0Z" fill="#C4C4C4"/>
</mask>
<g mask="url(#mask6)">
<ellipse cx="97.9779" cy="89.3974" rx="68.5458" ry="68.4993" fill="#1A65FF"/>
</g>
</mask>
<g mask="url(#mask5)">
<rect x="51.8934" y="82.0444" width="57.3151" height="140.869" fill="#1A65FF"/>
</g>
</g>
</svg>
