<svg width="194" height="305" viewBox="0 0 194 305" fill="none" xmlns="http://www.w3.org/2000/svg">
<path d="M16.3226 255.695C12.4498 245.956 15.0612 231.866 32.2246 225.217C32.2246 225.217 38.0322 220.336 41.9049 213.92C43.3219 211.572 57.0082 200.675 78.695 198.727C93.7332 197.377 105.924 188.997 122.456 194.443C138.334 203.792 167.724 223.582 174.326 235.048C180.129 245.126 186.053 249.589 182.483 260.667C177.673 275.596 157.679 263.924 146.056 274.394C139.992 279.856 137.537 287.638 134.051 291.534C130.565 295.43 109.653 306.545 93.0005 304.389C76.1466 302.208 62.4068 293.092 56.2108 281.016C50.0148 268.94 20.1954 265.434 16.3226 255.695Z" fill="#8981B4"/>
<path d="M26.9238 271.223C23.8246 272.759 24.0822 275.392 27.5624 277.751C31.6633 280.53 39.2448 281.499 42.9482 279.716C47.8184 277.372 31.7263 268.843 26.9238 271.223Z" fill="#8981B4"/>
<path d="M47.1894 288.641C44.9166 286.768 44.2231 284.593 45.47 283.249C46.9394 281.666 50.9888 282.26 53.6878 284.455C57.2372 287.341 50.7113 291.545 47.1894 288.641Z" fill="#8981B4"/>
<path d="M167.901 275.354C168.821 276.859 168.094 278.409 166.098 279.195C163.747 280.122 160.382 279.305 159.271 277.538C157.808 275.215 166.475 273.021 167.901 275.354Z" fill="#8981B4"/>
<path d="M141.249 205.74C162.55 206.908 202.437 231.061 179.588 260.667L120.725 278.587L109.108 280.534C109.108 280.534 164.872 265.731 164.872 243.137C164.872 235.768 125.168 218.205 101.545 201.844L141.249 205.74Z" fill="#175D8B"/>
<mask id="mask0" mask-type="alpha" maskUnits="userSpaceOnUse" x="9" y="200" width="175" height="105">
<path d="M15.5721 255.213C11.6993 245.474 2.66964 224.854 19.833 218.205C19.833 218.205 133.499 175.19 161.184 223.27C166.987 233.347 185.581 244.89 183.258 258.329C179.958 277.418 155.762 262.615 144.531 275.859C139.249 282.089 137.561 287.546 134.075 291.442C130.59 295.337 108.027 306.544 91.3743 304.389C74.5203 302.207 62.8184 293 56.6224 280.924C50.4264 268.847 19.4449 264.952 15.5721 255.213Z" fill="#D4AE61"/>
</mask>
<g mask="url(#mask0)">
<path d="M141.25 205.739C162.552 206.908 202.438 231.06 179.589 260.667L120.727 278.586L109.109 280.534C109.109 280.534 164.874 265.73 164.874 243.136C164.874 235.767 125.17 218.205 101.546 201.844L141.25 205.739Z" fill="#3B4378"/>
</g>
<path d="M145.817 213.395C172.474 228.875 172.347 253.86 145.432 269.49C118.516 285.121 75.536 285.106 48.8799 269.627C36.1555 262.237 31.0643 253.656 29.5153 248.202C28.97 237.553 35.1985 221.701 49.2658 213.531C76.1813 197.901 119.161 197.915 145.817 213.395Z" fill="#4D5797"/>
<g opacity="0.5">
<mask id="mask1" mask-type="alpha" maskUnits="userSpaceOnUse" x="28" y="201" width="138" height="81">
<circle r="56.0848" transform="matrix(0.864762 -0.502182 0.864762 0.502182 97 241.768)" fill="#C4C4C4"/>
</mask>
<g mask="url(#mask1)">
<rect x="29.4321" y="196.336" width="137.092" height="86.4814" fill="#9D8797"/>
<rect x="109.208" y="196.336" width="68.9331" height="86.4814" fill="#5B658B"/>
</g>
<rect x="29.4321" y="86.4814" width="136.317" height="154.264" fill="#9D8797"/>
<rect x="109.208" y="85.7024" width="56.5406" height="158.16" fill="#5B658B"/>
<g filter="url(#filter0_d)">
<path d="M141.391 157.381L131.669 161.488V211.919L141.391 207.811V157.381Z" fill="#F8EEE1"/>
</g>
<mask id="mask2" mask-type="alpha" maskUnits="userSpaceOnUse" x="29" y="21" width="138" height="102">
<mask id="mask3" maskUnits="userSpaceOnUse" x="26" y="0" width="148" height="123">
<path fill-rule="evenodd" clip-rule="evenodd" d="M173.494 0H26.334V82.5859H29.1867C29.0837 92.8573 35.7797 103.147 49.2749 110.984C76.0606 126.539 119.489 126.539 146.275 110.984C159.77 103.147 166.466 92.8573 166.363 82.5859H173.494V0Z" fill="#C4C4C4"/>
</mask>
<g mask="url(#mask3)">
<ellipse cx="97.9779" cy="89.9874" rx="68.5458" ry="68.9514" fill="#1A65FF"/>
</g>
</mask>
<g mask="url(#mask2)">
<mask id="mask4" mask-type="alpha" maskUnits="userSpaceOnUse" x="26" y="0" width="148" height="123">
<path fill-rule="evenodd" clip-rule="evenodd" d="M173.494 0H26.334V82.5859H29.1867C29.0837 92.8573 35.7797 103.147 49.2749 110.984C76.0606 126.539 119.489 126.539 146.275 110.984C159.77 103.147 166.466 92.8573 166.363 82.5859H173.494V0Z" fill="#C4C4C4"/>
</mask>
<g mask="url(#mask4)">
<ellipse cx="97.9779" cy="93.104" rx="68.5458" ry="68.9514" fill="#6B77B8"/>
<path d="M166.136 86.0918C164.2 102.843 141.351 119.594 109.209 121.931V78.6903C109.596 57.6542 98.7524 37.7869 84.0364 25.7107C130.895 16.7509 163.038 52.2005 166.136 86.0918Z" fill="#384F71"/>
</g>
</g>
<mask id="mask5" mask-type="alpha" maskUnits="userSpaceOnUse" x="29" y="21" width="138" height="102">
<mask id="mask6" maskUnits="userSpaceOnUse" x="26" y="0" width="148" height="123">
<path fill-rule="evenodd" clip-rule="evenodd" d="M173.494 0H26.334V82.5859H29.1867C29.0837 92.8573 35.7797 103.147 49.2749 110.984C76.0606 126.539 119.489 126.539 146.275 110.984C159.77 103.147 166.466 92.8573 166.363 82.5859H173.494V0Z" fill="#C4C4C4"/>
</mask>
<g mask="url(#mask6)">
<ellipse cx="97.9779" cy="89.9874" rx="68.5458" ry="68.9514" fill="#1A65FF"/>
</g>
</mask>
<g mask="url(#mask5)">
<rect x="51.8934" y="82.5859" width="57.3151" height="141.798" fill="#6B77B8"/>
</g>
</g>
<defs>
<filter id="filter0_d" x="119.669" y="145.381" width="33.7216" height="78.5379" filterUnits="userSpaceOnUse" color-interpolation-filters="sRGB">
<feFlood flood-opacity="0" result="BackgroundImageFix"/>
<feColorMatrix in="SourceAlpha" type="matrix" values="0 0 0 0 0 0 0 0 0 0 0 0 0 0 0 0 0 0 127 0" result="hardAlpha"/>
<feOffset/>
<feGaussianBlur stdDeviation="6"/>
<feColorMatrix type="matrix" values="0 0 0 0 0.972549 0 0 0 0 0.933333 0 0 0 0 0.882353 0 0 0 1 0"/>
<feBlend mode="normal" in2="BackgroundImageFix" result="effect1_dropShadow"/>
<feBlend mode="normal" in="SourceGraphic" in2="effect1_dropShadow" result="shape"/>
</filter>
</defs>
</svg>
