<svg width="199" height="269" viewBox="0 0 199 269" fill="none" xmlns="http://www.w3.org/2000/svg">
<path d="M1.44614 220.341C-2.42292 210.664 0.935646 201.4 18.0823 194.794C18.0823 194.794 131.638 152.051 159.296 199.826C165.093 209.839 172.922 216.688 169.355 227.696C164.549 242.53 142.665 228.518 131.054 238.921C124.995 244.349 122.542 252.082 119.06 255.953C115.578 259.824 94.6861 270.869 78.0495 268.727C61.2119 266.559 47.4855 257.501 41.2955 245.502C35.1055 233.502 5.3152 230.019 1.44614 220.341Z" fill="#D4AE61"/>
<path d="M146.1 245.19C149.197 246.714 148.942 249.33 145.467 251.677C141.372 254.441 133.798 255.409 130.097 253.641C125.23 251.315 141.3 242.829 146.1 245.19Z" fill="#D4AE61"/>
<path d="M20.7564 242.682C18.4858 240.819 17.793 238.658 19.0388 237.323C20.5067 235.75 24.5521 236.34 27.2486 238.521C30.7945 241.389 24.275 245.567 20.7564 242.682Z" fill="#D4AE61"/>
<path d="M154.505 239.542C155.424 241.038 154.698 242.578 152.704 243.359C150.355 244.28 146.994 243.469 145.883 241.713C144.422 239.404 153.081 237.224 154.505 239.542Z" fill="#D4AE61"/>
<path d="M84.6491 177.671L100.125 171.478L157.384 182.316L177.89 218.546L84.6491 256.25L84.6491 177.671Z" fill="#5C6017"/>
<mask id="mask0" mask-type="alpha" maskUnits="userSpaceOnUse" x="0" y="177" width="171" height="92">
<path d="M1.44614 220.342C-2.42292 210.664 0.935646 201.4 18.0823 194.794C18.0823 194.794 131.638 152.051 159.296 199.826C165.093 209.84 172.922 216.688 169.355 227.696C164.549 242.531 142.665 228.518 131.054 238.922C124.995 244.349 122.542 252.082 119.06 255.953C115.578 259.824 94.6861 270.869 78.0495 268.727C61.2119 266.559 47.4855 257.502 41.2955 245.502C35.1055 233.502 5.3152 230.019 1.44614 220.342Z" fill="#D4AE61"/>
</mask>
<g mask="url(#mask0)">
<path d="M84.967 177.387L100.443 171.194L157.702 182.032L178.208 218.262L84.9669 255.965L84.967 177.387Z" fill="#83753E"/>
</g>
<rect width="78.8271" height="78.8271" transform="matrix(0.865935 -0.500157 0.865935 0.500157 16.1707 216.959)" fill="#A89754"/>
<g opacity="0.5">
<path d="M83.1022 0.77417L16.1706 67.7396L85.0366 107.609L83.1022 0.77417Z" fill="#F5A500"/>
<path d="M16.1707 67.3525L85.0367 107.222V256.636L16.1707 216.767V67.3525Z" fill="#F9EEE1"/>
<path d="M153.903 66.9655L85.0367 106.835V256.249L153.903 216.38V66.9655Z" fill="#8F9B92"/>
<path d="M129.916 132.383L114.44 141.298V190.445L129.916 181.529V132.383Z" fill="#0092BD"/>
<path d="M83.1022 0L153.903 67.3525L85.0366 107.222L83.1022 0Z" fill="#784B00"/>
</g>
</svg>
