<svg width="195" height="306" viewBox="0 0 195 306" fill="none" xmlns="http://www.w3.org/2000/svg">
<path d="M16.4067 256.474C12.5139 246.735 15.1388 232.645 32.3907 225.996C32.3907 225.996 38.2283 221.115 42.1209 214.699C43.5452 212.351 57.302 201.454 79.1006 199.507C94.2164 198.156 106.47 189.776 123.087 195.222C139.047 204.571 168.588 224.361 175.225 235.827C181.058 245.905 187.012 250.368 183.424 261.446C178.588 276.375 158.491 264.703 146.809 275.173C140.714 280.635 138.246 288.417 134.742 292.313C131.238 296.209 110.218 307.324 93.4799 305.168C76.5391 302.987 62.7285 293.871 56.5005 281.795C50.2726 269.719 20.2995 266.213 16.4067 256.474Z" fill="#8981B4"/>
<path d="M27.0625 272.002C23.9473 273.538 24.2062 276.171 27.7044 278.53C31.8265 281.309 39.4471 282.278 43.1695 280.496C48.0648 278.151 31.8897 269.622 27.0625 272.002Z" fill="#8981B4"/>
<path d="M47.4326 289.421C45.148 287.547 44.451 285.372 45.7043 284.028C47.1813 282.445 51.2515 283.039 53.9645 285.234C57.5322 288.12 50.9727 292.324 47.4326 289.421Z" fill="#8981B4"/>
<path d="M168.766 276.133C169.691 277.639 168.96 279.188 166.955 279.974C164.591 280.901 161.209 280.084 160.092 278.317C158.622 275.994 167.333 273.8 168.766 276.133Z" fill="#8981B4"/>
<path d="M141.977 206.519C163.388 207.687 203.48 231.84 180.514 261.446L121.348 279.366L109.67 281.313C109.67 281.313 165.722 266.51 165.722 243.916C165.722 236.547 125.813 218.984 102.068 202.623L141.977 206.519Z" fill="#175D8B"/>
<mask id="mask0" mask-type="alpha" maskUnits="userSpaceOnUse" x="9" y="201" width="176" height="105">
<path d="M15.6523 255.992C11.7595 246.253 2.68329 225.633 19.9351 218.985C19.9351 218.985 134.188 175.969 162.015 224.049C167.848 234.126 186.538 245.669 184.202 259.108C180.885 278.197 156.565 263.394 145.276 276.639C139.967 282.868 138.27 288.325 134.766 292.221C131.263 296.116 108.584 307.323 91.8452 305.168C74.9043 302.986 63.1421 293.779 56.9141 281.703C50.6862 269.627 19.5451 265.731 15.6523 255.992Z" fill="#D4AE61"/>
</mask>
<g mask="url(#mask0)">
<path d="M141.978 206.518C163.39 207.687 203.481 231.839 180.515 261.446L121.349 279.365L109.671 281.313C109.671 281.313 165.724 266.509 165.724 243.915C165.724 236.546 125.815 218.984 102.07 202.623L141.978 206.518Z" fill="#3B4378"/>
</g>
<path d="M146.569 214.174C173.363 229.654 173.235 254.639 146.181 270.269C119.127 285.9 75.9253 285.885 49.1318 270.406C36.3418 263.016 31.2244 254.435 29.6674 248.981C29.1193 238.332 35.3799 222.48 49.5197 214.311C76.574 198.68 119.776 198.695 146.569 214.174Z" fill="#4D5797"/>
<g opacity="0.5">
<mask id="mask1" mask-type="alpha" maskUnits="userSpaceOnUse" x="28" y="201" width="139" height="81">
<circle r="56.3011" transform="matrix(0.86588 -0.500252 0.86588 0.500252 97.5 241.768)" fill="#C4C4C4"/>
</mask>
<g mask="url(#mask1)">
<rect x="29.5838" y="196.336" width="137.798" height="86.4814" fill="#9D8797"/>
<rect x="109.771" y="196.336" width="69.2883" height="86.4814" fill="#5B658B"/>
</g>
<rect x="29.5838" y="86.4814" width="137.02" height="154.264" fill="#9D8797"/>
<rect x="109.771" y="85.7024" width="56.832" height="158.16" fill="#5B658B"/>
<g filter="url(#filter0_d)">
<path d="M56.832 157.381L66.6037 161.488V211.919L56.832 207.811V157.381Z" fill="#F8EEE1"/>
</g>
<mask id="mask2" mask-type="alpha" maskUnits="userSpaceOnUse" x="29" y="21" width="139" height="102">
<mask id="mask3" maskUnits="userSpaceOnUse" x="26" y="0" width="149" height="123">
<path fill-rule="evenodd" clip-rule="evenodd" d="M174.389 0H26.4697V82.5859H29.3371C29.2335 92.8573 35.964 103.147 49.5288 110.984C76.4526 126.539 120.105 126.539 147.029 110.984C160.593 103.147 167.324 92.8573 167.22 82.5859H174.389V0Z" fill="#C4C4C4"/>
</mask>
<g mask="url(#mask3)">
<ellipse cx="98.4829" cy="89.9874" rx="68.8991" ry="68.9514" fill="#1A65FF"/>
</g>
</mask>
<g mask="url(#mask2)">
<mask id="mask4" mask-type="alpha" maskUnits="userSpaceOnUse" x="26" y="0" width="149" height="123">
<path fill-rule="evenodd" clip-rule="evenodd" d="M174.389 0H26.4697V82.5859H29.3371C29.2335 92.8573 35.964 103.147 49.5288 110.984C76.4526 126.539 120.105 126.539 147.029 110.984C160.593 103.147 167.324 92.8573 167.22 82.5859H174.389V0Z" fill="#C4C4C4"/>
</mask>
<g mask="url(#mask4)">
<ellipse cx="98.4829" cy="93.104" rx="68.8991" ry="68.9514" fill="#6B77B8"/>
<path d="M166.993 86.0918C165.046 102.843 142.08 119.594 109.771 121.931V78.6903C110.161 57.6542 99.2614 37.7869 84.4695 25.7107C131.57 16.7509 163.879 52.2005 166.993 86.0918Z" fill="#384F71"/>
</g>
</g>
<mask id="mask5" mask-type="alpha" maskUnits="userSpaceOnUse" x="29" y="21" width="139" height="102">
<mask id="mask6" maskUnits="userSpaceOnUse" x="26" y="0" width="149" height="123">
<path fill-rule="evenodd" clip-rule="evenodd" d="M174.389 0H26.4697V82.5859H29.3371C29.2335 92.8573 35.964 103.147 49.5288 110.984C76.4526 126.539 120.105 126.539 147.029 110.984C160.593 103.147 167.324 92.8573 167.22 82.5859H174.389V0Z" fill="#C4C4C4"/>
</mask>
<g mask="url(#mask6)">
<ellipse cx="98.4829" cy="89.9874" rx="68.8991" ry="68.9514" fill="#1A65FF"/>
</g>
</mask>
<g mask="url(#mask5)">
<rect x="52.1609" y="82.5859" width="57.6105" height="141.798" fill="#6B77B8"/>
</g>
</g>
<defs>
<filter id="filter0_d" x="44.832" y="145.381" width="33.7717" height="78.5379" filterUnits="userSpaceOnUse" color-interpolation-filters="sRGB">
<feFlood flood-opacity="0" result="BackgroundImageFix"/>
<feColorMatrix in="SourceAlpha" type="matrix" values="0 0 0 0 0 0 0 0 0 0 0 0 0 0 0 0 0 0 127 0" result="hardAlpha"/>
<feOffset/>
<feGaussianBlur stdDeviation="6"/>
<feColorMatrix type="matrix" values="0 0 0 0 0.972549 0 0 0 0 0.933333 0 0 0 0 0.882353 0 0 0 1 0"/>
<feBlend mode="normal" in2="BackgroundImageFix" result="effect1_dropShadow"/>
<feBlend mode="normal" in="SourceGraphic" in2="effect1_dropShadow" result="shape"/>
</filter>
</defs>
</svg>
