<svg width="197" height="176" viewBox="0 0 197 176" fill="none" xmlns="http://www.w3.org/2000/svg">
<path d="M1.54906 126.113C-2.32266 116.472 1.03822 107.241 18.1967 100.659C18.1967 100.659 131.831 58.0728 159.508 105.673C165.309 115.65 173.143 122.473 169.574 133.441C164.765 148.221 142.865 134.26 131.246 144.625C125.183 150.033 122.729 157.738 119.244 161.594C115.759 165.451 94.8532 176.456 78.2052 174.321C61.356 172.162 47.6202 163.137 41.4259 151.181C35.2317 139.226 5.42079 135.755 1.54906 126.113Z" fill="#D4AE61"/>
<path d="M17.6966 128.609L85.4481 93.1271L157.572 96.8414L181.188 128.609L85.4481 168.333L17.6966 128.609Z" fill="#5C6017"/>
<mask id="mask0" mask-type="alpha" maskUnits="userSpaceOnUse" x="0" y="92" width="171" height="83">
<path d="M1.44713 126.282C-2.42459 116.641 0.936291 99.1418 18.0948 92.5598C18.0948 92.5598 149.054 105.334 157.572 108.203C166.089 111.072 173.041 122.642 169.472 133.61C164.663 148.39 142.763 134.429 131.144 144.794C125.081 150.202 122.627 157.907 119.142 161.764C115.657 165.62 94.7513 176.625 78.1032 174.491C61.2541 172.331 47.5182 163.306 41.324 151.351C35.1297 139.395 5.31886 135.924 1.44713 126.282Z" fill="#D4AE61"/>
</mask>
<g mask="url(#mask0)">
<path d="M17.6966 128.569L85.4481 93.0875L157.572 96.8018L181.188 128.569L85.4482 168.293L17.6966 128.569Z" fill="#83753E"/>
</g>
<path d="M20.0751 150.005C17.803 148.15 17.1097 145.996 18.3563 144.666C19.8252 143.099 23.8735 143.687 26.5717 145.86C30.1201 148.717 23.5961 152.88 20.0751 150.005Z" fill="#D4AE61"/>
<path d="M141.059 153.229C141.979 154.72 141.252 156.253 139.257 157.032C136.906 157.949 133.543 157.141 132.431 155.392C130.97 153.091 139.634 150.92 141.059 153.229Z" fill="#D4AE61"/>
<path d="M17.3101 54.9074L85.4492 94.2454V168.293L17.3101 128.955V54.9074Z" fill="#F9EFE2"/>
<path d="M42.5869 88.7033L51.8786 94.5118V129.584L42.5869 123.776V88.7033Z" fill="#08C8C7"/>
<path d="M60.0089 0L128.535 39.4798L85.8364 94.6063L17.3101 55.1254L60.0089 0Z" fill="#F3A400"/>
<path d="M153.975 54.765L85.4492 94.2448V168.436L153.975 128.955V54.765Z" fill="#909C93"/>
<path d="M128.535 39.3377L153.976 54.9075L85.4492 94.2454L128.535 39.3377Z" fill="#909C93"/>
</svg>
