<svg width="197" height="175" viewBox="0 0 197 175" fill="none" xmlns="http://www.w3.org/2000/svg">
<path d="M1.55138 125.397C-2.32034 115.81 1.04054 106.632 18.199 100.087C18.199 100.087 131.833 57.7428 159.51 105.072C165.311 114.992 173.145 121.777 169.576 132.683C164.767 147.379 142.867 133.497 131.248 143.803C125.186 149.181 122.731 156.842 119.246 160.676C115.761 164.511 94.8554 175.453 78.2074 173.331C61.3583 171.183 47.6225 162.21 41.4282 150.322C35.2339 138.435 5.4231 134.983 1.55138 125.397Z" fill="#8480AA"/>
<path d="M17.6966 127.878L85.4481 92.598L157.572 96.2912L181.188 127.878L85.4481 167.376L17.6966 127.878Z" fill="#175D8B"/>
<mask id="mask0" mask-type="alpha" maskUnits="userSpaceOnUse" x="0" y="92" width="171" height="82">
<path d="M1.44713 125.565C-2.42459 115.978 0.93629 98.5785 18.0948 92.0339C18.0948 92.0339 149.054 104.735 157.572 107.588C166.089 110.441 173.041 121.945 169.472 132.851C164.663 147.547 142.763 133.666 131.144 143.972C125.081 149.349 122.627 157.01 119.142 160.845C115.657 164.679 94.7513 175.621 78.1032 173.499C61.2541 171.352 47.5182 162.378 41.324 150.491C35.1297 138.603 5.31886 135.152 1.44713 125.565Z" fill="#D4AE61"/>
</mask>
<g mask="url(#mask0)">
<path d="M17.6966 127.839L85.4481 92.5586L157.572 96.2518L181.188 127.839L85.4481 167.337L17.6966 127.839Z" fill="#3B4378"/>
</g>
<path d="M20.0751 149.153C17.803 147.308 17.1097 145.167 18.3563 143.844C19.8252 142.286 23.8735 142.871 26.5717 145.031C30.1201 147.872 23.5961 152.011 20.0751 149.153Z" fill="#8480AA"/>
<path d="M141.059 152.359C141.979 153.841 141.252 155.366 139.257 156.14C136.906 157.052 133.543 156.248 132.431 154.509C130.97 152.221 139.634 150.062 141.059 152.359Z" fill="#8480AA"/>
<path d="M17.3101 54.5955L85.4492 93.7099V167.337L17.3101 128.222V54.5955Z" fill="#AB9EA7"/>
<g filter="url(#filter0_d)">
<path d="M42.5869 88.1993L51.8786 93.9748V128.848L42.5869 123.072V88.1993Z" fill="#F8EEE1"/>
</g>
<path d="M59.6989 0L128.225 39.2555L85.5263 94.0687L17 54.8122L59.6989 0Z" fill="#AB6D64"/>
<path d="M153.975 54.4539L85.4492 93.7093V167.479L153.975 128.222V54.4539Z" fill="#667096"/>
<path d="M128.535 39.1141L153.976 54.5955L85.4492 93.7099L128.535 39.1141Z" fill="#667096"/>
<defs>
<filter id="filter0_d" x="30.5869" y="76.1993" width="33.2917" height="64.6484" filterUnits="userSpaceOnUse" color-interpolation-filters="sRGB">
<feFlood flood-opacity="0" result="BackgroundImageFix"/>
<feColorMatrix in="SourceAlpha" type="matrix" values="0 0 0 0 0 0 0 0 0 0 0 0 0 0 0 0 0 0 127 0" result="hardAlpha"/>
<feOffset/>
<feGaussianBlur stdDeviation="6"/>
<feColorMatrix type="matrix" values="0 0 0 0 0.972549 0 0 0 0 0.933333 0 0 0 0 0.882353 0 0 0 1 0"/>
<feBlend mode="normal" in2="BackgroundImageFix" result="effect1_dropShadow"/>
<feBlend mode="normal" in="SourceGraphic" in2="effect1_dropShadow" result="shape"/>
</filter>
</defs>
</svg>
