<svg width="199" height="271" viewBox="0 0 199 271" fill="none" xmlns="http://www.w3.org/2000/svg">
<path d="M1.44614 221.98C-2.42292 212.231 0.935646 202.897 18.0823 196.242C18.0823 196.242 131.638 153.182 159.296 201.312C165.093 211.4 172.922 218.299 169.355 229.389C164.549 244.334 142.665 230.217 131.053 240.698C124.995 246.166 122.542 253.956 119.06 257.856C115.578 261.756 94.686 272.883 78.0495 270.725C61.2119 268.541 47.4855 259.416 41.2955 247.327C35.1055 235.238 5.3152 231.729 1.44614 221.98Z" fill="#8480AA"/>
<path d="M84.6492 178.992L100.125 172.753L157.384 183.672L177.89 220.171L84.6491 258.155L84.6492 178.992Z" fill="#175D8B"/>
<mask id="mask0" mask-type="alpha" maskUnits="userSpaceOnUse" x="0" y="178" width="171" height="93">
<path d="M1.44614 221.98C-2.42292 212.231 0.935646 202.898 18.0823 196.242C18.0823 196.242 131.638 153.182 159.296 201.312C165.093 211.4 172.922 218.299 169.355 229.389C164.549 244.334 142.665 230.217 131.053 240.698C124.995 246.166 122.542 253.957 119.06 257.856C115.578 261.756 94.686 272.883 78.0495 270.725C61.2119 268.541 47.4855 259.416 41.2955 247.327C35.1055 235.238 5.3152 231.729 1.44614 221.98Z" fill="#D4AE61"/>
</mask>
<g mask="url(#mask0)">
<path d="M84.967 178.706L100.443 172.467L157.702 183.385L178.208 219.885L84.9669 257.868L84.967 178.706Z" fill="#3B4378"/>
</g>
<path d="M146.1 247.013C149.197 248.548 148.942 251.184 145.467 253.548C141.372 256.333 133.798 257.308 130.097 255.527C125.23 253.184 141.3 244.634 146.1 247.013Z" fill="#8480AA"/>
<path d="M20.7564 244.486C18.4858 242.61 17.793 240.433 19.0388 239.088C20.5067 237.503 24.5521 238.098 27.2486 240.295C30.7945 243.184 24.275 247.393 20.7564 244.486Z" fill="#8480AA"/>
<path d="M154.505 241.324C155.424 242.831 154.698 244.381 152.704 245.168C150.355 246.096 146.994 245.279 145.883 243.51C144.422 241.184 153.081 238.988 154.505 241.324Z" fill="#8480AA"/>
<path d="M83.1022 0.779907L16.1707 68.2432L85.0366 108.409L83.1022 0.779907Z" fill="#AB6D64"/>
<path d="M16.1707 67.8533L85.0367 108.019V258.544L16.1707 218.378V67.8533Z" fill="#AB9EA7"/>
<path d="M153.903 67.4634L85.0367 107.629V258.154L153.903 217.988V67.4634Z" fill="#667096"/>
<g filter="url(#filter0_d)">
<path d="M129.916 133.367L114.44 142.348V191.861L129.916 182.878V133.367Z" fill="#F8EEE1"/>
</g>
<path d="M83.1022 0L153.903 67.8533L85.0366 108.019L83.1022 0Z" fill="#675555"/>
<defs>
<filter id="filter0_d" x="102.44" y="121.367" width="39.4755" height="82.4942" filterUnits="userSpaceOnUse" color-interpolation-filters="sRGB">
<feFlood flood-opacity="0" result="BackgroundImageFix"/>
<feColorMatrix in="SourceAlpha" type="matrix" values="0 0 0 0 0 0 0 0 0 0 0 0 0 0 0 0 0 0 127 0" result="hardAlpha"/>
<feOffset/>
<feGaussianBlur stdDeviation="6"/>
<feColorMatrix type="matrix" values="0 0 0 0 0.972549 0 0 0 0 0.933333 0 0 0 0 0.882353 0 0 0 1 0"/>
<feBlend mode="normal" in2="BackgroundImageFix" result="effect1_dropShadow"/>
<feBlend mode="normal" in="SourceGraphic" in2="effect1_dropShadow" result="shape"/>
</filter>
</defs>
</svg>
