<svg width="199" height="271" viewBox="0 0 199 271" fill="none" xmlns="http://www.w3.org/2000/svg">
<path d="M1.44614 221.98C-2.42292 212.231 0.935646 202.897 18.0823 196.242C18.0823 196.242 131.638 153.182 159.296 201.312C165.093 211.4 172.922 218.299 169.355 229.389C164.549 244.334 142.665 230.217 131.053 240.698C124.995 246.166 122.542 253.956 119.06 257.856C115.578 261.756 94.686 272.883 78.0495 270.725C61.2119 268.541 47.4855 259.416 41.2955 247.327C35.1055 235.238 5.3152 231.729 1.44614 221.98Z" fill="#8480AA"/>
<path d="M146.178 247.013C149.276 248.548 149.02 251.184 145.545 253.548C141.45 256.333 133.877 257.308 130.176 255.527C125.309 253.184 141.379 244.634 146.178 247.013Z" fill="#8480AA"/>
<path d="M20.8351 244.486C18.5644 242.61 17.8716 240.433 19.1174 239.088C20.5853 237.503 24.6308 238.098 27.3272 240.295C30.8731 243.184 24.3536 247.393 20.8351 244.486Z" fill="#8480AA"/>
<path d="M154.584 241.324C155.503 242.831 154.776 244.381 152.783 245.168C150.433 246.096 147.072 245.279 145.962 243.51C144.501 241.184 153.159 238.988 154.584 241.324Z" fill="#8480AA"/>
<path d="M84.6492 178.992L100.125 172.753L157.384 183.672L177.89 220.171L84.6491 258.155L84.6492 178.992Z" fill="#175D8B"/>
<mask id="mask0" mask-type="alpha" maskUnits="userSpaceOnUse" x="0" y="178" width="171" height="93">
<path d="M1.44614 221.98C-2.42292 212.231 0.935646 202.898 18.0823 196.242C18.0823 196.242 131.638 153.182 159.296 201.312C165.093 211.4 172.922 218.299 169.355 229.389C164.549 244.334 142.665 230.217 131.053 240.698C124.995 246.166 122.542 253.957 119.06 257.856C115.578 261.756 94.686 272.883 78.0495 270.725C61.2119 268.541 47.4855 259.416 41.2955 247.327C35.1055 235.238 5.3152 231.729 1.44614 221.98Z" fill="#D4AE61"/>
</mask>
<g mask="url(#mask0)">
<path d="M84.967 178.706L100.443 172.467L157.702 183.385L178.208 219.885L84.9669 257.868L84.967 178.706Z" fill="#3B4378"/>
</g>
<rect width="78.9741" height="78.9741" transform="matrix(0.864323 -0.502938 0.864323 0.502938 16.1707 218.573)" fill="#4D5797"/>
<path d="M83.1809 0L153.981 67.8533L85.1153 108.019L83.1809 0Z" fill="#675555"/>
<path d="M83.1809 0.390015L16.2493 67.8533L85.1154 108.019L83.1809 0.390015Z" fill="#AB6D64"/>
<path d="M16.2493 67.8533L85.1153 108.019V258.544L16.2493 218.378V67.8533Z" fill="#AB9EA7"/>
<g filter="url(#filter0_d)">
<path d="M42.5576 130.677L56.4852 139.038V189.521L42.5576 181.16V130.677Z" fill="#F8EEE1"/>
</g>
<path d="M153.981 67.8533L85.1153 108.019V258.544L153.981 218.378V67.8533Z" fill="#667096"/>
<defs>
<filter id="filter0_d" x="30.5576" y="118.677" width="37.9276" height="82.8436" filterUnits="userSpaceOnUse" color-interpolation-filters="sRGB">
<feFlood flood-opacity="0" result="BackgroundImageFix"/>
<feColorMatrix in="SourceAlpha" type="matrix" values="0 0 0 0 0 0 0 0 0 0 0 0 0 0 0 0 0 0 127 0" result="hardAlpha"/>
<feOffset/>
<feGaussianBlur stdDeviation="6"/>
<feColorMatrix type="matrix" values="0 0 0 0 0.972549 0 0 0 0 0.933333 0 0 0 0 0.882353 0 0 0 1 0"/>
<feBlend mode="normal" in2="BackgroundImageFix" result="effect1_dropShadow"/>
<feBlend mode="normal" in="SourceGraphic" in2="effect1_dropShadow" result="shape"/>
</filter>
</defs>
</svg>
