<svg width="197" height="178" viewBox="0 0 197 178" fill="none" xmlns="http://www.w3.org/2000/svg">
<path d="M1.55077 127.546C-2.32096 117.795 1.03993 108.46 18.1984 101.803C18.1984 101.803 131.833 58.7329 159.51 106.874C165.311 116.964 173.145 123.865 169.576 134.957C164.767 149.905 142.867 135.786 131.248 146.269C125.185 151.738 122.731 159.53 119.246 163.431C115.761 167.331 94.855 178.461 78.207 176.302C61.3578 174.118 47.6219 164.991 41.4277 152.9C35.2334 140.808 5.4225 137.298 1.55077 127.546Z" fill="#8480AA"/>
<path d="M17.6966 130.071L85.4482 94.1855L157.572 97.942L181.188 130.071L85.4481 170.246L17.6966 130.071Z" fill="#175D8B"/>
<mask id="mask0" mask-type="alpha" maskUnits="userSpaceOnUse" x="0" y="93" width="171" height="84">
<path d="M1.44713 127.717C-2.42459 117.966 0.93629 100.269 18.0948 93.6118C18.0948 93.6118 149.054 106.531 157.572 109.432C166.089 112.334 173.041 124.036 169.472 135.128C164.663 150.076 142.763 135.957 131.144 146.44C125.081 151.909 122.627 159.701 119.142 163.602C115.657 167.502 94.7513 178.632 78.1032 176.474C61.2541 174.289 47.5182 165.162 41.324 153.071C35.1297 140.979 5.31886 137.469 1.44713 127.717Z" fill="#D4AE61"/>
</mask>
<g mask="url(#mask0)">
<path d="M17.6966 130.031L85.4481 94.1456L157.572 97.9021L181.188 130.031L85.4482 170.206L17.6966 130.031Z" fill="#3B4378"/>
</g>
<path d="M145.528 155.017C148.627 156.553 148.371 159.189 144.894 161.554C140.796 164.34 133.217 165.315 129.514 163.533C124.643 161.189 140.725 152.638 145.528 155.017Z" fill="#8480AA"/>
<path d="M20.0978 152.49C17.8257 150.613 17.1324 148.436 18.379 147.09C19.8479 145.505 23.8962 146.1 26.5944 148.297C30.1428 151.187 23.6188 155.397 20.0978 152.49Z" fill="#8480AA"/>
<path d="M17.3098 55.5314L85.4489 95.3163V170.206L17.3098 130.421V55.5314Z" fill="#AB9EA7"/>
<path d="M59.6989 0L128.225 39.9284L85.5263 95.6813L17 55.7518L59.6989 0Z" fill="#AB6D64"/>
<path d="M153.975 55.3873L85.4491 95.3157V170.35L153.975 130.42V55.3873Z" fill="#667096"/>
<g filter="url(#filter0_d)">
<path d="M129.198 90.6356L118.744 96.7833V130.673L129.198 124.525V90.6356Z" fill="#F8EEE1"/>
</g>
<path d="M128.535 39.7847L153.975 55.5314L85.4489 95.3164L128.535 39.7847Z" fill="#667096"/>
<defs>
<filter id="filter0_d" x="106.744" y="78.6356" width="34.4532" height="64.0376" filterUnits="userSpaceOnUse" color-interpolation-filters="sRGB">
<feFlood flood-opacity="0" result="BackgroundImageFix"/>
<feColorMatrix in="SourceAlpha" type="matrix" values="0 0 0 0 0 0 0 0 0 0 0 0 0 0 0 0 0 0 127 0" result="hardAlpha"/>
<feOffset/>
<feGaussianBlur stdDeviation="6"/>
<feColorMatrix type="matrix" values="0 0 0 0 0.972549 0 0 0 0 0.933333 0 0 0 0 0.882353 0 0 0 1 0"/>
<feBlend mode="normal" in2="BackgroundImageFix" result="effect1_dropShadow"/>
<feBlend mode="normal" in="SourceGraphic" in2="effect1_dropShadow" result="shape"/>
</filter>
</defs>
</svg>
