<svg width="196" height="219" viewBox="0 0 196 219" fill="none" xmlns="http://www.w3.org/2000/svg">
<path d="M17.1572 170.097C13.3043 160.371 15.9023 146.3 32.9772 139.661C32.9772 139.661 38.7549 134.786 42.6076 128.379C44.0173 126.035 57.6331 115.152 79.2081 113.207C94.1688 111.858 106.297 103.49 122.743 108.928C138.539 118.265 167.778 138.027 174.347 149.479C180.119 159.542 186.013 163.999 182.461 175.063C177.675 189.972 157.785 178.315 146.222 188.77C140.189 194.226 137.746 201.997 134.279 205.888C130.811 209.778 110.007 220.878 93.4399 218.726C76.6728 216.547 63.0038 207.444 56.8398 195.384C50.6757 183.324 21.01 179.823 17.1572 170.097Z" fill="#D4AE61"/>
<path d="M141.439 120.21C162.631 121.377 202.312 145.496 179.581 175.063L121.204 192.958L109.464 194.903C109.464 194.903 164.941 180.119 164.941 157.556C164.941 150.197 125.442 132.658 101.94 116.319L141.439 120.21Z" fill="#5C6017"/>
<mask id="mask0" mask-type="alpha" maskUnits="userSpaceOnUse" x="15" y="126" width="171" height="93">
<path d="M17.0803 170.096C13.2274 160.371 16.5719 151.06 33.6468 144.421C33.6468 144.421 146.727 101.463 174.27 149.478C180.042 159.542 187.838 166.425 184.287 177.488C179.501 192.397 157.708 178.314 146.145 188.77C140.112 194.225 137.67 201.997 134.202 205.887C130.734 209.777 109.93 220.878 93.363 218.725C76.5959 216.546 62.927 207.443 56.7629 195.383C50.5988 183.323 20.9331 179.822 17.0803 170.096Z" fill="#D4AE61"/>
</mask>
<g mask="url(#mask0)">
<path d="M141.441 120.209C162.633 121.376 202.313 145.496 179.582 175.062L120.82 192.958L109.465 194.902C109.465 194.902 164.943 180.119 164.943 157.556C164.943 150.197 125.443 132.658 101.942 116.319L141.441 120.209Z" fill="#83753E"/>
</g>
<path d="M160.436 195.07C163.521 196.602 163.266 199.231 159.806 201.59C155.728 204.368 148.186 205.341 144.501 203.564C139.654 201.226 155.657 192.697 160.436 195.07Z" fill="#D4AE61"/>
<path d="M35.6175 192.549C33.3565 190.678 32.6665 188.506 33.9071 187.164C35.3688 185.583 39.3974 186.176 42.0825 188.368C45.6136 191.25 39.1213 195.449 35.6175 192.549Z" fill="#D4AE61"/>
<path d="M168.806 189.395C169.722 190.898 168.998 192.445 167.013 193.23C164.673 194.156 161.326 193.34 160.22 191.576C158.766 189.255 167.388 187.065 168.806 189.395Z" fill="#D4AE61"/>
<path d="M145.985 127.855C172.503 143.313 172.377 168.265 145.601 183.874C118.824 199.483 76.0653 199.469 49.5466 184.01C36.8878 176.631 31.8229 168.061 30.2818 162.614C29.7394 151.98 35.9358 136.149 49.9306 127.991C76.7073 112.382 119.466 112.396 145.985 127.855Z" fill="#A89754"/>
<mask id="mask1" mask-type="alpha" maskUnits="userSpaceOnUse" x="29" y="116" width="137" height="80">
<circle r="55.8495" transform="matrix(0.863929 -0.503614 0.863929 0.503614 97.5 155.853)" fill="#C4C4C4"/>
</mask>
<g mask="url(#mask1)">
<rect x="30.2804" y="110.484" width="136.385" height="86.3642" fill="#F8EEE1"/>
<rect x="109.646" y="110.484" width="68.5777" height="86.3642" fill="#8F9B92"/>
</g>
<path d="M30.2804 87.1423H165.895V156.389H30.2804V87.1423Z" fill="#F8EEE1"/>
<rect x="109.646" y="82.4739" width="56.2492" height="75.4714" fill="#8F9B92"/>
<path d="M57 129.935L64.7054 133.1V171.95L57 168.786V129.935Z" fill="#08C8C7"/>
<mask id="mask2" mask-type="alpha" maskUnits="userSpaceOnUse" x="27" y="0" width="147" height="123">
<path fill-rule="evenodd" clip-rule="evenodd" d="M173.6 0H27.1982V82.4739H30.0363C29.9337 92.7314 36.5952 103.007 50.0208 110.834C76.6685 126.368 119.873 126.368 146.521 110.834C159.946 103.007 166.608 92.7314 166.505 82.4739H173.6V0Z" fill="#C4C4C4"/>
</mask>
<g mask="url(#mask2)">
<ellipse cx="98.4729" cy="92.9777" rx="68.1925" ry="68.858" fill="#1A65FF"/>
<path d="M166.28 85.9752C164.354 102.703 141.623 119.432 109.646 121.766V78.5837C110.031 57.5762 99.2433 37.7358 84.6031 25.6759C131.221 16.7282 163.198 52.1298 166.28 85.9752Z" fill="#10416D"/>
</g>
<mask id="mask3" mask-type="alpha" maskUnits="userSpaceOnUse" x="30" y="21" width="137" height="102">
<mask id="mask4" maskUnits="userSpaceOnUse" x="27" y="0" width="147" height="123">
<path fill-rule="evenodd" clip-rule="evenodd" d="M173.6 0H27.1982V82.4739H30.0363C29.9337 92.7314 36.5952 103.007 50.0208 110.834C76.6685 126.368 119.873 126.368 146.521 110.834C159.946 103.007 166.608 92.7314 166.505 82.4739H173.6V0Z" fill="#C4C4C4"/>
</mask>
<g mask="url(#mask4)">
<ellipse cx="98.4729" cy="89.8655" rx="68.1925" ry="68.858" fill="#1A65FF"/>
</g>
</mask>
<g mask="url(#mask3)">
<rect x="52.6259" y="82.4739" width="57.0197" height="141.606" fill="#1A65FF"/>
</g>
</svg>
