<svg width="195" height="304" viewBox="0 0 195 304" fill="none" xmlns="http://www.w3.org/2000/svg">
<path d="M16.4067 254.792C12.5139 245.117 15.1388 231.119 32.3907 224.515C32.3907 224.515 38.2283 219.665 42.1209 213.291C43.5452 210.959 57.302 200.133 79.1006 198.198C94.2163 196.857 106.47 188.532 123.087 193.942C139.047 203.23 168.588 222.89 175.225 234.281C181.058 244.292 187.012 248.726 183.424 259.732C178.588 274.563 158.491 262.967 146.809 273.368C140.714 278.795 138.246 286.526 134.742 290.396C131.238 294.266 110.218 305.309 93.4799 303.167C76.5391 301 62.7285 291.944 56.5005 279.947C50.2725 267.95 20.2995 264.467 16.4067 254.792Z" fill="#D4AE61"/>
<path d="M27.0625 270.219C23.9473 271.745 24.2062 274.36 27.7044 276.704C31.8265 279.465 39.447 280.427 43.1695 278.656C48.0648 276.328 31.8897 267.855 27.0625 270.219Z" fill="#D4AE61"/>
<path d="M47.4326 287.523C45.148 285.661 44.451 283.5 45.7044 282.166C47.1813 280.593 51.2515 281.183 53.9645 283.364C57.5322 286.231 50.9727 290.408 47.4326 287.523Z" fill="#D4AE61"/>
<path d="M168.766 274.322C169.691 275.818 168.96 277.357 166.955 278.138C164.591 279.059 161.209 278.248 160.092 276.492C158.622 274.184 167.333 272.005 168.766 274.322Z" fill="#D4AE61"/>
<path d="M141.977 205.165C163.388 206.325 203.48 230.32 180.514 259.732L121.348 277.534L109.67 279.468C109.67 279.468 165.722 264.762 165.722 242.316C165.722 234.996 125.813 217.548 102.068 201.295L141.977 205.165Z" fill="#5C6017"/>
<mask id="mask0" mask-type="alpha" maskUnits="userSpaceOnUse" x="9" y="199" width="176" height="105">
<path d="M15.6523 254.314C11.7595 244.638 2.68329 224.153 19.9351 217.549C19.9351 217.549 134.188 174.815 162.015 222.58C167.848 232.591 186.538 244.058 184.202 257.41C180.885 276.373 156.565 261.667 145.276 274.825C139.967 281.014 138.27 286.435 134.766 290.305C131.263 294.175 108.584 305.308 91.8452 303.167C74.9044 300.999 63.1421 291.853 56.9141 279.856C50.6862 267.859 19.5451 263.989 15.6523 254.314Z" fill="#D4AE61"/>
</mask>
<g mask="url(#mask0)">
<path d="M141.978 205.164C163.39 206.325 203.481 230.319 180.515 259.732L121.349 277.534L109.671 279.468C109.671 279.468 165.724 264.762 165.724 242.316C165.724 234.995 125.815 217.548 102.07 201.294L141.978 205.164Z" fill="#83753E"/>
</g>
<path d="M146.569 212.77C173.363 228.148 173.235 252.969 146.181 268.497C119.127 284.025 75.9253 284.011 49.1318 268.633C36.3418 261.292 31.2244 252.766 29.6674 247.348C29.1193 236.77 35.3799 221.021 49.5197 212.905C76.574 197.378 119.776 197.392 146.569 212.77Z" fill="#A89754"/>
<g opacity="0.5">
<mask id="mask1" mask-type="alpha" maskUnits="userSpaceOnUse" x="28" y="200" width="139" height="80">
<circle r="56.209" transform="matrix(0.8673 -0.497787 0.8673 0.497787 97.5 240.182)" fill="#C4C4C4"/>
</mask>
<g mask="url(#mask1)">
<rect x="29.5838" y="195.049" width="137.798" height="85.9144" fill="#F8EEE1"/>
<rect x="109.771" y="195.049" width="69.2884" height="85.9144" fill="#8F9B92"/>
</g>
<rect x="29.5838" y="85.9144" width="137.02" height="153.253" fill="#F8EEE1"/>
<rect x="109.771" y="85.1404" width="56.832" height="157.123" fill="#8F9B92"/>
<path d="M56.832 156.349L66.6038 160.429V210.529L56.832 206.448V156.349Z" fill="#08C8C7"/>
<mask id="mask2" mask-type="alpha" maskUnits="userSpaceOnUse" x="29" y="20" width="139" height="102">
<mask id="mask3" maskUnits="userSpaceOnUse" x="26" y="0" width="149" height="122">
<path fill-rule="evenodd" clip-rule="evenodd" d="M174.389 0H26.4697V82.0444H29.3371C29.2335 92.2484 35.9641 102.471 49.5288 110.257C76.4526 125.709 120.105 125.709 147.029 110.257C160.593 102.471 167.324 92.2484 167.22 82.0444H174.389V0Z" fill="#C4C4C4"/>
</mask>
<g mask="url(#mask3)">
<ellipse cx="98.4829" cy="89.3974" rx="68.8991" ry="68.4993" fill="#1A65FF"/>
</g>
</mask>
<g mask="url(#mask2)">
<mask id="mask4" mask-type="alpha" maskUnits="userSpaceOnUse" x="26" y="0" width="149" height="122">
<path fill-rule="evenodd" clip-rule="evenodd" d="M174.389 0H26.4697V82.0444H29.3371C29.2335 92.2484 35.9641 102.471 49.5288 110.257C76.4526 125.709 120.105 125.709 147.029 110.257C160.593 102.471 167.324 92.2484 167.22 82.0444H174.389V0Z" fill="#C4C4C4"/>
</mask>
<g mask="url(#mask4)">
<ellipse cx="98.4829" cy="92.4934" rx="68.8991" ry="68.4993" fill="#1A65FF"/>
<path d="M166.993 85.5274C165.046 102.168 142.08 118.81 109.771 121.132V78.1743C110.161 57.2763 99.2614 37.5392 84.4695 25.5421C131.57 16.6411 163.879 51.8583 166.993 85.5274Z" fill="#10416D"/>
</g>
</g>
<mask id="mask5" mask-type="alpha" maskUnits="userSpaceOnUse" x="29" y="20" width="139" height="102">
<mask id="mask6" maskUnits="userSpaceOnUse" x="26" y="0" width="149" height="122">
<path fill-rule="evenodd" clip-rule="evenodd" d="M174.389 0H26.4697V82.0444H29.3371C29.2335 92.2484 35.9641 102.471 49.5288 110.257C76.4526 125.709 120.105 125.709 147.029 110.257C160.593 102.471 167.324 92.2484 167.22 82.0444H174.389V0Z" fill="#C4C4C4"/>
</mask>
<g mask="url(#mask6)">
<ellipse cx="98.4829" cy="89.3974" rx="68.8991" ry="68.4993" fill="#1A65FF"/>
</g>
</mask>
<g mask="url(#mask5)">
<rect x="52.1609" y="82.0444" width="57.6106" height="140.869" fill="#1A65FF"/>
</g>
</g>
</svg>
