<svg width="195" height="307" viewBox="0 0 195 307" fill="none" xmlns="http://www.w3.org/2000/svg">
<path d="M16.4067 257.655C12.5139 247.842 15.1388 233.644 32.3907 226.944C32.3907 226.944 38.2283 222.025 42.1209 215.56C43.5452 213.195 57.302 202.214 79.1006 200.251C94.2164 198.89 106.47 190.446 123.087 195.934C139.047 205.355 168.588 225.296 175.225 236.851C181.058 247.005 187.012 251.503 183.424 262.666C178.588 277.709 158.491 265.948 146.809 276.498C140.714 282.002 138.246 289.844 134.742 293.769C131.238 297.695 110.218 308.896 93.4799 306.723C76.5391 304.525 62.7285 295.34 56.5005 283.171C50.2726 271.002 20.2995 267.469 16.4067 257.655Z" fill="#8480AA"/>
<path d="M27.0625 273.303C23.9473 274.85 24.2062 277.504 27.7044 279.88C31.8265 282.681 39.447 283.657 43.1695 281.861C48.0648 279.499 31.8897 270.905 27.0625 273.303Z" fill="#8480AA"/>
<path d="M47.4326 290.855C45.148 288.966 44.451 286.774 45.7043 285.421C47.1813 283.825 51.2515 284.424 53.9645 286.636C57.5322 289.544 50.9727 293.781 47.4326 290.855Z" fill="#8480AA"/>
<path d="M168.766 277.465C169.691 278.982 168.96 280.543 166.955 281.336C164.591 282.269 161.209 281.447 160.092 279.666C158.622 277.325 167.333 275.115 168.766 277.465Z" fill="#8480AA"/>
<path d="M141.977 207.317C163.388 208.495 203.48 232.832 180.514 262.666L121.348 280.723L109.67 282.685C109.67 282.685 165.722 267.768 165.722 245.001C165.722 237.575 125.813 219.878 102.068 203.392L141.977 207.317Z" fill="#175D8B"/>
<mask id="mask0" mask-type="alpha" maskUnits="userSpaceOnUse" x="9" y="202" width="176" height="105">
<path d="M15.6523 257.17C11.7595 247.356 2.68329 226.578 19.9351 219.879C19.9351 219.879 134.188 176.533 162.015 224.982C167.848 235.136 186.538 246.767 184.202 260.31C180.885 279.545 156.565 264.628 145.276 277.975C139.967 284.252 138.27 289.751 134.766 293.676C131.263 297.602 108.584 308.895 91.8452 306.723C74.9043 304.524 63.1421 295.246 56.9141 283.078C50.6862 270.909 19.5451 266.983 15.6523 257.17Z" fill="#D4AE61"/>
</mask>
<g mask="url(#mask0)">
<path d="M141.978 207.317C163.39 208.494 203.481 232.832 180.515 262.665L121.349 280.722L109.671 282.685C109.671 282.685 165.724 267.768 165.724 245.001C165.724 237.575 125.815 219.878 102.07 203.391L141.978 207.317Z" fill="#3B4378"/>
</g>
<path d="M146.569 215.031C173.363 230.63 173.235 255.806 146.181 271.556C119.127 287.307 75.9253 287.292 49.1318 271.694C36.3418 264.248 31.2244 255.6 29.6674 250.105C29.1193 239.375 35.3799 223.4 49.5197 215.169C76.574 199.419 119.776 199.433 146.569 215.031Z" fill="#1A1F3A"/>
<mask id="mask1" mask-type="alpha" maskUnits="userSpaceOnUse" x="28" y="203" width="139" height="81">
<circle r="56.4094" transform="matrix(0.864217 -0.50312 0.864217 0.50312 97.5 243.621)" fill="#C4C4C4"/>
</mask>
<g mask="url(#mask1)">
<rect x="29.5838" y="197.842" width="137.798" height="87.1446" fill="#AB9EA7"/>
<rect x="109.771" y="197.842" width="69.2883" height="87.1446" fill="#667096"/>
</g>
<rect x="29.5838" y="87.1445" width="137.02" height="155.447" fill="#AB9EA7"/>
<rect x="109.771" y="86.3594" width="56.832" height="159.372" fill="#667096"/>
<g filter="url(#filter0_d)">
<path d="M56.832 158.587L66.6037 162.726V213.543L56.832 209.404V158.587Z" fill="#F8EEE1"/>
</g>
<mask id="mask2" mask-type="alpha" maskUnits="userSpaceOnUse" x="29" y="21" width="139" height="103">
<mask id="mask3" maskUnits="userSpaceOnUse" x="26" y="0" width="149" height="124">
<path fill-rule="evenodd" clip-rule="evenodd" d="M174.389 0H26.4697V83.2191H29.3371C29.2335 93.5692 35.9641 103.938 49.5288 111.835C76.4526 127.509 120.105 127.509 147.029 111.835C160.593 103.938 167.324 93.5692 167.22 83.2191H174.389V0Z" fill="#C4C4C4"/>
</mask>
<g mask="url(#mask3)">
<ellipse cx="98.4829" cy="90.6774" rx="68.8991" ry="69.4801" fill="#1A65FF"/>
</g>
</mask>
<g mask="url(#mask2)">
<mask id="mask4" mask-type="alpha" maskUnits="userSpaceOnUse" x="26" y="0" width="149" height="124">
<path fill-rule="evenodd" clip-rule="evenodd" d="M174.389 0H26.4697V83.2191H29.3371C29.2335 93.5692 35.9641 103.938 49.5288 111.835C76.4526 127.509 120.105 127.509 147.029 111.835C160.593 103.938 167.324 93.5692 167.22 83.2191H174.389V0Z" fill="#C4C4C4"/>
</mask>
<g mask="url(#mask4)">
<ellipse cx="98.4829" cy="93.8178" rx="68.8991" ry="69.4801" fill="#6B78ED"/>
<path d="M166.993 86.752C165.046 103.631 142.08 120.511 109.771 122.866V79.2937C110.161 58.0963 99.2614 38.0767 84.4695 25.9079C131.57 16.8794 163.879 52.6008 166.993 86.752Z" fill="#3D529D"/>
</g>
</g>
<mask id="mask5" mask-type="alpha" maskUnits="userSpaceOnUse" x="29" y="21" width="139" height="103">
<mask id="mask6" maskUnits="userSpaceOnUse" x="26" y="0" width="149" height="124">
<path fill-rule="evenodd" clip-rule="evenodd" d="M174.389 0H26.4697V83.2191H29.3371C29.2335 93.5692 35.9641 103.938 49.5288 111.835C76.4526 127.509 120.105 127.509 147.029 111.835C160.593 103.938 167.324 93.5692 167.22 83.2191H174.389V0Z" fill="#C4C4C4"/>
</mask>
<g mask="url(#mask6)">
<ellipse cx="98.4829" cy="90.6774" rx="68.8991" ry="69.4801" fill="#1A65FF"/>
</g>
</mask>
<g mask="url(#mask5)">
<rect x="52.1609" y="83.2191" width="57.6105" height="142.886" fill="#6B78ED"/>
</g>
<defs>
<filter id="filter0_d" x="44.832" y="146.587" width="33.7717" height="78.956" filterUnits="userSpaceOnUse" color-interpolation-filters="sRGB">
<feFlood flood-opacity="0" result="BackgroundImageFix"/>
<feColorMatrix in="SourceAlpha" type="matrix" values="0 0 0 0 0 0 0 0 0 0 0 0 0 0 0 0 0 0 127 0" result="hardAlpha"/>
<feOffset/>
<feGaussianBlur stdDeviation="6"/>
<feColorMatrix type="matrix" values="0 0 0 0 0.972549 0 0 0 0 0.933333 0 0 0 0 0.882353 0 0 0 1 0"/>
<feBlend mode="normal" in2="BackgroundImageFix" result="effect1_dropShadow"/>
<feBlend mode="normal" in="SourceGraphic" in2="effect1_dropShadow" result="shape"/>
</filter>
</defs>
</svg>
