<svg width="206" height="307" viewBox="0 0 206 307" fill="none" xmlns="http://www.w3.org/2000/svg">
<path d="M16.4668 257.372C12.5597 247.569 15.1943 233.387 32.5092 226.695C32.5092 226.695 38.3681 221.781 42.275 215.323C43.7045 212.96 57.5116 201.991 79.3899 200.031C94.5609 198.671 106.859 190.237 123.537 195.718C139.555 205.129 169.205 225.048 175.866 236.59C181.72 246.734 187.696 251.226 184.095 262.377C179.241 277.404 159.071 265.655 147.346 276.193C141.228 281.692 138.751 289.525 135.235 293.446C131.718 297.367 110.622 308.556 93.8218 306.386C76.819 304.19 62.9579 295.015 56.7072 282.859C50.4565 270.704 20.3738 267.175 16.4668 257.372Z" fill="#8480AA"/>
<path d="M27.1615 273.002C24.0349 274.548 24.2948 277.198 27.8057 279.573C31.9429 282.37 39.5913 283.345 43.3274 281.551C48.2406 279.192 32.0064 270.607 27.1615 273.002Z" fill="#8480AA"/>
<path d="M47.606 290.535C45.3131 288.649 44.6135 286.459 45.8715 285.107C47.3538 283.513 51.4389 284.111 54.1618 286.321C57.7426 289.226 51.159 293.458 47.606 290.535Z" fill="#8480AA"/>
<path d="M169.384 277.16C170.312 278.675 169.578 280.235 167.565 281.026C165.193 281.959 161.799 281.137 160.677 279.359C159.202 277.02 167.945 274.812 169.384 277.16Z" fill="#8480AA"/>
<path d="M142.496 207.089C163.986 208.265 204.224 232.576 181.174 262.377L121.791 280.414L110.071 282.374C110.071 282.374 166.328 267.474 166.328 244.731C166.328 237.314 126.273 219.636 102.442 203.168L142.496 207.089Z" fill="#175D8B"/>
<mask id="mask0" mask-type="alpha" maskUnits="userSpaceOnUse" x="9" y="201" width="177" height="106">
<path d="M15.7095 256.887C11.8025 247.084 2.6931 226.329 20.008 219.637C20.008 219.637 134.678 176.339 162.608 224.734C168.461 234.878 187.22 246.496 184.876 260.024C181.547 279.237 157.137 264.337 145.807 277.669C140.478 283.94 138.776 289.432 135.259 293.353C131.742 297.274 108.981 308.555 92.181 306.385C75.1782 304.189 63.373 294.922 57.1222 282.766C50.8715 270.611 19.6165 266.69 15.7095 256.887Z" fill="#D4AE61"/>
</mask>
<g mask="url(#mask0)">
<path d="M142.497 207.089C163.987 208.265 204.225 232.576 181.175 262.377L121.793 280.414L110.072 282.374C110.072 282.374 166.33 267.473 166.33 244.731C166.33 237.314 126.275 219.636 102.443 203.168L142.497 207.089Z" fill="#3B4378"/>
</g>
<path d="M147.105 214.795C173.996 230.376 173.869 255.525 146.716 271.258C119.562 286.991 76.2029 286.976 49.3115 271.395C36.4747 263.958 31.3386 255.319 29.7759 249.83C29.2258 239.112 35.5093 223.155 49.7008 214.932C76.854 199.199 120.214 199.214 147.105 214.795Z" fill="#1A1F3A"/>
<mask id="mask1" mask-type="alpha" maskUnits="userSpaceOnUse" x="28" y="203" width="140" height="81">
<circle r="56.5479" transform="matrix(0.865253 -0.501336 0.865253 0.501336 97.8565 243.353)" fill="#C4C4C4"/>
</mask>
<g mask="url(#mask1)">
<rect x="29.692" y="197.624" width="138.302" height="87.0487" fill="#AB9EA7"/>
<rect x="110.173" y="197.624" width="69.5417" height="87.0487" fill="#667096"/>
</g>
<rect x="29.692" y="87.0487" width="137.521" height="155.276" fill="#AB9EA7"/>
<rect x="110.173" y="86.2644" width="57.0399" height="159.197" fill="#667096"/>
<g filter="url(#filter0_d)">
<path d="M142.639 158.413L132.832 162.547V213.309L142.639 209.174V158.413Z" fill="#F8EEE1"/>
</g>
<mask id="mask2" mask-type="alpha" maskUnits="userSpaceOnUse" x="29" y="21" width="139" height="103">
<mask id="mask3" maskUnits="userSpaceOnUse" x="26" y="0" width="150" height="124">
<path fill-rule="evenodd" clip-rule="evenodd" d="M175.026 0H26.5665V83.1276H29.4444C29.3405 93.4663 36.0956 103.824 49.7099 111.712C76.7322 127.369 120.544 127.369 147.566 111.712C161.181 103.824 167.936 93.4663 167.832 83.1276H175.026V0Z" fill="#C4C4C4"/>
</mask>
<g mask="url(#mask3)">
<ellipse cx="98.8431" cy="90.5777" rx="69.1511" ry="69.4037" fill="#1A65FF"/>
</g>
</mask>
<g mask="url(#mask2)">
<mask id="mask4" mask-type="alpha" maskUnits="userSpaceOnUse" x="26" y="0" width="150" height="124">
<path fill-rule="evenodd" clip-rule="evenodd" d="M175.026 0H26.5665V83.1276H29.4444C29.3405 93.4663 36.0956 103.824 49.7099 111.712C76.7322 127.369 120.544 127.369 147.566 111.712C161.181 103.824 167.936 93.4663 167.832 83.1276H175.026V0Z" fill="#C4C4C4"/>
</mask>
<g mask="url(#mask4)">
<ellipse cx="98.8431" cy="93.7146" rx="69.1511" ry="69.4037" fill="#6B78ED"/>
<path d="M167.603 86.6566C165.65 103.517 142.6 120.378 110.173 122.731V79.2065C110.564 58.0324 99.6244 38.0348 84.7784 25.8793C132.051 16.8608 164.478 52.5429 167.603 86.6566Z" fill="#3D529D"/>
</g>
</g>
<mask id="mask5" mask-type="alpha" maskUnits="userSpaceOnUse" x="29" y="21" width="139" height="103">
<mask id="mask6" maskUnits="userSpaceOnUse" x="26" y="0" width="150" height="124">
<path fill-rule="evenodd" clip-rule="evenodd" d="M175.026 0H26.5665V83.1276H29.4444C29.3405 93.4663 36.0956 103.824 49.7099 111.712C76.7322 127.369 120.544 127.369 147.566 111.712C161.181 103.824 167.936 93.4663 167.832 83.1276H175.026V0Z" fill="#C4C4C4"/>
</mask>
<g mask="url(#mask6)">
<ellipse cx="98.8431" cy="90.5777" rx="69.1511" ry="69.4037" fill="#1A65FF"/>
</g>
</mask>
<g mask="url(#mask5)">
<rect x="52.3517" y="83.1276" width="57.8212" height="142.729" fill="#6B78ED"/>
</g>
<defs>
<filter id="filter0_d" x="120.832" y="146.413" width="33.8075" height="78.8956" filterUnits="userSpaceOnUse" color-interpolation-filters="sRGB">
<feFlood flood-opacity="0" result="BackgroundImageFix"/>
<feColorMatrix in="SourceAlpha" type="matrix" values="0 0 0 0 0 0 0 0 0 0 0 0 0 0 0 0 0 0 127 0" result="hardAlpha"/>
<feOffset/>
<feGaussianBlur stdDeviation="6"/>
<feColorMatrix type="matrix" values="0 0 0 0 0.972549 0 0 0 0 0.933333 0 0 0 0 0.882353 0 0 0 1 0"/>
<feBlend mode="normal" in2="BackgroundImageFix" result="effect1_dropShadow"/>
<feBlend mode="normal" in="SourceGraphic" in2="effect1_dropShadow" result="shape"/>
</filter>
</defs>
</svg>
