<svg width="195" height="305" viewBox="0 0 195 305" fill="none" xmlns="http://www.w3.org/2000/svg">
<path d="M16.4067 255.977C12.5139 246.227 15.1388 232.121 32.3907 225.466C32.3907 225.466 38.2283 220.579 42.1209 214.156C43.5452 211.806 57.302 200.896 79.1006 198.947C94.2163 197.594 106.47 189.206 123.087 194.657C139.047 204.017 168.588 223.828 175.225 235.308C181.058 245.396 187.012 249.864 183.424 260.955C178.588 275.9 158.491 264.215 146.809 274.696C140.714 280.165 138.246 287.956 134.742 291.855C131.238 295.755 110.218 306.883 93.4799 304.725C76.5391 302.541 62.7285 293.415 56.5005 281.326C50.2725 269.236 20.2995 265.726 16.4067 255.977Z" fill="#D4AE61"/>
<path d="M27.0625 271.522C23.9473 273.06 24.2062 275.696 27.7044 278.057C31.8265 280.84 39.447 281.809 43.1695 280.025C48.0648 277.678 31.8897 269.14 27.0625 271.522Z" fill="#D4AE61"/>
<path d="M47.4326 288.96C45.148 287.084 44.451 284.906 45.7044 283.561C47.1813 281.976 51.2515 282.571 53.9645 284.768C57.5322 287.658 50.9727 291.867 47.4326 288.96Z" fill="#D4AE61"/>
<path d="M168.766 275.658C169.691 277.165 168.96 278.716 166.955 279.503C164.591 280.43 161.209 279.613 160.092 277.844C158.622 275.518 167.333 273.322 168.766 275.658Z" fill="#D4AE61"/>
<path d="M141.977 205.967C163.388 207.136 203.48 231.316 180.514 260.954L121.348 278.894L109.67 280.843C109.67 280.843 165.722 266.024 165.722 243.405C165.722 236.028 125.813 218.446 102.068 202.067L141.977 205.967Z" fill="#5C6017"/>
<mask id="mask0" mask-type="alpha" maskUnits="userSpaceOnUse" x="9" y="200" width="176" height="105">
<path d="M15.6523 255.494C11.7595 245.745 2.68329 225.102 19.9351 218.446C19.9351 218.446 134.188 175.383 162.015 223.516C167.848 233.604 186.538 245.16 184.202 258.614C180.885 277.724 156.565 262.904 145.276 276.164C139.967 282.4 138.27 287.863 134.766 291.763C131.263 295.663 108.584 306.882 91.8452 304.724C74.9044 302.54 63.1421 293.323 56.9141 281.233C50.6862 269.144 19.5451 265.244 15.6523 255.494Z" fill="#D4AE61"/>
</mask>
<g mask="url(#mask0)">
<path d="M141.978 205.966C163.39 207.136 203.481 231.315 180.515 260.954L121.349 278.894L109.671 280.843C109.671 280.843 165.724 266.023 165.724 243.405C165.724 236.027 125.815 218.445 102.07 202.066L141.978 205.966Z" fill="#83753E"/>
</g>
<path d="M146.569 213.63C173.363 229.127 173.235 254.14 146.181 269.787C119.127 285.435 75.9253 285.421 49.1318 269.924C36.3418 262.527 31.2244 253.935 29.6674 248.475C29.1193 237.815 35.3799 221.945 49.5197 213.767C76.574 198.119 119.776 198.134 146.569 213.63Z" fill="#A89754"/>
<mask id="mask1" mask-type="alpha" maskUnits="userSpaceOnUse" x="28" y="202" width="139" height="80">
<circle r="56.3166" transform="matrix(0.865641 -0.500665 0.865641 0.500665 97.5 242.034)" fill="#C4C4C4"/>
</mask>
<g mask="url(#mask1)">
<rect x="29.5838" y="196.553" width="137.798" height="86.5768" fill="#F8EEE1"/>
<rect x="109.771" y="196.553" width="69.2884" height="86.5768" fill="#8F9B92"/>
</g>
<rect x="29.5838" y="86.5768" width="137.02" height="154.434" fill="#F8EEE1"/>
<rect x="109.771" y="85.7968" width="56.832" height="158.334" fill="#8F9B92"/>
<path d="M56.832 157.554L66.6038 161.666V212.152L56.832 208.04V157.554Z" fill="#08C8C7"/>
<mask id="mask2" mask-type="alpha" maskUnits="userSpaceOnUse" x="29" y="21" width="139" height="102">
<mask id="mask3" maskUnits="userSpaceOnUse" x="26" y="0" width="149" height="123">
<path fill-rule="evenodd" clip-rule="evenodd" d="M174.389 0H26.4697V82.6769H29.3371C29.2335 92.9596 35.9641 103.261 49.5288 111.107C76.4526 126.679 120.105 126.679 147.029 111.107C160.593 103.261 167.324 92.9596 167.22 82.6769H174.389V0Z" fill="#C4C4C4"/>
</mask>
<g mask="url(#mask3)">
<ellipse cx="98.4829" cy="90.0866" rx="68.8991" ry="69.0275" fill="#1A65FF"/>
</g>
</mask>
<g mask="url(#mask2)">
<mask id="mask4" mask-type="alpha" maskUnits="userSpaceOnUse" x="26" y="0" width="149" height="123">
<path fill-rule="evenodd" clip-rule="evenodd" d="M174.389 0H26.4697V82.6769H29.3371C29.2335 92.9596 35.9641 103.261 49.5288 111.107C76.4526 126.679 120.105 126.679 147.029 111.107C160.593 103.261 167.324 92.9596 167.22 82.6769H174.389V0Z" fill="#C4C4C4"/>
</mask>
<g mask="url(#mask4)">
<ellipse cx="98.4829" cy="93.2066" rx="68.8991" ry="69.0275" fill="#1A65FF"/>
<path d="M166.993 86.1868C165.046 102.956 142.08 119.726 109.771 122.065V78.7771C110.161 57.7179 99.2614 37.8287 84.4695 25.7391C131.57 16.7694 163.879 52.2581 166.993 86.1868Z" fill="#10416D"/>
</g>
</g>
<mask id="mask5" mask-type="alpha" maskUnits="userSpaceOnUse" x="29" y="21" width="139" height="102">
<mask id="mask6" maskUnits="userSpaceOnUse" x="26" y="0" width="149" height="123">
<path fill-rule="evenodd" clip-rule="evenodd" d="M174.389 0H26.4697V82.6769H29.3371C29.2335 92.9596 35.9641 103.261 49.5288 111.107C76.4526 126.679 120.105 126.679 147.029 111.107C160.593 103.261 167.324 92.9596 167.22 82.6769H174.389V0Z" fill="#C4C4C4"/>
</mask>
<g mask="url(#mask6)">
<ellipse cx="98.4829" cy="90.0866" rx="68.8991" ry="69.0275" fill="#1A65FF"/>
</g>
</mask>
<g mask="url(#mask5)">
<rect x="52.1609" y="82.677" width="57.6106" height="141.955" fill="#1A65FF"/>
</g>
</svg>
