<svg width="199" height="270" viewBox="0 0 199 270" fill="none" xmlns="http://www.w3.org/2000/svg">
<path d="M1.44614 221.161C-2.42292 211.448 0.935646 202.149 18.0823 195.518C18.0823 195.518 131.638 152.616 159.296 200.569C165.093 210.62 172.922 217.494 169.355 228.543C164.549 243.432 142.665 229.368 131.053 239.81C124.995 245.258 122.542 253.019 119.06 256.905C115.578 260.79 94.686 271.876 78.0495 269.726C61.2119 267.55 47.4855 258.459 41.2955 246.415C35.1055 234.37 5.3152 230.874 1.44614 221.161Z" fill="#8981B4"/>
<path d="M146.178 246.102C149.276 247.631 149.02 250.257 145.545 252.612C141.45 255.387 133.877 256.359 130.176 254.584C125.309 252.249 141.379 243.731 146.178 246.102Z" fill="#8981B4"/>
<path d="M20.8351 243.584C18.5645 241.715 17.8716 239.545 19.1174 238.205C20.5853 236.626 24.6308 237.219 27.3272 239.408C30.8731 242.286 24.3536 246.48 20.8351 243.584Z" fill="#8981B4"/>
<path d="M154.584 240.433C155.503 241.934 154.776 243.479 152.783 244.264C150.433 245.188 147.072 244.373 145.962 242.611C144.501 240.294 153.159 238.106 154.584 240.433Z" fill="#8981B4"/>
<path d="M84.6491 178.332L100.125 172.115L157.384 182.994L177.89 219.359L84.6491 257.202L84.6491 178.332Z" fill="#175D8B"/>
<mask id="mask0" mask-type="alpha" maskUnits="userSpaceOnUse" x="0" y="177" width="171" height="93">
<path d="M1.44614 221.161C-2.42292 211.448 0.935646 202.149 18.0823 195.518C18.0823 195.518 131.638 152.616 159.296 200.569C165.093 210.62 172.922 217.494 169.355 228.543C164.549 243.432 142.665 229.368 131.053 239.81C124.995 245.258 122.542 253.019 119.06 256.905C115.578 260.79 94.686 271.876 78.0495 269.726C61.2119 267.55 47.4855 258.459 41.2955 246.415C35.1055 234.37 5.3152 230.874 1.44614 221.161Z" fill="#D4AE61"/>
</mask>
<g mask="url(#mask0)">
<path d="M84.967 178.046L100.443 171.83L157.702 182.709L178.208 219.073L84.9669 256.917L84.967 178.046Z" fill="#3B4378"/>
</g>
<rect width="78.9005" height="78.9005" transform="matrix(0.865129 -0.50155 0.865129 0.50155 16.1707 217.766)" fill="#4D5797"/>
<g opacity="0.5">
<path d="M83.1809 0L153.981 67.6029L85.1153 107.621L83.1809 0Z" fill="#3F4B80"/>
<path d="M83.1809 0.38855L16.2493 67.6029L85.1154 107.621L83.1809 0.38855Z" fill="#946F6F"/>
<path d="M16.2493 67.6028L85.1153 107.621V257.59L16.2493 217.572V67.6028Z" fill="#9D8797"/>
<g filter="url(#filter0_d)">
<path d="M42.5576 130.195L56.4852 138.525V188.821L42.5576 180.492V130.195Z" fill="#F8EEE1"/>
</g>
<path d="M153.981 67.6028L85.1153 107.621V257.59L153.981 217.572V67.6028Z" fill="#5B658B"/>
</g>
<defs>
<filter id="filter0_d" x="30.5576" y="118.195" width="37.9276" height="82.6264" filterUnits="userSpaceOnUse" color-interpolation-filters="sRGB">
<feFlood flood-opacity="0" result="BackgroundImageFix"/>
<feColorMatrix in="SourceAlpha" type="matrix" values="0 0 0 0 0 0 0 0 0 0 0 0 0 0 0 0 0 0 127 0" result="hardAlpha"/>
<feOffset/>
<feGaussianBlur stdDeviation="6"/>
<feColorMatrix type="matrix" values="0 0 0 0 0.972549 0 0 0 0 0.933333 0 0 0 0 0.882353 0 0 0 1 0"/>
<feBlend mode="normal" in2="BackgroundImageFix" result="effect1_dropShadow"/>
<feBlend mode="normal" in="SourceGraphic" in2="effect1_dropShadow" result="shape"/>
</filter>
</defs>
</svg>
