<svg width="330" height="263" viewBox="0 0 330 263" fill="none" xmlns="http://www.w3.org/2000/svg">
<path d="M139.776 74.0012C141.895 77.7713 146.005 77.2997 148.601 76.6326C151.883 75.7892 154.965 76.1064 156.29 75.2685C165.352 69.5388 136.082 67.4284 139.776 74.0012Z" fill="#D4AE61"/>
<path d="M127.183 80.2721C132.907 81.4493 129.984 83.8861 126.705 85.6708C121.803 88.3389 125.594 95.8221 116.555 94.0868C102.103 91.3124 117.205 78.2199 127.183 80.2721Z" fill="#D4AE61"/>
<path d="M216.549 97.3076C209.279 97.601 210.464 94.112 212.583 91.2411C215.751 86.9491 205.358 79.7754 216.737 79.176C234.929 78.2178 229.225 96.7961 216.549 97.3076Z" fill="#D4AE61"/>
<path d="M201.494 109.191C197.763 106.256 201.149 105.324 204.484 105.038C209.47 104.611 210.265 97.3033 216.217 101.84C225.731 109.092 207.997 114.308 201.494 109.191Z" fill="#D4AE61"/>
<path d="M116.755 96.8482C122.6 98.6162 124.706 104.618 119.391 109.558C114.2 114.382 108.565 110.641 102.862 115.156C98.6472 118.493 92.5287 126.86 85.4863 126.087C74.609 124.892 77.5522 106.251 91.63 105.731C108.843 105.096 106.513 93.75 116.755 96.8482Z" fill="#D4AE61"/>
<path d="M159.524 68.8359C160.654 61.692 176.261 62.2209 187.3 65.5145C194.594 67.6909 198.685 71.579 201.2 74.0474C206.237 78.9896 206.76 84.3427 203.237 89.4276C201.168 92.4136 214.413 97.4378 201.803 101.888C191.427 105.549 184.946 101.05 178.022 95.2781C174.058 91.9734 166.083 92.2713 155.072 97.102C146.565 100.835 147.792 112.73 133.493 108.035C128.074 106.255 121.6 92.4315 133.54 83.8368C138.662 80.1488 144.388 79.3861 151.874 80.6576C157.789 81.6622 163.078 80.9354 165.967 79.1321C171.055 75.9565 158.843 73.1436 159.524 68.8359Z" fill="#D4AE61"/>
<path d="M178.194 57.2065C178.088 55.8569 175.995 54.9801 173.005 55.0328C169.482 55.0948 166.143 56.7035 166.229 58.2974C166.343 60.3934 178.358 59.298 178.194 57.2065Z" fill="#D4AE61"/>
<path d="M153.312 104.732C155.228 101.375 163.771 97.6558 169.794 98.4839C180.302 99.9286 199.503 107.794 197.638 113.936C195.611 120.612 178.834 113.327 167.691 115.462C145.991 119.618 148.969 141.046 126.293 139.361C112.61 138.344 97.4219 135.374 97.6664 127.411C97.8733 120.672 109.27 115.918 118.806 115.207C128.986 114.449 135.8 115.779 144.79 112.919C152.032 110.615 150.724 109.266 153.312 104.732Z" fill="#D4AE61"/>
<path d="M214.751 76.7471C218.046 75.5175 219.121 73.2398 217.418 71.1002C215.41 68.579 209.66 67.513 205.749 68.937C200.605 70.8095 209.646 78.6527 214.751 76.7471Z" fill="#D4AE61"/>
<path d="M159.038 129.628C163.021 131.549 168.381 131.531 172.327 129.585C176.976 127.291 176.973 122.836 172.322 120.545C166.205 117.531 152.865 126.653 159.038 129.628Z" fill="#D4AE61"/>
<path d="M70.9037 114.665C65.7205 114.516 61.4584 116.392 60.3369 119.317C59.0154 122.764 63.6613 126.321 69.7654 126.535C77.7925 126.817 78.9356 114.897 70.9037 114.665Z" fill="#D4AE61"/>
<path d="M147.946 133.851C147.414 135.888 148.998 137.746 151.874 138.457C155.263 139.296 159.202 137.783 159.867 135.387C160.742 132.237 148.771 130.694 147.946 133.851Z" fill="#D4AE61"/>
<path d="M90.4123 130.102C84.7503 128.733 79.4285 127.89 75.6682 130.06C67.2309 134.929 89.6576 141.1 96.6303 145.126C102.509 148.519 114.286 156.705 121.863 156.728C129.908 156.752 137.919 155.486 138.117 150.866C138.226 148.331 136.496 146.649 133.574 144.432C126.155 138.804 114.393 145.74 104.474 141.608C96.7445 138.388 99.0001 132.179 90.4123 130.102Z" fill="#D4AE61"/>
</svg>
