<svg width="330" height="263" viewBox="0 0 330 263" fill="none" xmlns="http://www.w3.org/2000/svg">
<path d="M73.9961 59.6204C81.8949 56.6913 84.1707 62.7775 84.7528 68.1712C85.623 76.2346 101.574 80.4485 95.7407 84.6336C77.4755 97.739 60.2255 64.7269 73.9961 59.6204Z" fill="#D4AE61"/>
<path d="M80.2697 109.722C84.2055 112.881 87.3143 110.878 89.2029 108.752C92.0262 105.574 105.928 106.807 99.9209 101.801C90.3166 93.7988 73.408 104.214 80.2697 109.722Z" fill="#D4AE61"/>
<path d="M102.723 52.8604C112.314 50.1729 123.513 49.4487 129.895 54.3784C136.128 59.1925 120.334 64.3451 125.513 69.5591C129.339 73.4116 138.253 71.8082 142.167 75.6313C150.228 83.5061 115.271 85.173 102.285 79.9325C87.274 73.8752 86.247 57.4772 102.723 52.8604Z" fill="#D4AE61"/>
<path d="M99.155 88.3723C102.496 85.4496 108.506 84.4291 114.056 85.8422C120.596 87.5073 123.187 92.4943 119.315 95.9626C114.223 100.524 93.978 92.9013 99.155 88.3723Z" fill="#D4AE61"/>
<path d="M221.91 98.8114C225.913 100.78 225.583 104.159 221.092 107.19C215.799 110.762 206.012 112.012 201.229 109.727C194.938 106.723 215.707 95.7612 221.91 98.8114Z" fill="#D4AE61"/>
<path d="M105.172 49.0831C99.0874 51.3729 92.4764 52.4413 88.7813 51.7318C84.4272 50.8957 87.1282 47.4488 94.2626 44.7366C103.645 41.1699 114.6 45.5348 105.172 49.0831Z" fill="#D4AE61"/>
<path d="M176.329 126.67C178.71 128.565 178.442 130.97 175.666 132.634C172.395 134.594 166.452 134.346 163.606 132.131C159.863 129.218 172.64 123.733 176.329 126.67Z" fill="#D4AE61"/>
<path d="M134.504 58.6438C134.182 61.9676 128.448 63.5781 130.331 66.7634C133.523 72.1636 147.233 64.7521 152.075 59.9217C154.698 57.3044 155.498 55.4206 155.287 52.3562C154.844 45.9183 147.812 42.0954 137.888 38.9867C131.972 37.1338 127.872 36.3052 121.262 36.5921C115.91 36.8245 111.027 39.038 111.663 42.1334C112.403 45.7332 122.337 46.3363 126.429 47.8842C134.794 51.0483 135.026 53.2434 134.504 58.6438Z" fill="#D4AE61"/>
<path d="M147.879 76.2903C152.938 78.4334 154.544 76.4886 155.037 74.5725C155.774 71.7081 168.371 71.2513 160.551 67.8321C148.049 62.3658 139.058 72.5542 147.879 76.2903Z" fill="#D4AE61"/>
<path d="M165.873 121.262C161.89 117.595 150.927 116.402 142.919 119.894C135.098 123.304 142.555 126.791 135.356 130.519C130.037 133.273 116.058 137.357 118.447 141.808C122.136 148.683 154.822 146.368 153.716 137.421C152.364 126.482 172.852 127.688 165.873 121.262Z" fill="#D4AE61"/>
<path d="M163.21 59.2241C167.747 56.9002 174.01 56.8125 178.737 59.0067C184.308 61.5922 184.575 66.7964 179.28 69.5681C172.317 73.2129 156.179 62.8253 163.21 59.2241Z" fill="#D4AE61"/>
<path d="M134.935 151.314C135.192 154.291 131.958 156.74 126.915 157.384C120.973 158.143 114.842 155.474 114.473 151.968C113.988 147.356 134.535 146.699 134.935 151.314Z" fill="#D4AE61"/>
<path d="M191.918 79.5703C188.983 77.1651 188.088 74.3734 189.698 72.649C191.595 70.617 196.823 71.3795 200.308 74.1965C204.891 77.9009 196.465 83.2975 191.918 79.5703Z" fill="#D4AE61"/>
<path d="M62.7136 73.3174C59.2017 73.6231 55.9987 72.7129 54.7724 71.0607C53.3274 69.1138 55.9354 66.8511 60.0651 66.4688C65.4959 65.9661 68.1555 72.8436 62.7136 73.3174Z" fill="#D4AE61"/>
<path d="M232.772 91.5162C233.959 93.4484 233.021 95.4369 230.444 96.4461C227.408 97.6354 223.064 96.5875 221.629 94.3197C219.741 91.3373 230.931 88.522 232.772 91.5162Z" fill="#D4AE61"/>
<path d="M108.332 140.107C110.692 143.36 112.145 146.417 108.404 148.578C100.011 153.425 89.3729 140.541 82.434 136.535C76.5843 133.158 62.4733 126.392 62.4343 122.039C62.3929 117.417 64.5754 112.815 72.5385 112.701C76.9082 112.639 79.8081 113.632 83.6298 115.311C93.3314 119.573 81.3748 126.33 88.4983 132.029C94.0495 136.47 104.752 135.174 108.332 140.107Z" fill="#D4AE61"/>
<path d="M216.795 83.81C221.427 87.2862 218.109 92.1584 212.85 95.1949C206.629 98.7861 198.084 98.0329 194.005 102.533C185.729 111.665 204.512 110.116 200.568 115.935C197.336 120.706 189.768 124.748 178.217 122.261C167.696 119.997 174.644 116.557 164.203 114.171C141.229 108.921 140.685 120.372 120.814 111.893C110.734 107.592 112.049 101.267 123.882 98.9897C144.87 94.951 141.851 88.6153 152.37 81.0259C160.742 74.9856 165.079 70.1455 176.036 72.9296C184.161 74.994 182.775 81.0536 189.622 84.3153C199.518 89.0298 208.029 77.2308 216.795 83.81Z" fill="#D4AE61"/>
<path d="M126.399 119.321C137.836 134.279 110.287 139.216 98.4543 132.384C94.3126 129.993 94.5062 130.601 95.3863 124.542C96.2678 118.472 85.2984 115.175 93.1858 110.621C100.269 106.531 119.245 109.965 126.399 119.321Z" fill="#D4AE61"/>
</svg>
