<svg width="330" height="263" viewBox="0 0 330 263" fill="none" xmlns="http://www.w3.org/2000/svg">
<path d="M227.359 40.8406C232.396 45.3674 221.93 46.6717 212.655 47.0053C198.789 47.504 191.543 56.6453 184.346 53.3025C161.81 42.8347 218.578 32.9487 227.359 40.8406Z" fill="#D4AE61"/>
<path d="M141.208 44.4357C135.775 46.6914 139.22 48.4731 142.875 49.5554C148.339 51.1734 146.22 59.1408 154.828 55.6979C168.589 50.1937 150.679 40.5033 141.208 44.4357Z" fill="#D4AE61"/>
<path d="M238.984 57.3051C243.605 62.8017 244.85 69.2197 236.373 72.8777C228.095 76.4497 219.235 67.3983 210.269 70.366C203.644 72.5587 206.401 77.6676 199.827 79.9104C186.285 84.5302 183.419 64.4964 192.43 57.0539C202.847 48.4514 231.045 47.8628 238.984 57.3051Z" fill="#D4AE61"/>
<path d="M177.92 55.2592C182.946 57.1739 184.701 60.6183 182.271 63.799C179.408 67.5469 170.832 69.0321 164.868 66.813C157.025 63.8948 170.132 52.2922 177.92 55.2592Z" fill="#D4AE61"/>
<path d="M159.964 125.611C156.58 127.905 150.768 127.716 145.556 125.142C139.415 122.109 137.265 116.499 141.193 113.758C146.359 110.153 165.21 122.056 159.964 125.611Z" fill="#D4AE61"/>
<path d="M245.49 58.7058C241.552 55.2189 239.715 51.4302 240.935 49.3125C242.373 46.8172 248.3 48.3651 252.964 52.4539C259.097 57.8308 251.591 64.1092 245.49 58.7058Z" fill="#D4AE61"/>
<path d="M112.062 99.4832C108.804 100.848 104.667 100.694 101.806 99.1035C98.4355 97.2287 98.8617 93.8228 102.671 92.1915C107.681 90.0464 117.112 97.3688 112.062 99.4832Z" fill="#D4AE61"/>
<path d="M229.045 75.5156C223.33 75.3312 220.56 72.0452 215.083 73.1244C205.797 74.9539 218.542 82.8109 226.848 85.5856C231.349 87.089 234.588 87.5476 239.858 87.4267C250.928 87.1727 257.502 83.1425 262.848 77.455C266.034 74.065 267.459 71.7153 266.965 67.9267C266.566 64.8595 262.76 62.061 257.437 62.4257C251.246 62.8499 250.209 68.5427 247.548 70.888C242.107 75.682 238.332 75.8152 229.045 75.5156Z" fill="#D4AE61"/>
<path d="M198.696 83.1828C195.011 86.0824 198.355 87.0028 201.65 87.2853C206.576 87.7076 207.361 94.9267 213.241 90.4451C222.641 83.2803 205.121 78.1277 198.696 83.1828Z" fill="#D4AE61"/>
<path d="M121.359 93.4953C127.665 91.2128 129.716 84.9297 123.712 80.3402C117.849 75.8585 111.853 80.132 105.442 76.0064C100.705 72.958 93.6828 64.9464 86.0287 66.3154C74.2066 68.43 78.1868 87.1623 93.5725 86.5284C112.384 85.7534 110.309 97.495 121.359 93.4953Z" fill="#D4AE61"/>
<path d="M228.044 91.9695C232.04 94.5699 232.191 98.1592 228.418 100.868C223.971 104.061 215.022 104.214 210.256 101.179C203.989 97.1887 221.851 87.9399 228.044 91.9695Z" fill="#D4AE61"/>
<path d="M69.685 75.7665C64.5645 75.9141 60.3539 74.0603 59.246 71.1705C57.9405 67.7652 62.5302 64.2516 68.5605 64.04C76.4905 63.7618 77.6198 75.5377 69.685 75.7665Z" fill="#D4AE61"/>
<path d="M193.054 108.419C197.19 106.737 201.99 106.224 204.956 107.147C208.45 108.234 207.139 111.23 202.295 113.228C195.924 115.854 186.644 111.025 193.054 108.419Z" fill="#D4AE61"/>
<path d="M203.808 34.3763C203.282 32.3637 204.847 30.528 207.689 29.8253C211.037 28.9971 214.927 30.4918 215.585 32.8585C216.449 35.9709 204.623 37.4951 203.808 34.3763Z" fill="#D4AE61"/>
<path d="M172.51 131.836C169.187 132.517 165.767 131.979 164.032 130.502C161.987 128.762 163.789 126.273 167.689 125.45C172.817 124.368 177.658 130.781 172.51 131.836Z" fill="#D4AE61"/>
<path d="M88.9546 60.5162C83.361 61.8689 78.1036 62.7018 74.3887 60.5578C66.0535 55.7474 88.2089 49.6509 95.0974 45.6742C100.905 42.3217 112.539 34.2347 120.024 34.2123C127.972 34.1886 135.887 35.4394 136.083 40.0031C136.19 42.5073 134.481 44.1693 131.594 46.3595C124.265 51.9195 112.645 45.0672 102.846 49.1496C95.2102 52.331 97.4385 58.4646 88.9546 60.5162Z" fill="#D4AE61"/>
<path d="M185.768 122.681C179.79 125.335 171.412 123.434 166.19 120.42C160.015 116.855 161.31 111.957 153.572 109.62C137.869 104.877 140.533 115.641 130.525 113.381C122.321 111.529 115.371 107.191 119.647 100.572C123.541 94.542 129.456 98.5237 133.558 92.5403C142.586 79.3736 122.896 79.0619 137.476 67.6741C144.872 61.8972 155.749 62.6507 159.665 69.4323C166.61 81.4602 177.504 79.73 190.555 85.7584C200.942 90.5564 209.265 93.042 204.478 99.3216C200.928 103.978 190.507 103.184 184.899 107.108C176.792 112.779 197.081 117.657 185.768 122.681Z" fill="#D4AE61"/>
<path d="M124.704 70.8752C98.9814 77.4297 90.4928 61.6416 102.24 54.86C106.351 52.4864 105.306 52.5974 115.726 53.1017C126.164 53.6069 131.834 47.3203 139.664 51.8406C146.697 55.9 140.793 66.7753 124.704 70.8752Z" fill="#D4AE61"/>
</svg>
