<svg width="330" height="263" viewBox="0 0 330 263" fill="none" xmlns="http://www.w3.org/2000/svg">
<path d="M139.964 114.999C142.083 111.229 146.192 111.7 148.788 112.367C152.071 113.211 155.153 112.894 156.478 113.731C165.539 119.461 136.269 121.572 139.964 114.999Z" fill="#D4AE61"/>
<path d="M127.371 108.728C133.094 107.551 130.171 105.114 126.892 103.329C121.99 100.661 125.781 93.1779 116.742 94.9132C102.291 97.6876 117.392 110.78 127.371 108.728Z" fill="#D4AE61"/>
<path d="M216.737 91.6924C209.467 91.399 210.652 94.888 212.771 97.7589C215.939 102.051 205.545 109.225 216.924 109.824C235.117 110.782 229.412 92.2039 216.737 91.6924Z" fill="#D4AE61"/>
<path d="M201.681 79.809C197.951 82.744 201.336 83.6757 204.671 83.9617C209.657 84.3891 210.452 91.6967 216.404 87.1602C225.919 79.9076 208.184 74.692 201.681 79.809Z" fill="#D4AE61"/>
<path d="M116.943 92.1518C122.787 90.3838 124.893 84.3823 119.578 79.4424C114.388 74.6184 108.753 78.3594 103.049 73.8436C98.8347 70.507 92.7162 62.1401 85.6738 62.9135C74.7965 64.1081 77.7397 82.7492 91.8175 83.2689C109.03 83.9042 106.701 95.25 116.943 92.1518Z" fill="#D4AE61"/>
<path d="M159.712 120.164C160.842 127.308 176.448 126.779 187.487 123.485C194.781 121.309 198.872 117.421 201.388 114.953C206.425 110.01 206.948 104.657 203.425 99.5724C201.356 96.5864 214.6 91.5622 201.99 87.1122C191.614 83.4505 185.134 87.95 178.21 93.7219C174.246 97.0267 166.27 96.7287 155.26 91.898C146.752 88.1653 147.98 76.2699 133.68 80.9655C128.261 82.745 121.788 96.5685 133.727 105.163C138.85 108.851 144.575 109.614 152.062 108.342C157.977 107.338 163.266 108.065 166.155 109.868C171.242 113.043 159.03 115.856 159.712 120.164Z" fill="#D4AE61"/>
<path d="M178.382 131.793C178.276 133.143 176.183 134.02 173.193 133.967C169.669 133.905 166.33 132.297 166.417 130.703C166.53 128.607 178.546 129.702 178.382 131.793Z" fill="#D4AE61"/>
<path d="M153.499 84.2683C155.415 87.6251 163.959 91.3442 169.982 90.5161C180.489 89.0714 199.691 81.2057 197.826 75.0639C195.798 68.3878 179.021 75.6729 167.878 73.5384C146.178 69.3818 149.156 47.9537 126.48 49.6394C112.798 50.6565 97.6094 53.626 97.8539 61.5889C98.0608 68.3278 109.457 73.0824 118.993 73.7927C129.174 74.5509 135.987 73.2208 144.977 76.0809C152.22 78.3852 150.911 79.734 153.499 84.2683Z" fill="#D4AE61"/>
<path d="M214.939 112.253C218.233 113.483 219.309 115.76 217.605 117.9C215.598 120.421 209.848 121.487 205.936 120.063C200.793 118.19 209.833 110.347 214.939 112.253Z" fill="#D4AE61"/>
<path d="M159.225 59.3716C163.209 57.4513 168.569 57.469 172.514 59.4154C177.163 61.7089 177.161 66.1635 172.51 68.4555C166.393 71.4695 153.053 62.3473 159.225 59.3716Z" fill="#D4AE61"/>
<path d="M71.0912 74.3348C65.908 74.4843 61.6459 72.6078 60.5244 69.6826C59.2029 66.2356 63.8488 62.679 69.9529 62.4648C77.98 62.1831 79.1231 74.1033 71.0912 74.3348Z" fill="#D4AE61"/>
<path d="M148.134 55.1493C147.601 53.112 149.186 51.2539 152.062 50.5425C155.451 49.7042 159.389 51.2172 160.055 53.6129C160.93 56.7634 148.958 58.3063 148.134 55.1493Z" fill="#D4AE61"/>
<path d="M90.5998 58.8979C84.9378 60.2671 79.616 61.1102 75.8557 58.94C67.4184 54.0707 89.8451 47.8996 96.8178 43.8742C102.696 40.4806 114.473 32.2946 122.05 32.272C130.095 32.248 138.107 33.5141 138.305 38.1336C138.413 40.6686 136.684 42.3508 133.761 44.5678C126.343 50.1959 114.581 43.2597 104.662 47.3922C96.932 50.6125 99.1876 56.8212 90.5998 58.8979Z" fill="#D4AE61"/>
</svg>
