<svg width="330" height="263" viewBox="0 0 330 263" fill="none" xmlns="http://www.w3.org/2000/svg">
<path d="M103.78 40.2645C98.6198 44.9019 109.342 46.2385 118.844 46.5807C133.049 47.0921 140.472 56.4575 147.845 53.0331C170.934 42.3099 112.777 32.1797 103.78 40.2645Z" fill="#D4AE61"/>
<path d="M188.482 44.9834C194.047 47.2945 190.518 49.1196 186.773 50.2283C181.175 51.8858 183.346 60.0483 174.528 56.5208C160.43 50.8812 178.778 40.9543 188.482 44.9834Z" fill="#D4AE61"/>
<path d="M91.8702 57.1326C87.1354 62.7636 85.8594 69.3387 94.544 73.0865C103.025 76.7464 112.102 67.4737 121.288 70.5143C128.075 72.761 125.25 77.9949 131.985 80.2929C145.858 85.0262 148.795 64.5021 139.563 56.8771C128.892 48.0635 100.004 47.4594 91.8702 57.1326Z" fill="#D4AE61"/>
<path d="M154.432 55.0415C149.283 57.0028 147.485 60.5316 149.974 63.7902C152.908 67.63 161.693 69.1519 167.803 66.8787C175.839 63.8893 162.411 52.0021 154.432 55.0415Z" fill="#D4AE61"/>
<path d="M167.47 127.114C170.938 129.464 176.891 129.271 182.231 126.634C188.523 123.527 190.726 117.781 186.701 114.972C181.409 111.279 162.097 123.472 167.47 127.114Z" fill="#D4AE61"/>
<path d="M85.2191 58.5678C89.2533 54.9956 91.1355 51.1142 89.8856 48.9447C88.4129 46.3882 82.3404 47.9738 77.5621 52.1625C71.2785 57.6708 78.9678 64.1032 85.2191 58.5678Z" fill="#D4AE61"/>
<path d="M220.119 100.349C223.457 101.747 227.695 101.59 230.626 99.9603C234.08 98.0398 233.643 94.5505 229.74 92.8791C224.608 90.6813 214.946 98.1826 220.119 100.349Z" fill="#D4AE61"/>
<path d="M102.06 75.7901C107.916 75.6014 110.753 72.2351 116.364 73.3408C125.878 75.2155 112.821 83.2644 104.311 86.1067C99.7 87.6467 96.3812 88.1165 90.9828 87.9924C79.641 87.7317 72.9063 83.6026 67.43 77.7756C64.1659 74.3025 62.7062 71.8952 63.2119 68.0139C63.6213 64.8716 67.5209 62.0048 72.974 62.3786C79.3159 62.8135 80.3782 68.6456 83.105 71.0484C88.679 75.9601 92.5462 76.0966 102.06 75.7901Z" fill="#D4AE61"/>
<path d="M73.4807 127.489C80.7662 129.97 82.6005 125.054 82.923 120.679C83.4051 114.139 97.7302 110.919 92.2729 107.444C75.1837 96.5618 60.7792 123.164 73.4807 127.489Z" fill="#D4AE61"/>
<path d="M131.365 84.6767C135.14 87.6474 131.714 88.5903 128.338 88.8795C123.292 89.312 122.487 96.7079 116.463 92.1163C106.834 84.7757 124.783 79.4976 131.365 84.6767Z" fill="#D4AE61"/>
<path d="M99.9006 139.626C109.655 142.36 121.044 143.096 127.536 138.083C133.875 133.187 117.813 127.946 123.079 122.644C126.971 118.726 136.037 120.357 140.017 116.469C148.216 108.46 112.664 106.763 99.4559 112.093C84.1895 118.253 83.1443 134.93 99.9006 139.626Z" fill="#D4AE61"/>
<path d="M208.809 95.2442C202.349 92.9056 200.248 86.4686 206.399 81.767C212.406 77.1758 218.549 81.5542 225.117 77.3277C229.97 74.2049 237.164 65.9975 245.006 67.4003C257.117 69.567 253.039 88.7579 237.276 88.1079C218.004 87.3131 220.129 99.3423 208.809 95.2442Z" fill="#D4AE61"/>
<path d="M96.2688 104.21C99.6665 107.182 105.779 108.221 111.424 106.784C118.075 105.09 120.711 100.019 116.773 96.4911C111.594 91.8521 91.0037 99.6035 96.2688 104.21Z" fill="#D4AE61"/>
<path d="M261.751 77.0822C266.997 77.2336 271.311 75.3347 272.446 72.3741C273.784 68.8855 269.082 65.2857 262.904 65.0687C254.78 64.7833 253.622 76.8475 261.751 77.0822Z" fill="#D4AE61"/>
<path d="M107.342 143.761C103.105 142.038 98.1867 141.512 95.1487 142.457C91.5689 143.57 92.9121 146.64 97.8747 148.686C104.401 151.377 113.908 146.431 107.342 143.761Z" fill="#D4AE61"/>
<path d="M127.911 33.6427C128.449 31.5808 126.846 29.7001 123.935 28.98C120.505 28.1314 116.519 29.6626 115.846 32.0872C114.96 35.2758 127.076 36.8378 127.911 33.6427Z" fill="#D4AE61"/>
<path d="M133.612 133.201C133.238 130.157 127.048 127.553 130.785 125.395C136.579 122.051 145.113 127.714 149.658 132.172C152.121 134.588 152.898 136.318 152.778 139.12C152.526 145.007 146.183 148.449 137.177 151.214C131.809 152.862 128.078 153.587 122.022 153.272C117.12 153.016 112.599 150.952 113.108 148.125C113.699 144.837 122.773 144.365 126.481 142.981C134.059 140.153 134.219 138.146 133.612 133.201Z" fill="#D4AE61"/>
<path d="M157.298 136.065C160.702 136.763 164.205 136.212 165.983 134.699C168.078 132.916 166.232 130.366 162.237 129.523C156.983 128.414 152.023 134.984 157.298 136.065Z" fill="#D4AE61"/>
<path d="M242.009 61.4588C247.74 62.8448 253.126 63.6983 256.932 61.502C265.471 56.5741 242.774 50.3275 235.717 46.2532C229.768 42.8184 217.849 34.5329 210.18 34.5097C202.037 34.4851 193.929 35.7662 193.728 40.4416C193.618 43.0072 195.369 44.7099 198.326 46.9538C205.834 52.6502 217.739 45.6306 227.778 49.8134C235.601 53.073 233.318 59.3567 242.009 61.4588Z" fill="#D4AE61"/>
<path d="M144.609 125.139C150.733 127.859 159.316 125.911 164.665 122.823C170.992 119.171 169.666 114.154 177.593 111.76C193.681 106.901 190.951 117.929 201.205 115.614C209.609 113.717 216.729 109.273 212.349 102.491C208.36 96.3139 202.3 100.393 198.097 94.2628C188.849 80.7734 209.022 80.4548 194.085 68.7877C186.508 62.8691 175.365 63.6406 171.353 70.5881C164.237 82.9102 153.076 81.1372 139.705 87.3127C129.064 92.2278 120.537 94.7739 125.442 101.207C129.078 105.978 139.754 105.165 145.499 109.185C153.805 114.996 133.018 119.992 144.609 125.139Z" fill="#D4AE61"/>
<path d="M205.388 72.0695C231.739 78.7856 240.436 62.6112 228.402 55.6631C224.19 53.2313 225.261 53.345 214.585 53.8613C203.892 54.3785 198.084 47.9378 190.061 52.5684C182.857 56.7269 188.905 67.8687 205.388 72.0695Z" fill="#D4AE61"/>
</svg>
