<svg width="330" height="263" viewBox="0 0 330 263" fill="none" xmlns="http://www.w3.org/2000/svg">
<path d="M192.05 70.2161C189.932 73.9855 185.823 73.514 183.227 72.847C179.946 72.0038 176.864 72.3209 175.539 71.4832C166.48 65.7546 195.744 63.6447 192.05 70.2161Z" fill="#D4AE61"/>
<path d="M74.9297 61.0728C82.1269 58.6223 83.9387 63.4787 84.2571 67.8005C84.7332 74.2616 98.8842 77.4429 93.493 80.8755C76.6109 91.6245 62.3823 65.3449 74.9297 61.0728Z" fill="#D4AE61"/>
<path d="M202 74.9595C196.278 76.1365 199.2 78.5728 202.479 80.3571C207.38 83.0247 203.59 90.5064 212.627 88.7714C227.076 85.9976 211.977 72.9078 202 74.9595Z" fill="#D4AE61"/>
<path d="M130.346 105.402C134.075 102.467 130.691 101.536 127.356 101.25C122.371 100.823 121.576 93.5166 115.626 98.0522C106.113 105.303 123.844 110.518 130.346 105.402Z" fill="#D4AE61"/>
<path d="M101.019 49.0831C110.655 46.383 121.906 45.6554 128.318 50.6082C134.58 55.4448 118.713 60.6215 123.915 65.8599C127.759 69.7305 136.715 68.1195 140.647 71.9606C148.746 79.8722 113.626 81.5469 100.578 76.2819C85.4977 70.1962 84.4658 53.7214 101.019 49.0831Z" fill="#D4AE61"/>
<path d="M215.061 93.0594C209.218 94.827 207.112 100.827 212.426 105.766C217.615 110.589 223.25 106.849 228.952 111.364C233.166 114.7 239.283 123.065 246.324 122.292C257.199 121.098 254.256 102.46 240.181 101.941C222.972 101.305 225.301 89.9619 215.061 93.0594Z" fill="#D4AE61"/>
<path d="M172.305 65.0538C171.175 57.9114 138.386 59.5219 140.602 66.579C141.487 69.3965 146.318 69.9211 147.647 72.6797C150.156 77.8846 140.646 79.5087 132.676 82.3402C121.228 86.4074 115.943 97.0843 130.035 98.0991C142.1 98.9681 146.888 97.2615 153.81 91.4908C157.774 88.1867 165.748 88.4846 176.756 93.3143C185.262 97.0463 184.035 108.939 198.331 104.245C203.749 102.466 211.776 87.8404 198.284 80.0517C188.88 74.6223 179.34 77.4542 172.745 75.9842C169.224 75.1991 167.266 74.9917 164.378 73.1888C159.291 70.0138 172.986 69.3607 172.305 65.0538Z" fill="#D4AE61"/>
<path d="M178.516 100.942C176.6 97.5859 168.058 93.8675 162.036 94.6955C151.531 96.1398 132.333 104.004 134.198 110.145C136.225 116.819 152.999 109.536 164.14 111.67C185.836 115.826 182.858 137.249 205.529 135.564C219.209 134.547 234.394 131.578 234.15 123.617C233.943 116.879 222.549 112.126 213.015 111.416C202.837 110.657 196.024 111.987 187.036 109.128C179.795 106.824 181.103 105.475 178.516 100.942Z" fill="#D4AE61"/>
<path d="M97.4291 84.0694C100.786 81.133 106.824 80.1077 112.4 81.5274C118.97 83.2004 121.574 88.2106 117.684 91.6952C112.568 96.2776 92.2278 88.6196 97.4291 84.0694Z" fill="#D4AE61"/>
<path d="M172.787 125.835C168.804 127.755 163.446 127.737 159.501 125.791C154.853 123.498 154.855 119.044 159.506 116.753C165.621 113.739 178.959 122.86 172.787 125.835Z" fill="#D4AE61"/>
<path d="M260.907 110.873C266.089 110.723 270.351 112.599 271.472 115.524C272.793 118.97 268.148 122.526 262.045 122.74C254.02 123.022 252.877 111.104 260.907 110.873Z" fill="#D4AE61"/>
<path d="M108.375 44.9982C104.19 46.7002 99.3311 47.2195 96.33 46.2857C92.7937 45.1854 94.1208 42.1531 99.0232 40.1319C105.47 37.474 114.862 42.3608 108.375 44.9982Z" fill="#D4AE61"/>
<path d="M183.874 130.053C184.406 132.09 182.822 133.948 179.946 134.659C176.558 135.497 172.62 133.984 171.955 131.589C171.08 128.439 183.049 126.897 183.874 130.053Z" fill="#D4AE61"/>
<path d="M134.326 55.4337C133.957 58.4404 128.736 59.9411 130.363 62.8054C133.121 67.6612 145.687 60.8545 150.177 56.4505C152.61 54.0642 153.378 52.3553 153.259 49.5872C153.011 43.7718 146.745 40.3718 137.848 37.6401C132.546 36.0119 128.859 35.2952 122.878 35.6065C118.035 35.8586 113.569 37.8977 114.071 40.6904C114.655 43.9383 123.619 44.4053 127.281 45.7722C134.768 48.5662 134.926 50.5485 134.326 55.4337Z" fill="#D4AE61"/>
<path d="M241.4 126.306C247.061 124.937 252.382 124.094 256.141 126.264C264.577 131.133 242.155 137.303 235.183 141.327C229.306 144.72 217.532 152.904 209.956 152.927C201.913 152.951 193.903 151.685 193.705 147.066C193.596 144.532 195.325 142.85 198.247 140.634C205.664 135.007 217.424 141.941 227.341 137.81C235.069 134.59 232.814 128.383 241.4 126.306Z" fill="#D4AE61"/>
</svg>
