<svg width="330" height="263" viewBox="0 0 330 263" fill="none" xmlns="http://www.w3.org/2000/svg">
<path d="M105.779 147.291C100.619 142.654 111.341 141.318 120.843 140.976C135.049 140.465 142.472 131.1 149.845 134.524C172.933 145.249 114.776 155.377 105.779 147.291Z" fill="#D4AE61"/>
<path d="M190.481 142.576C196.047 140.265 192.518 138.44 188.773 137.331C183.175 135.673 185.346 127.511 176.528 131.038C162.43 136.677 180.778 146.604 190.481 142.576Z" fill="#D4AE61"/>
<path d="M93.8701 130.423C89.1355 124.792 87.8597 118.217 96.5445 114.469C105.025 110.81 114.103 120.083 123.288 117.042C130.075 114.796 127.251 109.562 133.986 107.264C147.859 102.531 150.795 123.056 141.563 130.68C130.892 139.493 102.003 140.096 93.8701 130.423Z" fill="#D4AE61"/>
<path d="M156.432 132.516C151.283 130.555 149.485 127.026 151.975 123.768C154.908 119.928 163.694 118.406 169.804 120.68C177.839 123.669 164.411 135.556 156.432 132.516Z" fill="#D4AE61"/>
<path d="M169.473 60.4442C172.94 58.094 178.894 58.2879 184.233 60.9248C190.525 64.032 192.728 69.7786 188.703 72.5869C183.411 76.28 164.099 64.086 169.473 60.4442Z" fill="#D4AE61"/>
<path d="M87.219 128.987C91.253 132.56 93.1351 136.441 91.8852 138.611C90.4123 141.167 84.3399 139.581 79.5618 135.393C73.2783 129.884 80.9679 123.452 87.219 128.987Z" fill="#D4AE61"/>
<path d="M222.121 87.2114C225.459 85.8135 229.697 85.9704 232.628 87.6004C236.081 89.5211 235.644 93.0104 231.741 94.6816C226.609 96.8792 216.948 89.3775 222.121 87.2114Z" fill="#D4AE61"/>
<path d="M104.061 111.766C109.916 111.955 112.753 115.321 118.365 114.216C127.878 112.341 114.822 104.292 106.312 101.449C101.701 99.9091 98.3822 99.4392 92.9838 99.5631C81.642 99.8234 74.9072 103.952 69.4306 109.779C66.1664 113.252 64.7066 115.659 65.2121 119.541C65.6214 122.683 69.521 125.55 74.9741 125.176C81.316 124.742 82.3785 118.909 85.1054 116.507C90.6795 111.595 94.5467 111.459 104.061 111.766Z" fill="#D4AE61"/>
<path d="M75.4832 60.0658C82.7688 57.5852 84.6029 62.5013 84.9252 66.8762C85.4071 73.4167 99.7321 76.6372 94.2747 80.112C77.185 90.9931 62.7815 64.3904 75.4832 60.0658Z" fill="#D4AE61"/>
<path d="M133.366 102.88C137.141 99.9097 133.715 98.9668 130.339 98.6774C125.293 98.2447 124.488 90.8488 118.465 95.4401C108.835 102.78 126.784 108.059 133.366 102.88Z" fill="#D4AE61"/>
<path d="M101.904 47.9299C111.658 45.1966 123.047 44.4602 129.539 49.4739C135.878 54.3699 119.815 59.6102 125.082 64.913C128.973 68.8312 138.039 67.2004 142.019 71.0887C150.217 79.0975 114.665 80.7928 101.458 75.4631C86.1916 69.3027 85.1471 52.6253 101.904 47.9299Z" fill="#D4AE61"/>
<path d="M210.81 92.3157C204.35 94.654 202.249 101.091 208.4 105.793C214.407 110.384 220.549 106.006 227.117 110.233C231.97 113.356 239.164 121.563 247.006 120.161C259.117 117.995 255.04 98.8037 239.277 99.4531C220.005 100.247 222.131 88.218 210.81 92.3157Z" fill="#D4AE61"/>
<path d="M98.2704 83.3458C101.668 80.3733 107.781 79.3354 113.425 80.7726C120.076 82.4661 122.712 87.538 118.774 91.0654C113.595 95.7041 93.0052 87.952 98.2704 83.3458Z" fill="#D4AE61"/>
<path d="M263.752 110.48C268.998 110.328 273.312 112.228 274.447 115.188C275.784 118.677 271.082 122.276 264.904 122.493C256.78 122.778 255.623 110.714 263.752 110.48Z" fill="#D4AE61"/>
<path d="M109.345 43.7955C105.108 45.5184 100.19 46.0441 97.1518 45.0989C93.572 43.985 94.9153 40.9154 99.878 38.8694C106.404 36.1787 115.911 41.1257 109.345 43.7955Z" fill="#D4AE61"/>
<path d="M129.91 153.914C130.448 155.976 128.845 157.857 125.934 158.577C122.504 159.425 118.518 157.894 117.844 155.469C116.959 152.281 129.075 150.719 129.91 153.914Z" fill="#D4AE61"/>
<path d="M135.615 54.356C135.241 57.3997 129.051 60.0043 132.788 62.1619C138.581 65.5062 147.116 59.8435 151.661 55.3853C154.124 52.9697 154.901 51.2398 154.781 48.4377C154.529 42.5508 148.186 39.109 139.181 36.3437C133.813 34.6954 130.081 33.9699 124.026 34.2851C119.124 34.5403 114.603 36.6044 115.111 39.4315C115.702 42.7193 124.777 43.1921 128.484 44.5757C136.062 47.4041 136.222 49.4107 135.615 54.356Z" fill="#D4AE61"/>
<path d="M159.3 51.4928C162.704 50.7954 166.208 51.3466 167.985 52.8593C170.081 54.6419 168.235 57.1923 164.239 58.0351C158.985 59.1435 154.026 52.5735 159.3 51.4928Z" fill="#D4AE61"/>
<path d="M244.009 126.102C249.74 124.717 255.126 123.863 258.932 126.06C267.471 130.988 244.773 137.234 237.716 141.308C231.767 144.742 219.847 153.027 212.179 153.05C204.036 153.075 195.928 151.793 195.728 147.118C195.618 144.552 197.368 142.85 200.326 140.606C207.834 134.91 219.739 141.93 229.778 137.747C237.601 134.488 235.318 128.204 244.009 126.102Z" fill="#D4AE61"/>
<path d="M146.611 62.4183C152.735 59.699 161.319 61.6467 166.668 64.7349C172.994 68.3872 171.668 73.4043 179.595 75.7989C195.683 80.6584 192.954 69.6304 203.207 71.9455C211.611 73.8434 218.731 78.2868 214.351 85.0688C210.361 91.246 204.302 87.1669 200.099 93.2967C190.849 106.786 211.022 107.105 196.085 118.772C188.508 124.69 177.365 123.918 173.353 116.97C166.238 104.648 155.077 106.421 141.706 100.245C131.065 95.3292 122.538 92.7827 127.443 86.3494C131.08 81.5791 141.755 82.3927 147.501 78.3727C155.807 72.5622 135.021 67.5651 146.611 62.4183Z" fill="#D4AE61"/>
<path d="M207.388 115.49C233.74 108.775 242.436 124.95 230.402 131.898C226.19 134.329 227.261 134.216 216.585 133.699C205.892 133.181 200.084 139.622 192.061 134.991C184.857 130.832 190.905 119.69 207.388 115.49Z" fill="#D4AE61"/>
</svg>
