<svg width="330" height="263" viewBox="0 0 330 263" fill="none" xmlns="http://www.w3.org/2000/svg">
<path d="M258.277 59.6204C250.379 56.6913 248.103 62.7775 247.521 68.1712C246.65 76.2346 230.7 80.4485 236.533 84.6336C254.798 97.739 272.048 64.7269 258.277 59.6204Z" fill="#D4AE61"/>
<path d="M252.004 109.722C248.068 112.881 244.959 110.878 243.071 108.752C240.247 105.574 226.345 106.807 232.352 101.801C241.957 93.7988 258.865 104.214 252.004 109.722Z" fill="#D4AE61"/>
<path d="M229.551 52.8603C219.96 50.1728 208.761 49.4487 202.378 54.3784C196.145 59.1924 211.939 64.345 206.761 69.5591C202.935 73.4116 194.02 71.8082 190.107 75.6313C182.046 83.506 217.003 85.1729 229.989 79.9325C244.999 73.8752 246.026 57.4771 229.551 52.8603Z" fill="#D4AE61"/>
<path d="M233.118 88.3723C229.777 85.4496 223.767 84.4291 218.217 85.8422C211.678 87.5073 209.086 92.4943 212.958 95.9626C218.05 100.524 238.295 92.9013 233.118 88.3723Z" fill="#D4AE61"/>
<path d="M110.363 98.8114C106.361 100.78 106.691 104.159 111.182 107.19C116.474 110.762 126.262 112.012 131.045 109.727C137.335 106.723 116.566 95.7612 110.363 98.8114Z" fill="#D4AE61"/>
<path d="M227.102 49.0831C233.186 51.3729 239.797 52.4413 243.492 51.7318C247.846 50.8957 245.145 47.4488 238.011 44.7366C228.629 41.1699 217.674 45.5348 227.102 49.0831Z" fill="#D4AE61"/>
<path d="M155.945 126.67C153.564 128.565 153.831 130.97 156.607 132.634C159.878 134.594 165.821 134.346 168.668 132.131C172.411 129.218 159.634 123.733 155.945 126.67Z" fill="#D4AE61"/>
<path d="M197.77 58.6438C198.092 61.9676 203.825 63.5781 201.942 66.7634C198.75 72.1636 185.04 64.752 180.199 59.9217C177.575 57.3044 176.775 55.4206 176.986 52.3562C177.429 45.9183 184.462 42.0954 194.386 38.9867C200.301 37.1338 204.401 36.3052 211.012 36.5921C216.364 36.8244 221.247 39.0379 220.61 42.1333C219.87 45.7332 209.937 46.3363 205.845 47.8842C197.479 51.0483 197.247 53.2434 197.77 58.6438Z" fill="#D4AE61"/>
<path d="M184.395 76.2903C179.335 78.4333 177.729 76.4885 177.236 74.5725C176.5 71.7081 163.903 71.2512 171.723 67.8321C184.225 62.3658 193.215 72.5542 184.395 76.2903Z" fill="#D4AE61"/>
<path d="M166.401 121.262C170.383 117.595 181.347 116.402 189.355 119.894C197.175 123.304 189.718 126.791 196.917 130.519C202.236 133.273 216.215 137.357 213.827 141.808C210.137 148.683 177.451 146.368 178.557 137.421C179.91 126.482 159.422 127.688 166.401 121.262Z" fill="#D4AE61"/>
<path d="M169.064 59.2241C164.526 56.9002 158.263 56.8125 153.536 59.0067C147.966 61.5922 147.698 66.7964 152.993 69.568C159.957 73.2129 176.095 62.8253 169.064 59.2241Z" fill="#D4AE61"/>
<path d="M197.339 151.314C197.081 154.291 200.316 156.74 205.358 157.384C211.3 158.143 217.431 155.474 217.8 151.968C218.286 147.356 197.738 146.699 197.339 151.314Z" fill="#D4AE61"/>
<path d="M140.356 79.5703C143.29 77.1651 144.185 74.3734 142.575 72.649C140.678 70.6169 135.45 71.3795 131.965 74.1965C127.383 77.9009 135.808 83.2975 140.356 79.5703Z" fill="#D4AE61"/>
<path d="M269.56 73.3174C273.072 73.6231 276.275 72.7129 277.501 71.0607C278.946 69.1138 276.338 66.8511 272.208 66.4688C266.778 65.9661 264.118 72.8436 269.56 73.3174Z" fill="#D4AE61"/>
<path d="M99.5019 91.5162C98.3141 93.4484 99.2529 95.4369 101.829 96.4461C104.865 97.6353 109.209 96.5875 110.645 94.3196C112.533 91.3373 101.343 88.522 99.5019 91.5162Z" fill="#D4AE61"/>
<path d="M223.942 140.107C221.581 143.36 220.128 146.417 223.869 148.578C232.263 153.425 242.901 140.541 249.839 136.535C255.689 133.158 269.8 126.392 269.839 122.039C269.881 117.417 267.698 112.815 259.735 112.701C255.365 112.639 252.465 113.632 248.644 115.311C238.942 119.573 250.899 126.33 243.775 132.029C238.224 136.469 227.521 135.174 223.942 140.107Z" fill="#D4AE61"/>
<path d="M115.478 83.81C110.847 87.2862 114.164 92.1584 119.424 95.1949C125.644 98.786 134.19 98.0329 138.268 102.533C146.545 111.665 127.762 110.116 131.705 115.935C134.937 120.706 142.505 124.748 154.056 122.261C164.577 119.997 157.63 116.557 168.07 114.171C191.045 108.921 191.589 120.372 211.459 111.893C221.539 107.592 220.224 101.267 208.391 98.9897C187.404 94.951 190.423 88.6153 179.904 81.0259C171.532 74.9855 167.195 70.1455 156.238 72.9296C148.113 74.994 149.498 81.0536 142.652 84.3153C132.755 89.0298 124.244 77.2308 115.478 83.81Z" fill="#D4AE61"/>
<path d="M205.874 119.321C194.437 134.279 221.986 139.216 233.819 132.384C237.961 129.993 237.767 130.601 236.887 124.541C236.006 118.472 246.975 115.175 239.088 110.621C232.005 106.531 213.028 109.965 205.874 119.321Z" fill="#D4AE61"/>
</svg>
