<svg width="330" height="263" viewBox="0 0 330 263" fill="none" xmlns="http://www.w3.org/2000/svg">
<path d="M226.338 149.162C231.375 144.635 220.909 143.331 211.634 142.997C197.769 142.499 190.522 133.357 183.326 136.7C160.79 147.168 217.557 157.054 226.338 149.162Z" fill="#D4AE61"/>
<path d="M140.187 145.567C134.754 143.311 138.199 141.53 141.855 140.447C147.319 138.829 145.2 130.862 153.807 134.305C167.568 139.809 149.659 149.499 140.187 145.567Z" fill="#D4AE61"/>
<path d="M237.963 132.698C242.585 127.201 243.83 120.783 235.353 117.125C227.075 113.553 218.214 122.604 209.248 119.637C202.623 117.444 205.381 112.335 198.806 110.092C185.265 105.473 182.399 125.506 191.41 132.949C201.826 141.551 230.024 142.14 237.963 132.698Z" fill="#D4AE61"/>
<path d="M176.9 134.744C181.926 132.829 183.681 129.384 181.251 126.204C178.387 122.456 169.812 120.971 163.848 123.19C156.005 126.108 169.112 137.711 176.9 134.744Z" fill="#D4AE61"/>
<path d="M158.944 64.3919C155.559 62.0979 149.748 62.2871 144.536 64.861C138.395 67.8939 136.245 73.5032 140.173 76.2445C145.339 79.8493 164.189 67.9467 158.944 64.3919Z" fill="#D4AE61"/>
<path d="M244.469 131.297C240.532 134.784 238.695 138.573 239.915 140.69C241.352 143.186 247.28 141.638 251.944 137.549C258.077 132.172 250.571 125.894 244.469 131.297Z" fill="#D4AE61"/>
<path d="M111.042 90.5196C107.783 89.1551 103.647 89.3083 100.786 90.8993C97.4152 92.7741 97.8413 96.18 101.651 97.8112C106.661 99.9564 116.091 92.634 111.042 90.5196Z" fill="#D4AE61"/>
<path d="M228.025 114.487C222.309 114.672 219.54 117.958 214.063 116.878C204.776 115.049 217.521 107.192 225.828 104.417C230.328 102.914 233.568 102.455 238.837 102.576C249.908 102.83 256.482 106.86 261.827 112.548C265.014 115.938 266.439 118.287 265.945 122.076C265.546 125.143 261.739 127.942 256.416 127.577C250.226 127.153 249.189 121.46 246.527 119.115C241.086 114.321 237.312 114.188 228.025 114.487Z" fill="#D4AE61"/>
<path d="M197.676 106.82C193.99 103.92 197.335 103 200.63 102.717C205.555 102.295 206.341 95.076 212.22 99.5576C221.62 106.722 204.1 111.875 197.676 106.82Z" fill="#D4AE61"/>
<path d="M120.339 96.5074C126.645 98.7899 128.696 105.073 122.692 109.662C116.829 114.144 110.833 109.871 104.422 113.996C99.6848 117.045 92.6624 125.056 85.0084 123.687C73.1863 121.573 77.1665 102.84 92.5521 103.474C111.364 104.249 109.289 92.5077 120.339 96.5074Z" fill="#D4AE61"/>
<path d="M227.023 98.0333C231.02 95.4329 231.17 91.8436 227.397 89.1344C222.951 85.942 214.002 85.7887 209.236 88.8233C202.968 92.814 220.831 102.063 227.023 98.0333Z" fill="#D4AE61"/>
<path d="M68.6646 114.236C63.5441 114.089 59.3336 115.942 58.2257 118.832C56.9201 122.238 61.5099 125.751 67.5401 125.963C75.4702 126.241 76.5994 114.465 68.6646 114.236Z" fill="#D4AE61"/>
<path d="M192.033 81.5837C196.169 83.2654 200.97 83.7785 203.935 82.8559C207.43 81.7686 206.118 78.7723 201.274 76.7752C194.904 74.1489 185.624 78.9776 192.033 81.5837Z" fill="#D4AE61"/>
<path d="M202.788 155.626C202.262 157.639 203.827 159.475 206.668 160.177C210.016 161.006 213.907 159.511 214.564 157.144C215.429 154.032 203.602 152.508 202.788 155.626Z" fill="#D4AE61"/>
<path d="M171.489 58.1666C168.167 57.4859 164.747 58.0239 163.012 59.5005C160.967 61.2405 162.768 63.7299 166.668 64.5526C171.797 65.6345 176.638 59.2215 171.489 58.1666Z" fill="#D4AE61"/>
<path d="M87.9342 129.487C82.3406 128.134 77.0833 127.301 73.3684 129.445C65.0332 134.255 87.1886 140.352 94.077 144.329C99.8842 147.681 111.519 155.768 119.004 155.79C126.952 155.814 134.867 154.563 135.062 150C135.169 147.495 133.461 145.833 130.574 143.643C123.245 138.083 111.625 144.936 101.826 140.853C94.1898 137.672 96.4181 131.538 87.9342 129.487Z" fill="#D4AE61"/>
<path d="M184.747 67.322C178.77 64.6677 170.391 66.5688 165.17 69.5832C158.994 73.1482 160.29 78.0454 152.552 80.3828C136.849 85.1262 139.512 74.3617 129.504 76.6215C121.3 78.474 114.351 82.8113 118.626 89.4311C122.52 95.4607 128.435 91.4791 132.538 97.4624C141.566 110.629 121.875 110.941 136.455 122.329C143.852 128.106 154.729 127.352 158.644 120.57C165.589 108.543 176.484 110.273 189.535 104.244C199.922 99.4463 208.245 96.9607 203.457 90.6811C199.907 86.0248 189.487 86.819 183.878 82.8951C175.771 77.2234 196.061 72.3457 184.747 67.322Z" fill="#D4AE61"/>
<path d="M123.683 119.128C97.9611 112.573 89.4724 128.361 101.22 135.143C105.331 137.516 104.285 137.405 114.706 136.901C125.143 136.396 130.813 142.682 138.644 138.162C145.676 134.103 139.773 123.227 123.683 119.128Z" fill="#D4AE61"/>
</svg>
