<svg width="330" height="263" viewBox="0 0 330 263" fill="none" xmlns="http://www.w3.org/2000/svg">
<path d="M195.415 73.4123C193.296 77.1824 189.187 76.7108 186.591 76.0438C183.308 75.2004 180.226 75.5175 178.901 74.6796C169.84 68.95 199.109 66.8396 195.415 73.4123Z" fill="#D4AE61"/>
<path d="M208.008 79.6833C202.284 80.8604 205.208 83.2972 208.487 85.0819C213.389 87.75 209.597 95.2333 218.637 93.4979C233.088 90.7235 217.986 77.6311 208.008 79.6833Z" fill="#D4AE61"/>
<path d="M118.642 96.7187C125.912 97.0121 124.727 93.5231 122.608 90.6522C119.44 86.3603 129.834 79.1865 118.454 78.5872C100.262 77.629 105.967 96.2072 118.642 96.7187Z" fill="#D4AE61"/>
<path d="M133.698 108.602C137.428 105.667 134.043 104.735 130.708 104.449C125.722 104.022 124.927 96.7144 118.975 101.251C109.46 108.503 127.195 113.719 133.698 108.602Z" fill="#D4AE61"/>
<path d="M218.436 96.2593C212.592 98.0273 210.486 104.029 215.801 108.969C220.991 113.793 226.626 110.052 232.33 114.568C236.544 117.904 242.663 126.271 249.705 125.498C260.582 124.303 257.639 105.662 243.561 105.142C226.349 104.507 228.678 93.1612 218.436 96.2593Z" fill="#D4AE61"/>
<path d="M175.667 68.247C174.537 61.1031 158.931 61.632 147.892 64.9257C140.598 67.102 136.507 70.9902 133.991 73.4586C128.954 78.4008 128.431 83.7539 131.954 88.8388C134.023 91.8247 120.779 96.8489 133.389 101.299C143.765 104.961 150.245 100.461 157.169 94.6893C161.133 91.3845 169.109 91.6824 180.119 96.5131C188.627 100.246 187.399 112.141 201.699 107.446C207.118 105.666 213.591 91.8426 201.652 83.2479C196.529 79.56 190.804 78.7973 183.317 80.0687C177.402 81.0733 172.113 80.3465 169.224 78.5433C164.137 75.3677 176.349 72.5547 175.667 68.247Z" fill="#D4AE61"/>
<path d="M156.997 56.6177C157.103 55.268 159.196 54.3912 162.186 54.4439C165.71 54.506 169.048 56.1146 168.962 57.7085C168.849 59.8045 156.833 58.7091 156.997 56.6177Z" fill="#D4AE61"/>
<path d="M181.88 104.143C179.964 100.786 171.42 97.0669 165.397 97.8951C154.89 99.3397 135.688 107.205 137.553 113.347C139.581 120.023 156.357 112.738 167.501 114.873C189.201 119.029 186.222 140.457 208.899 138.772C222.581 137.755 237.769 134.785 237.525 126.822C237.318 120.083 225.922 115.329 216.386 114.618C206.205 113.86 199.392 115.19 190.402 112.33C183.159 110.026 184.468 108.677 181.88 104.143Z" fill="#D4AE61"/>
<path d="M120.44 76.1583C117.145 74.9286 116.07 72.6509 117.774 70.5113C119.781 67.9901 125.531 66.9242 129.442 68.3481C134.586 70.2206 125.546 78.0638 120.44 76.1583Z" fill="#D4AE61"/>
<path d="M176.153 129.04C172.17 130.96 166.81 130.942 162.865 128.996C158.216 126.702 158.218 122.248 162.869 119.956C168.986 116.942 182.326 126.064 176.153 129.04Z" fill="#D4AE61"/>
<path d="M264.288 114.076C269.471 113.927 273.733 115.803 274.855 118.729C276.176 122.176 271.53 125.732 265.426 125.946C257.399 126.228 256.256 114.308 264.288 114.076Z" fill="#D4AE61"/>
<path d="M187.245 133.262C187.777 135.299 186.193 137.157 183.317 137.869C179.928 138.707 175.99 137.194 175.324 134.798C174.449 131.648 186.421 130.105 187.245 133.262Z" fill="#D4AE61"/>
<path d="M244.779 129.513C250.441 128.144 255.763 127.301 259.523 129.471C267.96 134.34 245.534 140.512 238.561 144.537C232.683 147.931 220.906 156.117 213.329 156.139C205.284 156.163 197.272 154.897 197.074 150.278C196.966 147.743 198.695 146.06 201.617 143.843C209.036 138.215 220.798 145.151 230.717 141.019C238.447 137.799 236.191 131.59 244.779 129.513Z" fill="#D4AE61"/>
</svg>
