<svg width="330" height="263" viewBox="0 0 330 263" fill="none" xmlns="http://www.w3.org/2000/svg">
<path d="M227.227 148.926C232.347 144.324 221.708 142.999 212.279 142.659C198.183 142.152 190.817 132.86 183.501 136.258C160.592 146.899 218.3 156.949 227.227 148.926Z" fill="#D4AE61"/>
<path d="M92.6876 71.6126C97.7935 69.4499 99.4143 71.4125 99.9117 73.3462C100.655 76.2369 113.368 76.6979 105.476 80.1485C92.8593 85.6649 83.786 75.383 92.6876 71.6126Z" fill="#D4AE61"/>
<path d="M239.041 132.188C243.739 126.6 245.005 120.076 236.387 116.357C227.972 112.726 218.965 121.927 209.85 118.911C203.116 116.682 205.918 111.488 199.235 109.208C185.469 104.512 182.556 124.877 191.716 132.443C202.305 141.188 230.971 141.787 239.041 132.188Z" fill="#D4AE61"/>
<path d="M162.53 66.0564C159.454 69.445 149.014 70.6659 140.42 67.5844C132.028 64.5753 138.536 61.3082 130.68 58.0014C124.876 55.5581 110.321 52.0107 111.666 47.9278C113.744 41.6214 146.173 43.3278 147.077 51.4897C148.182 61.469 167.919 60.1184 162.53 66.0564Z" fill="#D4AE61"/>
<path d="M176.965 134.267C182.074 132.32 183.858 128.819 181.388 125.585C178.477 121.775 169.759 120.266 163.696 122.521C155.723 125.488 169.048 137.283 176.965 134.267Z" fill="#D4AE61"/>
<path d="M131.535 39.4746C131.795 36.4695 128.531 33.9985 123.442 33.3483C117.445 32.5821 111.258 35.2757 110.886 38.8147C110.396 43.4686 131.132 44.1313 131.535 39.4746Z" fill="#D4AE61"/>
<path d="M245.647 130.764C241.645 134.308 239.777 138.16 241.017 140.313C242.479 142.849 248.504 141.276 253.246 137.119C259.481 131.653 251.85 125.271 245.647 130.764Z" fill="#D4AE61"/>
<path d="M99.039 85.6738C95.4949 85.3653 92.2625 86.2839 91.025 87.9512C89.5667 89.916 92.1986 92.1995 96.3663 92.5852C101.847 93.0926 104.531 86.152 99.039 85.6738Z" fill="#D4AE61"/>
<path d="M228.932 113.674C223.122 113.862 220.307 117.202 214.738 116.105C205.298 114.245 218.254 106.258 226.698 103.437C231.274 101.909 234.567 101.443 239.923 101.566C251.178 101.824 257.86 105.921 263.295 111.703C266.534 115.149 267.982 117.538 267.481 121.389C267.075 124.507 263.205 127.352 257.794 126.981C251.501 126.55 250.447 120.763 247.741 118.379C242.21 113.505 238.373 113.37 228.932 113.674Z" fill="#D4AE61"/>
<path d="M88.5237 67.2618C94.4564 62.5161 104.004 68.5387 111.965 61.3889C116.74 57.0994 105.779 55.2967 104.445 51.4308C103.112 47.5649 108.377 43.4459 104.751 42.2347C94.3809 38.7704 85.5449 50.3453 78.5424 54.3879C72.6389 57.796 58.3984 64.6239 58.3591 69.0168C58.3173 73.6811 63.6788 79.9127 71.7151 80.0275C76.1249 80.0904 77.2972 78.22 79.7491 75.8067C84.5407 71.0904 81.3348 73.0124 88.5237 67.2618Z" fill="#D4AE61"/>
<path d="M257.286 62.3737C250.057 59.9122 248.237 64.7903 247.917 69.1315C247.439 75.6215 233.225 78.8171 238.64 82.2651C255.598 93.0622 269.89 66.6649 257.286 62.3737Z" fill="#D4AE61"/>
<path d="M199.853 104.857C196.106 101.909 199.506 100.973 202.855 100.686C207.863 100.257 208.661 92.9181 214.638 97.4739C224.194 104.758 206.384 109.996 199.853 104.857Z" fill="#D4AE61"/>
<path d="M231.077 50.3301C221.398 47.6179 210.096 46.8871 203.655 51.8621C197.365 56.7203 213.304 61.9202 208.078 67.182C204.217 71.0699 195.22 69.4518 191.271 73.31C183.136 81.257 218.414 82.9392 231.519 77.6507C246.668 71.5378 247.704 54.9892 231.077 50.3301Z" fill="#D4AE61"/>
<path d="M118.474 91.9949C125.181 94.0161 128.132 100.289 122.685 105.217C117.365 110.031 110.695 105.977 104.771 110.455C100.394 113.763 94.3905 122.207 86.4437 121.174C74.1695 119.579 75.6016 100.411 91.2816 100.341C110.453 100.256 106.72 88.453 118.474 91.9949Z" fill="#D4AE61"/>
<path d="M234.682 85.4734C231.31 82.5239 225.245 81.4941 219.644 82.9201C213.044 84.6005 210.429 89.6332 214.337 93.1334C219.475 97.7364 239.907 90.044 234.682 85.4734Z" fill="#D4AE61"/>
<path d="M70.4769 112.398C65.2715 112.248 60.9912 114.133 59.8649 117.07C58.5377 120.532 63.2036 124.104 69.3337 124.319C77.3952 124.602 78.5432 112.631 70.4769 112.398Z" fill="#D4AE61"/>
<path d="M223.682 46.2271C227.887 47.9367 232.767 48.4583 235.782 47.5204C239.334 46.4151 238.001 43.3692 233.076 41.339C226.601 38.6691 217.167 43.5779 223.682 46.2271Z" fill="#D4AE61"/>
<path d="M147.85 131.665C147.316 133.711 148.907 135.577 151.795 136.291C155.199 137.133 159.154 135.614 159.822 133.208C160.701 130.044 148.678 128.494 147.85 131.665Z" fill="#D4AE61"/>
<path d="M203.283 155.497C202.748 157.543 204.339 159.409 207.228 160.124C210.631 160.966 214.586 159.446 215.255 157.04C216.134 153.876 204.111 152.327 203.283 155.497Z" fill="#D4AE61"/>
<path d="M197.619 56.7097C197.99 59.7298 203.234 61.2373 201.6 64.1143C198.83 68.9919 186.207 62.1547 181.697 57.731C179.253 55.3341 178.482 53.6174 178.601 50.837C178.851 44.9955 185.145 41.5803 194.081 38.8364C199.408 37.2008 203.11 36.4809 209.119 36.7937C213.983 37.0469 218.469 39.0951 217.965 41.9003C217.378 45.1628 208.374 45.6319 204.695 47.0049C197.176 49.8114 197.017 51.8025 197.619 56.7097Z" fill="#D4AE61"/>
<path d="M90.0664 127.9C84.3802 126.525 79.0357 125.678 75.2592 127.857C66.7859 132.748 89.3084 138.945 96.311 142.988C102.214 146.396 114.042 154.617 121.651 154.639C129.731 154.664 137.777 153.392 137.975 148.753C138.084 146.207 136.347 144.518 133.413 142.291C125.962 136.639 114.15 143.605 104.188 139.455C96.4257 136.221 98.6909 129.985 90.0664 127.9Z" fill="#D4AE61"/>
<path d="M186.705 64.7073C180.628 62.009 172.111 63.9417 166.803 67.006C160.525 70.6301 161.842 75.6085 153.976 77.9846C138.012 82.8066 126.973 55.8865 115.054 63.686C106.824 69.0718 111.593 75.3404 115.939 82.07C119.898 88.1995 129.46 89.2648 133.63 95.3473C142.808 108.732 122.791 109.049 137.613 120.626C145.132 126.498 156.189 125.732 160.169 118.838C167.229 106.611 178.305 108.37 191.572 102.242C202.131 97.364 210.592 94.8373 205.725 88.4536C202.116 83.7201 191.523 84.5274 185.822 80.5385C177.58 74.7729 198.206 69.8143 186.705 64.7073Z" fill="#D4AE61"/>
<path d="M126.404 117.37C100.255 110.707 91.6257 126.757 103.567 133.651C107.747 136.064 106.684 135.951 117.278 135.438C127.888 134.925 133.652 141.315 141.612 136.72C148.761 132.594 142.759 121.538 126.404 117.37Z" fill="#D4AE61"/>
</svg>
