<svg width="330" height="263" viewBox="0 0 330 263" fill="none" xmlns="http://www.w3.org/2000/svg">
<path d="M226.747 149.291C231.907 144.654 221.185 143.318 211.683 142.976C197.478 142.465 190.054 133.1 182.681 136.524C159.594 147.249 217.751 157.377 226.747 149.291Z" fill="#D4AE61"/>
<path d="M142.046 144.576C136.48 142.265 140.009 140.44 143.754 139.331C149.352 137.673 147.181 129.511 155.999 133.038C170.097 138.677 151.749 148.604 142.046 144.576Z" fill="#D4AE61"/>
<path d="M238.656 132.423C243.391 126.792 244.667 120.217 235.982 116.469C227.501 112.81 218.424 122.083 209.238 119.042C202.451 116.796 205.276 111.562 198.541 109.264C184.668 104.531 181.731 125.056 190.963 132.68C201.635 141.493 230.523 142.096 238.656 132.423Z" fill="#D4AE61"/>
<path d="M176.095 134.516C181.244 132.555 183.041 129.026 180.552 125.768C177.619 121.928 168.833 120.406 162.723 122.68C154.688 125.669 168.116 137.556 176.095 134.516Z" fill="#D4AE61"/>
<path d="M163.054 62.4442C159.586 60.0941 153.633 60.2879 148.293 62.9248C142.001 66.032 139.799 71.7786 143.823 74.587C149.116 78.2801 168.428 66.0861 163.054 62.4442Z" fill="#D4AE61"/>
<path d="M245.308 130.987C241.274 134.56 239.391 138.441 240.641 140.611C242.114 143.167 248.187 141.581 252.965 137.393C259.248 131.884 251.559 125.452 245.308 130.987Z" fill="#D4AE61"/>
<path d="M110.406 89.2114C107.068 87.8135 102.83 87.9704 99.8991 89.6004C96.4457 91.5211 96.8822 95.0104 100.785 96.6816C105.918 98.8792 115.579 91.3775 110.406 89.2114Z" fill="#D4AE61"/>
<path d="M228.466 113.766C222.61 113.955 219.773 117.321 214.162 116.216C204.648 114.341 217.705 106.292 226.215 103.449C230.826 101.909 234.144 101.439 239.543 101.563C250.885 101.823 257.619 105.952 263.096 111.779C266.36 115.252 267.82 117.659 267.314 121.541C266.905 124.683 263.006 127.55 257.552 127.176C251.211 126.742 250.148 120.909 247.421 118.507C241.847 113.595 237.98 113.459 228.466 113.766Z" fill="#D4AE61"/>
<path d="M257.043 62.0657C249.758 59.5852 247.924 64.5012 247.601 68.8762C247.119 75.4167 232.794 78.6372 238.252 82.112C255.342 92.9931 269.745 66.3904 257.043 62.0657Z" fill="#D4AE61"/>
<path d="M199.161 104.88C195.386 101.91 198.812 100.967 202.187 100.677C207.234 100.245 208.038 92.8488 214.062 97.4401C223.692 104.78 205.743 110.059 199.161 104.88Z" fill="#D4AE61"/>
<path d="M230.623 49.9299C220.869 47.1967 209.479 46.4602 202.988 51.4739C196.649 56.3699 212.711 61.6102 207.445 66.913C203.554 70.8312 194.488 69.2005 190.507 73.0887C182.309 81.0976 217.861 82.7928 231.069 77.4631C246.335 71.3027 247.379 54.6254 230.623 49.9299Z" fill="#D4AE61"/>
<path d="M121.716 94.3157C128.177 96.654 130.278 103.091 124.127 107.793C118.12 112.384 111.977 108.006 105.409 112.233C100.556 115.356 93.3622 123.563 85.5208 122.161C73.4092 119.995 77.4869 100.804 93.2492 101.453C112.521 102.247 110.396 90.218 121.716 94.3157Z" fill="#D4AE61"/>
<path d="M234.256 85.3458C230.858 82.3733 224.746 81.3354 219.101 82.7726C212.45 84.4661 209.815 89.538 213.753 93.0654C218.931 97.7041 239.521 89.952 234.256 85.3458Z" fill="#D4AE61"/>
<path d="M68.7746 112.48C63.5287 112.328 59.2151 114.228 58.08 117.188C56.7425 120.677 61.4447 124.276 67.6225 124.493C75.7467 124.778 76.9036 112.714 68.7746 112.48Z" fill="#D4AE61"/>
<path d="M223.181 45.7955C227.419 47.5184 232.337 48.0441 235.375 47.0989C238.955 45.985 237.611 42.9154 232.649 40.8694C226.122 38.1788 216.615 43.1257 223.181 45.7955Z" fill="#D4AE61"/>
<path d="M202.617 155.914C202.078 157.976 203.682 159.857 206.593 160.577C210.022 161.425 214.009 159.894 214.682 157.469C215.568 154.281 203.452 152.719 202.617 155.914Z" fill="#D4AE61"/>
<path d="M196.912 56.356C197.286 59.3997 203.476 62.0043 199.739 64.1619C193.946 67.5062 185.411 61.8435 180.866 57.3853C178.403 54.9697 177.626 53.2397 177.745 50.4377C177.997 44.5507 184.34 41.1089 193.346 38.3437C198.714 36.6954 202.445 35.9699 208.501 36.2851C213.403 36.5403 217.924 38.6044 217.415 41.4315C216.824 44.7193 207.75 45.1921 204.043 46.5757C196.465 49.4041 196.304 51.4107 196.912 56.356Z" fill="#D4AE61"/>
<path d="M173.226 53.4928C169.822 52.7954 166.319 53.3466 164.541 54.8593C162.446 56.6419 164.292 59.1923 168.287 60.0351C173.541 61.1435 178.501 54.5735 173.226 53.4928Z" fill="#D4AE61"/>
<path d="M88.5171 128.102C82.7866 126.717 77.4005 125.863 73.5947 128.06C65.0554 132.988 87.7532 139.234 94.8103 143.308C100.76 146.742 112.679 155.027 120.348 155.05C128.49 155.075 136.599 153.793 136.799 149.118C136.909 146.552 135.158 144.85 132.201 142.606C124.692 136.91 112.788 143.93 102.749 139.747C94.9259 136.488 97.2087 130.204 88.5171 128.102Z" fill="#D4AE61"/>
<path d="M185.915 64.4183C179.792 61.699 171.208 63.6467 165.859 66.7348C159.532 70.3872 160.859 75.4043 152.931 77.7989C136.844 82.6584 139.573 71.6303 129.32 73.9455C120.915 75.8434 113.795 80.2868 118.176 87.0688C122.165 93.246 128.225 89.1668 132.428 95.2967C141.677 108.786 121.504 109.105 136.441 120.772C144.019 126.69 155.162 125.918 159.173 118.97C166.288 106.648 177.45 108.421 190.82 102.245C201.462 97.3291 209.988 94.7827 205.084 88.3494C201.447 83.579 190.771 84.3926 185.025 80.3727C176.72 74.5622 197.506 69.5651 185.915 64.4183Z" fill="#D4AE61"/>
<path d="M125.139 117.49C98.7866 110.775 90.0901 126.95 102.125 133.898C106.337 136.329 105.266 136.216 115.942 135.699C126.634 135.181 132.443 141.622 140.466 136.991C147.67 132.832 141.622 121.69 125.139 117.49Z" fill="#D4AE61"/>
</svg>
