<svg width="330" height="263" viewBox="0 0 330 263" fill="none" xmlns="http://www.w3.org/2000/svg">
<path d="M193.415 116.999C191.296 113.229 187.187 113.7 184.591 114.367C181.308 115.211 178.226 114.894 176.901 115.731C167.84 121.461 197.109 123.572 193.415 116.999Z" fill="#D4AE61"/>
<path d="M206.008 110.728C200.284 109.551 203.208 107.114 206.487 105.329C211.389 102.661 207.597 95.1779 216.637 96.9132C231.088 99.6876 215.986 112.78 206.008 110.728Z" fill="#D4AE61"/>
<path d="M116.642 93.6924C123.912 93.399 122.727 96.888 120.608 99.7589C117.44 104.051 127.834 111.225 116.454 111.824C98.2619 112.782 103.967 94.2039 116.642 93.6924Z" fill="#D4AE61"/>
<path d="M131.698 81.809C135.428 84.744 132.043 85.6757 128.708 85.9617C123.722 86.3891 122.926 93.6967 116.975 89.1602C107.46 81.9076 125.195 76.692 131.698 81.809Z" fill="#D4AE61"/>
<path d="M216.436 94.1518C210.592 92.3838 208.486 86.3823 213.801 81.4424C218.991 76.6184 224.626 80.3594 230.33 75.8436C234.544 72.507 240.663 64.1401 247.705 64.9135C258.582 66.1081 255.639 84.7492 241.561 85.2689C224.349 85.9042 226.678 97.25 216.436 94.1518Z" fill="#D4AE61"/>
<path d="M173.667 122.164C172.537 129.308 156.931 128.779 145.892 125.485C138.598 123.309 134.507 119.421 131.991 116.953C126.954 112.01 126.431 106.657 129.954 101.572C132.023 98.5864 118.779 93.5622 131.389 89.1122C141.765 85.4505 148.245 89.95 155.169 95.7219C159.133 99.0267 167.109 98.7287 178.119 93.898C186.627 90.1653 185.399 78.2699 199.699 82.9655C205.118 84.745 211.591 98.5685 199.652 107.163C194.529 110.851 188.804 111.614 181.317 110.342C175.402 109.338 170.113 110.065 167.224 111.868C162.137 115.043 174.349 117.856 173.667 122.164Z" fill="#D4AE61"/>
<path d="M154.997 133.793C155.103 135.143 157.196 136.02 160.186 135.967C163.71 135.905 167.048 134.297 166.962 132.703C166.849 130.607 154.833 131.702 154.997 133.793Z" fill="#D4AE61"/>
<path d="M179.88 86.2683C177.964 89.6251 169.42 93.3442 163.397 92.5161C152.89 91.0714 133.688 83.2057 135.553 77.0639C137.581 70.3878 154.357 77.6729 165.501 75.5384C187.201 71.3818 184.222 49.9537 206.899 51.6394C220.581 52.6565 235.77 55.626 235.525 63.5889C235.318 70.3278 223.922 75.0824 214.386 75.7927C204.205 76.5509 197.392 75.2208 188.402 78.0809C181.159 80.3852 182.468 81.734 179.88 86.2683Z" fill="#D4AE61"/>
<path d="M118.44 114.253C115.145 115.483 114.07 117.76 115.774 119.9C117.781 122.421 123.531 123.487 127.442 122.063C132.586 120.19 123.546 112.347 118.44 114.253Z" fill="#D4AE61"/>
<path d="M174.153 61.3716C170.17 59.4513 164.81 59.469 160.865 61.4154C156.216 63.7089 156.218 68.1635 160.869 70.4555C166.986 73.4695 180.326 64.3473 174.153 61.3716Z" fill="#D4AE61"/>
<path d="M262.288 76.3348C267.471 76.4843 271.733 74.6078 272.855 71.6826C274.176 68.2356 269.53 64.679 263.426 64.4648C255.399 64.1831 254.256 76.1033 262.288 76.3348Z" fill="#D4AE61"/>
<path d="M185.245 57.1493C185.777 55.112 184.193 53.2539 181.317 52.5425C177.928 51.7042 173.99 53.2172 173.324 55.6129C172.449 58.7634 184.421 60.3063 185.245 57.1493Z" fill="#D4AE61"/>
<path d="M242.779 60.8979C248.441 62.2671 253.763 63.1102 257.523 60.94C265.96 56.0707 243.534 49.8995 236.561 45.8742C230.683 42.4806 218.906 34.2946 211.329 34.272C203.284 34.2479 195.272 35.514 195.074 40.1336C194.966 42.6685 196.695 44.3508 199.617 46.5678C207.036 52.1959 218.798 45.2597 228.717 49.3921C236.447 52.6125 234.191 58.8212 242.779 60.8979Z" fill="#D4AE61"/>
</svg>
