<svg width="330" height="263" viewBox="0 0 330 263" fill="none" xmlns="http://www.w3.org/2000/svg">
<path d="M225.536 40.2645C230.697 44.9019 219.975 46.2385 210.473 46.5807C196.267 47.0922 188.844 56.4575 181.471 53.0331C158.383 42.3099 216.54 32.1797 225.536 40.2645Z" fill="#D4AE61"/>
<path d="M140.835 44.9834C135.269 47.2945 138.798 49.1197 142.543 50.2284C148.141 51.8858 145.971 60.0483 154.789 56.5208C168.886 50.8813 150.538 40.9544 140.835 44.9834Z" fill="#D4AE61"/>
<path d="M237.446 57.1326C242.181 62.7636 243.457 69.3387 234.772 73.0865C226.292 76.7464 217.214 67.4737 208.028 70.5143C201.242 72.761 204.067 77.9949 197.331 80.2929C183.459 85.0263 180.521 64.5021 189.753 56.8771C200.424 48.0635 229.312 47.4594 237.446 57.1326Z" fill="#D4AE61"/>
<path d="M174.884 55.0415C180.033 57.0028 181.831 60.5316 179.342 63.7902C176.409 67.63 167.623 69.1519 161.513 66.8787C153.478 63.8894 166.905 52.0022 174.884 55.0415Z" fill="#D4AE61"/>
<path d="M161.846 127.114C158.379 129.464 152.425 129.271 147.085 126.634C140.794 123.527 138.591 117.781 142.615 114.972C147.907 111.279 167.22 123.472 161.846 127.114Z" fill="#D4AE61"/>
<path d="M244.097 58.5678C240.063 54.9956 238.181 51.1142 239.431 48.9447C240.903 46.3882 246.976 47.9737 251.754 52.1624C258.038 57.6708 250.349 64.1032 244.097 58.5678Z" fill="#D4AE61"/>
<path d="M109.197 100.349C105.859 101.747 101.621 101.59 98.6904 99.9603C95.2369 98.0398 95.6733 94.5505 99.5761 92.8792C104.708 90.6813 114.37 98.1826 109.197 100.349Z" fill="#D4AE61"/>
<path d="M227.256 75.79C221.401 75.6014 218.563 72.235 212.952 73.3408C203.438 75.2155 216.496 83.2644 225.006 86.1067C229.616 87.6467 232.935 88.1165 238.334 87.9924C249.675 87.7317 256.41 83.6025 261.886 77.7756C265.151 74.3025 266.61 71.8952 266.105 68.0138C265.695 64.8716 261.795 62.0047 256.342 62.3786C250 62.8134 248.938 68.6456 246.211 71.0484C240.637 75.96 236.77 76.0966 227.256 75.79Z" fill="#D4AE61"/>
<path d="M255.836 127.489C248.55 129.97 246.716 125.054 246.393 120.679C245.911 114.139 231.586 110.919 237.044 107.444C254.133 96.5618 268.537 123.164 255.836 127.489Z" fill="#D4AE61"/>
<path d="M197.952 84.6767C194.176 87.6474 197.603 88.5903 200.978 88.8795C206.024 89.312 206.83 96.7079 212.853 92.1163C222.483 84.7757 204.533 79.4976 197.952 84.6767Z" fill="#D4AE61"/>
<path d="M229.416 139.626C219.662 142.36 208.272 143.096 201.78 138.083C195.441 133.187 211.504 127.946 206.237 122.644C202.346 118.726 193.28 120.357 189.299 116.469C181.101 108.46 216.653 106.763 229.86 112.093C245.127 118.253 246.172 134.93 229.416 139.626Z" fill="#D4AE61"/>
<path d="M120.508 95.2442C126.968 92.9057 129.069 86.4686 122.917 81.767C116.91 77.1758 110.768 81.5542 104.2 77.3278C99.3468 74.205 92.1522 65.9975 84.3108 67.4003C72.1994 69.5671 76.2777 88.7579 92.0401 88.1079C111.312 87.3131 109.187 99.3423 120.508 95.2442Z" fill="#D4AE61"/>
<path d="M233.048 104.21C229.65 107.182 223.537 108.221 217.893 106.784C211.242 105.09 208.606 100.019 212.544 96.4911C217.722 91.8521 238.313 99.6035 233.048 104.21Z" fill="#D4AE61"/>
<path d="M67.565 77.0822C62.3191 77.2337 58.0054 75.3347 56.8702 72.3742C55.5326 68.8856 60.2346 65.2858 66.4125 65.0688C74.5367 64.7834 75.694 76.8476 67.565 77.0822Z" fill="#D4AE61"/>
<path d="M221.974 143.761C226.212 142.037 231.13 141.512 234.168 142.457C237.748 143.57 236.404 146.64 231.442 148.686C224.916 151.377 215.408 146.431 221.974 143.761Z" fill="#D4AE61"/>
<path d="M201.406 33.6427C200.867 31.5808 202.471 29.7001 205.381 28.98C208.811 28.1314 212.797 29.6626 213.471 32.0872C214.357 35.2758 202.241 36.8378 201.406 33.6427Z" fill="#D4AE61"/>
<path d="M195.704 133.201C196.078 130.157 202.268 127.553 198.531 125.395C192.738 122.051 184.203 127.714 179.658 132.172C177.195 134.588 176.418 136.318 176.538 139.12C176.79 145.007 183.133 148.449 192.139 151.214C197.507 152.862 201.239 153.587 207.294 153.272C212.196 153.016 216.717 150.952 216.208 148.125C215.617 144.837 206.543 144.365 202.836 142.981C195.257 140.153 195.097 138.146 195.704 133.201Z" fill="#D4AE61"/>
<path d="M172.019 136.065C168.615 136.763 165.112 136.212 163.334 134.699C161.239 132.916 163.084 130.366 167.08 129.523C172.334 128.414 177.294 134.984 172.019 136.065Z" fill="#D4AE61"/>
<path d="M87.3069 61.4588C81.5765 62.8448 76.1904 63.6983 72.3845 61.502C63.845 56.5741 86.5426 50.3275 93.5995 46.2532C99.5488 42.8184 111.468 34.5329 119.136 34.5097C127.279 34.4851 135.387 35.7662 135.588 40.4416C135.698 43.0072 133.947 44.7099 130.99 46.9538C123.482 52.6502 111.577 45.6306 101.538 49.8134C93.7154 53.073 95.9984 59.3567 87.3069 61.4588Z" fill="#D4AE61"/>
<path d="M184.708 125.139C178.584 127.859 170 125.911 164.651 122.823C158.324 119.171 159.651 114.154 151.723 111.76C135.636 106.901 138.365 117.929 128.112 115.614C119.707 113.717 112.587 109.273 116.967 102.491C120.956 96.3139 127.016 100.393 131.219 94.2629C140.468 80.7734 120.295 80.4548 135.231 68.7877C142.808 62.8691 153.952 63.6406 157.964 70.5881C165.079 82.9102 176.241 81.1372 189.611 87.3127C200.253 92.2278 208.779 94.7739 203.875 101.207C200.238 105.978 189.563 105.165 183.817 109.185C175.512 114.996 196.298 119.992 184.708 125.139Z" fill="#D4AE61"/>
<path d="M123.929 72.0696C97.5771 78.7856 88.88 62.6113 100.914 55.6632C105.127 53.2313 104.055 53.345 114.731 53.8614C125.424 54.3785 131.232 47.9378 139.255 52.5685C146.46 56.7269 140.412 67.8687 123.929 72.0696Z" fill="#D4AE61"/>
</svg>
