<svg width="330" height="263" viewBox="0 0 330 263" fill="none" xmlns="http://www.w3.org/2000/svg">
<path d="M140.946 73.2161C143.065 76.9855 147.173 76.514 149.769 75.847C153.05 75.0038 156.132 75.3209 157.457 74.4832C166.516 68.7546 137.252 66.6447 140.946 73.2161Z" fill="#D4AE61"/>
<path d="M258.066 64.0728C250.869 61.6223 249.057 66.4787 248.739 70.8005C248.263 77.2616 234.112 80.4429 239.503 83.8756C256.385 94.6245 270.614 68.3449 258.066 64.0728Z" fill="#D4AE61"/>
<path d="M130.996 77.9595C136.718 79.1364 133.796 81.5728 130.517 83.3571C125.616 86.0246 129.407 93.5064 120.369 91.7714C105.92 88.9976 121.019 75.9077 130.996 77.9595Z" fill="#D4AE61"/>
<path d="M202.65 108.402C198.921 105.467 202.306 104.536 205.64 104.25C210.625 103.823 211.42 96.5166 217.37 101.052C226.884 108.303 209.152 113.518 202.65 108.402Z" fill="#D4AE61"/>
<path d="M231.977 52.0831C222.341 49.383 211.09 48.6554 204.678 53.6082C198.416 58.4448 214.283 63.6215 209.081 68.8599C205.237 72.7305 196.281 71.1195 192.349 74.9606C184.25 82.8722 219.371 84.5469 232.418 79.2819C247.498 73.1962 248.53 56.7214 231.977 52.0831Z" fill="#D4AE61"/>
<path d="M117.935 96.0594C123.778 97.827 125.884 103.827 120.57 108.766C115.381 113.589 109.747 109.849 104.044 114.364C99.8306 117.7 93.7133 126.065 86.6723 125.292C75.7971 124.098 78.7397 105.46 92.8148 104.941C110.024 104.305 107.695 92.9619 117.935 96.0594Z" fill="#D4AE61"/>
<path d="M160.691 68.0538C161.821 60.9114 194.61 62.5219 192.394 69.579C191.509 72.3965 186.678 72.9211 185.349 75.6797C182.84 80.8846 192.35 82.5087 200.32 85.3402C211.768 89.4074 217.053 100.084 202.961 101.099C190.896 101.968 186.108 100.262 179.186 94.4908C175.222 91.1867 167.248 91.4846 156.24 96.3143C147.734 100.046 148.961 111.939 134.665 107.245C129.247 105.466 121.22 90.8404 134.712 83.0517C144.117 77.6223 153.656 80.4542 160.251 78.9842C163.773 78.1991 165.73 77.9917 168.618 76.1888C173.705 73.0138 160.01 72.3607 160.691 68.0538Z" fill="#D4AE61"/>
<path d="M154.48 103.942C156.396 100.586 164.938 96.8675 170.96 97.6955C181.465 99.1398 200.663 107.004 198.798 113.145C196.771 119.819 179.997 112.536 168.856 114.67C147.161 118.826 150.138 140.249 127.467 138.564C113.787 137.547 98.6017 134.578 98.8461 126.617C99.0529 119.879 110.447 115.126 119.981 114.416C130.16 113.657 136.972 114.987 145.96 112.128C153.201 109.824 151.893 108.475 154.48 103.942Z" fill="#D4AE61"/>
<path d="M235.567 87.0694C232.21 84.133 226.172 83.1077 220.596 84.5274C214.026 86.2004 211.422 91.2106 215.312 94.6952C220.428 99.2776 240.768 91.6196 235.567 87.0694Z" fill="#D4AE61"/>
<path d="M160.209 128.835C164.192 130.755 169.55 130.737 173.495 128.791C178.143 126.498 178.141 122.044 173.49 119.753C167.375 116.739 154.037 125.86 160.209 128.835Z" fill="#D4AE61"/>
<path d="M72.089 113.873C66.9068 113.723 62.6456 115.599 61.5243 118.524C60.2031 121.97 64.8481 125.526 70.951 125.74C78.9765 126.022 80.1194 114.104 72.089 113.873Z" fill="#D4AE61"/>
<path d="M224.621 47.9982C228.807 49.7002 233.665 50.2195 236.666 49.2857C240.202 48.1854 238.875 45.1531 233.973 43.1319C227.526 40.474 218.134 45.3608 224.621 47.9982Z" fill="#D4AE61"/>
<path d="M149.122 133.053C148.59 135.09 150.174 136.948 153.05 137.659C156.438 138.497 160.376 136.984 161.041 134.589C161.916 131.439 149.947 129.897 149.122 133.053Z" fill="#D4AE61"/>
<path d="M198.67 58.4337C199.039 61.4404 204.26 62.9411 202.633 65.8054C199.875 70.6612 187.309 63.8545 182.819 59.4505C180.386 57.0643 179.618 55.3553 179.737 52.5872C179.985 46.7718 186.251 43.3718 195.148 40.6401C200.45 39.0119 204.137 38.2952 210.118 38.6065C214.961 38.8586 219.427 40.8977 218.925 43.6904C218.341 46.9383 209.377 47.4053 205.715 48.7722C198.229 51.5662 198.07 53.5485 198.67 58.4337Z" fill="#D4AE61"/>
<path d="M91.5959 129.306C85.9349 127.937 80.6143 127.094 76.8546 129.264C68.4191 134.133 90.8412 140.303 97.8126 144.327C103.69 147.72 115.464 155.904 123.04 155.927C131.083 155.951 139.093 154.685 139.291 150.066C139.4 147.532 137.671 145.85 134.749 143.634C127.332 138.007 115.572 144.941 105.655 140.81C97.9268 137.59 100.182 131.383 91.5959 129.306Z" fill="#D4AE61"/>
</svg>
