<svg width="18" height="18" viewBox="0 0 18 18" fill="none" xmlns="http://www.w3.org/2000/svg">
<path fill-rule="evenodd" clip-rule="evenodd" d="M9.75 3.80317C9.50505 3.76813 9.25464 3.75 9 3.75C8.74536 3.75 8.49495 3.76813 8.25 3.80317V0.783632C8.49702 0.761372 8.74718 0.75 9 0.75C9.25282 0.75 9.50298 0.761372 9.75 0.783632V3.80317ZM5.25 9C5.25 11.0711 6.92893 12.75 9 12.75C11.0711 12.75 12.75 11.0711 12.75 9C12.75 6.92893 11.0711 5.25 9 5.25C6.92893 5.25 5.25 6.92893 5.25 9ZM11.25 9C11.25 10.2426 10.2426 11.25 9 11.25C7.75736 11.25 6.75 10.2426 6.75 9C6.75 7.75736 7.75736 6.75 9 6.75C10.2426 6.75 11.25 7.75736 11.25 9ZM9.75 17.2163V14.1968C9.50505 14.2318 9.25464 14.25 9 14.25C8.74536 14.25 8.49495 14.2318 8.25 14.1968V17.2163C8.49702 17.2386 8.74718 17.25 9 17.25C9.25282 17.25 9.50298 17.2386 9.75 17.2163ZM14.1967 8.25H17.2162C17.2385 8.49702 17.2499 8.74718 17.2499 9C17.2499 9.25282 17.2385 9.50298 17.2162 9.75H14.1967C14.2317 9.50505 14.2499 9.25464 14.2499 9C14.2499 8.74536 14.2317 8.49495 14.1967 8.25ZM3.75 9C3.75 8.74536 3.76813 8.49495 3.80317 8.25H0.783632C0.761372 8.49702 0.75 8.74718 0.75 9C0.75 9.25282 0.761372 9.50298 0.783632 9.75H3.80317C3.76813 9.50505 3.75 9.25464 3.75 9ZM12.1443 4.79524L14.2795 2.66007C14.6643 2.98083 15.0194 3.33595 15.3401 3.72073L13.205 5.8559C12.9038 5.45382 12.5464 5.09637 12.1443 4.79524ZM2.66001 3.72073L4.79518 5.8559C5.09631 5.45382 5.45376 5.09637 5.85584 4.79524L3.72067 2.66007C3.33589 2.98083 2.98077 3.33595 2.66001 3.72073ZM13.205 12.1441L15.3401 14.2793C15.0194 14.6641 14.6643 15.0192 14.2795 15.34L12.1443 13.2048C12.5464 12.9037 12.9038 12.5462 13.205 12.1441ZM3.72067 15.34L5.85584 13.2048C5.45376 12.9037 5.09631 12.5462 4.79518 12.1441L2.66001 14.2793C2.98077 14.6641 3.33589 15.0192 3.72067 15.34Z" fill="#00AFBD"/>
</svg>
