<svg width="5233" height="2541" viewBox="0 0 5233 2541" fill="none" xmlns="http://www.w3.org/2000/svg">
<path d="M2674.85 1791.21L2622 1514.5L5233 3.5L5009.74 386.636L4538.67 774.932L4374.82 1175.21L3957.51 1378.95L3737.33 1479.62L3578.5 1908.66L3398 1954.2L3271.38 1870.31L3115.2 1954.2L2851.51 2265.8L2577.56 2493.5V2184.3L2511 1997.34L2674.85 1791.21Z" fill="#83753E"/>
<path d="M57.9628 175.842L0 0L2623 1518L2682 1816L2578.32 1987.26L2703.83 2229.58L2578.32 2493.5L2398 2540.5L2002.02 2289.57L1901 2048L1569.15 1790.53L1489.75 1737.74L1382.17 1828.91H1246.42L1097.87 1531.41L752.085 1224.31L772.576 1022.77L447.286 734.863L280.799 360.583L57.9628 175.842Z" fill="#E7C683"/>
</svg>
