<svg width="136" height="141" viewBox="0 0 136 141" fill="none" xmlns="http://www.w3.org/2000/svg">
<g style="mix-blend-mode:multiply">
<path d="M108.244 80.5137L132.743 100.514L64.7443 126.513L65.2443 124.513L57.7443 126.513L53.7443 110.013L28.7436 112.013L32.7433 106.513L108.244 80.5137Z" fill="#A8B60A"/>
</g>
<path fill-rule="evenodd" clip-rule="evenodd" d="M82.7476 13.831L87.7631 16.7264L87.6105 16.8145L87.6103 22.4464L79.8924 26.9027L109.353 43.9101V43.8535L104.489 41.0458L117.152 33.7355L121.932 36.4951L122.015 36.4474V36.5429L122.168 36.6309L122.015 36.719L122.015 42.2386L114.237 46.7297L116.264 47.9002L111.382 50.7186L115.794 48.1933V97.4397L64.8985 126.575V126.575L64.8977 126.575L64.8974 126.575V126.575L60.7775 124.197C59.2529 126.212 57.1007 126.863 55.17 126.152L52.1921 125.486C50.7628 125.435 49.345 124.679 48.2541 123.219C46.8042 121.278 46.2842 118.564 46.694 116.069L34.353 108.946C34.226 109.156 34.0895 109.359 33.9437 109.554C32.4162 111.599 30.2475 112.262 28.3041 111.544L25.3298 110.878C23.9005 110.827 22.4827 110.071 21.3918 108.611C19.7852 106.46 19.3203 103.36 19.9972 100.661L14.4731 97.4723V48.2254L64.8976 77.3279L64.9362 77.3057L14 47.9002L65.1322 18.3816L74.9482 24.0484L74.9482 23.9664L74.9633 23.9577L70.0847 21.1413L82.7476 13.831Z" fill="white"/>
<path d="M87.7631 16.7264L94.5126 28.418C98.6898 26.0066 101.263 21.5497 101.263 16.7265C101.263 11.9032 98.6898 7.44631 94.5127 5.03482L87.7631 16.7264ZM82.7476 13.831L89.4972 2.13939C85.3205 -0.271807 80.1748 -0.271807 75.9981 2.13939L82.7476 13.831ZM87.6105 16.8145L80.861 5.12286C76.684 7.53424 74.1107 11.9909 74.1105 16.814L87.6105 16.8145ZM87.6103 22.4464L94.3608 34.1375C98.5373 31.7259 101.11 27.2696 101.11 22.4469L87.6103 22.4464ZM79.8924 26.9027L73.142 15.2116C68.9651 17.6233 66.3922 22.0801 66.3924 26.9032C66.3926 31.7263 68.9658 36.1829 73.1429 38.5943L79.8924 26.9027ZM109.353 43.9101L102.603 55.6017C106.78 58.013 111.926 58.0129 116.103 55.6013C120.28 53.1897 122.853 48.7331 122.853 43.9101H109.353ZM109.353 43.8535H122.853C122.853 39.0302 120.279 34.5734 116.102 32.1619L109.353 43.8535ZM104.489 41.0458L97.7396 29.3542C93.5624 31.7657 90.9891 36.2225 90.9891 41.0458C90.9891 45.8691 93.5624 50.3259 97.7396 52.7374L104.489 41.0458ZM117.152 33.7355L123.902 22.0439C119.725 19.6327 114.579 19.6327 110.402 22.0439L117.152 33.7355ZM121.932 36.4951L115.183 48.1867C119.36 50.5982 124.506 50.5979 128.683 48.1861L121.932 36.4951ZM122.015 36.4474H135.515C135.515 31.6242 132.942 27.1674 128.765 24.7559C124.588 22.3444 119.441 22.3446 115.264 24.7564L122.015 36.4474ZM122.015 36.5429H108.515C108.515 41.3661 111.088 45.8229 115.265 48.2344L122.015 36.5429ZM122.168 36.6309L128.917 48.3225C133.094 45.911 135.668 41.4542 135.668 36.631C135.668 31.8077 133.094 27.3509 128.917 24.9394L122.168 36.6309ZM122.015 36.719L115.265 25.0275C111.088 27.4388 108.515 31.8954 108.515 36.7185L122.015 36.719ZM122.015 42.2386L128.765 53.9297C132.942 51.5182 135.515 47.0619 135.515 42.2391L122.015 42.2386ZM114.237 46.7297L107.486 35.0386C103.309 37.4503 100.737 41.9071 100.737 46.7302C100.737 51.5533 103.31 56.0099 107.487 58.4213L114.237 46.7297ZM116.264 47.9002L123.014 59.5918C127.191 57.1804 129.764 52.7235 129.764 47.9003C129.764 43.077 127.191 38.6201 123.014 36.2087L116.264 47.9002ZM111.382 50.7186L104.633 39.027C98.1842 42.7498 95.9675 50.9912 99.6785 57.4467C103.39 63.9023 111.627 66.134 118.089 62.4348L111.382 50.7186ZM115.794 48.1933H129.294C129.294 43.3792 126.73 38.9293 122.566 36.5145C118.401 34.0997 113.265 34.0855 109.087 36.4771L115.794 48.1933ZM115.794 97.4397L122.501 109.156C126.702 106.751 129.294 102.281 129.294 97.4397H115.794ZM64.8985 126.575L58.1916 114.858C53.9904 117.263 51.3985 121.734 51.3985 126.575H64.8985ZM64.8985 126.575L58.1765 138.283C62.3541 140.682 67.4934 140.672 71.6624 138.259C75.8315 135.845 78.3985 131.393 78.3985 126.575H64.8985ZM64.8977 126.575L71.6196 114.868C67.4778 112.489 62.3876 112.477 58.234 114.834L64.8977 126.575ZM64.8974 126.575H51.3974C51.3974 131.38 53.9517 135.824 58.1043 138.242C62.257 140.66 67.3819 140.688 71.561 138.316L64.8974 126.575ZM64.8974 126.575H78.3974C78.3974 121.751 75.8235 117.294 71.6456 114.882L64.8974 126.575ZM60.7775 124.197L67.5258 112.505C61.6292 109.101 54.1212 110.621 50.0127 116.05L60.7775 124.197ZM55.17 126.152L59.8353 113.484C59.2752 113.278 58.7021 113.109 58.1197 112.979L55.17 126.152ZM52.1921 125.486L55.1418 112.312C54.3308 112.13 53.5048 112.024 52.6743 111.994L52.1921 125.486ZM48.2541 123.219L37.439 131.299L37.4391 131.299L48.2541 123.219ZM46.694 116.069L60.0156 118.256C60.926 112.713 58.308 107.185 53.4423 104.376L46.694 116.069ZM34.353 108.946L41.1013 97.2537C34.7388 93.5816 26.608 95.6709 22.804 101.955L34.353 108.946ZM33.9437 109.554L23.1287 101.474L23.1286 101.474L33.9437 109.554ZM28.3041 111.544L32.9839 98.8807C32.4192 98.6721 31.8412 98.5014 31.2538 98.3698L28.3041 111.544ZM25.3298 110.878L28.2795 97.7039C27.4685 97.5223 26.6425 97.416 25.8119 97.3863L25.3298 110.878ZM21.3918 108.611L10.5767 116.691L10.5768 116.691L21.3918 108.611ZM19.9972 100.661L33.092 103.943C34.5582 98.0943 31.9679 91.9823 26.7455 88.9682L19.9972 100.661ZM14.4731 97.4723H0.973145C0.973145 102.296 3.54698 106.753 7.72487 109.165L14.4731 97.4723ZM14.4731 48.2254L21.2214 36.533C17.0444 34.1223 11.8987 34.1229 7.72227 36.5345C3.54585 38.9462 0.973145 43.4027 0.973145 48.2254H14.4731ZM64.8976 77.3279L58.1493 89.0202C62.3107 91.422 67.435 91.4309 71.6048 89.0438L64.8976 77.3279ZM64.9362 77.3057L71.6434 89.0217C75.8369 86.621 78.4275 82.1621 78.4362 77.3302C78.4449 72.4982 75.8705 68.03 71.6858 65.6141L64.9362 77.3057ZM14 47.9002L7.25044 36.2087C3.07328 38.6201 0.5 43.077 0.5 47.9002C0.5 52.7235 3.07328 57.1804 7.25044 59.5918L14 47.9002ZM65.1322 18.3816L71.8818 6.69003C67.7051 4.27883 62.5593 4.27883 58.3826 6.69003L65.1322 18.3816ZM74.9482 24.0484L68.1986 35.74C72.3755 38.1513 77.5214 38.1512 81.6981 35.7398C85.8749 33.3284 88.448 28.8719 88.4482 24.049L74.9482 24.0484ZM74.9482 23.9664L68.1977 12.2753C64.0213 14.6868 61.4484 19.1431 61.4482 23.9658L74.9482 23.9664ZM74.9633 23.9577L81.7137 35.6487C85.8906 33.237 88.4635 28.7802 88.4633 23.9571C88.4631 19.1341 85.8898 14.6775 81.7128 12.2661L74.9633 23.9577ZM70.0847 21.1413L63.3352 9.44969C59.158 11.8612 56.5847 16.318 56.5847 21.1413C56.5847 25.9646 59.158 30.4214 63.3352 32.8329L70.0847 21.1413ZM94.5127 5.03482L89.4972 2.13939L75.9981 25.5226L81.0135 28.418L94.5127 5.03482ZM94.3601 28.5061L94.5126 28.418L81.0136 5.0348L80.861 5.12286L94.3601 28.5061ZM101.11 22.4469L101.111 16.815L74.1105 16.814L74.1103 22.4459L101.11 22.4469ZM86.6429 38.5938L94.3608 34.1375L80.8599 10.7553L73.142 15.2116L86.6429 38.5938ZM116.102 32.2185L86.642 15.2111L73.1429 38.5943L102.603 55.6017L116.102 32.2185ZM95.8526 43.8535V43.9101H122.853V43.8535H95.8526ZM97.7396 52.7374L102.603 55.5451L116.102 32.1619L111.239 29.3542L97.7396 52.7374ZM110.402 22.0439L97.7396 29.3542L111.239 52.7374L123.902 45.4271L110.402 22.0439ZM128.682 24.8035L123.902 22.0439L110.402 45.4271L115.183 48.1867L128.682 24.8035ZM115.264 24.7564L115.182 24.8042L128.683 48.1861L128.766 48.1384L115.264 24.7564ZM135.515 36.5429V36.4474H108.515V36.5429H135.515ZM128.917 24.9394L128.765 24.8513L115.265 48.2344L115.418 48.3225L128.917 24.9394ZM128.765 48.4106L128.917 48.3225L115.418 24.9394L115.265 25.0275L128.765 48.4106ZM135.515 42.2391L135.515 36.7195L108.515 36.7185L108.515 42.2381L135.515 42.2391ZM120.987 58.4208L128.765 53.9297L115.264 30.5475L107.486 35.0386L120.987 58.4208ZM123.014 36.2087L120.986 35.0381L107.487 58.4213L109.515 59.5918L123.014 36.2087ZM118.132 62.4102L123.014 59.5918L109.515 36.2087L104.633 39.027L118.132 62.4102ZM109.087 36.4771L104.676 39.0024L118.089 62.4348L122.501 59.9096L109.087 36.4771ZM129.294 97.4397V48.1933H102.294V97.4397H129.294ZM71.6053 138.291L122.501 109.156L109.087 85.7235L58.1916 114.858L71.6053 138.291ZM78.3985 126.575V126.575H51.3985V126.575H78.3985ZM58.1757 138.282L58.1765 138.283L71.6204 114.868L71.6196 114.868L58.1757 138.282ZM71.561 138.316L71.5613 138.316L58.234 114.834L58.2337 114.834L71.561 138.316ZM51.3974 126.575V126.575H78.3974V126.575H51.3974ZM54.0292 135.889L58.1491 138.267L71.6456 114.882L67.5258 112.505L54.0292 135.889ZM50.5047 138.821C58.8132 141.88 66.9729 138.382 71.5423 132.344L50.0127 116.05C50.6799 115.169 51.913 114.043 53.8264 113.4C55.7817 112.743 57.9238 112.78 59.8353 113.484L50.5047 138.821ZM49.2424 138.659L52.2203 139.326L58.1197 112.979L55.1418 112.312L49.2424 138.659ZM37.4391 131.299C40.5906 135.517 45.5903 138.758 51.71 138.977L52.6743 111.994C55.9353 112.111 58.0993 113.841 59.0692 115.139L37.4391 131.299ZM33.3725 113.881C32.4719 119.365 33.4368 125.942 37.439 131.299L59.0692 115.139C59.6729 115.947 59.8992 116.654 59.9862 117.066C60.0745 117.485 60.0791 117.869 60.0156 118.256L33.3725 113.881ZM27.6047 120.638L39.9457 127.761L53.4423 104.376L41.1013 97.2537L27.6047 120.638ZM44.7587 117.634C45.1747 117.077 45.5552 116.51 45.902 115.937L22.804 101.955C22.8968 101.802 23.0043 101.641 23.1287 101.474L44.7587 117.634ZM23.6242 124.207C31.996 127.301 40.2026 123.733 44.7587 117.634L23.1286 101.474C23.7867 100.593 25.0156 99.4553 26.9374 98.8024C28.9025 98.1348 31.0599 98.1697 32.9839 98.8807L23.6242 124.207ZM22.3801 124.051L25.3544 124.717L31.2538 98.3698L28.2795 97.7039L22.3801 124.051ZM10.5768 116.691C13.7283 120.909 18.728 124.15 24.8477 124.369L25.8119 97.3863C29.073 97.5028 31.237 99.2328 32.2069 100.531L10.5768 116.691ZM6.90237 97.3778C5.39503 103.391 6.17962 110.805 10.5767 116.691L32.2069 100.531C32.8717 101.421 33.0816 102.189 33.151 102.602C33.222 103.023 33.2145 103.454 33.092 103.943L6.90237 97.3778ZM7.72487 109.165L13.2489 112.353L26.7455 88.9682L21.2214 85.78L7.72487 109.165ZM0.973145 48.2254V97.4723H27.9731V48.2254H0.973145ZM71.6458 65.6355L21.2214 36.533L7.7249 59.9177L58.1493 89.0202L71.6458 65.6355ZM58.229 65.5898L58.1904 65.6119L71.6048 89.0438L71.6434 89.0217L58.229 65.5898ZM7.25044 59.5918L58.1867 88.9973L71.6858 65.6141L20.7496 36.2087L7.25044 59.5918ZM58.3826 6.69003L7.25044 36.2087L20.7496 59.5918L71.8818 30.0732L58.3826 6.69003ZM81.6978 12.3568L71.8818 6.69003L58.3826 30.0732L68.1986 35.74L81.6978 12.3568ZM61.4482 23.9658L61.4482 24.0478L88.4482 24.049V23.967L61.4482 23.9658ZM68.2128 12.2666L68.1977 12.2753L81.6987 35.6574L81.7137 35.6487L68.2128 12.2666ZM63.3352 32.8329L68.2137 35.6493L81.7128 12.2661L76.8343 9.44969L63.3352 32.8329ZM75.9981 2.13939L63.3352 9.44969L76.8343 32.8329L89.4972 25.5226L75.9981 2.13939Z" fill="white"/>
<ellipse rx="6.83945" ry="6.83945" transform="matrix(0.598509 0.801116 -0.598509 0.801116 25.4851 103.132)" fill="#F9D167"/>
<path d="M28.8462 96.2674L28.8462 111.665L24.773 110.753L24.773 95.2556L28.8462 96.2674Z" fill="#F9D167"/>
<ellipse rx="6.83945" ry="6.83945" transform="matrix(0.598509 0.801116 -0.598509 0.801116 29.8501 104.075)" fill="#784B00"/>
<ellipse rx="6.83945" ry="6.83945" transform="matrix(0.598509 0.801116 -0.598509 0.801116 52.3474 117.74)" fill="#F9D167"/>
<path d="M55.7085 110.875L55.7085 126.273L51.6353 125.361L51.6353 109.863L55.7085 110.875Z" fill="#F9D167"/>
<ellipse rx="6.83945" ry="6.83945" transform="matrix(0.598509 0.801116 -0.598509 0.801116 56.7109 118.682)" fill="#784B00"/>
<path d="M117.152 33.7355L122.168 36.631L109.505 43.9413L104.489 41.0458L117.152 33.7355Z" fill="#784B00"/>
<path d="M122.015 42.2386L122.015 36.4474L109.353 43.7587L109.352 49.5499L122.015 42.2386Z" fill="#463A00"/>
<path d="M82.7476 13.831L87.7631 16.7265L75.1002 24.0367L70.0847 21.1413L82.7476 13.831Z" fill="#784B00"/>
<path d="M87.6103 22.4464L87.6105 16.6551L74.9481 23.9664L74.9479 29.7576L87.6103 22.4464Z" fill="#463A00"/>
<path d="M14.4731 48.2254L64.8985 77.3284V126.575L14.4731 97.4723V48.2254Z" fill="#F6B825"/>
<path d="M115.794 48.1933L64.8974 77.328V126.575L115.794 97.4397V48.1933Z" fill="#784B00"/>
<rect width="59.0411" height="59.0411" transform="matrix(0.866044 -0.499967 0.866044 0.499967 14 47.9003)" fill="#FADB83"/>
<rect width="50.4803" height="50.4803" transform="matrix(0.866044 -0.499967 0.866044 0.499967 21.0674 47.6643)" fill="#784B00"/>
</svg>
