<svg width="117" height="112" viewBox="0 0 117 112" fill="none" xmlns="http://www.w3.org/2000/svg">
<g style="mix-blend-mode:multiply">
<path d="M94.0567 64.1252L115.055 81.6248L78.5649 99.6755L66.5648 106.675L66.5648 103.175L52.0532 108.125L37.2719 61.0416L94.0567 64.1252Z" fill="#5C6017"/>
</g>
<ellipse rx="6.83155" ry="6.83155" transform="matrix(-0.598509 0.801116 0.598509 0.801116 91.4688 84.6508)" fill="#784B00"/>
<path d="M88.1172 77.7939L88.1172 93.1738L92.1856 92.2628L92.1856 76.7832L88.1172 77.7939Z" fill="#784B00"/>
<ellipse rx="6.83155" ry="6.83155" transform="matrix(-0.598509 0.801116 0.598509 0.801116 87.1133 85.5922)" fill="#BC8A14"/>
<ellipse rx="6.83155" ry="6.83155" transform="matrix(-0.598509 0.801116 0.598509 0.801116 64.6367 99.2436)" fill="#784B00"/>
<path d="M61.2852 92.3876L61.2852 107.768L65.3536 106.857L65.3536 91.377L61.2852 92.3876Z" fill="#784B00"/>
<ellipse rx="6.83155" ry="6.83155" transform="matrix(-0.598509 0.801116 0.598509 0.801116 60.2813 100.185)" fill="#F6B825"/>
<path d="M102.473 29.8086L52.1056 58.878V108.068L102.473 78.9986V29.8086Z" fill="#784B00"/>
<path d="M1.26953 29.7764L52.1073 58.8774V108.068L1.26953 78.9658V29.7764Z" fill="#F6B825"/>
<rect width="58.9729" height="58.9729" transform="matrix(-0.866044 -0.499967 -0.866044 0.499967 102.945 29.4844)" fill="#FADB83"/>
<rect width="50.422" height="50.422" transform="matrix(-0.866044 -0.499967 -0.866044 0.499967 95.8828 29.2471)" fill="#784B00"/>
<path d="M61.8654 53.1924L56.8905 56.0644L69.4509 63.3155L74.4258 60.4435L61.8654 53.1924Z" fill="#784B00"/>
<path d="M57.044 61.6272L57.0438 55.8829L69.6037 63.1349L69.6039 68.8793L57.044 61.6272Z" fill="#463A00"/>
<path d="M95.9904 33.4492L91.0155 36.3212L103.576 43.5723L108.551 40.7004L95.9904 33.4492Z" fill="#784B00"/>
<path d="M91.169 41.9944L91.1688 36.25L103.729 43.5021L103.729 49.2465L91.169 41.9944Z" fill="#463A00"/>
<path d="M108.428 40.667L103.559 43.4782L103.559 49.1004L108.427 46.2891L108.428 40.667Z" fill="#463A00"/>
<path d="M74.4237 60.6221L69.5549 63.4333L69.5547 69.0554L74.4235 66.2442L74.4237 60.6221Z" fill="#463A00"/>
</svg>
