<svg width="125" height="117" viewBox="0 0 125 117" fill="none" xmlns="http://www.w3.org/2000/svg">
<g style="mix-blend-mode:multiply">
<path d="M102.057 68.3107L123.055 85.8103L86.5649 103.861L74.5648 110.861L74.5648 107.361L60.0532 112.31L45.2719 65.2272L102.057 68.3107Z" fill="#5C6017"/>
</g>
<ellipse rx="6.80371" ry="6.80371" transform="matrix(-0.598509 0.801116 0.598509 0.801116 99.0977 89.6589)" fill="#10416D"/>
<path d="M95.7578 82.8308L95.7578 98.148L99.8097 97.2407L99.8097 81.8242L95.7578 82.8308Z" fill="#10416D"/>
<ellipse rx="6.80371" ry="6.80371" transform="matrix(-0.598509 0.801116 0.598509 0.801116 94.7578 90.5964)" fill="#1952A9"/>
<ellipse rx="6.80371" ry="6.80371" transform="matrix(-0.598509 0.801116 0.598509 0.801116 72.3828 104.192)" fill="#10416D"/>
<path d="M69.0391 97.363L69.0391 112.68L73.0909 111.773L73.0909 96.3564L69.0391 97.363Z" fill="#10416D"/>
<ellipse rx="6.80371" ry="6.80371" transform="matrix(-0.598509 0.801116 0.598509 0.801116 68.043 105.129)" fill="#3686FF"/>
<path d="M7.91888 20.6279L2.92962 23.5082L15.5264 30.7803L20.5156 27.9L7.91888 20.6279Z" fill="#10416D"/>
<path d="M3.07663 29.087L3.07641 23.326L15.6726 30.5991L15.6728 36.36L3.07663 29.087Z" fill="#10416D"/>
<path d="M42.1415 0.827148L37.1523 3.70745L49.749 10.9795L54.7383 8.09925L42.1415 0.827148Z" fill="#10416D"/>
<path d="M37.2993 9.39657L37.2991 3.63559L49.8953 10.9086L49.8955 16.6696L37.2993 9.39657Z" fill="#10416D"/>
<path d="M110.051 35.0391L59.889 63.99V112.98L110.051 84.0286V35.0391Z" fill="#10416D"/>
<path d="M9.26172 35.0078L59.8923 63.9902V112.98L9.26172 83.9968V35.0078Z" fill="#3686FF"/>
<rect width="58.7326" height="58.7326" transform="matrix(-0.866044 -0.499967 -0.866044 0.499967 110.52 34.7158)" fill="#91C1FF"/>
<rect width="50.2165" height="50.2165" transform="matrix(-0.866044 -0.499967 -0.866044 0.499967 103.488 34.4805)" fill="#10416D"/>
</svg>
