<svg width="120" height="118" viewBox="0 0 120 118" fill="none" xmlns="http://www.w3.org/2000/svg">
<g style="mix-blend-mode:multiply">
<path d="M94.2439 67.5137L118.743 87.5135L50.7443 113.513L51.2443 111.513L43.7443 113.513L39.7443 97.0134L14.7436 99.0134L18.7433 93.5134L94.2439 67.5137Z" fill="#5C6017"/>
</g>
<ellipse rx="6.83945" ry="6.83945" transform="matrix(0.598509 0.801116 -0.598509 0.801116 11.4844 90.1322)" fill="#78B0FF"/>
<path d="M14.8437 83.2677L14.8437 98.6654L10.7706 97.7534L10.7706 82.2559L14.8437 83.2677Z" fill="#78B0FF"/>
<ellipse rx="6.83945" ry="6.83945" transform="matrix(0.598509 0.801116 -0.598509 0.801116 15.8477 91.0756)" fill="#10416D"/>
<ellipse rx="6.83945" ry="6.83945" transform="matrix(0.598509 0.801116 -0.598509 0.801116 38.3477 104.74)" fill="#78B0FF"/>
<path d="M41.707 97.8751L41.707 113.273L37.6339 112.361L37.6339 96.8633L41.707 97.8751Z" fill="#78B0FF"/>
<ellipse rx="6.83945" ry="6.83945" transform="matrix(0.598509 0.801116 -0.598509 0.801116 42.7109 105.682)" fill="#10416D"/>
<path d="M103.155 20.7354L108.171 23.6308L95.5077 30.9411L90.4922 28.0456L103.155 20.7354Z" fill="#10416D"/>
<path d="M108.015 29.2387L108.015 23.4474L95.3529 30.7587L95.3527 36.5499L108.015 29.2387Z" fill="#001636"/>
<path d="M68.7488 0.831055L73.7643 3.72649L61.1014 11.0368L56.0859 8.14135L68.7488 0.831055Z" fill="#10416D"/>
<path d="M73.6127 9.44668L73.6129 3.65544L60.9506 10.9667L60.9503 16.7579L73.6127 9.44668Z" fill="#001636"/>
<path d="M0.472656 35.2256L50.898 64.3286V113.576L0.472656 84.4725V35.2256Z" fill="#3686FF"/>
<path d="M101.793 35.1934L50.8964 64.328V113.575L101.793 84.4397V35.1934Z" fill="#10416D"/>
<rect width="59.0411" height="59.0411" transform="matrix(0.866044 -0.499967 0.866044 0.499967 0 34.9004)" fill="#91C1FF"/>
<rect width="50.4803" height="50.4803" transform="matrix(0.866044 -0.499967 0.866044 0.499967 7.06641 34.6641)" fill="#10416D"/>
</svg>
