<svg width="126" height="113" viewBox="0 0 126 113" fill="none" xmlns="http://www.w3.org/2000/svg">
<g style="mix-blend-mode:multiply">
<path d="M100.244 62.1319L124.743 82.1317L56.7443 108.132L57.2443 106.132L49.7443 108.132L45.7443 91.6316L20.7436 93.6315L24.7433 88.1315L100.244 62.1319Z" fill="#5C6017"/>
</g>
<ellipse rx="6.83945" ry="6.83945" transform="matrix(0.598509 0.801116 -0.598509 0.801116 17.4844 84.7504)" fill="#78B0FF"/>
<path d="M20.8437 77.8859L20.8437 93.2835L16.7706 92.3715L16.7706 76.874L20.8437 77.8859Z" fill="#78B0FF"/>
<ellipse rx="6.83945" ry="6.83945" transform="matrix(0.598509 0.801116 -0.598509 0.801116 21.8477 85.6937)" fill="#10416D"/>
<ellipse rx="6.83945" ry="6.83945" transform="matrix(0.598509 0.801116 -0.598509 0.801116 44.3477 99.3578)" fill="#78B0FF"/>
<path d="M47.707 92.4933L47.707 107.891L43.6339 106.979L43.6339 91.4814L47.707 92.4933Z" fill="#78B0FF"/>
<ellipse rx="6.83945" ry="6.83945" transform="matrix(0.598509 0.801116 -0.598509 0.801116 48.7109 100.3)" fill="#10416D"/>
<path d="M6.47266 29.8438L56.898 58.9467V108.194L6.47266 79.0907V29.8438Z" fill="#3686FF"/>
<path d="M107.793 29.8115L56.8964 58.9462V108.193L107.793 79.0578V29.8115Z" fill="#10416D"/>
<rect width="59.0411" height="59.0411" transform="matrix(0.866044 -0.499967 0.866044 0.499967 6 29.5186)" fill="#91C1FF"/>
<rect width="50.4803" height="50.4803" transform="matrix(0.866044 -0.499967 0.866044 0.499967 13.0664 29.2822)" fill="#10416D"/>
<path d="M12.5604 33.4434L17.5353 36.3154L4.97488 43.5665L0 40.6945L12.5604 33.4434Z" fill="#10416D"/>
<path d="M17.3818 41.9886L17.382 36.2442L4.82211 43.4963L4.8219 49.2406L17.3818 41.9886Z" fill="#001636"/>
<path d="M0.123181 40.6611L4.99198 43.4724L4.99219 49.0945L0.123393 46.2833L0.123181 40.6611Z" fill="#10416D"/>
<path d="M46.5604 53.4434L51.5353 56.3154L38.9749 63.5665L34 60.6945L46.5604 53.4434Z" fill="#10416D"/>
<path d="M51.3818 61.9886L51.382 56.2442L38.8221 63.4963L38.8219 69.2406L51.3818 61.9886Z" fill="#001636"/>
<path d="M33.9982 60.6182L38.867 63.4294L38.8672 69.0515L33.9984 66.2403L33.9982 60.6182Z" fill="#10416D"/>
</svg>
