<svg width="124" height="118" viewBox="0 0 124 118" fill="none" xmlns="http://www.w3.org/2000/svg">
<g style="mix-blend-mode:multiply">
<path d="M101.502 69.5002L122.5 86.9998L86.0102 105.051L74.0101 112.05L74.0101 108.55L59.4985 113.5L44.7172 66.4166L101.502 69.5002Z" fill="#5C6017"/>
</g>
<ellipse rx="6.83155" ry="6.83155" transform="matrix(-0.598509 0.801116 0.598509 0.801116 98.9141 90.0268)" fill="#784B00"/>
<path d="M95.5625 83.1699L95.5625 98.5497L99.631 97.6388L99.631 82.1592L95.5625 83.1699Z" fill="#784B00"/>
<ellipse rx="6.83155" ry="6.83155" transform="matrix(-0.598509 0.801116 0.598509 0.801116 94.5586 90.9682)" fill="#BC8A14"/>
<ellipse rx="6.83155" ry="6.83155" transform="matrix(-0.598509 0.801116 0.598509 0.801116 72.082 104.62)" fill="#784B00"/>
<path d="M68.7305 97.7636L68.7305 113.143L72.7989 112.233L72.7989 96.7529L68.7305 97.7636Z" fill="#784B00"/>
<ellipse rx="6.83155" ry="6.83155" transform="matrix(-0.598509 0.801116 0.598509 0.801116 67.7266 105.561)" fill="#F6B825"/>
<path d="M7.36343 20.7119L2.35376 23.604L15.002 30.9059L20.0117 28.0138L7.36343 20.7119Z" fill="#784B00"/>
<path d="M2.50398 29.2064L2.50376 23.4219L15.1515 30.7247L15.1517 36.5092L2.50398 29.2064Z" fill="#784B00"/>
<path d="M41.7267 0.830078L36.717 3.72216L49.3653 11.024L54.375 8.13193L41.7267 0.830078Z" fill="#784B00"/>
<path d="M36.8712 9.43591L36.871 3.65136L49.5187 10.9542L49.5189 16.7387L36.8712 9.43591Z" fill="#784B00"/>
<path d="M109.918 35.1846L59.5509 64.254V113.444L109.918 84.3746V35.1846Z" fill="#784B00"/>
<path d="M8.71484 35.1523L59.5526 64.2533V113.444L8.71484 84.3418V35.1523Z" fill="#F6B825"/>
<rect width="58.9729" height="58.9729" transform="matrix(-0.866044 -0.499967 -0.866044 0.499967 110.391 34.8604)" fill="#FADB83"/>
<rect width="50.422" height="50.422" transform="matrix(-0.866044 -0.499967 -0.866044 0.499967 103.328 34.623)" fill="#784B00"/>
</svg>
