<svg width="120" height="118" viewBox="0 0 120 118" fill="none" xmlns="http://www.w3.org/2000/svg">
<g style="mix-blend-mode:multiply">
<path d="M94.2439 67.5137L118.743 87.5135L50.7443 113.513L51.2443 111.513L43.7443 113.513L39.7443 97.0134L14.7436 99.0134L18.7433 93.5134L94.2439 67.5137Z" fill="#A8B60A"/>
</g>
<ellipse rx="6.83945" ry="6.83945" transform="matrix(0.598509 0.801116 -0.598509 0.801116 11.4854 90.1317)" fill="#78B0FF"/>
<path d="M14.8462 83.2674L14.8462 98.665L10.773 97.753L10.773 82.2555L14.8462 83.2674Z" fill="#78B0FF"/>
<ellipse rx="6.83945" ry="6.83945" transform="matrix(0.598509 0.801116 -0.598509 0.801116 15.8502 91.075)" fill="#10416D"/>
<ellipse rx="6.83945" ry="6.83945" transform="matrix(0.598509 0.801116 -0.598509 0.801116 38.3477 104.74)" fill="#78B0FF"/>
<path d="M41.7085 97.8753L41.7085 113.273L37.6353 112.361L37.6353 96.8634L41.7085 97.8753Z" fill="#78B0FF"/>
<ellipse rx="6.83945" ry="6.83945" transform="matrix(0.598509 0.801116 -0.598509 0.801116 42.7112 105.682)" fill="#10416D"/>
<path d="M103.152 20.7355L108.168 23.631L95.5046 30.9413L90.4891 28.0458L103.152 20.7355Z" fill="#10416D"/>
<path d="M108.015 29.2387L108.015 23.4474L95.3527 30.7587L95.3524 36.5499L108.015 29.2387Z" fill="#001636"/>
<path d="M68.7476 0.830994L73.7631 3.72642L61.1002 11.0367L56.0847 8.14129L68.7476 0.830994Z" fill="#10416D"/>
<path d="M73.6104 9.44638L73.6106 3.65514L60.9482 10.9664L60.948 16.7576L73.6104 9.44638Z" fill="#001636"/>
<path d="M0.473145 35.2254L50.8985 64.3284V113.575L0.473145 84.4723V35.2254Z" fill="#3686FF"/>
<path d="M101.794 35.1934L50.8974 64.328V113.575L101.794 84.4397V35.1934Z" fill="#10416D"/>
<rect width="59.0411" height="59.0411" transform="matrix(0.866044 -0.499967 0.866044 0.499967 0 34.9003)" fill="#91C1FF"/>
<rect width="50.4803" height="50.4803" transform="matrix(0.866044 -0.499967 0.866044 0.499967 7.06738 34.6644)" fill="#10416D"/>
</svg>
