<svg width="121" height="112" viewBox="0 0 121 112" fill="none" xmlns="http://www.w3.org/2000/svg">
<g style="mix-blend-mode:multiply">
<path d="M94.5586 60.0781L119.559 81.2119L77.0586 98.7119L65.0584 105.712L65.0585 102.212L51.1585 107.56L35.7656 60.078L94.5586 60.0781Z" fill="#5C6017"/>
</g>
<ellipse rx="6.7841" ry="6.7841" transform="matrix(-0.598509 0.801116 0.598509 0.801116 90.0508 84.0621)" fill="#10416D"/>
<path d="M86.7188 77.2527L86.7188 92.5257L90.7589 91.6211L90.7589 76.249L86.7188 77.2527Z" fill="#10416D"/>
<ellipse rx="6.7841" ry="6.7841" transform="matrix(-0.598509 0.801116 0.598509 0.801116 85.7344 85.4654)" fill="#1952A9"/>
<ellipse rx="6.7841" ry="6.7841" transform="matrix(-0.598509 0.801116 0.598509 0.801116 63.4102 98.5533)" fill="#10416D"/>
<path d="M60.0742 91.7439L60.0742 107.017L64.1144 106.112L64.1144 90.7402L60.0742 91.7439Z" fill="#10416D"/>
<ellipse rx="6.7841" ry="6.7841" transform="matrix(-0.598509 0.801116 0.598509 0.801116 59.0859 99.4888)" fill="#3686FF"/>
<path d="M100.973 29.6016L50.9554 58.469V107.318L100.973 78.4499V29.6016Z" fill="#10416D"/>
<path d="M0.46875 29.5703L50.9534 58.4692V107.318L0.46875 78.4181V29.5703Z" fill="#3686FF"/>
<rect width="58.5633" height="58.5633" transform="matrix(-0.866044 -0.499967 -0.866044 0.499967 101.438 29.2793)" fill="#91C1FF"/>
<rect width="50.0718" height="50.0718" transform="matrix(-0.866044 -0.499967 -0.866044 0.499967 94.4258 29.0459)" fill="#10416D"/>
<path d="M61.1271 53.2402L56.1522 56.1122L68.7126 63.3634L73.6875 60.4914L61.1271 53.2402Z" fill="#10416D"/>
<path d="M56.3057 61.6751L56.3055 55.9307L68.8654 63.1828L68.8656 68.9272L56.3057 61.6751Z" fill="#001636"/>
<path d="M95.2521 33.4971L90.2772 36.3691L102.838 43.6202L107.812 40.7482L95.2521 33.4971Z" fill="#10416D"/>
<path d="M90.4307 42.0423L90.4305 36.2979L102.99 43.55L102.991 49.2944L90.4307 42.0423Z" fill="#001636"/>
<path d="M107.689 40.7148L102.821 43.5261L102.82 49.1482L107.689 46.337L107.689 40.7148Z" fill="#001636"/>
<path d="M73.6854 59.6699L68.8166 62.4812L68.8164 68.1033L73.6852 65.292L73.6854 59.6699Z" fill="#001636"/>
<path d="M41.6085 3.07617H50.2564L66.6171 12.6589L73.6289 19.9044L70.8242 35.3303L50.9576 54.262L11.2242 31.1232L12.6266 23.1765L15.665 14.5287L22.2093 11.724L34.8305 7.0495L41.6085 3.07617Z" fill="#ABB1AC"/>
<path d="M50.9568 54.4951L88.8203 32.2912L86.2493 23.8771L79.705 18.2677V10.321L68.9537 6.81514L63.1105 0.738281L52.3592 1.43946L46.0486 6.81514L47.2172 14.2943L54.9301 14.9955L60.7733 10.321L61.7082 14.2943L69.6548 21.5398L68.2525 26.4481V35.5634L63.1105 33.4598L56.3325 32.5249L49.3207 41.1728L50.9568 54.4951Z" fill="#313C33"/>
<path d="M55.1627 18.9691L63.1094 22.0076L55.1627 29.7205L47.4498 31.3566L42.3078 36.2648L35.0623 37.6672L32.2576 32.9927L38.3345 26.2146L30.3878 20.3715L25.7133 25.2797L25.0121 35.5636L17.5329 33.9276L16.1306 24.5786L19.6365 15.697L25.7133 6.11426L35.0623 6.81543V13.126L38.3345 18.9691H47.4498L42.3078 23.6437V26.2146H48.6184L50.2545 21.3064L55.1627 18.9691Z" fill="#313C33"/>
</svg>
