<svg width="129" height="117" viewBox="0 0 129 117" fill="none" xmlns="http://www.w3.org/2000/svg">
<g style="mix-blend-mode:multiply">
<path d="M102.742 65.417L127.742 86.5508L85.2422 104.051L73.242 111.05L73.242 107.55L59.3421 112.899L43.9492 65.4169L102.742 65.417Z" fill="#5C6017"/>
</g>
<ellipse rx="6.7841" ry="6.7841" transform="matrix(-0.598509 0.801116 0.598509 0.801116 98.2344 89.401)" fill="#10416D"/>
<path d="M94.9023 82.5916L94.9023 97.8646L98.9425 96.96L98.9425 81.5879L94.9023 82.5916Z" fill="#10416D"/>
<ellipse rx="6.7841" ry="6.7841" transform="matrix(-0.598509 0.801116 0.598509 0.801116 93.918 90.8043)" fill="#1952A9"/>
<ellipse rx="6.7841" ry="6.7841" transform="matrix(-0.598509 0.801116 0.598509 0.801116 71.5938 103.892)" fill="#10416D"/>
<path d="M68.2578 97.0828L68.2578 112.356L72.298 111.451L72.298 96.0791L68.2578 97.0828Z" fill="#10416D"/>
<ellipse rx="6.7841" ry="6.7841" transform="matrix(-0.598509 0.801116 0.598509 0.801116 67.2695 104.828)" fill="#3686FF"/>
<path d="M7.31067 20.5684L2.33579 23.4404L14.8962 30.6915L19.8711 27.8195L7.31067 20.5684Z" fill="#10416D"/>
<path d="M2.48932 29.0032L2.4891 23.2588L15.049 30.5109L15.0492 36.2553L2.48932 29.0032Z" fill="#10416D"/>
<path d="M41.4357 0.825195L36.4608 3.69719L49.0212 10.9483L53.9961 8.07633L41.4357 0.825195Z" fill="#10416D"/>
<path d="M36.6143 9.3704L36.6141 3.62603L49.174 10.8781L49.1742 16.6225L36.6143 9.3704Z" fill="#10416D"/>
<path d="M109.156 34.9404L59.139 63.8079V112.656L109.156 83.7888V34.9404Z" fill="#10416D"/>
<path d="M8.65234 34.9092L59.137 63.808V112.657L8.65234 83.757V34.9092Z" fill="#3686FF"/>
<rect width="58.5633" height="58.5633" transform="matrix(-0.866044 -0.499967 -0.866044 0.499967 109.621 34.6182)" fill="#91C1FF"/>
<rect width="50.0718" height="50.0718" transform="matrix(-0.866044 -0.499967 -0.866044 0.499967 102.609 34.3848)" fill="#10416D"/>
<path d="M49.7921 8.41504H58.44L74.8007 17.9978L81.8125 25.2433L79.0078 40.6691L59.1411 59.6009L19.4078 36.4621L20.8102 28.5154L23.8486 19.8676L30.3929 17.0629L43.0141 12.3884L49.7921 8.41504Z" fill="#ABB1AC"/>
<path d="M59.1404 59.834L97.0039 37.6301L94.4329 29.216L87.8886 23.6065V15.6599L77.1373 12.154L71.2941 6.07715L60.5428 6.77832L54.2322 12.154L55.4008 19.6332L63.1137 20.3344L68.9569 15.6599L69.8918 19.6332L77.8384 26.8787L76.4361 31.7869V40.9022L71.2941 38.7987L64.5161 37.8638L57.5043 46.5116L59.1404 59.834Z" fill="#313C33"/>
<path d="M63.3463 24.308L71.293 27.3464L63.3463 35.0594L55.6334 36.6955L50.4914 41.6037L43.2459 43.006L40.4412 38.3315L46.5181 31.5535L38.5714 25.7104L33.8969 30.6186L33.1957 40.9025L25.7165 39.2664L24.3142 29.9174L27.8201 21.0359L33.8969 11.4531L43.2459 12.1543V18.4649L46.5181 24.308H55.6334L50.4914 28.9825V31.5535H56.802L58.4381 26.6453L63.3463 24.308Z" fill="#313C33"/>
</svg>
