<svg width="120" height="117" viewBox="0 0 120 117" fill="none" xmlns="http://www.w3.org/2000/svg">
<g style="mix-blend-mode:multiply">
<path d="M94.2439 66.5001L118.743 86.4999L50.7443 112.5L51.2443 110.5L43.7443 112.5L39.7443 95.9997L14.7436 97.9997L18.7433 92.4997L94.2439 66.5001Z" fill="#5C6017"/>
</g>
<ellipse rx="6.7841" ry="6.7841" transform="matrix(0.598509 0.801116 -0.598509 0.801116 11.3867 89.4019)" fill="#F9D167"/>
<path d="M14.7187 82.5925L14.7187 97.8656L10.6786 96.9609L10.6786 81.5889L14.7187 82.5925Z" fill="#F9D167"/>
<ellipse rx="6.7841" ry="6.7841" transform="matrix(0.598509 0.801116 -0.598509 0.801116 15.7031 90.3365)" fill="#784B00"/>
<ellipse rx="6.7841" ry="6.7841" transform="matrix(0.598509 0.801116 -0.598509 0.801116 38.0273 103.892)" fill="#F9D167"/>
<path d="M41.3633 97.0828L41.3633 112.356L37.3231 111.451L37.3231 96.0791L41.3633 97.0828Z" fill="#F9D167"/>
<ellipse rx="6.7841" ry="6.7841" transform="matrix(0.598509 0.801116 -0.598509 0.801116 42.3555 104.829)" fill="#784B00"/>
<path d="M102.31 20.5684L107.285 23.4404L94.7249 30.6915L89.75 27.8195L102.31 20.5684Z" fill="#784B00"/>
<path d="M107.132 29.0032L107.132 23.2588L94.5721 30.5109L94.5719 36.2553L107.132 29.0032Z" fill="#463A00"/>
<path d="M68.1854 0.825195L73.1603 3.69719L60.5999 10.9483L55.625 8.07633L68.1854 0.825195Z" fill="#784B00"/>
<path d="M73.0107 9.3704L73.0109 3.62603L60.451 10.8781L60.4508 16.6225L73.0107 9.3704Z" fill="#463A00"/>
<path d="M0.464844 34.9404L50.4821 63.8079V112.656L0.464844 83.7888V34.9404Z" fill="#F6B825"/>
<path d="M100.965 34.9092L50.4802 63.808V112.657L100.965 83.757V34.9092Z" fill="#784B00"/>
<rect width="58.5633" height="58.5633" transform="matrix(0.866044 -0.499967 0.866044 0.499967 0 34.6172)" fill="#FADB83"/>
<rect width="50.0718" height="50.0718" transform="matrix(0.866044 -0.499967 0.866044 0.499967 7.01172 34.3828)" fill="#784B00"/>
<path d="M59.6024 7.94629H50.9546L34.5938 17.529L27.582 24.7745L30.3867 40.2004L50.2534 59.1321L90.2204 35.5259L88.5843 28.0467L85.5459 19.3988L79.0016 16.5941L66.3804 11.9196L59.6024 7.94629Z" fill="#323D34"/>
<path d="M50.2496 59.3652L12.1523 37.395L14.957 28.7472L21.5014 23.1378V15.1911L32.2527 11.6853L38.0959 5.6084L48.8472 6.30957L55.1578 11.6853L53.9892 19.1645L46.2762 19.8656L40.4331 15.1911L39.4982 19.1645L31.5515 26.41L32.9539 31.3182V40.4335L38.0959 38.3299L44.8739 37.395L51.8857 46.0429L50.2496 59.3652Z" fill="#ABB1AC"/>
<path d="M46.0443 23.8393L38.0977 26.8777L46.0443 34.5906L53.7573 36.2267L58.8992 41.1349L66.1447 42.5373L68.9494 37.8628L62.8725 31.0848L70.8192 25.2416L75.4937 30.1498L76.1949 40.4338L83.6741 38.7977L85.0764 29.4487L81.5706 20.5671L75.4937 10.9844L66.1447 11.6856V17.9961L62.8725 23.8393H53.7573L58.8992 28.5138V31.0848H52.5886L50.9525 26.1765L46.0443 23.8393Z" fill="#ABB1AC"/>
</svg>
