<svg width="127" height="112" viewBox="0 0 127 112" fill="none" xmlns="http://www.w3.org/2000/svg">
<g style="mix-blend-mode:multiply">
<path d="M101.244 61.1622L125.743 81.162L57.7443 107.162L58.2443 105.162L50.7443 107.162L46.7443 90.6619L21.7436 92.6618L25.7433 87.1618L101.244 61.1622Z" fill="#5C6017"/>
</g>
<ellipse rx="6.7841" ry="6.7841" transform="matrix(0.598509 0.801116 -0.598509 0.801116 18.3867 84.064)" fill="#78B0FF"/>
<path d="M21.7187 77.2547L21.7187 92.5277L17.6786 91.6231L17.6786 76.251L21.7187 77.2547Z" fill="#78B0FF"/>
<ellipse rx="6.7841" ry="6.7841" transform="matrix(0.598509 0.801116 -0.598509 0.801116 22.7031 84.9986)" fill="#10416D"/>
<ellipse rx="6.7841" ry="6.7841" transform="matrix(0.598509 0.801116 -0.598509 0.801116 45.0273 98.5543)" fill="#78B0FF"/>
<path d="M48.3633 91.7449L48.3633 107.018L44.3231 106.113L44.3231 90.7412L48.3633 91.7449Z" fill="#78B0FF"/>
<ellipse rx="6.7841" ry="6.7841" transform="matrix(0.598509 0.801116 -0.598509 0.801116 49.3555 99.4908)" fill="#10416D"/>
<path d="M7.46484 29.6025L57.4821 58.47V107.319L7.46484 78.4509V29.6025Z" fill="#3686FF"/>
<path d="M107.965 29.5713L57.4802 58.4701V107.319L107.965 78.4191V29.5713Z" fill="#10416D"/>
<rect width="58.5633" height="58.5633" transform="matrix(0.866044 -0.499967 0.866044 0.499967 7 29.2793)" fill="#91C1FF"/>
<rect width="50.0718" height="50.0718" transform="matrix(0.866044 -0.499967 0.866044 0.499967 14.0117 29.0449)" fill="#10416D"/>
<path d="M66.6024 2.6084H57.9546L41.5938 12.1911L34.582 19.4366L37.3867 34.8625L57.2534 53.7942L97.2204 30.188L95.5843 22.7088L92.5459 14.0609L86.0016 11.2562L73.3804 6.58173L66.6024 2.6084Z" fill="#323D34"/>
<path d="M57.2496 54.0273L19.1523 32.0571L21.957 23.4093L28.5014 17.7999V9.85325L39.2527 6.34737L45.0959 0.270508L55.8472 0.971684L62.1578 6.34737L60.9892 13.8266L53.2762 14.5278L47.4331 9.85325L46.4982 13.8266L38.5515 21.0721L39.9539 25.9803V35.0956L45.0959 32.9921L51.8739 32.0571L58.8857 40.705L57.2496 54.0273Z" fill="#ABB1AC"/>
<path d="M53.0443 18.5014L45.0977 21.5398L53.0443 29.2527L60.7573 30.8888L65.8992 35.797L73.1447 37.1994L75.9494 32.5249L69.8725 25.7469L77.8192 19.9037L82.4937 24.812L83.1949 35.0959L90.6741 33.4598L92.0764 24.1108L88.5706 15.2292L82.4937 5.64648L73.1447 6.34766V12.6582L69.8725 18.5014H60.7573L65.8992 23.1759V25.7469H59.5886L57.9525 20.8386L53.0443 18.5014Z" fill="#ABB1AC"/>
<path d="M12.5604 32.4873L17.5353 35.3593L4.97488 42.6104L0 39.7384L12.5604 32.4873Z" fill="#10416D"/>
<path d="M17.3818 41.0325L17.382 35.2881L4.82211 42.5402L4.8219 48.2846L17.3818 41.0325Z" fill="#001636"/>
<path d="M0.123181 39.7051L4.99198 42.5163L4.99219 48.1384L0.123393 45.3272L0.123181 39.7051Z" fill="#10416D"/>
<path d="M46.5604 52.4873L51.5353 55.3593L38.9749 62.6104L34 59.7384L46.5604 52.4873Z" fill="#10416D"/>
<path d="M51.3818 61.0325L51.382 55.2881L38.8221 62.5402L38.8219 68.2846L51.3818 61.0325Z" fill="#001636"/>
<path d="M33.9982 59.6621L38.867 62.4734L38.8672 68.0955L33.9984 65.2842L33.9982 59.6621Z" fill="#10416D"/>
</svg>
