<svg width="120" height="118" viewBox="0 0 120 118" fill="none" xmlns="http://www.w3.org/2000/svg">
<g style="mix-blend-mode:multiply">
<path d="M94.24 67.5137L118.739 87.5135L50.7404 113.513L51.2404 111.513L43.7404 113.513L39.7404 97.0134L14.7397 99.0134L18.7394 93.5134L94.24 67.5137Z" fill="#5C6017"/>
</g>
<ellipse rx="6.83714" ry="6.83715" transform="matrix(0.598509 0.801116 -0.598509 0.801116 11.4766 90.1012)" fill="#78B0FF"/>
<path d="M14.8398 83.2371L14.8398 98.6296L10.7681 97.7179L10.7681 82.2256L14.8398 83.2371Z" fill="#78B0FF"/>
<ellipse rx="6.83714" ry="6.83715" transform="matrix(0.598509 0.801116 -0.598509 0.801116 15.8281 91.0436)" fill="#10416D"/>
<ellipse rx="6.83714" ry="6.83715" transform="matrix(0.598509 0.801116 -0.598509 0.801116 38.3281 104.703)" fill="#78B0FF"/>
<path d="M41.6953 97.8416L41.6953 113.234L37.6235 112.322L37.6235 96.8301L41.6953 97.8416Z" fill="#78B0FF"/>
<ellipse rx="6.83714" ry="6.83715" transform="matrix(0.598509 0.801116 -0.598509 0.801116 42.6875 105.646)" fill="#10416D"/>
<path d="M103.1 20.7295L108.114 23.6239L95.4552 30.9318L90.4414 28.0373L103.1 20.7295Z" fill="#10416D"/>
<path d="M107.966 29.2297L107.966 23.4404L95.3082 30.7492L95.308 36.5385L107.966 29.2297Z" fill="#001636"/>
<path d="M68.7094 0.832031L73.7232 3.72648L61.0646 11.0343L56.0508 8.13986L68.7094 0.832031Z" fill="#10416D"/>
<path d="M73.5754 9.44355L73.5756 3.65426L60.9175 10.963L60.9173 16.7523L73.5754 9.44355Z" fill="#001636"/>
<path d="M0.46875 35.2119L50.877 64.3051V113.536L0.46875 84.4422V35.2119Z" fill="#3686FF"/>
<path d="M101.758 35.1807L50.8784 64.3055V113.536L101.758 84.4104V35.1807Z" fill="#10416D"/>
<rect width="59.0212" height="59.0212" transform="matrix(0.866044 -0.499967 0.866044 0.499967 0 34.8887)" fill="#91C1FF"/>
<rect width="50.4633" height="50.4633" transform="matrix(0.866044 -0.499967 0.866044 0.499967 7.05859 34.6523)" fill="#10416D"/>
<path d="M72.6247 21.3178L71.1836 34.7682L75.0265 38.8513L75.3693 45.836L86.7956 39.2405V29.2439L81.9919 14.1123L72.6247 21.3178Z" fill="#08C8C7"/>
<path d="M5.17578 24.1672L12.3396 37.8928L20.2657 42.6965L17.189 23.6961L12.7135 14.7451L5.17578 24.1672Z" fill="#08C8C7"/>
<path d="M27.3191 19.2206L12.7148 14.7451L17.6615 27.2294L20.2674 42.6965L22.9094 43.8974V31.648L28.1934 28.5256L27.3191 19.2206Z" fill="#0092BD"/>
<path d="M61.5791 22.2808L32.5168 25.163L36.3597 37.4124L57.9763 38.8536L67.3435 31.8882L68.3042 29.4864L61.5791 22.2808Z" fill="#0092BD"/>
<path d="M25.3086 10.9915L31.7936 2.8252L41.6411 12.9129L45.0037 30.6866L42.6019 33.3286L32.5141 25.4025L31.073 26.3633L25.3086 10.9915Z" fill="#08C8C7"/>
<path d="M41.6405 12.9129L31.793 2.8252L44.5227 5.46722L50.047 31.8875L46.204 29.4857L45.0031 30.6866L41.6405 12.9129Z" fill="#0092BD"/>
<path d="M32.5136 25.4023L22.9062 31.6471V43.8965L36.5968 51.8226L36.1164 38.6125L38.2781 36.4508L32.5136 25.4023Z" fill="#08C8C7"/>
<path d="M40.4405 54.2241L36.5036 51.7257L36.1172 38.372L36.5976 37.8916L40.4405 54.2241Z" fill="#0092BD"/>
<path d="M46.2089 29.4844L36.6016 37.8908L40.4445 54.2234L48.851 59.0271L50.0519 44.3758L46.2089 29.4844Z" fill="#08C8C7"/>
<path d="M58.453 36.9304L57.9727 55.8223L65.1782 51.7253V42.935L66.1389 30.9258L58.453 36.9304Z" fill="#08C8C7"/>
<path d="M61.5752 22.2821L54.6099 21.5615L50.7669 23.2428L47.6445 28.2867L50.5267 33.0904L58.4528 37.1735V32.3698L56.051 25.6447L61.5752 22.2821Z" fill="#08C8C7"/>
<path d="M58.4603 36.9301L46.2109 29.4844L50.0539 44.3758L48.853 59.0271L50.6432 59.9696L57.9453 55.9652L58.4603 36.9301Z" fill="#0092BD"/>
<path d="M48.8493 9.30849L47.168 18.1953L48.6091 24.9205H49.0894L55.5744 21.5579L57.2557 15.0729L58.6475 6.02734L48.8493 9.30849Z" fill="#08C8C7"/>
<path d="M66.3805 12.6711L58.6454 6.02734L57.2535 15.0729L55.332 21.7981L61.5768 22.2785L64.459 25.8812L66.3805 12.6711Z" fill="#0092BD"/>
<path d="M92.8044 25.1608L81.9961 14.1123L86.7998 29.2439V39.2405L90.6427 37.0881L92.8044 25.1608Z" fill="#0092BD"/>
<path d="M75.74 38.1313L66.1326 30.9258L65.1719 42.4546V51.7253L75.74 45.6009V38.1313Z" fill="#0092BD"/>
<path d="M67.3372 18.918L64.2148 21.56V25.1628L68.298 29.7263L66.8569 31.6477L70.2195 34.0496L70.6998 24.4422L67.3372 18.918Z" fill="#08C8C7"/>
<path d="M72.6239 22.0404L67.3398 18.918L70.7024 24.4422L69.7417 34.0496L71.1828 34.7701L72.6239 22.0404Z" fill="#0092BD"/>
<path d="M27.0465 10.6555L31.6052 4.41541L28.6763 10.413L27.0465 10.6555Z" fill="#F8EEE1"/>
<path d="M27.0098 12.1836L31.591 25.5369L28.6607 12.9954L27.0098 12.1836Z" fill="#F8EEE1"/>
<path d="M49.4533 9.67295L57.7981 6.7178L51.2804 10.3172L49.4533 9.67295Z" fill="#F8EEE1"/>
<path d="M64.4209 21.842L67.0671 19.6254L65.3724 21.8847L64.4209 21.842Z" fill="#F8EEE1"/>
<path d="M59.2193 37.3319L64.9435 32.6132L60.8868 37.3309L59.2193 37.3319Z" fill="#F8EEE1"/>
<path d="M7.05394 23.8422L12.6389 16.9737L8.94917 23.4407L7.05394 23.8422Z" fill="#F8EEE1"/>
<path d="M7.0669 25.1195L14.5979 38.6001L8.93967 25.5069L7.0669 25.1195Z" fill="#F8EEE1"/>
<path d="M73.9532 21.206L80.9895 15.8339L75.8898 21.2588L73.9532 21.206Z" fill="#F8EEE1"/>
<path d="M73.9532 21.206L80.9895 15.8339L75.8898 21.2588L73.9532 21.206Z" fill="#F8EEE1"/>
<path d="M73.5843 22.5221L72.5427 35.9439L74.7296 23.6859L73.5843 22.5221Z" fill="#F8EEE1"/>
<path d="M24.8255 31.7794L31.2916 27.5475L26.4361 32.1272L24.8255 31.7794Z" fill="#F8EEE1"/>
<path d="M50.3987 24.7825L56.1941 22.3521L51.4358 25.0828L50.3987 24.7825Z" fill="#F8EEE1"/>
<path d="M24.2568 33.1952L24.2566 44.1892L25.5412 34.347L24.2568 33.1952Z" fill="#F8EEE1"/>
<path d="M50.2807 25.1089L48.5969 29.0622L50.6319 25.8067L50.2807 25.1089Z" fill="#F8EEE1"/>
<path d="M37.4083 37.9249L43.161 32.7649L39.0529 38.0254L37.4083 37.9249Z" fill="#F8EEE1"/>
<path d="M37.4484 37.8298L40.2032 50.7757L38.9439 37.9581L37.4484 37.8298Z" fill="#F8EEE1"/>
</svg>
