<svg width="130" height="117" viewBox="0 0 130 117" fill="none" xmlns="http://www.w3.org/2000/svg">
<g style="mix-blend-mode:multiply">
<path d="M103.742 65.4307L128.742 86.5645L86.2422 104.064L74.242 111.064L74.242 107.564L60.3421 112.912L44.9492 65.4305L103.742 65.4307Z" fill="#5C6017"/>
</g>
<ellipse rx="6.82446" ry="6.82446" transform="matrix(-0.598509 0.801116 0.598509 0.801116 98.8125 89.9344)" fill="#10416D"/>
<path d="M95.4688 83.0848L95.4688 98.4487L99.533 97.5387L99.533 82.0752L95.4688 83.0848Z" fill="#10416D"/>
<ellipse rx="6.82446" ry="6.82446" transform="matrix(-0.598509 0.801116 0.598509 0.801116 94.4609 90.8738)" fill="#1952A9"/>
<ellipse rx="6.82446" ry="6.82446" transform="matrix(-0.598509 0.801116 0.598509 0.801116 72.0156 104.511)" fill="#10416D"/>
<path d="M68.668 97.661L68.668 113.025L72.7322 112.115L72.7322 96.6514L68.668 97.661Z" fill="#10416D"/>
<ellipse rx="6.82446" ry="6.82446" transform="matrix(-0.598509 0.801116 0.598509 0.801116 67.668 105.449)" fill="#3686FF"/>
<path d="M7.35704 20.6904L2.35256 23.5795L14.9877 30.8738L19.9922 27.9847L7.35704 20.6904Z" fill="#10416D"/>
<path d="M2.50274 29.1748L2.50252 23.3963L15.1371 30.6915L15.1373 36.4701L2.50274 29.1748Z" fill="#10416D"/>
<path d="M41.6852 0.830078L36.6807 3.71916L49.3158 11.0134L54.3203 8.12435L41.6852 0.830078Z" fill="#10416D"/>
<path d="M36.8309 9.4258L36.8306 3.64726L49.4652 10.9425L49.4655 16.721L36.8309 9.4258Z" fill="#10416D"/>
<path d="M109.809 35.1455L59.4938 64.1847V113.324L109.809 84.2845V35.1455Z" fill="#10416D"/>
<path d="M8.70703 35.1152L59.492 64.186V113.325L8.70703 84.2536V35.1152Z" fill="#3686FF"/>
<rect width="58.9117" height="58.9117" transform="matrix(-0.866044 -0.499967 -0.866044 0.499967 110.277 34.8252)" fill="#91C1FF"/>
<rect width="50.3696" height="50.3696" transform="matrix(-0.866044 -0.499967 -0.866044 0.499967 103.223 34.5869)" fill="#10416D"/>
<path d="M37.6426 21.367L39.0781 34.765L35.2501 38.8323L34.9087 45.7899L27.4121 41.0898L23.5268 29.2623L28.3118 14.1895L37.6426 21.367Z" fill="#0092BD"/>
<path d="M104.137 23.735L97.6909 37.8765L89.7956 42.6616L92.8604 23.735L96.0254 13.9072L104.137 23.735Z" fill="#0092BD"/>
<path d="M82.772 19.2769L96.0264 13.9072L96.4648 24.43L89.7963 42.6616L83.9691 45.6948L87.1646 31.656L81.901 28.5458L82.772 19.2769Z" fill="#08C8C7"/>
<path d="M48.6451 22.3252L77.5945 25.1962L76.7347 47.0101L73.4463 51.833L52.2339 38.8335L42.9031 31.8953L41.9461 29.5028L48.6451 22.3252Z" fill="#08C8C7"/>
<path d="M81.7734 10.8374L78.3092 2.94531L70.593 11.9335L65.1504 30.6984L67.5429 33.3302L77.5914 25.4349L79.0269 26.3919L81.7734 10.8374Z" fill="#0092BD"/>
<path d="M70.596 11.9335L78.3125 2.94531L65.6322 5.57707L60.1294 31.8947L63.9574 29.5022L65.1537 30.6984L70.596 11.9335Z" fill="#08C8C7"/>
<path d="M77.594 25.4355L87.1641 31.6561L84.4066 45.4757L73.5268 51.7532L76.5146 38.4606L76.7338 36.7068L77.594 25.4355Z" fill="#0092BD"/>
<path d="M69.7013 54.145L73.6229 51.6563L74.0078 38.3545L73.5293 37.876L69.7013 54.145Z" fill="#08C8C7"/>
<path d="M63.9534 29.501L73.5234 37.8748L69.6954 54.1438L61.3216 58.9289L64.8932 40.651L63.9534 29.501Z" fill="#0092BD"/>
<path d="M51.7598 36.9188L52.2383 55.7373L45.0607 51.6562V42.9001L44.1037 30.9375L51.7598 36.9188Z" fill="#0092BD"/>
<path d="M48.6469 22.3252L55.5852 21.6074L59.4132 23.2822L62.5234 28.3065L59.6524 33.0915L51.7571 37.1587V32.3737L54.1497 25.6747L48.6469 22.3252Z" fill="#0092BD"/>
<path d="M51.7532 36.9178L63.955 29.501L65.332 40.8702L61.3233 58.9289L59.54 59.8677L52.2662 55.8789L51.7532 36.9178Z" fill="#08C8C7"/>
<path d="M61.3291 9.40414L63.0039 18.2564L61.5684 24.9555H61.0899L54.6301 21.6059L52.9554 15.1462L51.569 6.13574L61.3291 9.40414Z" fill="#0092BD"/>
<path d="M43.8577 12.7537L51.5628 6.13574L52.9493 15.1462L54.8633 21.8452L48.6428 22.3237L45.7717 25.9125L43.8577 12.7537Z" fill="#08C8C7"/>
<path d="M17.5371 25.195L28.3034 14.1895L25.4304 25.195L28.7188 41.9667L19.6904 37.076L17.5371 25.195Z" fill="#08C8C7"/>
<path d="M34.5355 38.115L44.1055 30.9375L45.0625 42.4215V51.6562L34.5355 45.5556V38.115Z" fill="#08C8C7"/>
<path d="M42.9054 18.9756L46.0156 21.6073V25.1961L41.9484 29.7419L43.3839 31.6559L40.0343 34.0484L42.9054 24.4296V18.9756Z" fill="#0092BD"/>
<path d="M37.6388 22.0858L42.9023 18.9756V24.4296L40.5098 34.0484L39.0743 34.7662L37.6388 22.0858Z" fill="#08C8C7"/>
<path d="M45.1677 13.5213L46.492 23.6389L46.1215 13.6523L45.1677 13.5213Z" fill="#F8EEE1"/>
<path d="M66.951 5.90876L75.8685 4.19352L68.6688 6.81513L66.951 5.90876Z" fill="#F8EEE1"/>
<path d="M66.096 6.68261L63.1361 23.5527L66.9874 8.09849L66.096 6.68261Z" fill="#F8EEE1"/>
<path d="M45.6033 12.153L50.9519 7.35025L47.0027 12.0135L45.6033 12.153Z" fill="#F8EEE1"/>
<path d="M84.6956 19.4365L93.921 15.2958L86.8742 19.8617L84.6956 19.4365Z" fill="#F8EEE1"/>
<path d="M83.8006 20.483L83.0861 28.5946L85.1262 21.5144L83.8006 20.483Z" fill="#F8EEE1"/>
<path d="M69.1568 32.7248L75.1635 27.9105L70.787 32.9156L69.1568 32.7248Z" fill="#F8EEE1"/>
<path d="M43.9622 28.8078L48.7176 23.0192L45.4233 28.6212L43.9622 28.8078Z" fill="#F8EEE1"/>
<path d="M52.4228 37.4505L58.9939 33.4407L54.0154 37.8474L52.4228 37.4505Z" fill="#F8EEE1"/>
<path d="M52.4816 37.3629L52.8299 50.5426L53.9231 37.76L52.4816 37.3629Z" fill="#F8EEE1"/>
<path d="M37.7853 22.5906L41.6327 20.1297L38.4533 22.7635L37.7853 22.5906Z" fill="#F8EEE1"/>
<path d="M18.9139 24.4063L26.3056 16.471L20.5524 24.4087L18.9139 24.4063Z" fill="#F8EEE1"/>
<path d="M18.4954 25.5695L20.3734 36.5952L19.5858 25.5978L18.4954 25.5695Z" fill="#F8EEE1"/>
<path d="M35.7317 37.801L42.6614 32.3599L37.0465 38.0087L35.7317 37.801Z" fill="#F8EEE1"/>
<path d="M35.0871 38.952L35.0872 45.6949L36.2134 39.2623L35.0871 38.952Z" fill="#F8EEE1"/>
</svg>
