<svg width="126" height="115" viewBox="0 0 126 115" fill="none" xmlns="http://www.w3.org/2000/svg">
<g style="mix-blend-mode:multiply">
<path d="M100.244 64.6885L124.743 84.6883L56.7443 110.688L57.2443 108.688L49.7443 110.688L45.7443 94.1882L20.7436 96.1882L24.7433 90.6882L100.244 64.6885Z" fill="#5C6017"/>
</g>
<ellipse rx="6.83714" ry="6.83715" transform="matrix(0.598509 0.801116 -0.598509 0.801116 17.4766 87.276)" fill="#78B0FF"/>
<path d="M20.8398 80.4119L20.8398 95.8044L16.7681 94.8927L16.7681 79.4004L20.8398 80.4119Z" fill="#78B0FF"/>
<ellipse rx="6.83714" ry="6.83715" transform="matrix(0.598509 0.801116 -0.598509 0.801116 21.8281 88.2184)" fill="#10416D"/>
<ellipse rx="6.83714" ry="6.83715" transform="matrix(0.598509 0.801116 -0.598509 0.801116 44.3281 101.879)" fill="#78B0FF"/>
<path d="M47.6953 95.0174L47.6953 110.41L43.6235 109.498L43.6235 94.0059L47.6953 95.0174Z" fill="#78B0FF"/>
<ellipse rx="6.83714" ry="6.83715" transform="matrix(0.598509 0.801116 -0.598509 0.801116 48.6875 102.822)" fill="#10416D"/>
<path d="M6.46875 32.3877L56.877 61.4809V110.711L6.46875 81.618V32.3877Z" fill="#3686FF"/>
<path d="M107.758 32.3555L56.8784 61.4803V110.711L107.758 81.5852V32.3555Z" fill="#10416D"/>
<rect width="59.0212" height="59.0212" transform="matrix(0.866044 -0.499967 0.866044 0.499967 6 32.0645)" fill="#91C1FF"/>
<rect width="50.4633" height="50.4633" transform="matrix(0.866044 -0.499967 0.866044 0.499967 13.0586 31.8271)" fill="#10416D"/>
<path d="M78.6247 18.4926L77.1836 31.943L81.0265 36.0261L81.3693 43.0108L92.7956 36.4153V26.4187L87.9919 11.2871L78.6247 18.4926Z" fill="#08C8C7"/>
<path d="M11.1758 21.342L18.3396 35.0676L26.2657 39.8713L23.189 20.8709L18.7135 11.9199L11.1758 21.342Z" fill="#08C8C7"/>
<path d="M33.3191 16.3954L18.7148 11.9199L23.6615 24.4042L26.2674 39.8713L28.9094 41.0722V28.8228L34.1934 25.7004L33.3191 16.3954Z" fill="#0092BD"/>
<path d="M67.5791 19.4556L38.5168 22.3378L42.3597 34.5872L63.9763 36.0284L73.3435 29.063L74.3042 26.6612L67.5791 19.4556Z" fill="#0092BD"/>
<path d="M31.3086 8.16627L37.7936 0L47.6411 10.0877L51.0037 27.8614L48.6019 30.5034L38.5141 22.5773L37.073 23.5381L31.3086 8.16627Z" fill="#08C8C7"/>
<path d="M47.6405 10.0877L37.793 0L50.5227 2.64203L56.047 29.0623L52.204 26.6605L51.0031 27.8614L47.6405 10.0877Z" fill="#0092BD"/>
<path d="M38.5136 22.5771L28.9062 28.8219V41.0714L42.5968 48.9974L42.1164 35.7873L44.2781 33.6256L38.5136 22.5771Z" fill="#08C8C7"/>
<path d="M46.4405 51.399L42.5036 48.9005L42.1172 35.5468L42.5976 35.0664L46.4405 51.399Z" fill="#0092BD"/>
<path d="M52.2089 26.6592L42.6016 35.0656L46.4445 51.3982L54.851 56.2019L56.0519 41.5506L52.2089 26.6592Z" fill="#08C8C7"/>
<path d="M64.453 34.1052L63.9727 52.9971L71.1782 48.9001V40.1098L72.1389 28.1006L64.453 34.1052Z" fill="#08C8C7"/>
<path d="M67.5752 19.4569L60.6099 18.7363L56.7669 20.4176L53.6445 25.4615L56.5267 30.2652L64.4528 34.3483V29.5446L62.051 22.8195L67.5752 19.4569Z" fill="#08C8C7"/>
<path d="M64.4603 34.1049L52.2109 26.6592L56.0539 41.5506L54.853 56.2019L56.6432 57.1444L63.9453 53.14L64.4603 34.1049Z" fill="#0092BD"/>
<path d="M54.8493 6.4833L53.168 15.3701L54.6091 22.0953H55.0894L61.5744 18.7327L63.2557 12.2477L64.6475 3.20215L54.8493 6.4833Z" fill="#08C8C7"/>
<path d="M72.3805 9.84588L64.6454 3.20215L63.2535 12.2477L61.332 18.9729L67.5768 19.4533L70.459 23.056L72.3805 9.84588Z" fill="#0092BD"/>
<path d="M98.8044 22.3356L87.9961 11.2871L92.7998 26.4187V36.4153L96.6427 34.263L98.8044 22.3356Z" fill="#0092BD"/>
<path d="M81.74 35.3061L72.1326 28.1006L71.1719 39.6294V48.9001L81.74 42.7757V35.3061Z" fill="#0092BD"/>
<path d="M73.3372 16.0928L70.2148 18.7348V22.3376L74.298 26.9011L72.8569 28.8225L76.2195 31.2244L76.6998 21.617L73.3372 16.0928Z" fill="#08C8C7"/>
<path d="M78.6239 19.2152L73.3398 16.0928L76.7024 21.617L75.7417 31.2244L77.1828 31.9449L78.6239 19.2152Z" fill="#0092BD"/>
<path d="M33.0465 7.83026L37.6052 1.59021L34.6763 7.58781L33.0465 7.83026Z" fill="#F8EEE1"/>
<path d="M33.0098 9.35845L37.591 22.7117L34.6607 10.1702L33.0098 9.35845Z" fill="#F8EEE1"/>
<path d="M55.4533 6.84776L63.7981 3.89261L57.2804 7.49196L55.4533 6.84776Z" fill="#F8EEE1"/>
<path d="M70.4209 19.0168L73.0671 16.8002L71.3724 19.0595L70.4209 19.0168Z" fill="#F8EEE1"/>
<path d="M65.2193 34.5067L70.9435 29.788L66.8868 34.5057L65.2193 34.5067Z" fill="#F8EEE1"/>
<path d="M13.0539 21.0171L18.6389 14.1485L14.9492 20.6155L13.0539 21.0171Z" fill="#F8EEE1"/>
<path d="M13.0669 22.2943L20.5979 35.7749L14.9397 22.6817L13.0669 22.2943Z" fill="#F8EEE1"/>
<path d="M79.9532 18.3808L86.9895 13.0087L81.8898 18.4336L79.9532 18.3808Z" fill="#F8EEE1"/>
<path d="M79.9532 18.3808L86.9895 13.0087L81.8898 18.4336L79.9532 18.3808Z" fill="#F8EEE1"/>
<path d="M79.5843 19.6969L78.5427 33.1187L80.7296 20.8607L79.5843 19.6969Z" fill="#F8EEE1"/>
<path d="M30.8255 28.9542L37.2916 24.7223L32.4361 29.302L30.8255 28.9542Z" fill="#F8EEE1"/>
<path d="M56.3987 21.9573L62.1941 19.5269L57.4358 22.2576L56.3987 21.9573Z" fill="#F8EEE1"/>
<path d="M30.2568 30.37L30.2566 41.364L31.5412 31.5218L30.2568 30.37Z" fill="#F8EEE1"/>
<path d="M56.2807 22.2837L54.5969 26.237L56.6319 22.9815L56.2807 22.2837Z" fill="#F8EEE1"/>
<path d="M43.4083 35.0997L49.161 29.9397L45.0529 35.2002L43.4083 35.0997Z" fill="#F8EEE1"/>
<path d="M43.4484 35.0047L46.2032 47.9505L44.9439 35.1329L43.4484 35.0047Z" fill="#F8EEE1"/>
<path d="M12.5604 36L17.5353 38.872L4.97488 46.1231L0 43.2511L12.5604 36Z" fill="#10416D"/>
<path d="M17.3818 44.5452L17.382 38.8008L4.82211 46.0529L4.8219 51.7973L17.3818 44.5452Z" fill="#001636"/>
<path d="M0.123181 43.2178L4.99198 46.029L4.99219 51.6511L0.123393 48.8399L0.123181 43.2178Z" fill="#10416D"/>
<path d="M46.5604 56L51.5353 58.872L38.9749 66.1231L34 63.2511L46.5604 56Z" fill="#10416D"/>
<path d="M51.3818 64.5452L51.382 58.8008L38.8221 66.0529L38.8219 71.7973L51.3818 64.5452Z" fill="#001636"/>
<path d="M33.9982 63.1748L38.867 65.986L38.8672 71.6082L33.9984 68.7969L33.9982 63.1748Z" fill="#10416D"/>
</svg>
