<svg width="121" height="115" viewBox="0 0 121 115" fill="none" xmlns="http://www.w3.org/2000/svg">
<g style="mix-blend-mode:multiply">
<path d="M94.5078 63.4854L119.508 84.6191L77.0078 102.119L65.0077 109.119L65.0077 105.619L51.1077 110.967L35.7148 63.4852L94.5078 63.4854Z" fill="#5C6017"/>
</g>
<ellipse rx="6.82446" ry="6.82446" transform="matrix(-0.598509 0.801116 0.598509 0.801116 90.5742 86.9881)" fill="#784B00"/>
<path d="M87.2305 80.1386L87.2305 95.5024L91.2947 94.5924L91.2947 79.1289L87.2305 80.1386Z" fill="#784B00"/>
<ellipse rx="6.82446" ry="6.82446" transform="matrix(-0.598509 0.801116 0.598509 0.801116 86.2227 87.9275)" fill="#BC8A14"/>
<ellipse rx="6.82446" ry="6.82446" transform="matrix(-0.598509 0.801116 0.598509 0.801116 63.7773 101.564)" fill="#784B00"/>
<path d="M60.4297 94.7147L60.4297 110.079L64.4939 109.169L64.4939 93.7051L60.4297 94.7147Z" fill="#784B00"/>
<ellipse rx="6.82446" ry="6.82446" transform="matrix(-0.598509 0.801116 0.598509 0.801116 59.4297 102.503)" fill="#F6B825"/>
<path d="M101.57 32.2002L51.2556 61.2394V110.378L101.57 81.3391V32.2002Z" fill="#784B00"/>
<path d="M0.46875 32.1699L51.2537 61.2407V110.38L0.46875 81.3083V32.1699Z" fill="#F6B825"/>
<rect width="58.9117" height="58.9117" transform="matrix(-0.866044 -0.499967 -0.866044 0.499967 102.039 31.8789)" fill="#FADB83"/>
<rect width="50.3696" height="50.3696" transform="matrix(-0.866044 -0.499967 -0.866044 0.499967 94.9844 31.6416)" fill="#784B00"/>
<path d="M29.4082 18.4217L30.8438 31.8197L27.0157 35.887L26.6744 42.8446L19.1778 38.1445L15.2924 26.317L20.0775 11.2441L29.4082 18.4217Z" fill="#0092BD"/>
<path d="M95.9023 20.7897L89.4566 34.9312L81.5613 39.7162L84.6261 20.7897L87.791 10.9619L95.9023 20.7897Z" fill="#0092BD"/>
<path d="M74.5376 16.3316L87.792 10.9619L88.2305 21.4847L81.5619 39.7163L75.7347 42.7494L78.9302 28.7107L73.6667 25.6004L74.5376 16.3316Z" fill="#08C8C7"/>
<path d="M40.4108 19.3799L69.3601 22.2509L68.5003 44.0648L65.2119 48.8877L43.9995 35.8882L34.6687 28.95L33.7117 26.5574L40.4108 19.3799Z" fill="#08C8C7"/>
<path d="M73.5391 7.89208L70.0748 0L62.3586 8.9882L56.916 27.7531L59.3085 30.3849L69.357 22.4896L70.7925 23.4466L73.5391 7.89208Z" fill="#0092BD"/>
<path d="M62.3616 8.9882L70.0781 0L57.3978 2.63176L51.895 28.9494L55.7231 26.5569L56.9193 27.7531L62.3616 8.9882Z" fill="#08C8C7"/>
<path d="M69.3596 22.4902L78.9297 28.7108L76.1723 42.5304L65.2924 48.8078L68.2802 35.5152L68.4994 33.7614L69.3596 22.4902Z" fill="#0092BD"/>
<path d="M61.4669 51.1997L65.3885 48.711L65.7734 35.4092L65.2949 34.9307L61.4669 51.1997Z" fill="#08C8C7"/>
<path d="M55.719 26.5557L65.2891 34.9295L61.461 51.1985L53.0873 55.9835L56.6588 37.7057L55.719 26.5557Z" fill="#0092BD"/>
<path d="M43.5254 33.9735L44.0039 52.792L36.8264 48.7108V39.9547L35.8694 27.9922L43.5254 33.9735Z" fill="#0092BD"/>
<path d="M40.4125 19.3799L47.3508 18.6621L51.1788 20.3369L54.2891 25.3611L51.4181 30.1462L43.5228 34.2134V29.4284L45.9153 22.7294L40.4125 19.3799Z" fill="#0092BD"/>
<path d="M43.5189 33.9724L55.7207 26.5557L57.0977 37.9249L53.0889 55.9835L51.3056 56.9224L44.0319 52.9336L43.5189 33.9724Z" fill="#08C8C7"/>
<path d="M53.0948 6.45883L54.7695 15.3111L53.334 22.0101H52.8555L46.3957 18.6606L44.721 12.2009L43.3346 3.19043L53.0948 6.45883Z" fill="#0092BD"/>
<path d="M35.6234 9.80834L43.3284 3.19043L44.7149 12.2009L46.6289 18.8999L40.4084 19.3784L37.5374 22.9671L35.6234 9.80834Z" fill="#08C8C7"/>
<path d="M9.30275 22.2497L20.069 11.2441L17.196 22.2497L20.4844 39.0214L11.456 34.1307L9.30275 22.2497Z" fill="#08C8C7"/>
<path d="M26.3011 35.1697L35.8711 27.9922L36.8281 39.4762V48.7108L26.3011 42.6103V35.1697Z" fill="#08C8C7"/>
<path d="M34.671 16.0303L37.7812 18.662V22.2508L33.714 26.7966L35.1495 28.7106L31.8 31.1031L34.671 21.4843V16.0303Z" fill="#0092BD"/>
<path d="M29.4044 19.1405L34.668 16.0303V21.4843L32.2755 31.1031L30.84 31.8208L29.4044 19.1405Z" fill="#08C8C7"/>
<path d="M36.9333 10.576L38.2576 20.6936L37.8871 10.7069L36.9333 10.576Z" fill="#F8EEE1"/>
<path d="M58.7166 2.96345L67.6341 1.24821L60.4345 3.86982L58.7166 2.96345Z" fill="#F8EEE1"/>
<path d="M57.8616 3.7373L54.9017 20.6073L58.753 5.15318L57.8616 3.7373Z" fill="#F8EEE1"/>
<path d="M37.3689 9.20769L42.7175 4.40494L38.7683 9.06819L37.3689 9.20769Z" fill="#F8EEE1"/>
<path d="M76.4612 16.4912L85.6866 12.3505L78.6398 16.9164L76.4612 16.4912Z" fill="#F8EEE1"/>
<path d="M75.5663 17.5377L74.8517 25.6493L76.8918 18.5691L75.5663 17.5377Z" fill="#F8EEE1"/>
<path d="M60.9225 29.7795L66.9291 24.9652L62.5526 29.9703L60.9225 29.7795Z" fill="#F8EEE1"/>
<path d="M35.7278 25.8625L40.4832 20.0739L37.1889 25.6759L35.7278 25.8625Z" fill="#F8EEE1"/>
<path d="M44.1885 34.5051L50.7596 30.4954L45.781 34.9021L44.1885 34.5051Z" fill="#F8EEE1"/>
<path d="M44.2473 34.4176L44.5955 47.5973L45.6887 34.8147L44.2473 34.4176Z" fill="#F8EEE1"/>
<path d="M29.5509 19.6453L33.3983 17.1844L30.219 19.8182L29.5509 19.6453Z" fill="#F8EEE1"/>
<path d="M10.6795 21.461L18.0712 13.5257L12.318 21.4634L10.6795 21.461Z" fill="#F8EEE1"/>
<path d="M10.261 22.6242L12.139 33.6499L11.3514 22.6525L10.261 22.6242Z" fill="#F8EEE1"/>
<path d="M27.4973 34.8557L34.4271 29.4146L28.8122 35.0634L27.4973 34.8557Z" fill="#F8EEE1"/>
<path d="M26.8527 36.0067L26.8528 42.7496L27.979 36.3169L26.8527 36.0067Z" fill="#F8EEE1"/>
<path d="M63.0763 54.623L58.1014 57.495L70.6618 64.7462L75.6367 61.8742L63.0763 54.623Z" fill="#784B00"/>
<path d="M58.2549 63.0579L58.2547 57.3135L70.8146 64.5656L70.8148 70.31L58.2549 63.0579Z" fill="#463A00"/>
<path d="M97.2013 34.8799L92.2264 37.7519L104.787 45.003L109.762 42.131L97.2013 34.8799Z" fill="#784B00"/>
<path d="M92.3799 43.4251L92.3797 37.6807L104.94 44.9328L104.94 50.6772L92.3799 43.4251Z" fill="#463A00"/>
<path d="M109.639 42.0977L104.77 44.9089L104.77 50.531L109.638 47.7198L109.639 42.0977Z" fill="#463A00"/>
<path d="M75.6346 62.0527L70.7658 64.864L70.7656 70.4861L75.6344 67.6749L75.6346 62.0527Z" fill="#463A00"/>
</svg>
