<svg width="121" height="119" viewBox="0 0 121 119" fill="none" xmlns="http://www.w3.org/2000/svg">
<g style="mix-blend-mode:multiply">
<path d="M95.0017 68.5001L119.501 88.4999L51.5021 114.5L52.0021 112.5L44.5021 114.5L40.5021 97.9997L15.5014 99.9997L19.5011 94.4997L95.0017 68.5001Z" fill="#5C6017"/>
</g>
<ellipse rx="6.86438" ry="6.86439" transform="matrix(0.598509 0.801116 -0.598509 0.801116 11.5352 91.4056)" fill="#78B0FF"/>
<path d="M14.9023 84.5165L14.9023 99.9703L10.8143 99.055L10.8143 83.501L14.9023 84.5165Z" fill="#78B0FF"/>
<ellipse rx="6.86438" ry="6.86439" transform="matrix(0.598509 0.801116 -0.598509 0.801116 15.918 92.3519)" fill="#10416D"/>
<ellipse rx="6.86438" ry="6.86439" transform="matrix(0.598509 0.801116 -0.598509 0.801116 38.4883 106.066)" fill="#78B0FF"/>
<path d="M41.8594 99.1767L41.8594 114.63L37.7714 113.715L37.7714 98.1611L41.8594 99.1767Z" fill="#78B0FF"/>
<ellipse rx="6.86438" ry="6.86439" transform="matrix(0.598509 0.801116 -0.598509 0.801116 42.8672 107.013)" fill="#10416D"/>
<path d="M103.518 21.7578L108.551 24.6638L95.8423 32.0007L90.8086 29.0948L103.518 21.7578Z" fill="#10416D"/>
<path d="M108.401 30.2915L108.402 24.4791L95.6931 31.817L95.6929 37.6294L108.401 30.2915Z" fill="#001636"/>
<path d="M68.9903 1.78027L74.0241 4.68626L61.315 12.0232L56.2812 9.11722L68.9903 1.78027Z" fill="#10416D"/>
<path d="M73.8702 10.4272L73.8704 4.61486L61.1619 11.9528L61.1616 17.7651L73.8702 10.4272Z" fill="#001636"/>
<path d="M0.476562 36.2998L51.0857 65.5089V114.935L0.476562 85.7263V36.2998Z" fill="#3686FF"/>
<path d="M102.168 36.2686L51.0858 65.5094V114.936L102.168 85.6944V36.2686Z" fill="#10416D"/>
<rect width="59.2563" height="59.2563" transform="matrix(0.866044 -0.499967 0.866044 0.499967 0 35.9736)" fill="#91C1FF"/>
<rect width="50.6643" height="50.6643" transform="matrix(0.866044 -0.499967 0.866044 0.499967 7.08984 35.7373)" fill="#10416D"/>
<path d="M9.46094 25.6826C17.46 28.0003 21.7141 30.3649 28.8532 36.6552V48.6375L9.46094 37.6648V25.6826Z" fill="#D4AE62"/>
<path d="M71.8984 12.2002L28.857 36.8134V48.6374L32.4044 50.59L71.8984 26.3281V12.2002Z" fill="#794E00"/>
<path d="M9.46094 25.6982L52.5021 0.97963C60.0701 2.99507 64.4487 5.33682 71.8946 12.2182L28.9737 36.9141C22.1246 31.1844 17.7972 28.8871 9.46094 25.6982Z" fill="#B38300"/>
<path d="M94.125 24.5166L51.0836 48.5413V61.1915L93.652 36.4206L94.125 24.5166Z" fill="#794E00"/>
<path d="M31.6875 38.6426C39.6866 40.9603 43.9407 43.3249 51.0798 49.6152V61.173L31.6875 50.2003V38.6426Z" fill="#D4AE62"/>
<path d="M31.6875 38.6572L74.7287 13.9386C82.1598 15.6314 86.2971 17.5304 94.1212 24.5162L51.2002 49.8731C44.3511 44.1434 40.0238 41.8461 31.6875 38.6572Z" fill="#B38300"/>
</svg>
