<svg width="121" height="118" viewBox="0 0 121 118" fill="none" xmlns="http://www.w3.org/2000/svg">
<g style="mix-blend-mode:multiply">
<path d="M94.2969 66.417L119.297 87.5508L76.7969 105.051L64.7967 112.05L64.7967 108.55L50.8968 113.899L35.5039 66.4169L94.2969 66.417Z" fill="#5C6017"/>
</g>
<ellipse rx="6.80371" ry="6.80371" transform="matrix(-0.598509 0.801116 0.598509 0.801116 90.3086 90.5974)" fill="#784B00"/>
<path d="M86.9688 83.7693L86.9688 99.0865L91.0206 98.1792L91.0206 82.7627L86.9688 83.7693Z" fill="#784B00"/>
<ellipse rx="6.80371" ry="6.80371" transform="matrix(-0.598509 0.801116 0.598509 0.801116 85.9688 91.5349)" fill="#BC8A14"/>
<ellipse rx="6.80371" ry="6.80371" transform="matrix(-0.598509 0.801116 0.598509 0.801116 63.5938 105.132)" fill="#784B00"/>
<path d="M60.25 98.3025L60.25 113.62L64.3019 112.712L64.3019 97.2959L60.25 98.3025Z" fill="#784B00"/>
<ellipse rx="6.80371" ry="6.80371" transform="matrix(-0.598509 0.801116 0.598509 0.801116 59.2539 106.068)" fill="#F6B825"/>
<path d="M101.262 35.9775L51.0999 64.9285V113.918L101.262 84.9671V35.9775Z" fill="#784B00"/>
<path d="M0.472656 35.9463L51.1033 64.9287V113.919L0.472656 84.9353V35.9463Z" fill="#F6B825"/>
<rect width="58.7326" height="58.7326" transform="matrix(-0.866044 -0.499967 -0.866044 0.499967 101.73 35.6543)" fill="#FADB83"/>
<rect width="50.2165" height="50.2165" transform="matrix(-0.866044 -0.499967 -0.866044 0.499967 94.7031 35.4189)" fill="#784B00"/>
<path d="M92.3789 25.4629C84.4487 27.7607 80.2312 30.1049 73.1535 36.3411V48.2203L92.3789 37.342V25.4629Z" fill="#83753E"/>
<path d="M30.4805 12.0967L73.1515 36.4981V48.2204L69.6347 50.1562L30.4805 26.103V12.0967Z" fill="#794E00"/>
<path d="M92.3789 25.4766L49.7081 0.97064C42.2052 2.96874 37.8643 5.29034 30.4824 12.1125L73.0341 36.5959C79.8242 30.9156 84.1143 28.638 92.3789 25.4766Z" fill="#B38300"/>
<path d="M8.44531 24.3057L51.1164 48.1237V60.665L8.91423 36.1072L8.44531 24.3057Z" fill="#B38300"/>
<path d="M70.3398 38.3096C62.4096 40.6073 58.1921 42.9516 51.1144 49.1878V60.6461L70.3398 49.7679V38.3096Z" fill="#83753E"/>
<path d="M70.3398 38.3242L27.669 13.8183C20.3019 15.4965 16.2001 17.3791 8.44334 24.3049L50.995 49.4436C57.7852 43.7632 62.0753 41.4857 70.3398 38.3242Z" fill="#B38300"/>
<path d="M62.1075 59.5684L57.1327 62.4404L69.6931 69.6915L74.668 66.8195L62.1075 59.5684Z" fill="#784B00"/>
<path d="M57.2862 68.0032L57.286 62.2588L69.8459 69.5109L69.8461 75.2553L57.2862 68.0032Z" fill="#463A00"/>
<path d="M96.2325 39.8252L91.2577 42.6972L103.818 49.9483L108.793 47.0763L96.2325 39.8252Z" fill="#784B00"/>
<path d="M91.4112 48.3704L91.411 42.626L103.971 49.8781L103.971 55.6225L91.4112 48.3704Z" fill="#463A00"/>
<path d="M108.67 47.043L103.801 49.8542L103.801 55.4763L108.67 52.6651L108.67 47.043Z" fill="#463A00"/>
<path d="M74.6659 66.998L69.7971 69.8093L69.7969 75.4314L74.6657 72.6202L74.6659 66.998Z" fill="#463A00"/>
</svg>
