<svg width="130" height="118" viewBox="0 0 130 118" fill="none" xmlns="http://www.w3.org/2000/svg">
<g style="mix-blend-mode:multiply">
<path d="M103.5 66.417L128.5 87.5508L86 105.051L73.9999 112.05L73.9999 108.55L60.0999 113.899L44.707 66.4169L103.5 66.417Z" fill="#5C6017"/>
</g>
<ellipse rx="6.80371" ry="6.80371" transform="matrix(-0.598509 0.801116 0.598509 0.801116 99.5117 90.5974)" fill="#10416D"/>
<path d="M96.1719 83.7693L96.1719 99.0865L100.224 98.1792L100.224 82.7627L96.1719 83.7693Z" fill="#10416D"/>
<ellipse rx="6.80371" ry="6.80371" transform="matrix(-0.598509 0.801116 0.598509 0.801116 95.1719 91.5349)" fill="#1952A9"/>
<ellipse rx="6.80371" ry="6.80371" transform="matrix(-0.598509 0.801116 0.598509 0.801116 72.7969 105.131)" fill="#10416D"/>
<path d="M69.4531 98.3015L69.4531 113.619L73.505 112.711L73.505 97.2949L69.4531 98.3015Z" fill="#10416D"/>
<ellipse rx="6.80371" ry="6.80371" transform="matrix(-0.598509 0.801116 0.598509 0.801116 68.457 106.067)" fill="#3686FF"/>
<path d="M8.33295 21.5664L3.34368 24.4467L15.9404 31.7188L20.9297 28.8385L8.33295 21.5664Z" fill="#10416D"/>
<path d="M3.49069 30.0255L3.49047 24.2645L16.0867 31.5375L16.0869 37.2985L3.49069 30.0255Z" fill="#10416D"/>
<path d="M42.5556 1.76562L37.5663 4.64593L50.1631 11.918L55.1523 9.03772L42.5556 1.76562Z" fill="#10416D"/>
<path d="M37.7133 10.335L37.7131 4.57406L50.3093 11.8471L50.3095 17.6081L37.7133 10.335Z" fill="#10416D"/>
<path d="M110.465 35.9775L60.303 64.9285V113.918L110.465 84.9671V35.9775Z" fill="#10416D"/>
<path d="M9.67578 35.9463L60.3064 64.9287V113.919L9.67578 84.9353V35.9463Z" fill="#3686FF"/>
<rect width="58.7326" height="58.7326" transform="matrix(-0.866044 -0.499967 -0.866044 0.499967 110.934 35.6543)" fill="#91C1FF"/>
<rect width="50.2165" height="50.2165" transform="matrix(-0.866044 -0.499967 -0.866044 0.499967 103.906 35.4189)" fill="#10416D"/>
<path d="M101.582 25.4629C93.6518 27.7607 89.4343 30.1049 82.3566 36.3411V48.2203L101.582 37.342V25.4629Z" fill="#83753E"/>
<path d="M39.6836 12.0967L82.3547 36.4981V48.2204L78.8378 50.1562L39.6836 26.103V12.0967Z" fill="#794E00"/>
<path d="M101.582 25.4766L58.9112 0.97064C51.4083 2.96874 47.0674 5.29034 39.6855 12.1125L82.2372 36.5959C89.0273 30.9156 93.3175 28.638 101.582 25.4766Z" fill="#B38300"/>
<path d="M17.6484 24.3057L60.3195 48.1237V60.665L18.1174 36.1072L17.6484 24.3057Z" fill="#B38300"/>
<path d="M79.543 38.3096C71.6127 40.6073 67.3952 42.9516 60.3175 49.1878V60.6461L79.543 49.7679V38.3096Z" fill="#83753E"/>
<path d="M79.543 38.3242L36.8722 13.8183C29.505 15.4965 25.4032 17.3791 17.6465 24.3049L60.1981 49.4436C66.9883 43.7632 71.2784 41.4857 79.543 38.3242Z" fill="#B38300"/>
</svg>
