<svg width="127" height="119" viewBox="0 0 127 119" fill="none" xmlns="http://www.w3.org/2000/svg">
<g style="mix-blend-mode:multiply">
<path d="M101.002 68.5001L125.501 88.4999L57.5021 114.5L58.0021 112.5L50.5021 114.5L46.5021 97.9997L21.5014 99.9997L25.5011 94.4997L101.002 68.5001Z" fill="#5C6017"/>
</g>
<ellipse rx="6.86438" ry="6.86439" transform="matrix(0.598509 0.801116 -0.598509 0.801116 17.5352 91.4056)" fill="#F9D167"/>
<path d="M20.9023 84.5165L20.9023 99.9703L16.8143 99.055L16.8143 83.501L20.9023 84.5165Z" fill="#F9D167"/>
<ellipse rx="6.86438" ry="6.86439" transform="matrix(0.598509 0.801116 -0.598509 0.801116 21.918 92.3519)" fill="#784B00"/>
<ellipse rx="6.86438" ry="6.86439" transform="matrix(0.598509 0.801116 -0.598509 0.801116 44.4883 106.067)" fill="#F9D167"/>
<path d="M47.8594 99.1777L47.8594 114.631L43.7714 113.716L43.7714 98.1621L47.8594 99.1777Z" fill="#F9D167"/>
<ellipse rx="6.86438" ry="6.86439" transform="matrix(0.598509 0.801116 -0.598509 0.801116 48.8672 107.014)" fill="#784B00"/>
<path d="M6.47656 36.3008L57.0857 65.5099V114.936L6.47656 85.7272V36.3008Z" fill="#F6B825"/>
<path d="M108.168 36.2686L57.0858 65.5094V114.936L108.168 85.6944V36.2686Z" fill="#784B00"/>
<rect width="59.2563" height="59.2563" transform="matrix(0.866044 -0.499967 0.866044 0.499967 6 35.9736)" fill="#FADB83"/>
<rect width="50.6643" height="50.6643" transform="matrix(0.866044 -0.499967 0.866044 0.499967 13.0898 35.7373)" fill="#784B00"/>
<path d="M15.4648 25.6826C23.4639 28.0003 27.718 30.3649 34.8571 36.6552V48.6375L15.4648 37.6648V25.6826Z" fill="#D4AE62"/>
<path d="M77.9023 12.2002L34.8609 36.8134V48.6374L38.4083 50.59L77.9023 26.3281V12.2002Z" fill="#794E00"/>
<path d="M15.4648 25.6982L58.506 0.97963C66.074 2.99507 70.4526 5.33682 77.8986 12.2182L34.9776 36.9141C28.1285 31.1844 23.8012 28.8871 15.4648 25.6982Z" fill="#B38300"/>
<path d="M100.129 24.5166L57.0875 48.5413V61.1915L99.6559 36.4206L100.129 24.5166Z" fill="#794E00"/>
<path d="M37.6914 38.6426C45.6905 40.9603 49.9446 43.3249 57.0837 49.6152V61.173L37.6914 50.2003V38.6426Z" fill="#D4AE62"/>
<path d="M37.6914 38.6572L80.7326 13.9386C88.1637 15.6314 92.301 17.5304 100.125 24.5162L57.2042 49.8731C50.3551 44.1434 46.0277 41.8461 37.6914 38.6572Z" fill="#B38300"/>
<path d="M12.5604 39.8252L17.5353 42.6972L4.97488 49.9483L0 47.0763L12.5604 39.8252Z" fill="#784B00"/>
<path d="M17.3818 48.3704L17.382 42.626L4.82211 49.8781L4.8219 55.6225L17.3818 48.3704Z" fill="#463A00"/>
<path d="M-0.00181913 47L4.86698 49.8112L4.86719 55.4334L-0.00160694 52.6221L-0.00181913 47Z" fill="#784B00"/>
<path d="M46.5604 59.8252L51.5353 62.6972L38.9749 69.9483L34 67.0763L46.5604 59.8252Z" fill="#784B00"/>
<path d="M51.3818 68.3704L51.382 62.626L38.8221 69.8781L38.8219 75.6225L51.3818 68.3704Z" fill="#463A00"/>
<path d="M34.0021 67.0303L38.8709 69.8415L38.8711 75.4636L34.0023 72.6524L34.0021 67.0303Z" fill="#784B00"/>
</svg>
