<svg width="127" height="119" viewBox="0 0 127 119" fill="none" xmlns="http://www.w3.org/2000/svg">
<g style="mix-blend-mode:multiply">
<path d="M101.002 68.5001L125.501 88.4999L57.5021 114.5L58.0021 112.5L50.5021 114.5L46.5021 97.9997L21.5014 99.9997L25.5011 94.4997L101.002 68.5001Z" fill="#5C6017"/>
</g>
<ellipse rx="6.86438" ry="6.86439" transform="matrix(0.598509 0.801116 -0.598509 0.801116 17.5352 91.4056)" fill="#78B0FF"/>
<path d="M20.9023 84.5165L20.9023 99.9703L16.8143 99.055L16.8143 83.501L20.9023 84.5165Z" fill="#78B0FF"/>
<ellipse rx="6.86438" ry="6.86439" transform="matrix(0.598509 0.801116 -0.598509 0.801116 21.918 92.3519)" fill="#10416D"/>
<ellipse rx="6.86438" ry="6.86439" transform="matrix(0.598509 0.801116 -0.598509 0.801116 44.4883 106.067)" fill="#78B0FF"/>
<path d="M47.8594 99.1777L47.8594 114.631L43.7714 113.716L43.7714 98.1621L47.8594 99.1777Z" fill="#78B0FF"/>
<ellipse rx="6.86438" ry="6.86439" transform="matrix(0.598509 0.801116 -0.598509 0.801116 48.8672 107.014)" fill="#10416D"/>
<path d="M6.47656 36.3008L57.0857 65.5099V114.936L6.47656 85.7272V36.3008Z" fill="#3686FF"/>
<path d="M108.168 36.2686L57.0858 65.5094V114.936L108.168 85.6944V36.2686Z" fill="#10416D"/>
<rect width="59.2563" height="59.2563" transform="matrix(0.866044 -0.499967 0.866044 0.499967 6 35.9736)" fill="#91C1FF"/>
<rect width="50.6643" height="50.6643" transform="matrix(0.866044 -0.499967 0.866044 0.499967 13.0898 35.7373)" fill="#10416D"/>
<path d="M15.4609 25.6826C23.46 28.0003 27.7141 30.3649 34.8532 36.6552V48.6375L15.4609 37.6648V25.6826Z" fill="#D4AE62"/>
<path d="M77.8984 12.2002L34.857 36.8134V48.6374L38.4044 50.59L77.8984 26.3281V12.2002Z" fill="#794E00"/>
<path d="M15.4609 25.6982L58.5021 0.97963C66.0701 2.99507 70.4487 5.33682 77.8946 12.2182L34.9737 36.9141C28.1246 31.1844 23.7972 28.8871 15.4609 25.6982Z" fill="#B38300"/>
<path d="M100.125 24.5166L57.0836 48.5413V61.1915L99.652 36.4206L100.125 24.5166Z" fill="#794E00"/>
<path d="M37.6875 38.6426C45.6866 40.9603 49.9407 43.3249 57.0798 49.6152V61.173L37.6875 50.2003V38.6426Z" fill="#D4AE62"/>
<path d="M37.6875 38.6572L80.7287 13.9386C88.1598 15.6314 92.2971 17.5304 100.121 24.5162L57.2002 49.8731C50.3511 44.1434 46.0238 41.8461 37.6875 38.6572Z" fill="#B38300"/>
<path d="M12.5604 39.8252L17.5353 42.6972L4.97488 49.9483L0 47.0763L12.5604 39.8252Z" fill="#10416D"/>
<path d="M17.3818 48.3704L17.382 42.626L4.82211 49.8781L4.8219 55.6225L17.3818 48.3704Z" fill="#001636"/>
<path d="M0.123181 47.043L4.99198 49.8542L4.99219 55.4763L0.123393 52.6651L0.123181 47.043Z" fill="#10416D"/>
<path d="M46.5604 59.8252L51.5353 62.6972L38.9749 69.9483L34 67.0763L46.5604 59.8252Z" fill="#10416D"/>
<path d="M51.3818 68.3704L51.382 62.626L38.8221 69.8781L38.8219 75.6225L51.3818 68.3704Z" fill="#001636"/>
<path d="M33.9982 67L38.867 69.8112L38.8672 75.4334L33.9984 72.6221L33.9982 67Z" fill="#10416D"/>
</svg>
