<svg width="174" height="184" viewBox="0 0 174 184" fill="none" xmlns="http://www.w3.org/2000/svg">
<ellipse rx="10.7681" ry="10.7681" transform="matrix(0.598509 0.801116 -0.598509 0.801116 18.082 141.903)" fill="#B4BEB3"/>
<path d="M23.3711 131.096L23.3711 155.338L16.9583 153.902L16.9583 129.503L23.3711 131.096Z" fill="#B4BEB3"/>
<ellipse rx="10.7681" ry="10.7681" transform="matrix(0.598509 0.801116 -0.598509 0.801116 24.9492 143.388)" fill="#313C33"/>
<ellipse rx="10.7681" ry="10.7681" transform="matrix(0.598509 0.801116 -0.598509 0.801116 60.375 164.903)" fill="#B4BEB3"/>
<path d="M65.6641 154.096L65.6641 178.338L59.2512 176.902L59.2512 152.503L65.6641 154.096Z" fill="#B4BEB3"/>
<ellipse rx="10.7681" ry="10.7681" transform="matrix(0.598509 0.801116 -0.598509 0.801116 67.2422 166.387)" fill="#313C33"/>
<path d="M162.394 32.6465L170.29 37.2051L150.353 48.7145L142.457 44.1559L162.394 32.6465Z" fill="#313C33"/>
<path d="M170.05 46.0341L170.051 36.9163L150.115 48.4273L150.115 57.5451L170.05 46.0341Z" fill="#313C33"/>
<path d="M108.23 1.30859L116.126 5.8672L96.1894 17.3766L88.293 12.818L108.23 1.30859Z" fill="#313C33"/>
<path d="M115.886 14.873L115.887 5.7552L95.9508 17.2661L95.9505 26.384L115.886 14.873Z" fill="#313C33"/>
<path d="M0.742188 55.459L80.1325 101.279V178.814L0.742188 132.994V55.459Z" fill="#8F9B92"/>
<path d="M160.266 55.4092L80.1333 101.279V178.815L160.266 132.943V55.4092Z" fill="#313C33"/>
<rect width="92.9552" height="92.9552" transform="matrix(0.866044 -0.499967 0.866044 0.499967 0 54.9473)" fill="#C2CCC1"/>
<rect width="79.4769" height="79.4769" transform="matrix(0.866044 -0.499967 0.866044 0.499967 11.1289 54.5752)" fill="#313C33"/>
</svg>
