<svg width="255" height="229" viewBox="0 0 255 229" fill="none" xmlns="http://www.w3.org/2000/svg">
<path d="M1.9998 163.5C-3.00044 151 1.34006 139.034 23.4998 130.5C23.4998 130.5 170.255 75.2891 206 137C213.492 149.935 223.609 158.781 219 173C212.789 192.162 184.506 174.063 169.5 187.5C161.67 194.512 158.5 204.5 154 209.5C149.499 214.5 122.5 228.767 100.999 226C79.239 223.2 61.4995 211.5 53.4998 196C45.5 180.5 7.00003 176 1.9998 163.5Z" fill="#D4AE61"/>
<path d="M22.8547 166.736L110.354 120.735L203.5 125.551L234 166.736L110.354 218.236L22.8547 166.736Z" fill="#5C6017"/>
<mask id="mask0" mask-type="alpha" maskUnits="userSpaceOnUse" x="0" y="120" width="221" height="107">
<path d="M1.86894 163.72C-3.1313 151.22 1.2092 128.533 23.369 120C23.369 120 192.5 136.561 203.5 140.28C214.5 144 223.478 159.001 218.869 173.22C212.658 192.381 184.375 174.282 169.369 187.72C161.54 194.731 158.369 204.72 153.869 209.72C149.368 214.72 122.369 228.987 100.868 226.22C79.1082 223.419 61.3686 211.72 53.3689 196.22C45.3692 180.72 6.86917 176.22 1.86894 163.72Z" fill="#D4AE61"/>
</mask>
<g mask="url(#mask0)">
<path d="M22.8547 166.685L110.354 120.685L203.5 125.5L234 166.685L110.354 218.186L22.8547 166.685Z" fill="#83753E"/>
</g>
<path d="M22.3555 71.1855L110.355 122.186V218.186L22.3555 167.185V71.1855Z" fill="#F9EFE2"/>
<path d="M55 115L67 122.53V168L55 160.47V115Z" fill="#08C8C7"/>
<path d="M77.5 0L166 51.1838L110.855 122.653L22.3555 71.4677L77.5 0Z" fill="#F3A400"/>
<path d="M198.855 71L110.355 122.184V218.37L198.855 167.184V71Z" fill="#909C93"/>
<path d="M166 51L198.855 71.1855L110.355 122.186L166 51Z" fill="#909C93"/>
</svg>
