<svg width="251" height="392" viewBox="0 0 251 392" fill="none" xmlns="http://www.w3.org/2000/svg">
<path d="M20.9687 328.618C15.9685 316.118 19.3402 298.033 41.4999 289.5C41.4999 289.5 48.9982 283.234 53.9982 275C55.8278 271.986 73.4982 258 101.498 255.5C120.914 253.766 136.654 243.011 157.998 250C178.498 262 216.444 287.4 224.969 302.118C232.461 315.052 240.109 320.781 235.5 335C229.289 354.162 203.475 339.18 188.469 352.618C180.639 359.629 177.469 369.618 172.969 374.618C168.468 379.618 141.469 393.885 119.968 391.118C98.2079 388.318 80.4684 376.618 72.4687 361.118C64.469 345.618 25.969 341.118 20.9687 328.618Z" fill="#D4AE61"/>
<path d="M182.262 264.5C209.764 266 261.262 297 231.762 335L156 358L140.764 360.499C140.764 360.499 212.762 341.499 212.762 312.5C212.762 303.041 161.5 280.499 131 259.5L182.262 264.5Z" fill="#5C6017"/>
<mask id="mask0" mask-type="alpha" maskUnits="userSpaceOnUse" x="19" y="272" width="221" height="120">
<path d="M20.8689 328.618C15.8687 316.118 20.2092 304.151 42.369 295.618C42.369 295.618 189.125 240.406 224.869 302.118C232.361 315.052 242.478 323.899 237.869 338.118C231.658 357.279 203.375 339.18 188.369 352.618C180.54 359.629 177.369 369.618 172.869 374.618C168.368 379.618 141.369 393.885 119.868 391.118C98.1082 388.317 80.3686 376.618 72.3689 361.118C64.3692 345.618 25.8692 341.118 20.8689 328.618Z" fill="#D4AE61"/>
</mask>
<g mask="url(#mask0)">
<path d="M182.262 264.5C209.764 266 261.262 297 231.762 335L156 358L140.764 360.499C140.764 360.499 212.762 341.499 212.762 312.5C212.762 303.041 161.5 280.499 131 259.5L182.262 264.5Z" fill="#83753E"/>
</g>
<path d="M188.161 274.326C222.576 294.195 222.413 326.263 187.662 346.325C152.911 366.387 97.4196 366.368 63.0037 346.5C46.5751 337.016 40.0019 326.001 38.0019 319.001C37.2979 305.334 45.3396 284.986 63.502 274.501C98.2528 254.44 153.745 254.458 188.161 274.326Z" fill="#A89754"/>
<g opacity="0.5">
<mask id="mask1" mask-type="alpha" maskUnits="userSpaceOnUse" x="36" y="259" width="178" height="103">
<circle r="72.3043" transform="matrix(0.866044 -0.499967 0.866044 0.499967 125.237 310.312)" fill="#C4C4C4"/>
</mask>
<g mask="url(#mask1)">
<rect x="38" y="252" width="177" height="111" fill="#F8EEE1"/>
<rect x="141" y="252" width="89" height="111" fill="#8F9B92"/>
</g>
<rect x="38" y="111" width="176" height="198" fill="#F8EEE1"/>
<path d="M76 202L88.5517 207.272V272L76 266.728V202Z" fill="#08C8C7"/>
<rect x="141" y="110" width="73" height="203" fill="#8F9B92"/>
<mask id="mask2" mask-type="alpha" maskUnits="userSpaceOnUse" x="34" y="0" width="190" height="158">
<path fill-rule="evenodd" clip-rule="evenodd" d="M224 0H34V106H37.6832C37.5501 119.183 46.1954 132.391 63.6191 142.45C98.2024 162.415 154.273 162.415 188.856 142.45C206.28 132.391 214.925 119.183 214.792 106H224V0Z" fill="#C4C4C4"/>
</mask>
<g mask="url(#mask2)">
<g filter="url(#filter0_i)">
<circle cx="126.5" cy="119.5" r="88.5" fill="#1A65FF"/>
</g>
</g>
<mask id="mask3" mask-type="alpha" maskUnits="userSpaceOnUse" x="38" y="27" width="177" height="131">
<mask id="mask4" maskUnits="userSpaceOnUse" x="34" y="0" width="190" height="158">
<path fill-rule="evenodd" clip-rule="evenodd" d="M224 0H34V106H37.6832C37.5501 119.183 46.1954 132.391 63.6191 142.45C98.2024 162.415 154.273 162.415 188.856 142.45C206.28 132.391 214.925 119.183 214.792 106H224V0Z" fill="#C4C4C4"/>
</mask>
<g mask="url(#mask4)">
<circle cx="126.5" cy="115.5" r="88.5" fill="#1A65FF"/>
</g>
</mask>
<g mask="url(#mask3)">
<rect x="67" y="106" width="74" height="182" fill="#1A65FF"/>
</g>
</g>
<defs>
<filter id="filter0_i" x="38" y="31" width="177" height="177" filterUnits="userSpaceOnUse" color-interpolation-filters="sRGB">
<feFlood flood-opacity="0" result="BackgroundImageFix"/>
<feBlend mode="normal" in="SourceGraphic" in2="BackgroundImageFix" result="shape"/>
<feColorMatrix in="SourceAlpha" type="matrix" values="0 0 0 0 0 0 0 0 0 0 0 0 0 0 0 0 0 0 127 0" result="hardAlpha"/>
<feOffset dx="-74" dy="-18"/>
<feComposite in2="hardAlpha" operator="arithmetic" k2="-1" k3="1"/>
<feColorMatrix type="matrix" values="0 0 0 0 0.0627451 0 0 0 0 0.254902 0 0 0 0 0.427451 0 0 0 1 0"/>
<feBlend mode="normal" in2="shape" result="effect1_innerShadow"/>
</filter>
</defs>
</svg>
