<svg width="206" height="305" viewBox="0 0 206 305" fill="none" xmlns="http://www.w3.org/2000/svg">
<path d="M16.4668 255.695C12.5597 245.956 15.1943 231.866 32.5092 225.218C32.5092 225.218 38.3681 220.336 42.275 213.92C43.7045 211.573 57.5116 200.676 79.3899 198.728C94.5609 197.377 106.859 188.998 123.537 194.443C139.555 203.792 169.205 223.582 175.866 235.049C181.72 245.126 187.696 249.589 184.095 260.668C179.241 275.597 159.071 263.924 147.346 274.394C141.228 279.857 138.751 287.639 135.235 291.535C131.718 295.43 110.622 306.546 93.8218 304.39C76.819 302.208 62.9579 293.093 56.7072 281.016C50.4565 268.94 20.3738 265.434 16.4668 255.695Z" fill="#D4AE61"/>
<path d="M27.1615 271.224C24.0349 272.76 24.2948 275.392 27.8057 277.751C31.9429 280.531 39.5913 281.499 43.3274 279.717C48.2406 277.373 32.0064 268.844 27.1615 271.224Z" fill="#D4AE61"/>
<path d="M47.606 288.642C45.3131 286.768 44.6135 284.593 45.8715 283.25C47.3538 281.666 51.4389 282.261 54.1618 284.455C57.7425 287.341 51.159 291.546 47.606 288.642Z" fill="#D4AE61"/>
<path d="M169.384 275.355C170.312 276.86 169.578 278.409 167.565 279.195C165.193 280.122 161.799 279.306 160.677 277.539C159.202 275.215 167.945 273.022 169.384 275.355Z" fill="#D4AE61"/>
<path d="M142.496 205.74C163.986 206.909 204.224 231.061 181.174 260.668L121.791 278.587L110.071 280.534C110.071 280.534 166.328 265.731 166.328 243.137C166.328 235.768 126.273 218.205 102.442 201.844L142.496 205.74Z" fill="#5C6017"/>
<mask id="mask0" mask-type="alpha" maskUnits="userSpaceOnUse" x="9" y="200" width="177" height="105">
<path d="M15.7095 255.213C11.8025 245.475 2.69309 224.854 20.008 218.206C20.008 218.206 134.678 175.19 162.608 223.27C168.462 233.347 187.22 244.89 184.876 258.33C181.547 277.418 157.137 262.615 145.807 275.86C140.478 282.09 138.776 287.547 135.259 291.442C131.743 295.338 108.981 306.545 92.181 304.389C75.1782 302.208 63.373 293 57.1222 280.924C50.8715 268.848 19.6165 264.952 15.7095 255.213Z" fill="#D4AE61"/>
</mask>
<g mask="url(#mask0)">
<path d="M142.497 205.74C163.987 206.908 204.225 231.061 181.175 260.667L121.793 278.587L110.072 280.534C110.072 280.534 166.329 265.731 166.329 243.137C166.329 235.768 126.275 218.205 102.443 201.844L142.497 205.74Z" fill="#83753E"/>
</g>
<path d="M147.105 213.396C173.996 228.875 173.869 253.861 146.716 269.491C119.563 285.121 76.2029 285.107 49.3115 269.627C36.4747 262.238 31.3386 253.656 29.7759 248.202C29.2258 237.554 35.5093 221.701 49.7008 213.532C76.854 197.902 120.214 197.916 147.105 213.396Z" fill="#A89754"/>
<mask id="mask1" mask-type="alpha" maskUnits="userSpaceOnUse" x="28" y="201" width="140" height="81">
<circle r="56.4556" transform="matrix(0.866669 -0.498884 0.866669 0.498884 97.8565 241.768)" fill="#C4C4C4"/>
</mask>
<g mask="url(#mask1)">
<rect x="29.692" y="196.337" width="138.302" height="86.4816" fill="#F8EEE1"/>
<rect x="110.173" y="196.337" width="69.5417" height="86.4816" fill="#8F9B92"/>
</g>
<rect x="29.692" y="86.4816" width="137.521" height="154.265" fill="#F8EEE1"/>
<rect x="110.173" y="85.7025" width="57.0398" height="158.16" fill="#8F9B92"/>
<path d="M142.639 157.381L132.832 161.488V211.919L142.639 207.811V157.381Z" fill="#0092BD"/>
<mask id="mask2" mask-type="alpha" maskUnits="userSpaceOnUse" x="29" y="21" width="139" height="102">
<mask id="mask3" maskUnits="userSpaceOnUse" x="26" y="0" width="150" height="123">
<path fill-rule="evenodd" clip-rule="evenodd" d="M175.026 0H26.5665V82.5861H29.4444C29.3405 92.8574 36.0956 103.148 49.7099 110.984C76.7322 126.539 120.544 126.539 147.566 110.984C161.181 103.148 167.936 92.8574 167.832 82.5861H175.026V0Z" fill="#C4C4C4"/>
</mask>
<g mask="url(#mask3)">
<ellipse cx="98.8431" cy="89.9876" rx="69.1511" ry="68.9516" fill="#1A65FF"/>
</g>
</mask>
<g mask="url(#mask2)">
<mask id="mask4" mask-type="alpha" maskUnits="userSpaceOnUse" x="26" y="0" width="150" height="123">
<path fill-rule="evenodd" clip-rule="evenodd" d="M175.026 0H26.5665V82.5861H29.4444C29.3405 92.8574 36.0956 103.148 49.7099 110.984C76.7322 126.539 120.544 126.539 147.566 110.984C161.181 103.148 167.936 92.8574 167.832 82.5861H175.026V0Z" fill="#C4C4C4"/>
</mask>
<g mask="url(#mask4)">
<ellipse cx="98.8431" cy="93.1041" rx="69.1511" ry="68.9516" fill="#1A65FF"/>
<path d="M167.603 86.0921C165.65 102.843 142.6 119.594 110.173 121.931V78.6905C110.564 57.6544 99.6244 37.7871 84.7784 25.7108C132.051 16.751 164.478 52.2007 167.603 86.0921Z" fill="#10416D"/>
</g>
</g>
<mask id="mask5" mask-type="alpha" maskUnits="userSpaceOnUse" x="29" y="21" width="139" height="102">
<mask id="mask6" maskUnits="userSpaceOnUse" x="26" y="0" width="150" height="123">
<path fill-rule="evenodd" clip-rule="evenodd" d="M175.026 0H26.5665V82.5861H29.4444C29.3405 92.8574 36.0956 103.148 49.7099 110.984C76.7322 126.539 120.544 126.539 147.566 110.984C161.181 103.148 167.936 92.8574 167.832 82.5861H175.026V0Z" fill="#C4C4C4"/>
</mask>
<g mask="url(#mask6)">
<ellipse cx="98.8431" cy="89.9876" rx="69.1511" ry="68.9516" fill="#1A65FF"/>
</g>
</mask>
<g mask="url(#mask5)">
<rect x="52.3517" y="82.5861" width="57.8212" height="141.799" fill="#1A65FF"/>
</g>
</svg>
