<svg width="264" height="392" viewBox="0 0 264 392" fill="none" xmlns="http://www.w3.org/2000/svg">
<path d="M20.9705 328.618C15.9703 316.118 20.3108 304.151 42.4705 295.618C42.4705 295.618 189.226 240.406 224.971 302.118C232.462 315.052 242.579 323.899 237.971 338.118C231.759 357.279 203.476 339.18 188.471 352.618C180.641 359.629 177.471 369.618 172.971 374.618C168.47 379.618 141.47 393.885 119.97 391.118C98.2097 388.317 80.4702 376.618 72.4705 361.118C64.4707 345.618 25.9707 341.118 20.9705 328.618Z" fill="#D4AE61"/>
<path d="M247.108 335.618L154.982 358.543L103.852 301.492L207 288C247.929 282.374 283 319 247.108 335.618Z" fill="#5C6017"/>
<mask id="mask0" mask-type="alpha" maskUnits="userSpaceOnUse" x="19" y="272" width="221" height="120">
<path d="M20.9705 328.618C15.9703 316.118 20.3108 304.151 42.4705 295.618C42.4705 295.618 189.226 240.406 224.971 302.118C232.462 315.052 242.579 323.899 237.971 338.118C231.759 357.279 203.476 339.18 188.471 352.618C180.641 359.629 177.471 369.618 172.971 374.618C168.47 379.618 141.47 393.885 119.97 391.118C98.2097 388.317 80.4702 376.618 72.4705 361.118C64.4707 345.618 25.9707 341.118 20.9705 328.618Z" fill="#D4AE61"/>
</mask>
<g mask="url(#mask0)">
<path d="M247.397 335.747L155.271 358.673L104.141 301.622L207.289 288.13C248.218 282.503 283.289 319.13 247.397 335.747Z" fill="#83753E"/>
</g>
<mask id="mask1" mask-type="alpha" maskUnits="userSpaceOnUse" x="36" y="259" width="178" height="103">
<circle r="72.3043" transform="matrix(0.866044 -0.499967 0.866044 0.499967 125.237 310.312)" fill="#C4C4C4"/>
</mask>
<g mask="url(#mask1)">
<rect x="38" y="252" width="177" height="111" fill="#F8EEE1"/>
<rect x="141" y="252" width="89" height="111" fill="#8F9B92"/>
</g>
<rect x="38" y="111" width="176" height="198" fill="#F8EEE1"/>
<rect x="141" y="110" width="73" height="203" fill="#8F9B92"/>
<path d="M182.551 202L169.999 207.272V272L182.551 266.728V202Z" fill="#0092BD"/>
<mask id="mask2" mask-type="alpha" maskUnits="userSpaceOnUse" x="34" y="0" width="190" height="158">
<path fill-rule="evenodd" clip-rule="evenodd" d="M224 0H34V106H37.6832C37.5501 119.183 46.1954 132.391 63.6191 142.45C98.2024 162.415 154.273 162.415 188.856 142.45C206.28 132.391 214.925 119.183 214.792 106H224V0Z" fill="#C4C4C4"/>
</mask>
<g mask="url(#mask2)">
<g filter="url(#filter0_i)">
<circle cx="126.5" cy="119.5" r="88.5" fill="#1A65FF"/>
</g>
</g>
<mask id="mask3" mask-type="alpha" maskUnits="userSpaceOnUse" x="38" y="27" width="177" height="131">
<mask id="mask4" maskUnits="userSpaceOnUse" x="34" y="0" width="190" height="158">
<path fill-rule="evenodd" clip-rule="evenodd" d="M224 0H34V106H37.6832C37.5501 119.183 46.1954 132.391 63.6191 142.45C98.2024 162.415 154.273 162.415 188.856 142.45C206.28 132.391 214.925 119.183 214.792 106H224V0Z" fill="#C4C4C4"/>
</mask>
<g mask="url(#mask4)">
<circle cx="126.5" cy="115.5" r="88.5" fill="#1A65FF"/>
</g>
</mask>
<g mask="url(#mask3)">
<rect x="67" y="106" width="74" height="182" fill="#1A65FF"/>
</g>
<defs>
<filter id="filter0_i" x="38" y="31" width="177" height="177" filterUnits="userSpaceOnUse" color-interpolation-filters="sRGB">
<feFlood flood-opacity="0" result="BackgroundImageFix"/>
<feBlend mode="normal" in="SourceGraphic" in2="BackgroundImageFix" result="shape"/>
<feColorMatrix in="SourceAlpha" type="matrix" values="0 0 0 0 0 0 0 0 0 0 0 0 0 0 0 0 0 0 127 0" result="hardAlpha"/>
<feOffset dx="-74" dy="-18"/>
<feComposite in2="hardAlpha" operator="arithmetic" k2="-1" k3="1"/>
<feColorMatrix type="matrix" values="0 0 0 0 0.0627451 0 0 0 0 0.254902 0 0 0 0 0.427451 0 0 0 1 0"/>
<feBlend mode="normal" in2="shape" result="effect1_innerShadow"/>
</filter>
</defs>
</svg>
