<svg width="256" height="229" viewBox="0 0 256 229" fill="none" xmlns="http://www.w3.org/2000/svg">
<path d="M2.9705 163.5C-2.02974 151 2.31076 139.034 24.4705 130.5C24.4705 130.5 171.226 75.2891 206.971 137C214.462 149.935 224.579 158.781 219.971 173C213.759 192.162 185.476 174.063 170.471 187.5C162.641 194.512 159.471 204.5 154.971 209.5C150.47 214.5 123.47 228.767 101.97 226C80.2097 223.2 62.4702 211.5 54.4705 196C46.4707 180.5 7.97074 176 2.9705 163.5Z" fill="#D4AE61"/>
<path d="M23.8254 166.736L111.325 120.735L204.471 125.551L234.971 166.736L111.325 218.236L23.8254 166.736Z" fill="#5C6017"/>
<mask id="mask0" mask-type="alpha" maskUnits="userSpaceOnUse" x="0" y="120" width="222" height="107">
<path d="M2.83964 163.72C-2.1606 151.22 2.1799 128.533 24.3397 120C24.3397 120 193.471 136.561 204.471 140.28C215.471 144 224.449 159.001 219.84 173.22C213.629 192.381 185.346 174.282 170.34 187.72C162.51 194.731 159.34 204.72 154.84 209.72C150.339 214.72 123.34 228.987 101.839 226.22C80.0789 223.419 62.3393 211.72 54.3396 196.22C46.3399 180.72 7.83988 176.22 2.83964 163.72Z" fill="#D4AE61"/>
</mask>
<g mask="url(#mask0)">
<path d="M23.8254 166.685L111.325 120.685L204.471 125.5L234.971 166.685L111.325 218.186L23.8254 166.685Z" fill="#83753E"/>
</g>
<path d="M23.3262 71.1855L111.326 122.186V218.186L23.3262 167.185V71.1855Z" fill="#F9EFE2"/>
<path d="M78.4707 0L166.971 51.1838L111.826 122.653L23.3262 71.4677L78.4707 0Z" fill="#F3A400"/>
<path d="M199.826 71L111.326 122.184V218.37L199.826 167.184V71Z" fill="#909C93"/>
<path d="M167.826 116.186L154.326 124.066V167.509L167.826 159.628V116.186Z" fill="#0092BD"/>
<path d="M166.971 51L199.826 71.1855L111.326 122.186L166.971 51Z" fill="#909C93"/>
</svg>
