<svg width="193" height="219" viewBox="0 0 193 219" fill="none" xmlns="http://www.w3.org/2000/svg">
<path d="M16.1572 170.097C12.3043 160.371 14.9023 146.3 31.9772 139.661C31.9772 139.661 37.7549 134.786 41.6076 128.379C43.0173 126.035 56.6331 115.152 78.2081 113.207C93.1688 111.858 105.297 103.49 121.743 108.928C137.539 118.265 166.778 138.027 173.347 149.479C179.119 159.542 185.013 163.999 181.461 175.063C176.675 189.972 156.785 178.315 145.222 188.77C139.189 194.226 136.746 201.997 133.279 205.888C129.811 209.778 109.007 220.878 92.4399 218.726C75.6728 216.547 62.0038 207.444 55.8398 195.384C49.6757 183.324 20.01 179.823 16.1572 170.097Z" fill="#D4AE61"/>
<path d="M140.439 120.21C161.631 121.377 201.312 145.496 178.581 175.063L120.204 192.958L108.464 194.903C108.464 194.903 163.941 180.119 163.941 157.556C163.941 150.197 124.442 132.658 100.94 116.319L140.439 120.21Z" fill="#5C6017"/>
<mask id="mask0" mask-type="alpha" maskUnits="userSpaceOnUse" x="14" y="126" width="171" height="93">
<path d="M16.0802 170.096C12.2274 160.371 15.5719 151.06 32.6468 144.421C32.6468 144.421 145.727 101.463 173.27 149.478C179.042 159.542 186.838 166.425 183.287 177.488C178.501 192.397 156.708 178.314 145.145 188.77C139.112 194.225 136.67 201.997 133.202 205.887C129.734 209.777 108.93 220.878 92.3629 218.725C75.5958 216.546 61.9269 207.443 55.7628 195.383C49.5987 183.323 19.9331 179.822 16.0802 170.096Z" fill="#D4AE61"/>
</mask>
<g mask="url(#mask0)">
<path d="M140.441 120.209C161.632 121.376 201.313 145.496 178.582 175.062L119.82 192.958L108.465 194.902C108.465 194.902 163.943 180.119 163.943 157.556C163.943 150.197 124.443 132.658 100.942 116.319L140.441 120.209Z" fill="#83753E"/>
</g>
<path d="M159.436 195.07C162.521 196.602 162.266 199.231 158.806 201.59C154.728 204.368 147.186 205.341 143.5 203.564C138.654 201.226 154.657 192.697 159.436 195.07Z" fill="#D4AE61"/>
<path d="M34.6175 192.549C32.3564 190.678 31.6665 188.506 32.907 187.164C34.3688 185.583 38.3973 186.176 41.0824 188.368C44.6135 191.25 38.1213 195.449 34.6175 192.549Z" fill="#D4AE61"/>
<path d="M167.806 189.395C168.721 190.898 167.998 192.445 166.013 193.23C163.673 194.156 160.326 193.34 159.22 191.576C157.766 189.255 166.388 187.065 167.806 189.395Z" fill="#D4AE61"/>
<path d="M144.985 127.855C171.503 143.313 171.377 168.265 144.601 183.874C117.824 199.483 75.0653 199.469 48.5466 184.01C35.8878 176.631 30.8229 168.061 29.2818 162.614C28.7393 151.98 34.9357 136.149 48.9305 127.991C75.7073 112.382 118.466 112.396 144.985 127.855Z" fill="#A89754"/>
<mask id="mask1" mask-type="alpha" maskUnits="userSpaceOnUse" x="28" y="116" width="137" height="80">
<circle r="55.8495" transform="matrix(0.863929 -0.503614 0.863929 0.503614 96.5 155.853)" fill="#C4C4C4"/>
</mask>
<g mask="url(#mask1)">
<rect x="29.2804" y="110.484" width="136.385" height="86.3642" fill="#F8EEE1"/>
<rect x="108.646" y="110.484" width="68.5777" height="86.3642" fill="#8F9B92"/>
</g>
<path d="M29.2804 87.1423H164.895V156.389H29.2804V87.1423Z" fill="#F8EEE1"/>
<rect x="108.646" y="82.4739" width="56.2492" height="75.4714" fill="#8F9B92"/>
<path d="M136.385 129.935L128.68 133.1V171.95L136.385 168.786V129.935Z" fill="#0092BD"/>
<mask id="mask2" mask-type="alpha" maskUnits="userSpaceOnUse" x="26" y="0" width="147" height="123">
<path fill-rule="evenodd" clip-rule="evenodd" d="M172.6 0H26.1982V82.4739H29.0363C28.9337 92.7314 35.5952 103.007 49.0208 110.834C75.6685 126.368 118.873 126.368 145.521 110.834C158.946 103.007 165.608 92.7314 165.505 82.4739H172.6V0Z" fill="#C4C4C4"/>
</mask>
<g mask="url(#mask2)">
<ellipse cx="97.4729" cy="92.9777" rx="68.1925" ry="68.858" fill="#1A65FF"/>
<path d="M165.28 85.9752C163.354 102.703 140.623 119.432 108.646 121.766V78.5837C109.031 57.5762 98.2433 37.7358 83.6031 25.6759C130.221 16.7282 162.198 52.1298 165.28 85.9752Z" fill="#10416D"/>
</g>
<mask id="mask3" mask-type="alpha" maskUnits="userSpaceOnUse" x="29" y="21" width="137" height="102">
<mask id="mask4" maskUnits="userSpaceOnUse" x="26" y="0" width="147" height="123">
<path fill-rule="evenodd" clip-rule="evenodd" d="M172.6 0H26.1982V82.4739H29.0363C28.9337 92.7314 35.5952 103.007 49.0208 110.834C75.6685 126.368 118.873 126.368 145.521 110.834C158.946 103.007 165.608 92.7314 165.505 82.4739H172.6V0Z" fill="#C4C4C4"/>
</mask>
<g mask="url(#mask4)">
<ellipse cx="97.4729" cy="89.8655" rx="68.1925" ry="68.858" fill="#1A65FF"/>
</g>
</mask>
<g mask="url(#mask3)">
<rect x="51.626" y="82.4739" width="57.0197" height="141.606" fill="#1A65FF"/>
</g>
</svg>
