<svg width="258" height="348" viewBox="0 0 258 348" fill="none" xmlns="http://www.w3.org/2000/svg">
<path d="M1.9705 284.618C-3.02974 272.118 1.31076 260.151 23.4705 251.618C23.4705 251.618 170.226 196.406 205.971 258.118C213.462 271.052 223.579 279.899 218.971 294.118C212.759 313.279 184.476 295.18 169.471 308.618C161.641 315.629 158.471 325.618 153.971 330.618C149.47 335.618 122.47 349.885 100.97 347.118C79.2097 344.317 61.4702 332.618 53.4705 317.118C45.4707 301.618 6.97074 297.118 1.9705 284.618Z" fill="#D4AE61"/>
<path d="M109.5 229.501L129.5 221.501L203.5 235.501L230.001 282.3L109.5 331.001L109.5 229.501Z" fill="#5C6017"/>
<mask id="mask0" mask-type="alpha" maskUnits="userSpaceOnUse" x="0" y="228" width="221" height="120">
<path d="M1.9705 284.619C-3.02974 272.119 1.31076 260.152 23.4705 251.619C23.4705 251.619 170.226 196.407 205.971 258.119C213.462 271.053 223.579 279.9 218.971 294.119C212.759 313.28 184.476 295.181 169.471 308.619C161.641 315.63 158.471 325.619 153.971 330.619C149.47 335.619 122.47 349.885 100.97 347.119C79.2097 344.318 61.4702 332.619 53.4705 317.119C45.4707 301.619 6.97074 297.119 1.9705 284.619Z" fill="#D4AE61"/>
</mask>
<g mask="url(#mask0)">
<path d="M109.91 229.133L129.91 221.134L203.91 235.134L230.411 281.933L109.91 330.634L109.91 229.133Z" fill="#83753E"/>
</g>
<rect width="101.86" height="101.86" transform="matrix(0.866044 -0.499967 0.866044 0.499967 21 280.249)" fill="#A89754"/>
<path d="M107.5 1L21 87.5L110 139L107.5 1Z" fill="#F5A500"/>
<path d="M21 87L110 138.5V331.5L21 280V87Z" fill="#F9EEE1"/>
<path d="M199 86.5L110 138V331L199 279.5V86.5Z" fill="#8F9B92"/>
<path d="M168 171L148 182.516V246L168 234.483V171Z" fill="#0092BD"/>
<path d="M107.5 0L199 87L110 138.5L107.5 0Z" fill="#784B00"/>
</svg>
