<svg width="258" height="348" viewBox="0 0 258 348" fill="none" xmlns="http://www.w3.org/2000/svg">
<path d="M1.86894 284.618C-3.1313 272.118 1.2092 260.151 23.369 251.618C23.369 251.618 170.125 196.406 205.869 258.118C213.361 271.052 223.478 279.899 218.869 294.118C212.658 313.279 184.375 295.18 169.369 308.618C161.54 315.629 158.369 325.618 153.869 330.618C149.368 335.618 122.369 349.885 100.868 347.118C79.1082 344.317 61.3686 332.618 53.3689 317.118C45.3692 301.618 6.86917 297.118 1.86894 284.618Z" fill="#D4AE61"/>
<path d="M109.398 229.501L129.398 221.501L203.398 235.501L229.899 282.3L109.398 331.001L109.398 229.501Z" fill="#5C6017"/>
<mask id="mask0" mask-type="alpha" maskUnits="userSpaceOnUse" x="0" y="228" width="221" height="120">
<path d="M1.86894 284.619C-3.1313 272.119 1.2092 260.152 23.369 251.619C23.369 251.619 170.125 196.407 205.869 258.119C213.361 271.053 223.478 279.9 218.869 294.119C212.658 313.28 184.375 295.181 169.369 308.619C161.54 315.63 158.369 325.619 153.869 330.619C149.368 335.619 122.369 349.885 100.868 347.119C79.1082 344.318 61.3686 332.619 53.3689 317.119C45.3692 301.619 6.86917 297.119 1.86894 284.619Z" fill="#D4AE61"/>
</mask>
<g mask="url(#mask0)">
<path d="M109.808 229.133L129.809 221.134L203.809 235.134L230.309 281.933L109.808 330.634L109.808 229.133Z" fill="#83753E"/>
</g>
<rect width="101.86" height="101.86" transform="matrix(0.866044 -0.499967 0.866044 0.499967 20.8984 280.249)" fill="#A89754"/>
<path d="M107.5 0L199 87L110 138.5L107.5 0Z" fill="#784B00"/>
<path d="M107.5 0.5L21 87L110 138.5L107.5 0.5Z" fill="#F5A500"/>
<path d="M21 87L110 138.5V331.5L21 280V87Z" fill="#F9EEE1"/>
<path d="M55 167.552L72.9996 178.272V243L55 232.28V167.552Z" fill="#08C8C7"/>
<path d="M199 87L110 138.5V331.5L199 280V87Z" fill="#8F9B92"/>
</svg>
