<svg width="199" height="269" viewBox="0 0 199 269" fill="none" xmlns="http://www.w3.org/2000/svg">
<path d="M1.44614 220.341C-2.42292 210.664 0.935646 201.4 18.0823 194.794C18.0823 194.794 131.638 152.051 159.296 199.826C165.093 209.839 172.922 216.688 169.355 227.696C164.549 242.53 142.665 228.518 131.054 238.921C124.995 244.349 122.542 252.082 119.06 255.953C115.578 259.824 94.6861 270.869 78.0495 268.727C61.2119 266.559 47.4855 257.501 41.2955 245.502C35.1055 233.502 5.3152 230.019 1.44614 220.341Z" fill="#D4AE61"/>
<path d="M146.179 245.19C149.276 246.714 149.02 249.33 145.545 251.677C141.45 254.441 133.877 255.409 130.176 253.641C125.309 251.315 141.379 242.829 146.179 245.19Z" fill="#D4AE61"/>
<path d="M20.835 242.682C18.5644 240.819 17.8716 238.658 19.1174 237.323C20.5853 235.75 24.6307 236.34 27.3272 238.521C30.8731 241.389 24.3536 245.567 20.835 242.682Z" fill="#D4AE61"/>
<path d="M154.584 239.542C155.503 241.038 154.776 242.578 152.783 243.359C150.433 244.28 147.072 243.469 145.962 241.713C144.501 239.404 153.159 237.224 154.584 239.542Z" fill="#D4AE61"/>
<path d="M84.6491 177.671L100.125 171.478L157.384 182.316L177.89 218.546L84.6491 256.25L84.6491 177.671Z" fill="#5C6017"/>
<mask id="mask0" mask-type="alpha" maskUnits="userSpaceOnUse" x="0" y="177" width="171" height="92">
<path d="M1.44614 220.342C-2.42292 210.664 0.935646 201.4 18.0823 194.794C18.0823 194.794 131.638 152.051 159.296 199.826C165.093 209.84 172.922 216.688 169.355 227.696C164.549 242.531 142.665 228.518 131.054 238.922C124.995 244.349 122.542 252.082 119.06 255.953C115.578 259.824 94.6861 270.869 78.0495 268.727C61.2119 266.559 47.4855 257.502 41.2955 245.502C35.1055 233.502 5.3152 230.019 1.44614 220.342Z" fill="#D4AE61"/>
</mask>
<g mask="url(#mask0)">
<path d="M84.967 177.387L100.443 171.194L157.702 182.032L178.208 218.262L84.9669 255.965L84.967 177.387Z" fill="#83753E"/>
</g>
<rect width="78.8271" height="78.8271" transform="matrix(0.865935 -0.500157 0.865935 0.500157 16.1707 216.959)" fill="#A89754"/>
<g opacity="0.5">
<path d="M83.1809 0L153.981 67.3525L85.1153 107.222L83.1809 0Z" fill="#784B00"/>
<path d="M83.1809 0.387085L16.2493 67.3525L85.1154 107.222L83.1809 0.387085Z" fill="#F5A500"/>
<path d="M16.2493 67.3525L85.1153 107.222V256.636L16.2493 216.767V67.3525Z" fill="#F9EEE1"/>
<path d="M42.5576 129.713L56.4852 138.012V188.122L42.5576 179.823V129.713Z" fill="#08C8C7"/>
<path d="M153.981 67.3525L85.1153 107.222V256.636L153.981 216.767V67.3525Z" fill="#8F9B92"/>
</g>
</svg>
