<svg width="197" height="178" viewBox="0 0 197 178" fill="none" xmlns="http://www.w3.org/2000/svg">
<path d="M1.54857 127.546C-2.32315 117.795 1.03773 108.46 18.1962 101.803C18.1962 101.803 131.83 58.7329 159.508 106.874C165.308 116.964 173.142 123.865 169.574 134.957C164.764 149.905 142.864 135.786 131.245 146.269C125.183 151.738 122.728 159.53 119.243 163.431C115.759 167.331 94.8527 178.461 78.2047 176.302C61.3555 174.118 47.6197 164.991 41.4254 152.9C35.2312 140.808 5.4203 137.298 1.54857 127.546Z" fill="#D4AE61"/>
<path d="M17.6966 130.07L85.4481 94.1854L157.572 97.9419L181.188 130.07L85.4481 170.246L17.6966 130.07Z" fill="#5C6017"/>
<mask id="mask0" mask-type="alpha" maskUnits="userSpaceOnUse" x="0" y="93" width="171" height="84">
<path d="M1.44713 127.717C-2.42459 117.966 0.936291 100.268 18.0948 93.6117C18.0948 93.6117 149.054 106.531 157.572 109.432C166.089 112.334 173.041 124.036 169.472 135.128C164.663 150.076 142.763 135.957 131.144 146.44C125.081 151.909 122.627 159.701 119.142 163.602C115.657 167.502 94.7513 178.632 78.1032 176.473C61.2541 174.289 47.5182 165.162 41.324 153.071C35.1297 140.979 5.31886 137.469 1.44713 127.717Z" fill="#D4AE61"/>
</mask>
<g mask="url(#mask0)">
<path d="M17.6966 130.03L85.4481 94.1454L157.572 97.9019L181.188 130.03L85.4481 170.206L17.6966 130.03Z" fill="#83753E"/>
</g>
<path d="M145.528 155.017C148.627 156.553 148.371 159.189 144.894 161.554C140.796 164.34 133.217 165.315 129.514 163.533C124.643 161.189 140.725 152.638 145.528 155.017Z" fill="#D4AE61"/>
<path d="M20.0978 152.49C17.8257 150.613 17.1324 148.436 18.379 147.09C19.8479 145.505 23.8962 146.1 26.5944 148.298C30.1428 151.187 23.6188 155.397 20.0978 152.49Z" fill="#D4AE61"/>
<path d="M17.3098 55.5313L85.4489 95.3163V170.206L17.3098 130.421V55.5313Z" fill="#F9EFE2"/>
<path d="M60.0087 0L128.535 39.9284L85.8361 95.6813L17.3098 55.7518L60.0087 0Z" fill="#F3A400"/>
<path d="M153.975 55.3873L85.4491 95.3157V170.35L153.975 130.42V55.3873Z" fill="#909C93"/>
<path d="M129.198 90.6357L118.744 96.7833V130.673L129.198 124.525V90.6357Z" fill="#0092BD"/>
<path d="M128.535 39.7847L153.975 55.5314L85.4489 95.3163L128.535 39.7847Z" fill="#909C93"/>
</svg>
