<svg width="156" height="100" viewBox="0 0 156 100" fill="none" xmlns="http://www.w3.org/2000/svg">
<path d="M111.987 26.4707L134.788 37.7294L140.55 42.157L155.946 60.7844L145.02 83.3334L111.987 93.6207L81.4497 98.4458L104.251 66.2782L111.987 26.4707Z" fill="#175D8B"/>
<path d="M89.9519 4.34814H73.5567L42.5386 22.1742L29.2451 35.6525L34.5625 64.3481L72.2273 99.5655L105.948 94.3593L111.815 81.5648L144.898 83.1642L148 55.6525L144.898 41.7394L139.138 25.6525L126.731 20.4351L102.802 11.7394L89.9519 4.34814Z" fill="#1B3F6D"/>
<path d="M75.3296 75.2174L72.2278 100L49.1858 82.5244L10.1058 75.2174L0 59.1304L5.31738 43.0435L17.7246 32.6087V17.8261L38.1079 11.3043L49.1858 0L69.5691 1.30435L81.5332 11.3043L79.3176 25.2174L64.6948 26.5217L53.617 17.8261L51.8445 25.2174L36.7786 38.6957L39.4373 47.8261V64.7826L49.1858 60.8696L62.0362 59.1304L75.3296 75.2174Z" fill="#9A95A0"/>
<path d="M64.2512 33.913L49.1853 39.5652L64.2512 53.9131L78.874 56.9565L88.6226 66.087L102.359 68.6957L107.677 60L96.1555 47.3913L111.221 36.5217L120.084 45.6522L122.573 81.8846L145.067 83.484L138.251 68.6957L128.441 64.2922L138.251 44.3478L131.605 27.8261L120.084 10L102.359 11.3043V23.0435L96.1555 33.913H78.874L88.6226 42.6087V47.3913H76.6584L73.5566 38.2609L64.2512 33.913Z" fill="#9A95A0"/>
</svg>
