<svg width="227" height="157" viewBox="0 0 227 157" fill="none" xmlns="http://www.w3.org/2000/svg">
<path d="M137.966 6.79688H112.82L65.2447 34.6621L44.8555 55.731L53.0112 100.587L110.781 155.638L162.5 147.5L171.5 127.5L222.242 130L226.999 86.9945L222.242 65.246L213.406 40.0993L194.376 31.9436L157.676 18.3508L137.966 6.79688Z" fill="#323D34"/>
<path d="M115.539 117.578L110.781 156.317L75.4401 129L15.5 117.578L0 92.4311L8.15569 67.2844L27.1856 50.9731V27.8653L58.4491 17.6707L75.4401 0L106.704 2.03892L125.054 17.6707L121.656 39.4192L99.2275 41.4581L82.2365 27.8653L79.518 39.4192L56.4102 60.488L60.488 74.7605V101.266L75.4401 95.1497L95.1497 92.4311L115.539 117.578Z" fill="#ABB1AC"/>
<path d="M98.5472 53.0121L75.4395 61.8474L98.5472 84.2756L120.975 89.033L135.927 103.305L156.996 107.383L165.152 93.7905L147.481 74.0809L170.589 57.0899L184.182 71.3624L188 128L222.5 130.5L212.047 107.383L197 100.5L212.047 69.3235L201.853 43.4971L184.182 15.6318L156.996 17.6708V36.0211L147.481 53.0121H120.975L135.927 66.6049V74.0809H117.577L112.82 59.8085L98.5472 53.0121Z" fill="#ABB1AC"/>
</svg>
