<svg width="157" height="102" viewBox="0 0 157 102" fill="none" xmlns="http://www.w3.org/2000/svg">
<path d="M112.743 27L135.698 38.4839L141.5 43L157 62L146 85L112.743 95.493L82 100.415L104.955 67.6036L112.743 27Z" fill="#5C6017"/>
<path d="M90.5596 4.43506H74.0536L42.8259 22.6177L29.4426 36.3655L34.7959 65.6351L72.7152 101.557L106.663 96.2465L112.571 83.1961L145.877 84.8274L149 56.7655L145.877 42.5742L140.078 26.1655L127.587 20.8438L103.497 11.9742L90.5596 4.43506Z" fill="#323D34"/>
<path d="M75.8386 76.7217L72.7158 102L49.5181 84.1749L10.174 76.7217L0 60.313L5.35331 43.9044L17.8444 33.2609V18.1826L38.3654 11.5304L49.5181 0L70.0392 1.33043L82.0841 11.5304L79.8536 25.7217L65.132 27.0522L53.9792 18.1826L52.1948 25.7217L37.0271 39.4696L39.7037 48.7826V66.0783L49.5181 62.087L62.4553 60.313L75.8386 76.7217Z" fill="#ABB1AC"/>
<path d="M64.6855 34.5914L49.5178 40.3566L64.6855 54.9914L79.4072 58.0957L89.2216 67.4088L103.051 70.0696L108.404 61.2001L96.8054 48.3392L111.973 37.2523L120.895 46.5653L123.401 83.5224L146.047 85.1537L139.186 70.0696L129.309 65.5781L139.186 45.2349L132.494 28.3827L120.895 10.2001L103.051 11.5305V23.5044L96.8054 34.5914H79.4072L89.2216 43.4609V48.3392H77.1766L74.0538 39.0262L64.6855 34.5914Z" fill="#ABB1AC"/>
</svg>
