<svg width="263" height="312" viewBox="0 0 263 312" fill="none" xmlns="http://www.w3.org/2000/svg">
<path d="M262.492 247.278L104.715 310.955V192.445L262.492 247.278Z" fill="#5C6017"/>
<path d="M104.006 31.1318V311.311L0 250.731L104.006 31.1318Z" fill="#97CB6F"/>
<path d="M104.006 31.1318V311.311L208.719 250.731L104.006 31.1318Z" fill="#5C8A2E"/>
<mask id="mask0" mask-type="alpha" maskUnits="userSpaceOnUse" x="0" y="31" width="105" height="281">
<path d="M104.713 31.1318L104.006 311.311L0 250.731L104.713 31.1318Z" fill="#97CB6F"/>
</mask>
<g mask="url(#mask0)">
<g filter="url(#filter0_d)">
<path d="M103.77 0.000976562V131.875L54.0469 103.362L103.77 0.000976562Z" fill="#97CB6F"/>
</g>
</g>
<mask id="mask1" mask-type="alpha" maskUnits="userSpaceOnUse" x="104" y="31" width="105" height="281">
<path d="M104.006 31.1318V311.311L208.719 250.731L104.006 31.1318Z" fill="#5C8A2E"/>
</mask>
<g mask="url(#mask1)">
<g filter="url(#filter1_d)">
<path d="M103.769 0.000976562V131.875L153.492 103.362L103.769 0.000976562Z" fill="#5C8A2E"/>
</g>
</g>
<path d="M103.77 0V131.874L54.0469 103.361L103.77 0Z" fill="#97CB6F"/>
<path d="M103.769 0V131.874L153.492 103.361L103.769 0Z" fill="#5C8A2E"/>
<defs>
<filter id="filter0_d" x="47.0469" y="0.000976562" width="63.7231" height="145.874" filterUnits="userSpaceOnUse" color-interpolation-filters="sRGB">
<feFlood flood-opacity="0" result="BackgroundImageFix"/>
<feColorMatrix in="SourceAlpha" type="matrix" values="0 0 0 0 0 0 0 0 0 0 0 0 0 0 0 0 0 0 127 0"/>
<feOffset dy="7"/>
<feGaussianBlur stdDeviation="3.5"/>
<feColorMatrix type="matrix" values="0 0 0 0 0.435294 0 0 0 0 0.623529 0 0 0 0 0.262745 0 0 0 1 0"/>
<feBlend mode="normal" in2="BackgroundImageFix" result="effect1_dropShadow"/>
<feBlend mode="normal" in="SourceGraphic" in2="effect1_dropShadow" result="shape"/>
</filter>
<filter id="filter1_d" x="96.7695" y="0.000976562" width="63.7231" height="145.874" filterUnits="userSpaceOnUse" color-interpolation-filters="sRGB">
<feFlood flood-opacity="0" result="BackgroundImageFix"/>
<feColorMatrix in="SourceAlpha" type="matrix" values="0 0 0 0 0 0 0 0 0 0 0 0 0 0 0 0 0 0 127 0"/>
<feOffset dy="7"/>
<feGaussianBlur stdDeviation="3.5"/>
<feColorMatrix type="matrix" values="0 0 0 0 0.25098 0 0 0 0 0.376471 0 0 0 0 0.101961 0 0 0 1 0"/>
<feBlend mode="normal" in2="BackgroundImageFix" result="effect1_dropShadow"/>
<feBlend mode="normal" in="SourceGraphic" in2="effect1_dropShadow" result="shape"/>
</filter>
</defs>
</svg>
