<svg width="197" height="198" viewBox="0 0 197 198" fill="none" xmlns="http://www.w3.org/2000/svg">
<path d="M197 147.46L80.9802 198V103.94L197 147.46Z" fill="#5C6017"/>
<path d="M80.8769 10.7991L81.4271 197.72L0 150.3L80.8769 10.7991Z" fill="#80B93C"/>
<path d="M80.8752 10.7999V197.721L162.302 150.3L80.8752 10.7999Z" fill="#3B5A12"/>
<mask id="mask0" mask-type="alpha" maskUnits="userSpaceOnUse" x="0" y="10" width="81" height="188">
<path d="M80.8769 10.7991V197.72L0 150.576L80.8769 10.7991Z" fill="#80B93C"/>
</mask>
<g mask="url(#mask0)">
<g filter="url(#filter0_d)">
<path d="M80.6945 -24.093V79.1366L42.0288 56.8166L80.6945 -24.093Z" fill="#97CB6F"/>
</g>
</g>
<mask id="mask1" mask-type="alpha" maskUnits="userSpaceOnUse" x="80" y="10" width="83" height="188">
<path d="M80.8752 10.7991V197.72L162.302 150.299L80.8752 10.7991Z" fill="#354F13"/>
</mask>
<g mask="url(#mask1)">
<g filter="url(#filter1_d)">
<path d="M80.6909 -24.093V79.1366L119.357 56.8166L80.6909 -24.093Z" fill="#5C8A2E"/>
</g>
</g>
<path d="M80.695 0V79.1377L42.0293 56.8178L80.695 0Z" fill="#80B93C"/>
<path d="M80.6946 0V79.1376L119.36 56.8176L80.6946 0Z" fill="#3B5A12"/>
<defs>
<filter id="filter0_d" x="35.0288" y="-24.093" width="52.6657" height="117.23" filterUnits="userSpaceOnUse" color-interpolation-filters="sRGB">
<feFlood flood-opacity="0" result="BackgroundImageFix"/>
<feColorMatrix in="SourceAlpha" type="matrix" values="0 0 0 0 0 0 0 0 0 0 0 0 0 0 0 0 0 0 127 0" result="hardAlpha"/>
<feOffset dy="7"/>
<feGaussianBlur stdDeviation="3.5"/>
<feColorMatrix type="matrix" values="0 0 0 0 0.435294 0 0 0 0 0.623529 0 0 0 0 0.262745 0 0 0 1 0"/>
<feBlend mode="normal" in2="BackgroundImageFix" result="effect1_dropShadow"/>
<feBlend mode="normal" in="SourceGraphic" in2="effect1_dropShadow" result="shape"/>
</filter>
<filter id="filter1_d" x="73.6909" y="-24.093" width="52.6657" height="117.23" filterUnits="userSpaceOnUse" color-interpolation-filters="sRGB">
<feFlood flood-opacity="0" result="BackgroundImageFix"/>
<feColorMatrix in="SourceAlpha" type="matrix" values="0 0 0 0 0 0 0 0 0 0 0 0 0 0 0 0 0 0 127 0" result="hardAlpha"/>
<feOffset dy="7"/>
<feGaussianBlur stdDeviation="3.5"/>
<feColorMatrix type="matrix" values="0 0 0 0 0.164706 0 0 0 0 0.247059 0 0 0 0 0.0470588 0 0 0 1 0"/>
<feBlend mode="normal" in2="BackgroundImageFix" result="effect1_dropShadow"/>
<feBlend mode="normal" in="SourceGraphic" in2="effect1_dropShadow" result="shape"/>
</filter>
</defs>
</svg>
