<svg width="223" height="168" viewBox="0 0 223 168" fill="none" xmlns="http://www.w3.org/2000/svg">
<path d="M165.504 77L193.504 91L197.504 109L222.004 135L200.004 158.5L165.504 160.5L128.004 166.5L156.004 126.5L165.504 77Z" fill="#5C6017"/>
<path d="M124.465 66.4922V110.855L144.977 116.355L161.171 104.622L175.925 99.856V77.4913L166.569 52.9268L124.465 66.4922Z" fill="#784C00"/>
<path d="M206.642 128.07L161.563 125.185L159.039 139.61L165.17 144.658V160.526L202.675 150.789L206.642 139.61V128.07Z" fill="#784C00"/>
<path d="M52.293 113.283V86.2363L63.4724 94.8914L59.8662 139.609L52.293 113.283Z" fill="#784C00"/>
<path d="M19.593 83.5811L0.00390625 103.989L19.593 132.931L61.3107 139.61L53.6927 112.894V75.418H40.996L30.4759 85.8074L19.593 83.5811Z" fill="#D4AE61"/>
<path d="M60.2282 136.724V149.707L66.3589 155.838H98.4547L127.666 167.017L143.894 157.641L165.171 160.886V144.689L159.401 139.249L161.925 125.184L207.004 128.43V121.939L187.89 112.562L175.99 99.9404L161.204 104.629L145.697 115.808L124.42 110.759V66.7626L166.974 53.4193L149.303 40.0761L122.617 29.9785L69.2439 59.55L53.0156 75.7783V86.5971L63.4738 95.2522L60.2282 136.724Z" fill="#D4AE61"/>
<path d="M60.6369 48.3953L65.8572 34.0215L72.9514 43.003L81.8583 69.281L75.1484 70.3851L60.6369 48.3953Z" fill="#08C8C7"/>
<path d="M72.9536 43.004L65.8594 34.0225L80.1858 39.9371L86.5563 60.0229L86.1619 65.6978L81.8605 69.282L72.9536 43.004Z" fill="#0092BD"/>
<path d="M61.6921 47.9961L66.2046 35.1311L63.7966 46.9236L61.6921 47.9961Z" fill="#F8EEE1"/>
<path d="M62.3726 49.6608L72.6854 65.0305L64.3333 49.7232L62.3726 49.6608Z" fill="#F8EEE1"/>
<path d="M165.238 22.4478L180.493 21.3809L175.167 31.5112L154.771 50.3223L151.037 44.6391L165.238 22.4478Z" fill="#08C8C7"/>
<path d="M166.346 22.948L179.947 22.01L168.163 24.4575L166.346 22.948Z" fill="#F8EEE1"/>
<path d="M165.086 24.2292L155.042 39.7757L165.804 26.055L165.086 24.2292Z" fill="#F8EEE1"/>
<path d="M175.384 31.3999L180.711 21.2695L181.124 36.7634L165.356 50.742L160.01 52.6861L154.988 50.211L175.384 31.3999Z" fill="#0092BD"/>
<path d="M182.442 113.792L187.627 105.904L196.558 112.645L194.298 122.564L182.39 125.46L182.442 113.792Z" fill="#0092BD"/>
<path d="M180.523 103.977L174.986 106.466L175.533 116.617L182.391 125.461L182.444 113.794L187.628 105.906L180.523 103.977Z" fill="#08C8C7"/>
<path d="M175.773 106.567L180.906 104.431L178.895 105.892L176.884 107.352L175.773 106.567Z" fill="#F8EEE1"/>
<path d="M175.63 107.299L175.852 114.769L176.923 108.012L175.63 107.299Z" fill="#F8EEE1"/>
<path d="M51.4492 85.7447L53.3746 62.6396L66.4675 73.0369L88.4174 108.08L79.5604 112.316L51.4492 85.7447Z" fill="#08C8C7"/>
<path d="M66.4679 73.0369L53.375 62.6396L75.3248 65.7203L91.4984 92.6763L93.0387 101.148L88.4177 108.08L66.4679 73.0369Z" fill="#0092BD"/>
<path d="M52.4563 81.8235L53.7099 62.3347L54.9449 79.531L52.4563 81.8235Z" fill="#F8EEE1"/>
<path d="M53.8082 85.8889L79.819 110.544L57.1058 85.3797L53.8082 85.8889Z" fill="#F8EEE1"/>
<path d="M79.66 20.6915L91.6657 0.856782L98.7643 15.9941L102.828 57.1435L93.0111 56.9958L79.66 20.6915Z" fill="#08C8C7"/>
<path d="M98.7626 15.9937L91.6641 0.856445L109.95 13.3826L112.439 44.7197L110.049 52.992L102.826 57.1432L98.7626 15.9937Z" fill="#0092BD"/>
<path d="M81.8169 19.531L91.3455 2.48416L85.0503 18.5344L81.8169 19.531Z" fill="#F8EEE1"/>
<path d="M81.8276 22.6989L94.6763 56.1558L85.0227 23.6602L81.8276 22.6989Z" fill="#F8EEE1"/>
<path d="M8.07994 78.5232L15.5904 66.1151L20.0311 75.5846L21.9598 95.1163L15.8188 95.0239L8.07994 78.5232Z" fill="#08C8C7"/>
<path d="M20.0305 75.5838L15.5898 66.1143L27.0292 73.9503L28.1677 89.7032L26.6723 92.5191L22.1539 95.116L20.0305 75.5838Z" fill="#0092BD"/>
<path d="M8.9672 78.0998L15.2533 67.9031L10.9748 77.5739L8.9672 78.0998Z" fill="#F8EEE1"/>
<path d="M9.29528 79.0974L16.4851 93.6842L10.9955 79.3803L9.29528 79.0974Z" fill="#F8EEE1"/>
<path d="M100.57 126.692L102.496 113.6L113.278 117.836L114.818 132.084L104.806 142.096L100.57 126.692Z" fill="#0092BD"/>
<path d="M95.1812 114.755L90.9453 120.916L95.1812 134.009L104.808 142.096L100.572 126.692L102.498 113.6L95.1812 114.755Z" fill="#08C8C7"/>
<path d="M91.5848 121.382L95.6484 115.421L94.2946 118.943L93.4818 122.195L91.5848 121.382Z" fill="#F8EEE1"/>
<path d="M91.529 121.275L95.9193 133.304L93.4804 121.924L91.529 121.275Z" fill="#F8EEE1"/>
<path d="M132.874 44.4947L137.086 30.1396L146.989 36.5594L145.997 52.7471L134.341 62.3951L132.874 44.4947Z" fill="#0092BD"/>
<path d="M129.652 30.2933L124.381 36.5303L126.256 51.8445L134.339 62.3948L132.872 44.4944L137.084 30.1393L129.652 30.2933Z" fill="#08C8C7"/>
<path d="M125.183 36.2671L130.131 30.5485L128.334 33.9695L126.538 37.3905L125.183 36.2671Z" fill="#F8EEE1"/>
<path d="M125.324 37.6588L127.005 51.8132L126.841 38.6729L125.324 37.6588Z" fill="#F8EEE1"/>
</svg>
