<svg width="182" height="137" viewBox="0 0 182 137" fill="none" xmlns="http://www.w3.org/2000/svg">
<path d="M135.68 63.1612L158.635 74.645L161.914 89.41L182 110.737L163.964 130.014L135.68 131.654L104.937 136.576L127.892 103.765L135.68 63.1612Z" fill="#5C6017"/>
<path d="M102.037 54.5423V90.932L118.853 95.4431L132.129 85.8194L144.225 81.9097V63.5645L136.554 43.4149L102.037 54.5423Z" fill="#784C00"/>
<path d="M169.407 105.052L132.451 102.686L130.381 114.518L135.407 118.66V131.675L166.155 123.688L169.407 114.518V105.052Z" fill="#784C00"/>
<path d="M42.8691 92.9235V70.7374L52.0343 77.837L49.0778 114.518L42.8691 92.9235Z" fill="#784C00"/>
<path d="M16.0596 68.5592L0 85.2992L16.0596 109.04L50.2605 114.518L44.0151 92.6039V61.8632H33.6061L24.9815 70.3853L16.0596 68.5592Z" fill="#D4AE61"/>
<path d="M49.373 112.152V122.801L54.399 127.83H80.7118L104.659 137L117.964 129.309L135.407 131.971V118.685L130.677 114.222L132.746 102.686L169.702 105.348V100.023L154.033 92.3321L144.277 81.9786L132.155 85.8242L119.442 94.9944L101.999 90.853V54.7637L136.885 43.8186L122.398 32.8734L100.52 24.5906L56.7642 48.8474L43.46 62.159V71.0335L52.0338 78.133L49.373 112.152Z" fill="#D4AE61"/>
<path d="M49.7053 39.6964L53.984 27.907L59.8014 35.2746L67.1066 56.8296L61.6054 57.7346L49.7053 39.6964Z" fill="#08C8C7"/>
<path d="M59.8017 35.2751L53.9844 27.9076L65.731 32.7603L70.956 49.2358L70.6331 53.8904L67.1068 56.8298L59.8017 35.2751Z" fill="#0092BD"/>
<path d="M50.5721 39.3697L54.2715 28.8172L52.2979 38.4901L50.5721 39.3697Z" fill="#F8EEE1"/>
<path d="M51.1284 40.7351L59.583 53.3432L52.7355 40.7865L51.1284 40.7351Z" fill="#F8EEE1"/>
<path d="M135.463 18.4138L147.969 17.5386L143.602 25.8482L126.881 41.2785L123.82 36.6167L135.463 18.4138Z" fill="#08C8C7"/>
<path d="M136.37 18.8241L147.521 18.0547L137.86 20.0623L136.37 18.8241Z" fill="#F8EEE1"/>
<path d="M135.337 19.8748L127.103 32.6272L135.925 21.3724L135.337 19.8748Z" fill="#F8EEE1"/>
<path d="M143.781 25.7569L148.148 17.4473L148.486 30.1565L135.56 41.6228L131.177 43.2175L127.06 41.1872L143.781 25.7569Z" fill="#0092BD"/>
<path d="M149.568 93.3407L153.818 86.8711L161.141 92.401L159.289 100.537L149.526 102.911L149.568 93.3407Z" fill="#0092BD"/>
<path d="M147.993 85.2901L143.454 87.3312L143.903 95.6574L149.527 102.913L149.569 93.3423L153.819 86.8728L147.993 85.2901Z" fill="#08C8C7"/>
<path d="M144.1 87.414L148.308 85.6623L146.659 86.8602L145.011 88.058L144.1 87.414Z" fill="#F8EEE1"/>
<path d="M143.981 88.0154L144.165 94.1426L145.042 88.6001L143.981 88.0154Z" fill="#F8EEE1"/>
<path d="M42.1758 70.3342L43.7543 51.3817L54.4881 59.9104L72.483 88.655L65.2219 92.1297L42.1758 70.3342Z" fill="#08C8C7"/>
<path d="M54.488 59.9103L43.7542 51.3817L61.7491 53.9087L75.0085 76.02L76.2713 82.9693L72.4829 88.655L54.488 59.9103Z" fill="#0092BD"/>
<path d="M43.0004 67.1184L44.0281 51.1322L45.0406 65.2379L43.0004 67.1184Z" fill="#F8EEE1"/>
<path d="M44.1108 70.4526L65.4349 90.677L46.8142 70.0349L44.1108 70.4526Z" fill="#F8EEE1"/>
<path d="M65.3022 16.9712L75.1432 0.702969L80.9648 13.1202L84.3008 46.8737L76.2524 46.7514L65.3022 16.9712Z" fill="#08C8C7"/>
<path d="M80.9642 13.1198L75.1427 0.702698L90.1362 10.9793L92.1804 36.6836L90.2214 43.4687L84.3002 46.8729L80.9642 13.1198Z" fill="#0092BD"/>
<path d="M67.0716 16.0206L74.8833 2.03806L69.723 15.2035L67.0716 16.0206Z" fill="#F8EEE1"/>
<path d="M67.082 18.6186L77.6157 46.0638L69.7007 19.4075L67.082 18.6186Z" fill="#F8EEE1"/>
<path d="M6.61977 64.41L12.776 54.233L16.4179 62.0009L18.0013 78.0221L12.9664 77.9456L6.61977 64.41Z" fill="#08C8C7"/>
<path d="M16.4181 61.9998L12.7764 54.2321L22.1559 60.6608L23.091 73.582L21.8653 75.8916L18.1612 78.0212L16.4181 61.9998Z" fill="#0092BD"/>
<path d="M7.3476 64.0631L12.501 55.6993L8.99379 63.6319L7.3476 64.0631Z" fill="#F8EEE1"/>
<path d="M7.61726 64.8814L13.5116 76.8472L9.01077 65.1135L7.61726 64.8814Z" fill="#F8EEE1"/>
<path d="M82.446 103.922L84.0245 93.1827L92.8642 96.6573L94.127 108.345L85.9187 116.557L82.446 103.922Z" fill="#0092BD"/>
<path d="M78.0264 94.1303L74.5537 99.1843L78.0264 109.924L85.9189 116.557L82.4462 103.922L84.0247 93.1827L78.0264 94.1303Z" fill="#08C8C7"/>
<path d="M75.0784 99.5665L78.4097 94.6771L77.2999 97.5664L76.6335 100.233L75.0784 99.5665Z" fill="#F8EEE1"/>
<path d="M75.0338 99.4793L78.633 109.346L76.6335 100.011L75.0338 99.4793Z" fill="#F8EEE1"/>
<path d="M108.926 36.497L112.378 24.7224L120.499 29.989L119.687 43.267L110.13 51.1801L108.926 36.497Z" fill="#0092BD"/>
<path d="M106.286 24.8488L101.965 29.9644L103.503 42.5262L110.131 51.1806L108.927 36.4976L112.379 24.723L106.286 24.8488Z" fill="#08C8C7"/>
<path d="M102.622 29.7488L106.678 25.0581L105.205 27.8642L103.733 30.6703L102.622 29.7488Z" fill="#F8EEE1"/>
<path d="M102.737 30.8901L104.117 42.5006L103.981 31.722L102.737 30.8901Z" fill="#F8EEE1"/>
</svg>
