<svg width="182" height="135" viewBox="0 0 182 135" fill="none" xmlns="http://www.w3.org/2000/svg">
<path d="M135.68 62.239L158.635 73.5552L161.914 88.1046L182 109.12L163.964 128.115L135.68 129.732L104.937 134.582L127.892 102.25L135.68 62.239Z" fill="#175D8B"/>
<path d="M102.037 53.7461V89.6046L118.853 94.0498L132.129 84.5666L144.225 80.714V62.6366L136.554 42.7811L102.037 53.7461Z" fill="#3D467B"/>
<path d="M169.407 103.518L132.451 101.187L130.381 112.846L135.407 116.927V129.753L166.155 121.883L169.407 112.846V103.518Z" fill="#3D467B"/>
<path d="M42.8691 91.567V69.7048L52.0343 76.7007L49.0778 112.846L42.8691 91.567Z" fill="#3D467B"/>
<path d="M16.0596 67.5583L0 84.054L16.0596 107.448L50.2605 112.846L44.0151 91.252V60.9601H33.6061L24.9815 69.3579L16.0596 67.5583Z" fill="#847DA6"/>
<path d="M49.373 110.514V121.008L54.399 125.964H80.7119L104.66 135L117.964 127.421L135.407 130.045V116.952L130.677 112.555L132.746 101.187L169.703 103.81V98.5631L154.033 90.9842L144.277 80.7819L132.155 84.5713L119.442 93.6077L101.999 89.5267V53.9643L136.885 43.1789L122.399 32.3936L100.52 24.2317L56.7642 48.1343L43.46 61.2516V69.9965L52.0338 76.9924L49.373 110.514Z" fill="#847DA6"/>
<path d="M49.7415 39.1426L54.0481 27.4968L59.8273 34.7489L67.0447 55.9953L61.5539 56.905L49.7415 39.1426Z" fill="#62A2C7"/>
<path d="M59.8299 34.7544L54.0486 27.5002L65.7552 32.2542L70.9159 48.4999L70.5785 53.095L67.0499 56.0069L59.8299 34.7544Z" fill="#155A97"/>
<path d="M50.5723 38.7996L54.2736 28.3927L52.2861 37.9279L50.5723 38.7996Z" fill="#F8EEE1"/>
<path d="M51.1283 40.1493L59.5829 52.5556L52.7433 40.1952L51.1283 40.1493Z" fill="#F8EEE1"/>
<path d="M135.463 18.145L147.969 17.2826L143.603 25.4709L126.881 40.676L123.82 36.0822L135.463 18.145Z" fill="#62A2C7"/>
<path d="M136.371 18.5493L147.521 17.7911L137.86 19.7694L136.371 18.5493Z" fill="#F8EEE1"/>
<path d="M135.337 19.5846L127.103 32.1509L135.925 21.0604L135.337 19.5846Z" fill="#F8EEE1"/>
<path d="M143.781 25.381L148.148 17.1926L148.486 29.7163L135.56 41.0152L131.177 42.5867L127.06 40.586L143.781 25.381Z" fill="#155A97"/>
<path d="M149.591 91.9941L153.854 85.5983L161.139 91.0262L159.261 99.0571L149.513 101.433L149.591 91.9941Z" fill="#155A97"/>
<path d="M148.021 84.0358L143.485 86.0649L143.902 94.2748L149.485 101.41L149.562 91.9715L153.826 85.576L148.021 84.0358Z" fill="#62A2C7"/>
<path d="M144.1 86.1429L148.309 84.4075L146.658 85.5899L145.007 86.7723L144.1 86.1429Z" fill="#F8EEE1"/>
<path d="M143.993 86.7304L144.153 92.7683L145.047 87.303L143.993 86.7304Z" fill="#F8EEE1"/>
<path d="M42.1758 69.3076L43.7543 50.6317L54.4881 59.0358L72.483 87.3609L65.2219 90.7848L42.1758 69.3076Z" fill="#62A2C7"/>
<path d="M54.4879 59.0358L43.7542 50.6317L61.749 53.1218L75.0084 74.9103L76.2712 81.7581L72.4828 87.3609L54.4879 59.0358Z" fill="#155A97"/>
<path d="M42.9914 66.1427L44.0288 50.3881L45.0326 64.2883L42.9914 66.1427Z" fill="#F8EEE1"/>
<path d="M44.1108 69.4243L65.4349 89.3534L46.8142 69.0127L44.1108 69.4243Z" fill="#F8EEE1"/>
<path d="M65.3544 16.7631L75.2356 0.688268L81.0023 12.9119L84.2117 46.1821L76.1783 46.0893L65.3544 16.7631Z" fill="#62A2C7"/>
<path d="M81.0061 12.9195L75.2375 0.692505L90.1721 10.7766L92.1214 36.1219L90.1411 42.8208L84.2165 46.1988L81.0061 12.9195Z" fill="#155A97"/>
<path d="M67.0717 15.7944L74.8855 2.00185L69.7099 14.9808L67.0717 15.7944Z" fill="#F8EEE1"/>
<path d="M67.0821 18.3631L77.6157 45.3751L69.7233 19.1318L67.0821 18.3631Z" fill="#F8EEE1"/>
<path d="M6.64255 63.4951L12.8244 53.4385L16.4321 61.0857L17.9556 76.8784L12.9298 76.8203L6.64255 63.4951Z" fill="#62A2C7"/>
<path d="M16.4354 61.0903L12.8262 53.4403L22.1703 59.7496L23.058 72.4926L21.8257 74.7751L18.1188 76.8886L16.4354 61.0903Z" fill="#155A97"/>
<path d="M7.34766 63.1325L12.5023 54.882L8.98631 62.7023L7.34766 63.1325Z" fill="#F8EEE1"/>
<path d="M7.61752 63.943L13.5119 75.7168L9.02067 64.1672L7.61752 63.943Z" fill="#F8EEE1"/>
<path d="M82.446 102.405L84.0246 91.8225L92.8642 95.2464L94.127 106.763L85.9188 114.856L82.446 102.405Z" fill="#155A97"/>
<path d="M78.0264 92.7563L74.5537 97.7365L78.0264 108.319L85.9189 114.856L82.4462 102.405L84.0247 91.8225L78.0264 92.7563Z" fill="#62A2C7"/>
<path d="M75.0784 98.1132L78.4097 93.2952L77.2999 96.1423L76.6335 98.7703L75.0784 98.1132Z" fill="#F8EEE1"/>
<path d="M75.0338 98.0271L78.633 107.749L76.6335 98.5513L75.0338 98.0271Z" fill="#F8EEE1"/>
<path d="M108.95 35.9747L112.417 24.3586L120.498 29.5346L119.659 42.6276L110.118 50.4489L108.95 35.9747Z" fill="#155A97"/>
<path d="M106.315 24.4803L101.997 29.5327L103.502 41.9145L110.088 50.4335L108.92 35.9597L112.387 24.3438L106.315 24.4803Z" fill="#62A2C7"/>
<path d="M102.623 29.3174L106.679 24.6901L105.204 27.4564L103.729 30.2227L102.623 29.3174Z" fill="#F8EEE1"/>
<path d="M102.754 30.4393L104.1 41.8803L103.989 31.2568L102.754 30.4393Z" fill="#F8EEE1"/>
</svg>
