<svg width="335" height="295" viewBox="0 0 335 295" fill="none" xmlns="http://www.w3.org/2000/svg">
<rect x="73" y="134" width="247" height="127" rx="40" fill="#F9EDDD"/>
<g filter="url(#filter0_i)">
<path d="M113 139.65C90.9086 139.65 73 157.559 73 179.65V226.65C73 245.748 89 261.5 102.5 267C102.5 267 108.116 269.701 109.5 270.5L126.218 278.5C166 298 226.521 300.59 264.786 278.5L284.5 269.5C285.5 269 286.5 268.5 287.5 268C303 263 320 246.733 320 226.65V179.65C320 157.559 302.091 139.65 280 139.65H113Z" fill="#F9EDDD"/>
</g>
<circle cx="113.561" cy="237.561" r="7.1759" transform="rotate(-3.16457 113.561 237.561)" fill="#784C00"/>
<circle cx="160.073" cy="248.319" r="7.1759" transform="rotate(-3.16457 160.073 248.319)" fill="#784C00"/>
<path d="M140.387 255.822C134.841 257.683 129.54 255.694 125.918 253.142C122.296 250.589 119.236 255.721 124.677 259.552C130.117 263.382 134.946 263.756 140.76 262.252C146.574 260.749 145.933 253.961 140.387 255.822Z" fill="#784C00"/>
<path d="M270.5 276C275.065 269.59 273.723 243.253 271 202.5V201L288 194.5C290.783 233.507 293.271 262.88 288 267.5L270.5 276Z" fill="#784C00"/>
<rect width="179.519" height="179.519" rx="70" transform="matrix(0.866044 -0.499967 0.866044 0.499967 0 163.025)" fill="#D78100"/>
<path d="M331.5 139.771C337 170.271 311.857 197.032 220.5 215.271L256 183.271L331.5 139.771Z" fill="#D78100"/>
<path d="M171 158.272C171 130.657 193.386 108.272 221 108.272C248.614 108.272 271 130.657 271 158.272C271 185.886 248.614 184.772 221 184.772C193.386 184.772 171 185.886 171 158.272Z" fill="#C4C4C4"/>
<mask id="mask0" mask-type="alpha" maskUnits="userSpaceOnUse" x="65" y="0" width="270" height="208">
<path fill-rule="evenodd" clip-rule="evenodd" d="M282 32.7714C183.032 -20.5935 65 7.27168 65 7.27168V110.271L70.3941 110.432C63.6342 134.828 75.5268 161.576 109.272 183.272C160.965 213.114 227.5 215.271 288 188.771C322.707 173.569 337.392 145.268 333.846 118.267L334 118.271C334 118.271 333 60.2714 282 32.7714Z" fill="#1A65FF"/>
</mask>
<g mask="url(#mask0)">
<path d="M333.498 131.771C333.498 204.83 275.319 262.177 202.261 262.177C129.202 262.177 69.9766 202.951 69.9766 129.892C69.9766 56.8338 100.498 26.0414 192.998 17.2708C285.498 8.50031 333.498 58.7126 333.498 131.771Z" fill="#F4A300"/>
<path d="M441.537 221.294C424.308 292.292 354.247 334.301 283.248 317.073C212.25 299.844 168.662 228.322 185.891 157.324C203.119 86.3258 250.442 67.3875 332.001 76.8898C413.56 86.392 458.766 150.296 441.537 221.294Z" fill="#784C00"/>
</g>
<ellipse rx="46.857" ry="46.857" transform="matrix(-0.656257 0.754537 -0.656257 -0.754537 126.5 129.982)" fill="#323D34"/>
<ellipse rx="35.666" ry="35.666" transform="matrix(-0.648239 0.761437 -0.648239 -0.761437 120.76 133.161)" fill="#E7DED1"/>
<path d="M292.498 39.2717C234.998 9.77178 179.998 32.2715 149.998 59.7724C149.998 59.7724 142.293 67.1706 145.499 70.2724C147.885 72.5806 153.998 69.2715 153.998 69.2715C176.497 41.7705 233.998 18.7715 292.498 39.2717Z" fill="#D78100"/>
<defs>
<filter id="filter0_i" x="73" y="139.65" width="247" height="154.461" filterUnits="userSpaceOnUse" color-interpolation-filters="sRGB">
<feFlood flood-opacity="0" result="BackgroundImageFix"/>
<feBlend mode="normal" in="SourceGraphic" in2="BackgroundImageFix" result="shape"/>
<feColorMatrix in="SourceAlpha" type="matrix" values="0 0 0 0 0 0 0 0 0 0 0 0 0 0 0 0 0 0 127 0" result="hardAlpha"/>
<feOffset dx="-96" dy="50"/>
<feComposite in2="hardAlpha" operator="arithmetic" k2="-1" k3="1"/>
<feColorMatrix type="matrix" values="0 0 0 0 0.694118 0 0 0 0 0.623529 0 0 0 0 0.482353 0 0 0 1 0"/>
<feBlend mode="normal" in2="shape" result="effect1_innerShadow"/>
</filter>
</defs>
</svg>
