<svg width="321" height="283" viewBox="0 0 321 283" fill="none" xmlns="http://www.w3.org/2000/svg">
<rect x="8" y="121.992" width="247" height="127" rx="40" fill="#F9EFE2"/>
<g filter="url(#filter0_i)">
<path d="M48 82.992C25.9086 82.992 8 73.2503 8 95.3417L8 214.641C8 233.739 24 249.491 37.5 254.991C37.5 254.991 43.1157 257.692 44.5 258.491L61.2184 266.491C101 285.991 161.521 288.581 199.786 266.491L219.5 257.491C220.5 256.991 221.5 256.491 222.5 255.991C237.5 249.991 255 234.724 255 214.641V167.642C255 145.55 237.091 127.642 215 127.642L48 82.992Z" fill="#F9EFE2"/>
</g>
<path d="M165.5 278.988C170.065 272.578 167.723 242.245 165 201.491L182 196.491C184.783 235.499 187.771 270.368 182.5 274.988L165.5 278.988Z" fill="#784C00"/>
<rect width="179.519" height="179.519" rx="70" transform="matrix(0.866044 -0.499967 0.866044 0.499967 10 110.745)" fill="#D78100"/>
<path d="M266.5 127.763C272 158.263 246.857 185.023 155.5 203.263C73.5 211.991 -7.00043 167.491 4.49978 121.992C16 76.4928 266.5 127.763 266.5 127.763Z" fill="#D78100"/>
<path d="M106 146.263C106 118.649 128.386 96.2628 156 96.2628C183.614 96.2628 206 118.649 206 146.263C206 173.877 183.614 172.763 156 172.763C128.386 172.763 106 173.877 106 146.263Z" fill="#C4C4C4"/>
<mask id="mask0" mask-type="alpha" maskUnits="userSpaceOnUse" x="0" y="0" width="270" height="196">
<path fill-rule="evenodd" clip-rule="evenodd" d="M195 9.98951C124.5 -15.0113 50.5 11.989 27.5 35.4884C4.5 58.9879 1.29619 68.3805 0 98.2628L5.39411 98.4232C-1.36582 122.819 10.5268 149.568 44.2724 171.263C95.9653 201.106 162.5 203.263 223 176.763C257.707 161.561 272.392 133.26 268.846 106.258L269 106.263C269 106.263 265.5 34.9903 195 9.98951Z" fill="#1A65FF"/>
</mask>
<g mask="url(#mask0)">
<path d="M268.498 119.763C268.498 192.821 210.319 250.168 137.261 250.168C64.2022 250.168 4.97656 190.943 4.97656 117.884C4.97656 44.8255 34.4961 13.5358 127.998 5.26252C221.5 -3.01074 268.498 46.7043 268.498 119.763Z" fill="#F4A300"/>
<path d="M376.537 209.285C359.308 280.283 289.247 322.293 218.248 305.064C147.25 287.835 103.662 216.313 120.891 145.315C138.119 74.317 185.442 55.3787 267.001 64.881C348.56 74.3833 393.766 138.287 376.537 209.285Z" fill="#784C00"/>
</g>
<path d="M227.498 27.263C169.998 -2.23701 114.998 20.2627 84.998 47.7636C84.998 47.7636 77.2934 55.1618 80.4995 58.2637C82.8851 60.5718 88.998 57.2627 88.998 57.2627C111.497 29.7617 168.998 6.7627 227.498 27.263Z" fill="#D78100"/>
<defs>
<filter id="filter0_i" x="8" y="80.8525" width="247" height="201.25" filterUnits="userSpaceOnUse" color-interpolation-filters="sRGB">
<feFlood flood-opacity="0" result="BackgroundImageFix"/>
<feBlend mode="normal" in="SourceGraphic" in2="BackgroundImageFix" result="shape"/>
<feColorMatrix in="SourceAlpha" type="matrix" values="0 0 0 0 0 0 0 0 0 0 0 0 0 0 0 0 0 0 127 0" result="hardAlpha"/>
<feOffset dx="-131" dy="50"/>
<feComposite in2="hardAlpha" operator="arithmetic" k2="-1" k3="1"/>
<feColorMatrix type="matrix" values="0 0 0 0 0.694118 0 0 0 0 0.623529 0 0 0 0 0.482353 0 0 0 1 0"/>
<feBlend mode="normal" in2="shape" result="effect1_innerShadow"/>
</filter>
</defs>
</svg>
