<svg width="122" height="119" viewBox="0 0 122 119" fill="none" xmlns="http://www.w3.org/2000/svg">
<rect x="12.3855" y="50.9512" width="102.812" height="53.9762" rx="26.9881" fill="white"/>
<path d="M29.0352 53.3525C19.8398 53.3525 12.3855 60.9639 12.3855 70.3529V90.3284C12.3855 98.445 19.0454 105.14 24.6646 107.477C24.6646 107.477 27.0021 108.625 27.5783 108.965L34.5372 112.365C51.0959 120.653 76.2874 121.754 92.2146 112.365L100.421 108.54C100.837 108.327 101.253 108.115 101.669 107.902C108.121 105.777 115.197 98.8637 115.197 90.3284V70.3529C115.197 60.9639 107.743 53.3525 98.5475 53.3525H29.0352Z" fill="white"/>
<mask id="mask0" mask-type="alpha" maskUnits="userSpaceOnUse" x="12" y="53" width="104" height="66">
<path d="M29.0352 53.3525C19.8398 53.3525 12.3855 60.9639 12.3855 70.3529V90.3284C12.3855 98.445 19.0454 105.14 24.6646 107.477C24.6646 107.477 27.0021 108.625 27.5783 108.965L34.5372 112.365C51.0959 120.653 76.2874 121.754 92.2146 112.365L100.421 108.54C100.837 108.327 101.253 108.115 101.669 107.902C108.121 105.777 115.197 98.8637 115.197 90.3284V70.3529C115.197 60.9639 107.743 53.3525 98.5475 53.3525H29.0352Z" fill="white"/>
</mask>
<g mask="url(#mask0)">
<path d="M115.197 118.953H73.4861C74.6136 116.403 75.0298 114.703 75.2379 112.153V91.7522C75.2379 88.3521 74.6136 86.8646 73.7811 84.527L115.197 67.1016V118.953Z" fill="white"/>
<ellipse rx="2.98711" ry="3.04964" transform="matrix(0.99841 -0.0563632 0.0540686 0.998537 29.2686 94.9656)" fill="white"/>
<ellipse rx="2.9871" ry="3.04963" transform="matrix(0.99841 -0.0563632 0.0540686 0.998537 48.6288 99.5378)" fill="white"/>
<path d="M40.4346 102.727C38.126 103.518 35.9198 102.673 34.412 101.588C32.9043 100.503 31.6308 102.684 33.8954 104.312C36.16 105.94 38.1697 106.099 40.5897 105.46C43.0098 104.821 42.7431 101.936 40.4346 102.727Z" fill="white"/>
</g>
<path d="M94.5933 111.303C96.4933 108.578 95.9347 97.3849 94.8014 80.0644V79.4269L101.877 76.6643C103.036 93.2428 104.072 105.726 101.877 107.69L94.5933 111.303Z" fill="white"/>
<rect width="75.1199" height="75.1199" rx="37.5599" transform="matrix(0.861473 -0.507804 0.861473 0.507804 -18 63.2874)" fill="white"/>
<path d="M119.984 53.4042C122.273 66.367 111.808 77.7403 73.7812 85.4924L88.5578 71.8921L119.984 53.4042Z" fill="white"/>
<path d="M53.1774 61.267C53.1774 49.5307 62.4953 40.0165 73.9894 40.0165C85.4836 40.0165 94.8015 49.5307 94.8015 61.267C94.8015 73.0033 85.4836 72.53 73.9894 72.53C62.4953 72.53 53.1774 73.0033 53.1774 61.267Z" fill="white"/>
<mask id="mask1" mask-type="alpha" maskUnits="userSpaceOnUse" x="9" y="-6" width="113" height="89">
<path fill-rule="evenodd" clip-rule="evenodd" d="M99.3802 7.92816C58.1857 -14.7525 9.05579 -2.90947 9.05579 -2.90947V40.8663L11.301 40.9345C8.48723 51.3031 13.4374 62.6714 27.4837 71.8921C49.0005 84.5754 76.695 85.4923 101.878 74.2295C116.324 67.7685 122.437 55.7404 120.961 44.2644L121.025 44.2663C121.025 44.2663 120.608 19.6159 99.3802 7.92816Z" fill="white"/>
</mask>
<g mask="url(#mask1)">
<path d="M120.816 50.004C120.816 81.0546 96.6001 105.428 66.1901 105.428C35.7801 105.428 11.1279 80.2561 11.1279 49.2055C11.1279 18.155 23.8322 5.06788 62.3346 1.34033C100.837 -2.38722 120.816 18.9535 120.816 50.004Z" fill="white"/>
<path d="M165.785 88.0519C158.614 118.227 129.451 136.081 99.8989 128.759C70.3466 121.436 52.2032 91.039 59.3745 60.8641C66.5458 30.6893 86.2433 22.6403 120.192 26.6789C154.14 30.7174 172.956 57.877 165.785 88.0519Z" fill="white"/>
</g>
<ellipse rx="19.7388" ry="19.7388" transform="matrix(-0.648446 0.761261 -0.648446 -0.761261 34.6544 49.2435)" fill="white"/>
<ellipse rx="15.0278" ry="15.0278" transform="matrix(-0.640384 0.768055 -0.640384 -0.768055 32.2652 50.5949)" fill="white"/>
<path d="M103.751 10.6908C79.8169 -1.84692 56.9236 7.71566 44.4362 19.4038C44.4362 19.4038 41.2292 22.5481 42.5637 23.8664C43.5568 24.8474 46.1012 23.441 46.1012 23.441C55.4662 11.7528 79.4007 1.97804 103.751 10.6908Z" fill="white"/>
<rect x="24.5792" y="52.283" width="79.7818" height="41.0219" rx="20.5109" fill="#F9EFE2"/>
<path d="M37.4994 54.108C30.3638 54.108 24.5792 59.8926 24.5792 67.0283V82.2096C24.5792 88.3782 29.7473 93.4663 34.1078 95.2428C34.1078 95.2428 35.9217 96.1152 36.3688 96.3733L41.7689 98.9575C54.6185 105.256 74.1671 106.093 86.5266 98.9575L92.8944 96.0503C93.2174 95.8888 93.5404 95.7273 93.8634 95.5658C98.87 93.9508 104.361 88.6964 104.361 82.2096V67.0283C104.361 59.8926 98.5765 54.108 91.4409 54.108H37.4994Z" fill="#F9EFE2"/>
<mask id="mask2" mask-type="alpha" maskUnits="userSpaceOnUse" x="24" y="54" width="81" height="50">
<path d="M37.4994 54.108C30.3638 54.108 24.5792 59.8926 24.5792 67.0283V82.2096C24.5792 88.3782 29.7473 93.4663 34.1078 95.2428C34.1078 95.2428 35.9217 96.1152 36.3688 96.3733L41.7689 98.9575C54.6185 105.256 74.1671 106.093 86.5266 98.9575L92.8944 96.0503C93.2174 95.8888 93.5404 95.7273 93.8634 95.5658C98.87 93.9508 104.361 88.6964 104.361 82.2096V67.0283C104.361 59.8926 98.5765 54.108 91.4409 54.108H37.4994Z" fill="#F9EFE2"/>
</mask>
<g mask="url(#mask2)">
<path d="M104.361 103.964H71.9933C72.8682 102.026 73.1912 100.734 73.3527 98.796V83.2917C73.3527 80.7076 72.8682 79.5771 72.2222 77.8005L104.361 64.5573V103.964Z" fill="#B19F7B"/>
<ellipse rx="2.31784" ry="2.31787" transform="matrix(0.998475 -0.0552047 0.0552035 0.998475 37.6805 85.7338)" fill="#10416E"/>
<ellipse rx="2.31784" ry="2.31786" transform="matrix(0.998475 -0.0552046 0.0552035 0.998475 52.704 89.2087)" fill="#10416E"/>
<path d="M46.3453 91.6324C44.5539 92.2335 42.8418 91.5912 41.6718 90.7666C40.5018 89.942 39.5136 91.5998 41.2709 92.837C43.0282 94.0743 44.5878 94.195 46.4657 93.7094C48.3437 93.2238 48.1368 91.0313 46.3453 91.6324Z" fill="#10416E"/>
</g>
<path d="M88.3723 98.15C89.8467 96.0795 89.4133 87.5725 88.5338 74.4089V73.9244L94.0249 71.8249C94.9237 84.4246 95.7275 93.912 94.0249 95.4044L88.3723 98.15Z" fill="#10416E"/>
<rect width="57.9854" height="57.9854" rx="28.9927" transform="matrix(0.866042 -0.499972 0.866042 0.499972 1 61.6583)" fill="#1049BD"/>
<path d="M108.076 54.1472C109.852 63.9989 101.731 72.6426 72.2222 78.5342L83.6888 68.198L108.076 54.1472Z" fill="#1049BD"/>
<path d="M56.2336 60.1228C56.2336 51.2033 63.4643 43.9725 72.3838 43.9725C81.3033 43.9725 88.5339 51.2033 88.5339 60.1228C88.5339 69.0424 81.3033 68.6827 72.3838 68.6827C63.4643 68.6827 56.2336 69.0424 56.2336 60.1228Z" fill="#C4C4C4"/>
<mask id="mask3" mask-type="alpha" maskUnits="userSpaceOnUse" x="21" y="9" width="88" height="67">
<path fill-rule="evenodd" clip-rule="evenodd" d="M92.0869 19.5854C60.12 2.34814 21.9952 11.3488 21.9952 11.3488V44.6184L23.7376 44.6702C21.5541 52.5504 25.3954 61.1903 36.2954 68.198C52.9924 77.8373 74.4833 78.5341 94.025 69.9745C105.235 65.064 109.979 55.9227 108.833 47.2009L108.883 47.2024C108.883 47.2024 108.56 28.4681 92.0869 19.5854Z" fill="#1A65FF"/>
</mask>
<g mask="url(#mask3)">
<path d="M108.722 51.563C108.722 75.1614 89.9296 93.6849 66.3315 93.6849C42.7333 93.6849 23.6033 74.5545 23.6033 50.9561C23.6033 27.3577 33.4618 17.4115 63.3396 14.5786C93.2174 11.7457 108.722 27.9646 108.722 51.563Z" fill="#1A65FF"/>
<path d="M143.617 80.4794C138.052 103.412 115.422 116.982 92.4896 111.417C69.557 105.852 55.4777 82.7496 61.0427 59.8167C66.6076 36.8838 81.8928 30.7666 108.237 33.8359C134.581 36.9052 149.182 57.5465 143.617 80.4794Z" fill="#10416E"/>
</g>
<ellipse rx="15.1351" ry="15.1351" transform="matrix(-0.656253 0.754541 -0.656253 -0.754541 41.8598 50.9851)" fill="#323D34"/>
<ellipse rx="11.5203" ry="11.5203" transform="matrix(-0.648235 0.76144 -0.648235 -0.761441 40.0058 52.0121)" fill="#E7DED1"/>
<path d="M95.4785 21.685C76.9059 12.1563 59.1407 19.4239 49.4505 28.3069C49.4505 28.3069 46.9618 30.6965 47.9974 31.6985C48.768 32.444 50.7425 31.3751 50.7425 31.3751C58.0097 22.4921 76.5828 15.0633 95.4785 21.685Z" fill="#1049BD"/>
</svg>
