<svg width="120" height="119" viewBox="0 0 120 119" fill="none" xmlns="http://www.w3.org/2000/svg">
<rect x="12.1066" y="50.9511" width="101.868" height="53.9762" rx="26.9881" fill="white"/>
<path d="M28.6035 53.3526C19.4925 53.3526 12.1066 60.9639 12.1066 70.3529V90.3284C12.1066 98.445 18.7053 105.14 24.273 107.477C24.273 107.477 26.5891 108.625 27.16 108.965L34.055 112.365C50.4619 120.653 75.4222 121.754 91.2032 112.365L99.3339 108.54C99.7464 108.327 100.159 108.115 100.571 107.902C106.964 105.777 113.975 98.8637 113.975 90.3284V70.3529C113.975 60.9639 106.589 53.3526 97.478 53.3526H28.6035Z" fill="white"/>
<mask id="mask0" mask-type="alpha" maskUnits="userSpaceOnUse" x="12" y="53" width="102" height="66">
<path d="M28.6035 53.3526C19.4925 53.3526 12.1066 60.9639 12.1066 70.3529V90.3284C12.1066 98.445 18.7053 105.14 24.273 107.477C24.273 107.477 26.5891 108.625 27.16 108.965L34.055 112.365C50.4619 120.653 75.4222 121.754 91.2032 112.365L99.3339 108.54C99.7464 108.327 100.159 108.115 100.571 107.902C106.964 105.777 113.975 98.8637 113.975 90.3284V70.3529C113.975 60.9639 106.589 53.3526 97.478 53.3526H28.6035Z" fill="white"/>
</mask>
<g mask="url(#mask0)">
<path d="M113.976 118.953H72.6473C73.7645 116.403 74.1769 114.703 74.3831 112.153V91.7521C74.3831 88.352 73.7645 86.8645 72.9396 84.5269L113.976 67.1016V118.953Z" fill="white"/>
<ellipse rx="2.95979" ry="3.04955" transform="matrix(0.998381 -0.0568834 0.053574 0.998564 28.8349 94.9654)" fill="white"/>
<ellipse rx="2.95978" ry="3.04955" transform="matrix(0.998381 -0.0568834 0.053574 0.998564 48.0172 99.5378)" fill="white"/>
<path d="M39.8985 102.727C37.6111 103.518 35.4251 102.672 33.9312 101.587C32.4373 100.502 31.1755 102.684 33.4193 104.312C35.6631 105.94 37.6544 106.099 40.0523 105.46C42.4501 104.821 42.1859 101.936 39.8985 102.727Z" fill="white"/>
</g>
<path d="M93.5598 111.303C95.4424 108.578 94.8889 97.385 93.766 80.0644V79.4269L100.777 76.6643C101.925 93.2429 102.951 105.726 100.777 107.69L93.5598 111.303Z" fill="white"/>
<rect width="74.6089" height="74.6089" rx="37.3045" transform="matrix(0.859414 -0.511281 0.859414 0.511281 -18 63.2872)" fill="white"/>
<path d="M118.718 53.404C120.987 66.3668 110.617 77.7401 72.9395 85.4922L87.5805 71.8919L118.718 53.404Z" fill="white"/>
<path d="M52.5247 61.267C52.5247 49.5307 61.7571 40.0165 73.1458 40.0165C84.5346 40.0165 93.767 49.5307 93.767 61.267C93.767 73.0033 84.5346 72.5299 73.1458 72.5299C61.7571 72.5299 52.5247 73.0033 52.5247 61.267Z" fill="white"/>
<mask id="mask1" mask-type="alpha" maskUnits="userSpaceOnUse" x="8" y="-6" width="112" height="89">
<path fill-rule="evenodd" clip-rule="evenodd" d="M98.3036 7.92816C57.487 -14.7524 8.80786 -2.90947 8.80786 -2.90947V40.8663L11.0318 40.9344C8.24384 51.3031 13.1486 62.6713 27.0661 71.8921C48.3854 84.5753 75.8258 85.4922 100.777 74.2295C115.091 67.7684 121.148 55.7404 119.685 44.2643L119.75 44.2663C119.75 44.2663 119.337 19.6159 98.3036 7.92816Z" fill="white"/>
</mask>
<g mask="url(#mask1)">
<path d="M119.542 50.0042C119.542 81.0547 95.5479 105.428 65.4169 105.428C35.2859 105.428 10.8599 80.2562 10.8599 49.2057C10.8599 18.1551 23.4476 5.06807 61.5967 1.34052C99.7458 -2.38703 119.542 18.9536 119.542 50.0042Z" fill="white"/>
<path d="M164.099 88.0519C156.993 118.227 128.098 136.081 98.8172 128.759C69.536 121.437 51.559 91.039 58.6646 60.8642C65.7701 30.6893 85.2868 22.6404 118.924 26.6789C152.561 30.7175 171.204 57.8771 164.099 88.0519Z" fill="white"/>
</g>
<ellipse rx="19.6628" ry="19.6628" transform="matrix(-0.644978 0.764201 -0.644978 -0.764201 34.1709 49.2436)" fill="white"/>
<ellipse rx="14.9714" ry="14.9714" transform="matrix(-0.636899 0.770948 -0.636899 -0.770948 31.8044 50.5949)" fill="white"/>
<path d="M102.634 10.6909C78.9201 -1.84685 56.2369 7.71572 43.8641 19.4039C43.8641 19.4039 40.6865 22.5482 42.0088 23.8665C42.9927 24.8474 45.5138 23.4411 45.5138 23.4411C54.7928 11.7529 78.5077 1.9781 102.634 10.6909Z" fill="white"/>
<rect x="23.5792" y="53.1942" width="79.7818" height="41.8855" rx="20.9428" fill="#F9EFE2"/>
<path d="M36.4994 55.0576C29.3638 55.0576 23.5792 60.9639 23.5792 68.2498V83.7508C23.5792 90.0493 28.7473 95.2444 33.1078 97.0584C33.1078 97.0584 34.9217 97.9491 35.3688 98.2127L40.7689 100.851C53.6185 107.282 73.1671 108.137 85.5266 100.851L91.8944 97.8829C92.2174 97.718 92.5404 97.5531 92.8634 97.3882C97.87 95.7391 103.361 90.3742 103.361 83.7508V68.2498C103.361 60.9639 97.5765 55.0576 90.4409 55.0576H36.4994Z" fill="#F9EFE2"/>
<mask id="mask2" mask-type="alpha" maskUnits="userSpaceOnUse" x="23" y="55" width="81" height="51">
<path d="M36.4994 55.0576C29.3638 55.0576 23.5792 60.9639 23.5792 68.2498V83.7508C23.5792 90.0493 28.7473 95.2444 33.1078 97.0584C33.1078 97.0584 34.9217 97.9491 35.3688 98.2127L40.7689 100.851C53.6185 107.282 73.1671 108.137 85.5266 100.851L91.8944 97.8829C92.2174 97.718 92.5404 97.5531 92.8634 97.3882C97.87 95.7391 103.361 90.3742 103.361 83.7508V68.2498C103.361 60.9639 97.5765 55.0576 90.4409 55.0576H36.4994Z" fill="#F9EFE2"/>
</mask>
<g mask="url(#mask2)">
<path d="M103.361 105.963H70.9933C71.8682 103.984 72.1912 102.665 72.3527 100.686V84.8556C72.3527 82.2172 71.8682 81.0629 71.2222 79.2489L103.361 65.7268V105.963Z" fill="#B19F7B"/>
<ellipse rx="2.31799" ry="2.36652" transform="matrix(0.99841 -0.0563632 0.0540686 0.998537 36.6805 87.3493)" fill="#784C00"/>
<ellipse rx="2.31799" ry="2.36651" transform="matrix(0.99841 -0.0563632 0.0540686 0.998537 51.704 90.8973)" fill="#784C00"/>
<path d="M45.3453 93.372C43.5539 93.9857 41.8418 93.3299 40.6718 92.4879C39.5018 91.646 38.5136 93.3387 40.2709 94.602C42.0282 95.8652 43.5878 95.9886 45.4657 95.4927C47.3437 94.9969 47.1368 92.7582 45.3453 93.372Z" fill="#784C00"/>
</g>
<path d="M87.3723 100.027C88.8467 97.9127 88.4133 89.2267 87.5338 75.7859V75.2912L93.0249 73.1475C93.9237 86.0124 94.7275 95.6996 93.0249 97.2234L87.3723 100.027Z" fill="#784C00"/>
<rect width="58.293" height="58.293" rx="29.1465" transform="matrix(0.861473 -0.507804 0.861473 0.507804 0 62.7669)" fill="#D78100"/>
<path d="M107.076 55.0976C108.852 65.1567 100.731 73.9824 71.2222 79.9981L82.6888 69.4442L107.076 55.0976Z" fill="#D78100"/>
<path d="M55.2336 61.1991C55.2336 52.0918 62.4643 44.7088 71.3838 44.7088C80.3033 44.7088 87.5339 52.0918 87.5339 61.1991C87.5339 70.3065 80.3033 69.9392 71.3838 69.9392C62.4643 69.9392 55.2336 70.3065 55.2336 61.1991Z" fill="#C4C4C4"/>
<mask id="mask3" mask-type="alpha" maskUnits="userSpaceOnUse" x="20" y="9" width="88" height="69">
<path fill-rule="evenodd" clip-rule="evenodd" d="M91.0869 19.8083C59.12 2.20812 20.9952 11.3983 20.9952 11.3983V45.3682L22.7376 45.4212C20.5541 53.4672 24.3954 62.289 35.2954 69.4443C51.9923 79.2865 73.4833 79.998 93.025 71.2581C104.235 66.2443 108.979 56.9106 107.833 48.0052L107.883 48.0067C107.883 48.0067 107.56 28.878 91.0869 19.8083Z" fill="#1A65FF"/>
</mask>
<g mask="url(#mask3)">
<path d="M107.722 52.4591C107.722 76.5543 88.9296 95.4677 65.3315 95.4677C41.7333 95.4677 22.6033 75.9347 22.6033 51.8394C22.6033 27.7442 32.4618 17.5886 62.3396 14.6961C92.2174 11.8035 107.722 28.3639 107.722 52.4591Z" fill="#F4A300"/>
<path d="M142.617 81.9842C137.052 105.4 114.422 119.255 91.4896 113.573C68.557 107.891 54.4777 84.3022 60.0427 60.8865C65.6076 37.4709 80.8928 31.2249 107.237 34.3588C133.581 37.4927 148.182 58.5686 142.617 81.9842Z" fill="#784C00"/>
</g>
<ellipse rx="15.3173" ry="15.3173" transform="matrix(-0.648446 0.761261 -0.648446 -0.761261 40.8598 51.869)" fill="#323D34"/>
<ellipse rx="11.6616" ry="11.6615" transform="matrix(-0.640384 0.768055 -0.640384 -0.768055 39.0058 52.9176)" fill="#E7DED1"/>
<path d="M94.4785 21.9521C75.9059 12.2228 58.1407 19.6434 48.4505 28.7134C48.4505 28.7134 45.9618 31.1534 46.9974 32.1764C47.768 32.9376 49.7425 31.8462 49.7425 31.8462C57.0097 22.7762 75.5828 15.191 94.4785 21.9521Z" fill="#D78100"/>
</svg>
