<svg width="335" height="295" viewBox="0 0 335 295" fill="none" xmlns="http://www.w3.org/2000/svg">
<rect width="247" height="127" rx="40" transform="matrix(-1 0 0 1 261.363 134.272)" fill="#F9EDDD"/>
<g filter="url(#filter0_i)">
<path d="M221.363 139.923C243.455 139.923 261.363 157.831 261.363 179.923V226.923C261.363 246.02 245.363 261.772 231.863 267.272C231.863 267.272 226.248 269.973 224.863 270.772L208.145 278.773C168.363 298.272 107.842 300.863 69.5778 278.773L49.8633 269.772C48.8633 269.272 47.8633 268.772 46.8633 268.272C31.3633 263.272 14.3633 247.005 14.3633 226.923V179.923C14.3633 157.831 32.2719 139.923 54.3633 139.923H221.363Z" fill="#F9EDDD"/>
</g>
<circle r="7.1759" transform="matrix(-0.998475 -0.0552041 -0.0552041 0.998475 220.802 237.833)" fill="#323D34"/>
<circle r="7.1759" transform="matrix(-0.998475 -0.0552041 -0.0552041 0.998475 174.29 248.591)" fill="#323D34"/>
<path d="M193.976 256.095C199.523 257.955 204.823 255.967 208.445 253.414C212.068 250.861 215.127 255.994 209.687 259.824C204.246 263.654 199.418 264.028 193.604 262.525C187.79 261.022 188.43 254.234 193.976 256.095Z" fill="#323D34"/>
<path d="M63.8633 276.272C59.2985 269.863 60.6406 243.526 63.3633 202.772V201.272L46.3633 194.772C43.5807 233.78 41.0921 263.152 46.3633 267.772L63.8633 276.272Z" fill="#784C00"/>
<rect width="179.519" height="179.519" rx="70" transform="matrix(-0.866044 -0.499967 -0.866044 0.499967 334.363 163.298)" fill="#D78100"/>
<path d="M2.86328 140.044C-2.63672 170.544 22.506 197.304 113.863 215.544L78.3633 183.544L2.86328 140.044Z" fill="#D78100"/>
<path d="M163.363 158.544C163.363 130.93 140.978 108.544 113.363 108.544C85.749 108.544 63.3633 130.93 63.3633 158.544C63.3633 186.158 85.749 185.045 113.363 185.045C140.978 185.045 163.363 186.158 163.363 158.544Z" fill="#C4C4C4"/>
<mask id="mask0" mask-type="alpha" maskUnits="userSpaceOnUse" x="0" y="0" width="266" height="208">
<path fill-rule="evenodd" clip-rule="evenodd" d="M52.4989 32.7723C151.467 -20.5927 264.134 7.27077 264.134 7.27077L246.634 59.7705C255.71 72.8807 260.93 90.3191 264.736 113.853C269.671 137.384 257.392 162.778 225.092 183.544C173.399 213.387 106.864 215.544 46.3643 189.044C11.5429 173.791 -3.12451 145.354 0.55368 118.272L0.498901 118.272C0.498901 118.272 1.49887 60.2723 52.4989 32.7723Z" fill="#1A65FF"/>
</mask>
<g mask="url(#mask0)">
<path d="M0.865234 132.044C0.865234 205.102 59.0439 262.449 132.103 262.449C205.161 262.449 264.387 203.223 264.387 130.165C264.387 57.1063 233.865 26.3138 141.365 17.5433C48.8652 8.77278 0.865234 58.9851 0.865234 132.044Z" fill="#F4A300"/>
<path d="M394.365 197.928C382.97 270.093 316.558 317.663 244.394 306.267C172.23 294.872 135.997 288.27 137.5 176.27C139.002 64.2703 226.003 46.7707 253.501 74.2696C280.999 101.769 405.761 125.764 394.365 197.928Z" fill="#784C00"/>
</g>
<ellipse rx="46.857" ry="46.857" transform="matrix(0.656257 0.754537 0.656257 -0.754537 207.864 130.255)" fill="#323D34"/>
<ellipse rx="35.666" ry="35.666" transform="matrix(0.648239 0.761437 0.648239 -0.761437 213.604 133.434)" fill="#E7DED1"/>
<path d="M41.861 39.5442C99.361 10.0442 154.361 32.5439 184.361 60.0449C184.361 60.0449 192.066 67.4431 188.86 70.5449C186.474 72.853 180.361 69.5439 180.361 69.5439C157.862 42.043 100.361 19.0439 41.861 39.5442Z" fill="#D78100"/>
<path d="M221 62.7705C234 62.7705 246.5 63.7705 246 59.2705C249.5 63.2705 252 68.2705 255.5 76.7705L221 62.7705Z" fill="#784C00"/>
<defs>
<filter id="filter0_i" x="14.3633" y="139.923" width="247" height="154.461" filterUnits="userSpaceOnUse" color-interpolation-filters="sRGB">
<feFlood flood-opacity="0" result="BackgroundImageFix"/>
<feBlend mode="normal" in="SourceGraphic" in2="BackgroundImageFix" result="shape"/>
<feColorMatrix in="SourceAlpha" type="matrix" values="0 0 0 0 0 0 0 0 0 0 0 0 0 0 0 0 0 0 127 0" result="hardAlpha"/>
<feOffset dx="-122" dy="35"/>
<feComposite in2="hardAlpha" operator="arithmetic" k2="-1" k3="1"/>
<feColorMatrix type="matrix" values="0 0 0 0 0.694118 0 0 0 0 0.623529 0 0 0 0 0.482353 0 0 0 1 0"/>
<feBlend mode="normal" in2="shape" result="effect1_innerShadow"/>
</filter>
</defs>
</svg>
