<svg width="108" height="97" viewBox="0 0 108 97" fill="none" xmlns="http://www.w3.org/2000/svg">
<rect x="23.5792" y="44.1942" width="79.7818" height="41.8855" rx="20.9428" fill="#F9EFE2"/>
<path d="M36.4994 46.0576C29.3638 46.0576 23.5792 51.9639 23.5792 59.2498V74.7508C23.5792 81.0493 28.7473 86.2444 33.1078 88.0584C33.1078 88.0584 34.9217 88.9491 35.3688 89.2127L40.7689 91.8513C53.6185 98.2824 73.1671 99.1367 85.5266 91.8513L91.8944 88.8829C92.2174 88.718 92.5404 88.5531 92.8634 88.3882C97.87 86.7391 103.361 81.3742 103.361 74.7508V59.2498C103.361 51.9639 97.5765 46.0576 90.4409 46.0576H36.4994Z" fill="#F9EFE2"/>
<mask id="mask0" mask-type="alpha" maskUnits="userSpaceOnUse" x="23" y="46" width="81" height="51">
<path d="M36.4994 46.0576C29.3638 46.0576 23.5792 51.9639 23.5792 59.2498V74.7508C23.5792 81.0493 28.7473 86.2444 33.1078 88.0584C33.1078 88.0584 34.9217 88.9491 35.3688 89.2127L40.7689 91.8513C53.6185 98.2824 73.1671 99.1367 85.5266 91.8513L91.8944 88.8829C92.2174 88.718 92.5404 88.5531 92.8634 88.3882C97.87 86.7391 103.361 81.3742 103.361 74.7508V59.2498C103.361 51.9639 97.5765 46.0576 90.4409 46.0576H36.4994Z" fill="#F9EFE2"/>
</mask>
<g mask="url(#mask0)">
<path d="M103.361 96.9633H70.9933C71.8682 94.9845 72.1912 93.6652 72.3527 91.6864V75.8556C72.3527 73.2172 71.8682 72.0629 71.2222 70.2489L103.361 56.7268V96.9633Z" fill="#B19F7B"/>
<ellipse rx="2.31799" ry="2.36652" transform="matrix(0.99841 -0.0563632 0.0540686 0.998537 36.6806 78.3493)" fill="#784C00"/>
<ellipse rx="2.31799" ry="2.36651" transform="matrix(0.99841 -0.0563632 0.0540686 0.998537 51.704 81.8973)" fill="#784C00"/>
<path d="M45.3454 84.372C43.5539 84.9857 41.8419 84.3299 40.6719 83.4879C39.5019 82.646 38.5137 84.3387 40.271 85.602C42.0283 86.8652 43.5878 86.9886 45.4658 86.4927C47.3438 85.9969 47.1368 83.7582 45.3454 84.372Z" fill="#784C00"/>
</g>
<path d="M87.3723 91.0268C88.8467 88.9127 88.4133 80.2267 87.5338 66.7859V66.2912L93.0249 64.1475C93.9237 77.0124 94.7275 86.6996 93.0249 88.2234L87.3723 91.0268Z" fill="#784C00"/>
<rect width="58.293" height="58.293" rx="29.1465" transform="matrix(0.861473 -0.507804 0.861473 0.507804 0 53.7669)" fill="#D78100"/>
<path d="M107.076 46.0976C108.852 56.1567 100.731 64.9824 71.2222 70.9981L82.6888 60.4442L107.076 46.0976Z" fill="#D78100"/>
<path d="M55.2336 52.1991C55.2336 43.0918 62.4643 35.7088 71.3838 35.7088C80.3033 35.7088 87.5339 43.0918 87.5339 52.1991C87.5339 61.3065 80.3033 60.9392 71.3838 60.9392C62.4643 60.9392 55.2336 61.3065 55.2336 52.1991Z" fill="#C4C4C4"/>
<mask id="mask1" mask-type="alpha" maskUnits="userSpaceOnUse" x="20" y="0" width="88" height="69">
<path fill-rule="evenodd" clip-rule="evenodd" d="M91.0869 10.8082C59.12 -6.7919 20.9952 2.39825 20.9952 2.39825V36.3682L22.7376 36.4211C20.5541 44.4672 24.3954 53.289 35.2954 60.4443C51.9923 70.2865 73.4833 70.998 93.025 62.2581C104.235 57.2443 108.979 47.9105 107.833 39.0051L107.883 39.0066C107.883 39.0066 107.56 19.8779 91.0869 10.8082Z" fill="#1A65FF"/>
</mask>
<g mask="url(#mask1)">
<path d="M107.722 43.4591C107.722 67.5543 88.9297 86.4677 65.3316 86.4677C41.7334 86.4677 22.6033 66.9347 22.6033 42.8394C22.6033 18.7442 32.4619 8.58865 62.3397 5.69607C92.2175 2.80349 107.722 19.3639 107.722 43.4591Z" fill="#F4A300"/>
<path d="M142.617 72.9842C137.052 96.3999 114.422 110.255 91.4896 104.573C68.557 98.8907 54.4777 75.3022 60.0427 51.8865C65.6076 28.4709 80.8928 22.2249 107.237 25.3588C133.581 28.4927 148.182 49.5686 142.617 72.9842Z" fill="#784C00"/>
</g>
<ellipse rx="15.3173" ry="15.3173" transform="matrix(-0.648446 0.761261 -0.648446 -0.761261 40.8598 42.869)" fill="#323D34"/>
<ellipse rx="11.6616" ry="11.6615" transform="matrix(-0.640384 0.768055 -0.640384 -0.768055 39.0058 43.9176)" fill="#E7DED1"/>
<path d="M94.4785 12.9521C75.9059 3.22282 58.1407 10.6434 48.4505 19.7134C48.4505 19.7134 45.9618 22.1534 46.9974 23.1764C47.768 23.9376 49.7425 22.8462 49.7425 22.8462C57.0097 13.7762 75.5828 6.19098 94.4785 12.9521Z" fill="#D78100"/>
</svg>
