<svg width="108" height="95" viewBox="0 0 108 95" fill="none" xmlns="http://www.w3.org/2000/svg">
<rect x="23.5792" y="43.283" width="79.7818" height="41.0219" rx="20.5109" fill="#F9EFE2"/>
<path d="M36.4994 45.108C29.3638 45.108 23.5792 50.8926 23.5792 58.0283V73.2096C23.5792 79.3782 28.7473 84.4663 33.1078 86.2428C33.1078 86.2428 34.9217 87.1152 35.3688 87.3733L40.7689 89.9575C53.6185 96.256 73.1671 97.0927 85.5266 89.9575L91.8944 87.0503C92.2174 86.8888 92.5404 86.7273 92.8634 86.5658C97.87 84.9508 103.361 79.6964 103.361 73.2096V58.0283C103.361 50.8926 97.5765 45.108 90.4409 45.108H36.4994Z" fill="#F9EFE2"/>
<mask id="mask0" mask-type="alpha" maskUnits="userSpaceOnUse" x="23" y="45" width="81" height="50">
<path d="M36.4994 45.108C29.3638 45.108 23.5792 50.8926 23.5792 58.0283V73.2096C23.5792 79.3782 28.7473 84.4663 33.1078 86.2428C33.1078 86.2428 34.9217 87.1152 35.3688 87.3733L40.7689 89.9575C53.6185 96.256 73.1671 97.0927 85.5266 89.9575L91.8944 87.0503C92.2174 86.8888 92.5404 86.7273 92.8634 86.5658C97.87 84.9508 103.361 79.6964 103.361 73.2096V58.0283C103.361 50.8926 97.5765 45.108 90.4409 45.108H36.4994Z" fill="#F9EFE2"/>
</mask>
<g mask="url(#mask0)">
<path d="M103.361 94.9641H70.9933C71.8682 93.0261 72.1912 91.734 72.3527 89.796V74.2917C72.3527 71.7076 71.8682 70.5771 71.2222 68.8005L103.361 55.5573V94.9641Z" fill="#B19F7B"/>
<ellipse rx="2.31784" ry="2.31787" transform="matrix(0.998475 -0.0552047 0.0552035 0.998475 36.6806 76.7338)" fill="#10416E"/>
<ellipse rx="2.31784" ry="2.31786" transform="matrix(0.998475 -0.0552046 0.0552035 0.998475 51.704 80.2087)" fill="#10416E"/>
<path d="M45.3454 82.6324C43.5539 83.2335 41.8419 82.5912 40.6719 81.7666C39.5019 80.942 38.5137 82.5998 40.271 83.837C42.0283 85.0743 43.5878 85.195 45.4658 84.7094C47.3438 84.2238 47.1368 82.0313 45.3454 82.6324Z" fill="#10416E"/>
</g>
<path d="M87.3723 89.15C88.8467 87.0795 88.4133 78.5725 87.5338 65.4089V64.9244L93.0249 62.8249C93.9237 75.4246 94.7275 84.912 93.0249 86.4044L87.3723 89.15Z" fill="#10416E"/>
<rect width="57.9854" height="57.9854" rx="28.9927" transform="matrix(0.866042 -0.499972 0.866042 0.499972 0 52.6583)" fill="#1049BD"/>
<path d="M107.076 45.1472C108.852 54.9989 100.731 63.6426 71.2222 69.5342L82.6888 59.198L107.076 45.1472Z" fill="#1049BD"/>
<path d="M55.2336 51.1228C55.2336 42.2033 62.4643 34.9725 71.3838 34.9725C80.3033 34.9725 87.5339 42.2033 87.5339 51.1228C87.5339 60.0424 80.3033 59.6827 71.3838 59.6827C62.4643 59.6827 55.2336 60.0424 55.2336 51.1228Z" fill="#C4C4C4"/>
<mask id="mask1" mask-type="alpha" maskUnits="userSpaceOnUse" x="20" y="0" width="88" height="67">
<path fill-rule="evenodd" clip-rule="evenodd" d="M91.0869 10.5854C59.12 -6.65186 20.9952 2.3488 20.9952 2.3488V35.6184L22.7376 35.6702C20.5541 43.5504 24.3954 52.1903 35.2954 59.198C51.9924 68.8373 73.4833 69.5341 93.025 60.9745C104.235 56.064 108.979 46.9227 107.833 38.2009L107.883 38.2024C107.883 38.2024 107.56 19.4681 91.0869 10.5854Z" fill="#1A65FF"/>
</mask>
<g mask="url(#mask1)">
<path d="M107.722 42.563C107.722 66.1614 88.9297 84.6849 65.3316 84.6849C41.7334 84.6849 22.6033 65.5545 22.6033 41.9561C22.6033 18.3577 32.4619 8.41153 62.3397 5.57859C92.2175 2.74566 107.722 18.9646 107.722 42.563Z" fill="#1A65FF"/>
<path d="M142.617 71.4794C137.052 94.4122 114.422 107.982 91.4896 102.417C68.557 96.8517 54.4777 73.7496 60.0427 50.8167C65.6076 27.8838 80.8928 21.7666 107.237 24.8359C133.581 27.9052 148.182 48.5465 142.617 71.4794Z" fill="#10416E"/>
</g>
<ellipse rx="15.1351" ry="15.1351" transform="matrix(-0.656253 0.754541 -0.656253 -0.754541 40.8598 41.9851)" fill="#323D34"/>
<ellipse rx="11.5203" ry="11.5203" transform="matrix(-0.648235 0.76144 -0.648235 -0.761441 39.0058 43.0121)" fill="#E7DED1"/>
<path d="M94.4785 12.685C75.9059 3.15633 58.1407 10.4239 48.4505 19.3069C48.4505 19.3069 45.9618 21.6965 46.9974 22.6985C47.768 23.444 49.7425 22.3751 49.7425 22.3751C57.0097 13.4921 75.5828 6.0633 94.4785 12.685Z" fill="#1049BD"/>
</svg>
