<svg width="323" height="295" viewBox="0 0 323 295" fill="none" xmlns="http://www.w3.org/2000/svg">
<rect width="247" height="127" rx="40" transform="matrix(-1 0 0 1 316.301 134.272)" fill="#F9EDDD"/>
<g filter="url(#filter0_i)">
<path d="M276.301 139.922C298.392 139.922 316.301 138.409 316.301 160.5V226.922C316.301 246.02 300.301 261.772 286.801 267.272C286.801 267.272 281.185 269.973 279.801 270.772L263.082 278.772C223.301 298.272 162.78 300.862 124.515 278.772L104.801 269.772C103.801 269.272 102.801 268.772 101.801 268.272C86.3008 263.272 69.3008 247.005 69.3008 226.922V179.922C69.3008 157.831 87.2094 139.922 109.301 139.922H276.301Z" fill="#F9EDDD"/>
</g>
<path d="M146.5 288.5C141.844 281.894 141.223 252.004 144 210L126.661 203.301C123.823 243.505 123.124 276.238 128.5 281L146.5 288.5Z" fill="#784C00"/>
<rect width="179.519" height="179.519" rx="70" transform="matrix(-0.866044 -0.499967 -0.866044 0.499967 310.941 129.754)" fill="#D78100"/>
<path d="M56.8019 140.044C51.3019 170.544 76.4446 197.304 167.802 215.544C250.027 229 343.5 173 319.003 120C294.505 66.9999 56.8019 140.044 56.8019 140.044Z" fill="#D78100"/>
<path d="M218.301 158.544C218.301 130.93 195.915 108.544 168.301 108.544C140.687 108.544 118.301 130.93 118.301 158.544C118.301 186.158 140.687 185.045 168.301 185.045C195.915 185.045 218.301 186.158 218.301 158.544Z" fill="#C4C4C4"/>
<mask id="mask0" mask-type="alpha" maskUnits="userSpaceOnUse" x="54" y="0" width="267" height="208">
<path fill-rule="evenodd" clip-rule="evenodd" d="M107.436 32.7723C206.404 -20.5927 319.072 7.27077 319.072 7.27077L301.572 59.7705C310.647 72.8807 315.868 90.3191 319.674 113.853C324.608 137.384 312.329 162.778 280.029 183.544C228.337 213.387 161.802 215.544 101.302 189.044C66.4804 173.791 51.813 145.354 55.4912 118.272L55.4364 118.272C55.4364 118.272 56.4364 60.2723 107.436 32.7723Z" fill="#1A65FF"/>
</mask>
<g mask="url(#mask0)">
<path d="M55.8027 132.044C55.8027 205.102 113.981 262.449 187.04 262.449C260.099 262.449 319.324 203.223 319.324 130.165C319.324 57.1063 288.803 26.3138 196.303 17.5433C103.803 8.77278 55.8027 58.9851 55.8027 132.044Z" fill="#F4A300"/>
<path d="M466.305 196.928C454.91 269.093 388.498 316.663 316.333 305.268C244.169 293.872 207.937 287.27 209.439 175.27C210.942 63.2706 278.531 54.0002 306.027 74.5002C333.524 95.0001 477.7 124.764 466.305 196.928Z" fill="#784C00"/>
</g>
<path d="M96.8024 39.5442C154.302 10.0442 209.302 32.5439 239.303 60.0449C239.303 60.0449 247.007 67.4431 243.801 70.5449C241.416 72.853 235.303 69.5439 235.303 69.5439C212.804 42.043 155.302 19.0439 96.8024 39.5442Z" fill="#D78100"/>
<path d="M276.938 65.7705C289.938 65.7705 303.527 66.5 303.027 62C306.027 66 309.527 74 311.438 79.7705L276.938 65.7705Z" fill="#784C00"/>
<defs>
<filter id="filter0_i" x="69.3008" y="139.9" width="247" height="154.483" filterUnits="userSpaceOnUse" color-interpolation-filters="sRGB">
<feFlood flood-opacity="0" result="BackgroundImageFix"/>
<feBlend mode="normal" in="SourceGraphic" in2="BackgroundImageFix" result="shape"/>
<feColorMatrix in="SourceAlpha" type="matrix" values="0 0 0 0 0 0 0 0 0 0 0 0 0 0 0 0 0 0 127 0" result="hardAlpha"/>
<feOffset dx="-103" dy="35"/>
<feComposite in2="hardAlpha" operator="arithmetic" k2="-1" k3="1"/>
<feColorMatrix type="matrix" values="0 0 0 0 0.694118 0 0 0 0 0.623529 0 0 0 0 0.482353 0 0 0 1 0"/>
<feBlend mode="normal" in2="shape" result="effect1_innerShadow"/>
</filter>
</defs>
</svg>
