<svg width="10" height="14" viewBox="0 0 10 14" fill="none" xmlns="http://www.w3.org/2000/svg">
<path fill-rule="evenodd" clip-rule="evenodd" d="M3.33333 13.3333H2.77778C2.47095 13.3333 2.22222 13.0846 2.22222 12.7778C2.22222 12.471 2.47095 12.2222 2.77778 12.2222V1.11111H1.11111V12.7778C1.11111 13.0846 0.86238 13.3333 0.555556 13.3333C0.248731 13.3333 0 13.0846 0 12.7778V0.555556C0 0.248731 0.248731 0 0.555556 0H3.33333C3.64016 0 3.88889 0.248731 3.88889 0.555556V12.7778C3.88889 13.0846 3.64016 13.3333 3.33333 13.3333ZM10 12.7778V0.555556C10 0.248731 9.75127 0 9.44444 0C9.13762 0 8.88889 0.248731 8.88889 0.555556V12.2222H7.22222V1.11111C7.52905 1.11111 7.77778 0.86238 7.77778 0.555556C7.77778 0.248731 7.52905 0 7.22222 0H6.66667C6.35984 0 6.11111 0.248731 6.11111 0.555556V12.7778C6.11111 13.0846 6.35984 13.3333 6.66667 13.3333H9.44444C9.75127 13.3333 10 13.0846 10 12.7778Z" fill="white"/>
</svg>
