<svg width="30" height="23" viewBox="0 0 30 23" fill="none" xmlns="http://www.w3.org/2000/svg">
<path d="M0.00390625 9.70142C2.75296 10.4979 4.21497 11.3106 6.66849 13.4724V17.5904L0.00390625 13.8194V9.70142Z" fill="#D4AE62"/>
<path d="M21.4609 5.06793L6.66882 13.5268V18.6534L8.13178 17.9428L21.4609 11.1969V5.06793Z" fill="#794E00"/>
<path d="M0.00390625 9.70667L14.7959 1.21158C17.3968 1.90423 18.9016 2.70902 21.4606 5.07397L6.70988 13.5612C4.35604 11.5921 2.86886 10.8026 0.00390625 9.70667Z" fill="#B38300"/>
<path d="M29.0977 9.30017L14.3055 17.5568V22.9609L28.9351 14.4478L29.0977 9.30017Z" fill="#794E00"/>
<path d="M7.64062 14.1548C10.3897 14.9513 11.8517 15.764 14.3052 17.9258V21.8978L7.64062 18.1269V14.1548Z" fill="#D4AE62"/>
<path d="M14.3125 22.9714C11.5634 22.1749 10.1014 21.3623 7.64792 19.2005V15.2284L14.3125 18.9994V22.9714Z" fill="#D4AE62"/>
<path d="M6.66406 18.6961C3.91501 17.8996 2.453 17.0869 -0.000516891 14.9251V10.953L6.66406 14.724V18.6961Z" fill="#D4AE62"/>
<path d="M7.64062 14.1601L22.4326 5.66501C24.9865 6.24678 26.4084 6.89939 29.0973 9.30024L14.3466 18.0147C11.9928 16.0455 10.5056 15.256 7.64062 14.1601Z" fill="#B38300"/>
</svg>
